M48
;Layer_Color=9474304
;FILE_FORMAT=4:4
METRIC,LZ
;TYPE=PLATED
T01F00S00C0.3000
T02F00S00C0.7000
T03F00S00C0.9000
;TYPE=NON_PLATED
T04F00S00C1.3000
T05F00S00C3.2000
%
T01
X00127Y001016
X001524Y001524
X001016
X00127Y002032
X001524Y00254
X001016
X00127Y003048
X001524Y003556
X001016
X0022225Y0025781
X00242062Y0025146
X0026289Y0023749
X00288797Y00235458
X00301797Y00240284
X0030353Y0025273
X00335925Y00235559
X0034798Y0022987
X003556Y00254
X00381Y003048
X003556Y003556
X00381Y002032
X0038227Y0015494
X0036195
X0034036Y0015748
X00315046Y001651
Y0018097
Y0019685
X0029855
X00298547Y0018097
X0029855Y001651
X0028194
Y0018097
Y0019685
X002286Y002032
X00256286Y00155956
X0024511Y0012954
X0024892Y0011684
X0026035Y0012192
X0027432
X0032131Y0012319
X00334153Y00115713
X0034671Y0012319
X0034036Y0009779
X0031115Y0009398
X0031369Y0008001
X0030099Y0004445
X0028702
X0027305Y0006858
X0026035
X0025273Y0008382
X002032Y0007493
Y0005842
X0018542
Y0007493
X0019812Y0012192
X0021209Y0011303
X0037719Y001397
X0041021Y0015748
X0040767Y0017018
X0041021Y0018288
X0043942Y0014605
Y0012446
X0042545Y00130402
X0047371Y0016002
X00473687Y00172649
X0049022Y0016637
X0049911Y0019177
X0050546Y0020701
X0049022
X0045593Y0022098
X00453136Y0023622
X0045593Y0025273
X004064Y00254
X004318Y003048
X004572Y003556
X005588
X006096
X006604
X007112
X00762
X007874Y003048
X007366
X006858
X007112Y00254
X006604
X006096
X005588
X0054483Y0022352
Y0020193
Y001778
Y0015494
X005588Y001524
X006096
X006604
X007112
X00762
X007874Y002032
X007366
X006858
X00635
X005842
Y003048
X005334
Y001016
X005842
X00635
X006858
X007366
X007874
X00762Y000508
X007112
X006604
X006096
X005588
X00508
X004826Y001016
X004064Y000508
X008128
X008636
X009144
X009398Y001016
X009906
X009652Y001524
X009144
X008636
X008128
X008382Y002032
X00889
X009398
X009906
X009652Y00254
X009144
X008636
X008128
X008382Y003048
X008636Y003556
X009144
X009652
X009906Y003048
X009398
X008128Y003556
X008382Y001016
X00889
Y004064
X009398
X009906
X009652Y004572
X009144
X008636
X008128
X008382Y00508
X00889
X009398
X009906
X009652Y005588
X009144
X008636
X008128
Y006604
X008382Y007112
X00889
X009398
X009906
X009652Y006604
X009144
X009398Y006096
X009906
X00889
X009144Y00762
X008636
X008128
X008382Y004064
X00762Y004572
X007112
X006604
X006096
X005588
X005842Y00508
X00635
X006858
X007366
X007874
Y006096
X007366
X006858
X00635
X006604Y006604
X006096
X005588
X005334Y006096
X004826
X004318
X004572Y005588
X004826Y00508
X005334
X005588Y005588
X006604
X007112
X00762Y006604
Y00762
X007112
X006604
X006096
X005588
X00508
X004572
X004064
X004318Y00508
X004572Y004572
X004064
X004318Y004064
X005842
X00381
X003556Y004572
X00381Y00508
X003302
X002794
Y004064
X00127
X001524Y004572
X001016
X00127Y00508
X001524Y005588
X001016
X00127Y006096
X001778
X001524Y006604
X001016
X00127Y007112
X001778
X002032Y00762
X00254
X003048
X003556
X003048Y006604
X00381Y006096
T02
X0031Y0034497
X003252
Y0038317
X0031
X0057
X005852
Y0034497
X0057
X0083
X008452
Y0038317
X0083
Y0060497
X008452
Y0064317
X0083
X005852
X0057
Y0060497
X005852
X003252
X0031
Y0064317
X003252
T03
X008605Y0040907
Y0066907
X007843
X006005
X005243
Y0040907
X006005
X007843
X003405
X002643
Y0066907
X003405
T04
X002389Y0030057
X003659
X004989
X006259
X007589
X008859
Y0042757
Y0056057
Y0068757
X007589
Y0056057
Y0042757
X006259
X004989
Y0056057
X006259
Y0068757
X004989
X003659
Y0056057
X002389
Y0068757
Y0042757
X003659
T05
X0012565Y0006088
X0095385Y0006223
Y0074933
X0012573
M30
