G04*
G04 #@! TF.GenerationSoftware,Altium Limited,Altium Designer,26.5.0 (11)*
G04*
G04 Layer_Physical_Order=1*
G04 Layer_Color=255*
G04 Board_Origin=0|0*
%FSLAX44Y44*%
%MOMM*%
G71*
G04*
G04 #@! TF.SameCoordinates,F89594A8-7EC5-4CD2-83AE-746AC17129C5*
G04*
G04*
G04 #@! TF.FilePolarity,Positive*
G04*
G01*
G75*
%ADD11C,0.2500*%
%ADD13C,0.2540*%
%ADD15R,0.7587X0.8121*%
%ADD16R,1.0587X1.0121*%
%ADD18R,0.6000X1.7000*%
%ADD19R,1.0000X2.7000*%
%ADD20R,1.5082X1.4057*%
%ADD21R,0.8121X0.7587*%
%ADD22R,0.9500X1.0500*%
G04:AMPARAMS|DCode=23|XSize=1.5mm|YSize=0.45mm|CornerRadius=0.0495mm|HoleSize=0mm|Usage=FLASHONLY|Rotation=180.000|XOffset=0mm|YOffset=0mm|HoleType=Round|Shape=RoundedRectangle|*
%AMROUNDEDRECTD23*
21,1,1.5000,0.3510,0,0,180.0*
21,1,1.4010,0.4500,0,0,180.0*
1,1,0.0990,-0.7005,0.1755*
1,1,0.0990,0.7005,0.1755*
1,1,0.0990,0.7005,-0.1755*
1,1,0.0990,-0.7005,-0.1755*
%
%ADD23ROUNDEDRECTD23*%
%ADD24R,1.0500X0.9500*%
%ADD25R,4.3600X4.1100*%
%ADD26O,0.3500X1.7000*%
%ADD27R,0.7000X0.6000*%
%ADD28R,0.6000X0.7000*%
%ADD29C,6.0000*%
%ADD30C,0.6500*%
%ADD31C,1.2000*%
%ADD32C,1.4000*%
%ADD33C,0.6000*%
%ADD34C,0.3000*%
%ADD35C,0.5000*%
G36*
X270473Y707314D02*
X270477Y707156D01*
X249323Y686002D01*
X248559Y686181D01*
X247400Y686908D01*
Y688689D01*
X246821Y690851D01*
X245702Y692789D01*
X244119Y694372D01*
X242181Y695491D01*
X240892Y695836D01*
X240183Y697955D01*
X251384Y709156D01*
X269852D01*
X270473Y707314D01*
D02*
G37*
G36*
X491647Y692006D02*
X490979Y690851D01*
X490400Y688689D01*
Y686451D01*
X490979Y684289D01*
X492099Y682351D01*
X493681Y680768D01*
X495619Y679649D01*
X496908Y679304D01*
X497617Y677185D01*
X482566Y662134D01*
X349764D01*
X348666Y664134D01*
X349390Y665388D01*
X350036Y667800D01*
X340500D01*
Y669070D01*
X339230D01*
Y678606D01*
X336818Y677960D01*
X334642Y676704D01*
X332866Y674928D01*
X331610Y672752D01*
X331236Y671354D01*
X329045Y670715D01*
X318098Y681663D01*
X317023Y682381D01*
X315755Y682634D01*
X264304D01*
X263538Y684481D01*
X273063Y694006D01*
X357650D01*
X358647Y692006D01*
X357980Y690851D01*
X357400Y688689D01*
Y686451D01*
X357980Y684289D01*
X359099Y682351D01*
X360681Y680768D01*
X362619Y679649D01*
X364781Y679070D01*
X367019D01*
X369181Y679649D01*
X371119Y680768D01*
X372702Y682351D01*
X373821Y684289D01*
X374400Y686451D01*
Y688689D01*
X373821Y690851D01*
X373154Y692006D01*
X374151Y694006D01*
X490650D01*
X491647Y692006D01*
D02*
G37*
G36*
X556200Y667484D02*
X555828Y665614D01*
X553861Y665055D01*
X519380Y699536D01*
X519428Y700074D01*
X520049Y701536D01*
X522148D01*
X556200Y667484D01*
D02*
G37*
G36*
X516758Y674006D02*
X515914Y672544D01*
X515300Y670255D01*
Y667885D01*
X515914Y665596D01*
X515997Y665452D01*
X473907Y623363D01*
X473189Y622288D01*
X472936Y621020D01*
Y218543D01*
X447237Y192843D01*
X446519Y191768D01*
X446266Y190500D01*
Y148760D01*
X444294D01*
X444117Y149188D01*
X442558Y150747D01*
X440690Y151520D01*
Y146050D01*
X438150D01*
Y151520D01*
X436282Y150747D01*
X434723Y149188D01*
X434546Y148760D01*
X431760D01*
Y148760D01*
X431300Y148220D01*
X427958D01*
Y155831D01*
X431395D01*
X432368Y156025D01*
X433194Y156576D01*
X433745Y157402D01*
X433939Y158375D01*
Y161885D01*
X433745Y162859D01*
X433397Y163380D01*
X433745Y163902D01*
X433939Y164875D01*
Y168385D01*
X433745Y169359D01*
X433397Y169880D01*
X433745Y170401D01*
X433939Y171375D01*
Y174885D01*
X433745Y175858D01*
X433397Y176380D01*
X433745Y176901D01*
X433939Y177875D01*
Y181385D01*
X433745Y182358D01*
X433396Y182880D01*
X433745Y183402D01*
X433939Y184375D01*
Y187885D01*
X433745Y188859D01*
X433397Y189380D01*
X433745Y189902D01*
X433939Y190875D01*
Y194385D01*
X433779Y195187D01*
X434214Y197068D01*
X435289Y197787D01*
X437730Y200227D01*
X438448Y201302D01*
X438700Y202570D01*
Y217729D01*
X447593D01*
X447938Y217661D01*
X452178D01*
X453098Y216741D01*
X454935Y215980D01*
X456925D01*
X458762Y216741D01*
X460169Y218148D01*
X460930Y219985D01*
Y221975D01*
X460169Y223812D01*
X458762Y225219D01*
X456925Y225980D01*
X454935D01*
X453671Y225456D01*
X452095Y226204D01*
X451671Y226620D01*
Y230905D01*
X452141Y231220D01*
X454131D01*
X455968Y231981D01*
X457375Y233388D01*
X458136Y235225D01*
Y236534D01*
X467163Y245561D01*
X467881Y246636D01*
X468134Y247904D01*
Y503550D01*
X467881Y504818D01*
X467163Y505894D01*
X332723Y640334D01*
X333200Y642117D01*
Y644223D01*
X332655Y646258D01*
X331602Y648082D01*
X330112Y649572D01*
X328288Y650625D01*
X326254Y651170D01*
X324147D01*
X322112Y650625D01*
X320288Y649572D01*
X318799Y648082D01*
X318755Y648006D01*
X316445D01*
X316402Y648082D01*
X314912Y649572D01*
X313088Y650625D01*
X311053Y651170D01*
X308947D01*
X306912Y650625D01*
X305088Y649572D01*
X303598Y648082D01*
X302545Y646258D01*
X302000Y644223D01*
Y642117D01*
X302545Y640082D01*
X303598Y638258D01*
X305088Y636769D01*
X306912Y635715D01*
X308947Y635170D01*
X311053D01*
X313088Y635715D01*
X314912Y636769D01*
X316402Y638258D01*
X316445Y638334D01*
X318755D01*
X318799Y638258D01*
X320288Y636769D01*
X322112Y635715D01*
X324147Y635170D01*
X326254D01*
X328036Y635648D01*
X461506Y502178D01*
Y463341D01*
X459506Y462241D01*
X458470Y462670D01*
Y457200D01*
Y451730D01*
X459506Y452159D01*
X461506Y451059D01*
Y361741D01*
X459506Y360641D01*
X458470Y361070D01*
Y355600D01*
Y350130D01*
X459506Y350559D01*
X461506Y349459D01*
Y257053D01*
X459506Y256225D01*
X458762Y256969D01*
X456925Y257730D01*
X454935D01*
X453098Y256969D01*
X451691Y255562D01*
X451367Y254779D01*
X447938D01*
X447593Y254711D01*
X437084D01*
Y245842D01*
X435084Y244943D01*
X434137Y245690D01*
Y254711D01*
X419549D01*
Y250964D01*
X412939D01*
X411828Y252627D01*
X411870Y252730D01*
X400930D01*
X400972Y252627D01*
X399861Y250964D01*
X395611D01*
X311531Y335043D01*
X312141Y337262D01*
X313088Y337515D01*
X314912Y338568D01*
X316402Y340058D01*
X316445Y340134D01*
X318755D01*
X318799Y340058D01*
X320288Y338568D01*
X322112Y337515D01*
X324147Y336970D01*
X326254D01*
X328288Y337515D01*
X330112Y338568D01*
X331602Y340058D01*
X332655Y341882D01*
X333200Y343917D01*
Y346023D01*
X332655Y348058D01*
X331602Y349882D01*
X330112Y351372D01*
X328288Y352425D01*
X326254Y352970D01*
X324147D01*
X322112Y352425D01*
X320288Y351372D01*
X318799Y349882D01*
X318755Y349806D01*
X316445D01*
X316402Y349882D01*
X314912Y351372D01*
X313088Y352425D01*
X311053Y352970D01*
X308947D01*
X306912Y352425D01*
X306063Y351935D01*
X304063Y353072D01*
Y375068D01*
X306063Y376205D01*
X306912Y375715D01*
X308947Y375170D01*
X311053D01*
X313088Y375715D01*
X314912Y376769D01*
X316402Y378258D01*
X316445Y378334D01*
X318755D01*
X318799Y378258D01*
X320288Y376769D01*
X322112Y375715D01*
X324147Y375170D01*
X326254D01*
X328288Y375715D01*
X330112Y376769D01*
X331602Y378258D01*
X332655Y380082D01*
X333200Y382117D01*
Y384223D01*
X332655Y386258D01*
X331602Y388082D01*
X330112Y389572D01*
X328288Y390625D01*
X326254Y391170D01*
X324147D01*
X322112Y390625D01*
X320288Y389572D01*
X318799Y388082D01*
X318755Y388006D01*
X316445D01*
X316402Y388082D01*
X314912Y389572D01*
X313088Y390625D01*
X311053Y391170D01*
X308947D01*
X306912Y390625D01*
X306063Y390135D01*
X304063Y391272D01*
Y596868D01*
X306063Y598005D01*
X306912Y597515D01*
X308947Y596970D01*
X311053D01*
X313088Y597515D01*
X314912Y598568D01*
X316402Y600058D01*
X316445Y600134D01*
X318755D01*
X318799Y600058D01*
X320288Y598568D01*
X322112Y597515D01*
X324147Y596970D01*
X326254D01*
X328288Y597515D01*
X330112Y598568D01*
X331602Y600058D01*
X332655Y601882D01*
X333200Y603917D01*
Y606023D01*
X332655Y608058D01*
X331602Y609882D01*
X330112Y611372D01*
X328288Y612425D01*
X326254Y612970D01*
X324147D01*
X322112Y612425D01*
X320288Y611372D01*
X318799Y609882D01*
X318755Y609806D01*
X316445D01*
X316402Y609882D01*
X314912Y611372D01*
X313088Y612425D01*
X311053Y612970D01*
X308947D01*
X306912Y612425D01*
X306063Y611935D01*
X304063Y613072D01*
Y632621D01*
X303811Y633889D01*
X303093Y634964D01*
X272604Y665452D01*
X272687Y665596D01*
X273300Y667885D01*
Y670255D01*
X272687Y672544D01*
X271842Y674006D01*
X272700Y676006D01*
X314382D01*
X333911Y656477D01*
X334986Y655759D01*
X336254Y655507D01*
X483939D01*
X485207Y655759D01*
X486282Y656477D01*
X505812Y676006D01*
X515901D01*
X516758Y674006D01*
D02*
G37*
G36*
X1003300Y11430D02*
X411880D01*
X410280Y12395D01*
X410280Y13430D01*
Y43395D01*
X407827D01*
X407502Y45260D01*
X409538Y46103D01*
X411097Y47662D01*
X411870Y49530D01*
X400930D01*
X401703Y47662D01*
X403262Y46103D01*
X405298Y45260D01*
X404973Y43395D01*
X396280D01*
Y13430D01*
X396280Y12395D01*
X394679Y11430D01*
X212381D01*
X210780Y12395D01*
X210780Y13430D01*
Y41141D01*
X238760D01*
X239540Y41296D01*
X240202Y41738D01*
X240644Y42400D01*
X240799Y43180D01*
Y48142D01*
X242058Y49207D01*
X242731Y49395D01*
X252240D01*
X252280Y49395D01*
X254240Y49298D01*
Y48855D01*
X258510D01*
Y59895D01*
X261050D01*
Y48855D01*
X264740D01*
X265320Y48855D01*
X266740D01*
X267320Y48855D01*
X271010D01*
Y59895D01*
X273550D01*
Y48855D01*
X277820D01*
Y48855D01*
X279820Y48960D01*
X281040Y48142D01*
X281212Y47972D01*
Y47502D01*
X281483Y46136D01*
X282020Y45333D01*
Y43455D01*
X282781Y41618D01*
X284188Y40211D01*
X286025Y39450D01*
X288015D01*
X289852Y40211D01*
X291259Y41618D01*
X292020Y43455D01*
Y45445D01*
X291259Y47282D01*
X290746Y47795D01*
X289780Y49395D01*
Y70395D01*
X280438D01*
X279780Y70395D01*
X278037Y71016D01*
X277747Y71718D01*
X276188Y73277D01*
X274320Y74050D01*
Y68580D01*
X271780D01*
Y74050D01*
X269912Y73277D01*
X268353Y71718D01*
X266181Y71188D01*
X265056Y71697D01*
X265047Y71718D01*
X263488Y73277D01*
X261620Y74050D01*
Y68580D01*
X259080D01*
Y74050D01*
X257212Y73277D01*
X255653Y71718D01*
X255499Y71345D01*
X254123Y70984D01*
X252537Y71652D01*
X251868Y72244D01*
Y76470D01*
X254568Y79169D01*
X255562Y79581D01*
X256969Y80988D01*
X257730Y82825D01*
Y84815D01*
X256969Y86652D01*
X255562Y88059D01*
X253725Y88820D01*
X251735D01*
X249898Y88059D01*
X248491Y86652D01*
X248079Y85658D01*
X244036Y81615D01*
X243041Y80126D01*
X242799Y78909D01*
X240799Y79106D01*
Y101138D01*
X242647Y101903D01*
X245293Y99257D01*
X246368Y98539D01*
X247636Y98286D01*
X305557D01*
X305989Y97816D01*
X306693Y96286D01*
X306150Y94975D01*
Y92985D01*
X306911Y91148D01*
X308318Y89741D01*
X310155Y88980D01*
X311464D01*
X313434Y87010D01*
X312695Y85010D01*
X310858Y84249D01*
X309451Y82842D01*
X308690Y81005D01*
Y79245D01*
X307257Y77811D01*
X306483Y76654D01*
X306211Y75288D01*
Y70395D01*
X304780D01*
Y51998D01*
X302834Y50791D01*
X302780Y50790D01*
X302280Y51053D01*
Y70395D01*
X292280D01*
Y49395D01*
X293711D01*
Y48160D01*
X293983Y46794D01*
X294757Y45637D01*
X295990Y44403D01*
Y43455D01*
X296751Y41618D01*
X298158Y40211D01*
X299995Y39450D01*
X301985D01*
X303822Y40211D01*
X305229Y41618D01*
X305990Y43455D01*
Y45445D01*
X305229Y47282D01*
X305116Y47395D01*
X305945Y49395D01*
X306367Y49395D01*
X306367Y49395D01*
X306387Y49395D01*
X314780D01*
Y70395D01*
X313349D01*
Y73810D01*
X314548Y75010D01*
X314685D01*
X316522Y75771D01*
X316966Y76215D01*
X318966Y75387D01*
Y70395D01*
X317280D01*
Y49395D01*
X327280D01*
Y70395D01*
X325593D01*
Y82850D01*
X325568Y82977D01*
X327411Y83962D01*
X331466Y79907D01*
Y70395D01*
X329780D01*
Y49395D01*
X339780D01*
Y70395D01*
X338094D01*
Y81280D01*
X337841Y82548D01*
X337123Y83623D01*
X319228Y101519D01*
X319993Y103366D01*
X336037D01*
X336865Y101366D01*
X336121Y100622D01*
X335360Y98785D01*
Y96795D01*
X336121Y94958D01*
X337528Y93551D01*
X339365Y92790D01*
X340674D01*
X343681Y89782D01*
Y70395D01*
X342280D01*
Y49395D01*
X352280D01*
Y70395D01*
X350309D01*
Y91155D01*
X350056Y92423D01*
X349338Y93498D01*
X345360Y97476D01*
Y98785D01*
X344599Y100622D01*
X343855Y101366D01*
X344683Y103366D01*
X349147D01*
X356466Y96048D01*
Y70395D01*
X354780D01*
Y49395D01*
X364780D01*
Y70395D01*
X363093D01*
Y97420D01*
X362841Y98688D01*
X362123Y99763D01*
X352863Y109023D01*
X351788Y109741D01*
X350520Y109994D01*
X338239D01*
X337505Y111994D01*
X338392Y112881D01*
X339153Y114719D01*
Y116708D01*
X338392Y118546D01*
X337467Y119471D01*
Y124918D01*
X339467Y125747D01*
X341710Y123504D01*
Y122195D01*
X342471Y120358D01*
X343878Y118951D01*
X345715Y118190D01*
X347705D01*
X349542Y118951D01*
X350949Y120358D01*
X351710Y122195D01*
Y124185D01*
X350949Y126022D01*
X349542Y127429D01*
X347947Y128090D01*
X347588Y128448D01*
X347585Y128455D01*
X348760Y130688D01*
X350000Y131516D01*
X350829Y132757D01*
X351120Y134220D01*
Y136131D01*
X359780D01*
Y133320D01*
X374280D01*
Y133329D01*
X376195Y134700D01*
X378185D01*
X379355Y135185D01*
X381289Y135342D01*
X381289Y135342D01*
X381289Y135342D01*
X392926D01*
Y122023D01*
X381957Y111053D01*
X381239Y109978D01*
X380986Y108710D01*
Y97864D01*
X381239Y96596D01*
X381957Y95521D01*
X384571Y92907D01*
X385646Y92189D01*
X386914Y91936D01*
X402590D01*
X403858Y92189D01*
X404933Y92907D01*
X409236Y97210D01*
X414550D01*
Y108210D01*
X404550D01*
Y101896D01*
X401217Y98564D01*
X395550D01*
Y103524D01*
X403663Y111637D01*
X404381Y112712D01*
X404634Y113980D01*
Y153157D01*
X406634Y153985D01*
X407378Y153241D01*
X409215Y152480D01*
X411205D01*
X413042Y153241D01*
X414449Y154648D01*
X414541Y154870D01*
X416411Y156025D01*
X417385Y155831D01*
X420821D01*
Y148220D01*
X417800D01*
Y133720D01*
X419248D01*
X420584Y131720D01*
X420450Y131396D01*
Y129407D01*
X420738Y128711D01*
X419739Y126711D01*
X419739D01*
Y114589D01*
X429957D01*
X431734Y114049D01*
Y114049D01*
X431734Y114049D01*
X436618D01*
X437383Y112202D01*
X432707Y107526D01*
X431989Y106451D01*
X431736Y105182D01*
Y30280D01*
X431989Y29012D01*
X432707Y27937D01*
X436300Y24344D01*
Y19030D01*
X447300D01*
Y24344D01*
X518086Y95130D01*
X518804Y96205D01*
X519057Y97473D01*
Y147879D01*
X523036D01*
Y162001D01*
X513135D01*
X498687Y176449D01*
X499453Y178297D01*
X508449D01*
Y170739D01*
X523036D01*
Y179760D01*
X523983Y180507D01*
X525984Y179609D01*
Y170739D01*
X540571D01*
Y172160D01*
X540995Y172576D01*
X542571Y173324D01*
X543835Y172800D01*
X545825D01*
X547662Y173561D01*
X549069Y174968D01*
X549830Y176805D01*
Y178795D01*
X549069Y180632D01*
X547662Y182039D01*
X545825Y182800D01*
X543835D01*
X542871Y182400D01*
X540998Y183317D01*
X540599Y184849D01*
X541668Y186528D01*
X544120D01*
X545388Y186780D01*
X546463Y187498D01*
X554693Y195728D01*
X555411Y196803D01*
X555664Y198071D01*
Y247503D01*
X557327Y248614D01*
X557530Y248530D01*
Y254000D01*
Y259470D01*
X557327Y259386D01*
X555664Y260497D01*
Y349103D01*
X557327Y350214D01*
X557530Y350130D01*
Y355600D01*
Y361070D01*
X557327Y360986D01*
X555664Y362097D01*
Y381020D01*
X555411Y382288D01*
X554693Y383363D01*
X532604Y405452D01*
X532687Y405596D01*
X533300Y407885D01*
Y410255D01*
X532687Y412544D01*
X531842Y414006D01*
X532700Y416006D01*
X591237D01*
X592334Y414006D01*
X591610Y412752D01*
X590960Y410326D01*
Y409782D01*
X588960Y409385D01*
X588897Y409538D01*
X587338Y411097D01*
X585470Y411870D01*
Y406400D01*
Y400930D01*
X587338Y401703D01*
X588897Y403262D01*
X589633Y405040D01*
X590868Y405313D01*
X591707Y405219D01*
X592866Y403212D01*
X594642Y401436D01*
X596818Y400180D01*
X599230Y399534D01*
Y409070D01*
X600500D01*
Y410340D01*
X610036D01*
X609390Y412752D01*
X608666Y414006D01*
X609764Y416006D01*
X618989D01*
X628268Y406727D01*
X629343Y406009D01*
X630611Y405756D01*
X775871D01*
X775913Y405596D01*
X777098Y403544D01*
X778774Y401868D01*
X780826Y400683D01*
X783115Y400070D01*
X785485D01*
X787774Y400683D01*
X789826Y401868D01*
X791502Y403544D01*
X792687Y405596D01*
X793300Y407885D01*
Y410255D01*
X792687Y412544D01*
X791502Y414596D01*
X789826Y416272D01*
X787774Y417457D01*
X785485Y418070D01*
X783115D01*
X780826Y417457D01*
X778774Y416272D01*
X777098Y414596D01*
X775913Y412544D01*
X775871Y412384D01*
X631984D01*
X627183Y417185D01*
X627892Y419304D01*
X629181Y419649D01*
X631119Y420768D01*
X632702Y422351D01*
X633821Y424289D01*
X634400Y426451D01*
Y428689D01*
X633821Y430851D01*
X632702Y432789D01*
X631119Y434372D01*
X629181Y435491D01*
X627019Y436070D01*
X624781D01*
X622619Y435491D01*
X620681Y434372D01*
X619099Y432789D01*
X617980Y430851D01*
X617400Y428689D01*
Y426451D01*
X617887Y424634D01*
X616921Y422634D01*
X520054D01*
X518786Y422381D01*
X517711Y421663D01*
X511707Y415659D01*
X510989Y414584D01*
X510737Y413316D01*
Y230581D01*
X508449D01*
Y216459D01*
X518350D01*
X520973Y213837D01*
Y207721D01*
X510460D01*
Y208005D01*
X509699Y209842D01*
X508292Y211249D01*
X506455Y212010D01*
X505146D01*
X491089Y226068D01*
Y293532D01*
X493089Y294361D01*
X493681Y293768D01*
X495619Y292649D01*
X497781Y292070D01*
X500019D01*
X502181Y292649D01*
X504119Y293768D01*
X505702Y295351D01*
X506821Y297289D01*
X507400Y299451D01*
Y301689D01*
X506821Y303851D01*
X505702Y305789D01*
X504119Y307372D01*
X502181Y308491D01*
X500019Y309070D01*
X497781D01*
X495619Y308491D01*
X493681Y307372D01*
X493089Y306779D01*
X491089Y307608D01*
Y420532D01*
X493089Y421361D01*
X493681Y420768D01*
X495619Y419649D01*
X497781Y419070D01*
X500019D01*
X502181Y419649D01*
X504119Y420768D01*
X505702Y422351D01*
X506821Y424289D01*
X507400Y426451D01*
Y428689D01*
X506821Y430851D01*
X505702Y432789D01*
X504119Y434372D01*
X502181Y435491D01*
X500019Y436070D01*
X497781D01*
X495619Y435491D01*
X494726Y434975D01*
X492514Y435874D01*
X492506Y435885D01*
X492440Y436213D01*
X615515Y559287D01*
X617634Y558578D01*
X617980Y557289D01*
X619099Y555351D01*
X620681Y553768D01*
X622619Y552649D01*
X624781Y552070D01*
X627019D01*
X629181Y552649D01*
X631119Y553768D01*
X632702Y555351D01*
X633821Y557289D01*
X634400Y559451D01*
Y561689D01*
X633821Y563851D01*
X632702Y565789D01*
X631119Y567372D01*
X629181Y568491D01*
X627892Y568836D01*
X627183Y570955D01*
X721984Y665756D01*
X756693D01*
X757522Y663756D01*
X757303Y663538D01*
X756530Y661670D01*
X767470D01*
X766697Y663538D01*
X766478Y663756D01*
X767307Y665756D01*
X775871D01*
X775913Y665596D01*
X777098Y663544D01*
X778774Y661868D01*
X780826Y660683D01*
X783115Y660070D01*
X785485D01*
X787774Y660683D01*
X789236Y661528D01*
X791236Y660671D01*
Y624040D01*
X791489Y622772D01*
X792207Y621697D01*
X820527Y593377D01*
X821602Y592659D01*
X822870Y592406D01*
X835950D01*
X837218Y592659D01*
X838293Y593377D01*
X842364Y597448D01*
X844147Y596970D01*
X846254D01*
X848288Y597515D01*
X850112Y598568D01*
X851602Y600058D01*
X852655Y601882D01*
X853200Y603917D01*
Y606023D01*
X852655Y608058D01*
X851602Y609882D01*
X850112Y611372D01*
X848288Y612425D01*
X846254Y612970D01*
X844147D01*
X842112Y612425D01*
X840288Y611372D01*
X838799Y609882D01*
X838755Y609806D01*
X836445D01*
X836402Y609882D01*
X834912Y611372D01*
X833088Y612425D01*
X831053Y612970D01*
X829332D01*
X829284Y613042D01*
X809764Y632562D01*
Y653861D01*
X811427Y654972D01*
X811530Y654930D01*
Y660400D01*
Y665870D01*
X811427Y665828D01*
X809764Y666939D01*
Y678180D01*
X809511Y679449D01*
X808793Y680524D01*
X766920Y722396D01*
X766925Y722554D01*
X767545Y724396D01*
X769518D01*
X841594Y652320D01*
X841415Y650222D01*
X840288Y649572D01*
X838799Y648082D01*
X838755Y648006D01*
X836445D01*
X836402Y648082D01*
X834912Y649572D01*
X833088Y650625D01*
X831053Y651170D01*
X828947D01*
X826912Y650625D01*
X825088Y649572D01*
X823598Y648082D01*
X822545Y646258D01*
X822000Y644223D01*
Y642117D01*
X822545Y640082D01*
X823598Y638258D01*
X825088Y636769D01*
X826912Y635715D01*
X828947Y635170D01*
X831053D01*
X833088Y635715D01*
X834912Y636769D01*
X836402Y638258D01*
X836445Y638334D01*
X838755D01*
X838799Y638258D01*
X840288Y636769D01*
X842112Y635715D01*
X844147Y635170D01*
X846254D01*
X848288Y635715D01*
X850112Y636769D01*
X851602Y638258D01*
X852655Y640082D01*
X853200Y642117D01*
Y644223D01*
X852655Y646258D01*
X851602Y648082D01*
X850112Y649572D01*
X848514Y650495D01*
Y653400D01*
X848262Y654668D01*
X847543Y655743D01*
X773233Y730053D01*
X772158Y730771D01*
X770890Y731024D01*
X233680D01*
X232412Y730771D01*
X231337Y730053D01*
X199587Y698303D01*
X198869Y697228D01*
X198616Y695960D01*
Y308610D01*
X198869Y307342D01*
X199587Y306267D01*
X242882Y262971D01*
X242117Y261124D01*
X226007D01*
X225082Y262049D01*
X223245Y262810D01*
X221255D01*
X219418Y262049D01*
X218011Y260642D01*
X217250Y258805D01*
Y256815D01*
X218011Y254978D01*
X219418Y253571D01*
X221255Y252810D01*
X223245D01*
X225082Y253571D01*
X226007Y254496D01*
X235743D01*
X237079Y252496D01*
X237062Y252455D01*
Y250465D01*
X237823Y248628D01*
X239230Y247221D01*
X241067Y246460D01*
X242376D01*
X246483Y242353D01*
Y229510D01*
X246264Y229183D01*
X245973Y227720D01*
Y214220D01*
X246264Y212757D01*
X247093Y211516D01*
X248333Y210687D01*
X248449Y210665D01*
X248567Y210506D01*
X249035Y208509D01*
X230747Y190221D01*
X230029Y189146D01*
X229776Y187878D01*
Y116146D01*
X230029Y114878D01*
X230747Y113803D01*
X235253Y109297D01*
X234487Y107449D01*
X226244D01*
Y111760D01*
X218454D01*
Y113030D01*
X217184D01*
Y120320D01*
X210664D01*
Y118436D01*
X208952Y117727D01*
X207393Y116168D01*
X206620Y114300D01*
X212090D01*
Y111760D01*
X206620D01*
X207393Y109892D01*
X207836Y109449D01*
X207008Y107449D01*
X203121D01*
Y113402D01*
X193040D01*
X182959D01*
Y107449D01*
X172085D01*
X171305Y107294D01*
X170643Y106852D01*
X170201Y106190D01*
X170046Y105410D01*
Y43180D01*
X170201Y42400D01*
X170643Y41738D01*
X171305Y41296D01*
X172085Y41141D01*
X196780D01*
Y13430D01*
X196780Y12395D01*
X195180Y11430D01*
X76200D01*
Y798830D01*
X1003300D01*
Y11430D01*
D02*
G37*
G36*
X784634Y680070D02*
X783805Y678070D01*
X783115D01*
X780826Y677457D01*
X778774Y676272D01*
X777098Y674596D01*
X775913Y672544D01*
X775871Y672384D01*
X720612D01*
X719344Y672131D01*
X718269Y671413D01*
X485432Y438576D01*
X484714Y437501D01*
X484461Y436233D01*
Y224695D01*
X484714Y223427D01*
X485432Y222352D01*
X494586Y213198D01*
X493358Y211707D01*
X491490Y212480D01*
Y207010D01*
X488950D01*
Y212480D01*
X487082Y211707D01*
X485854Y210479D01*
X483660D01*
Y205630D01*
X481120D01*
Y210479D01*
X477074D01*
X476245Y212479D01*
X478593Y214827D01*
X479311Y215902D01*
X479564Y217170D01*
Y501461D01*
X481227Y502572D01*
X481330Y502530D01*
Y508000D01*
Y513470D01*
X481227Y513428D01*
X479564Y514539D01*
Y603061D01*
X481227Y604172D01*
X481330Y604130D01*
Y609600D01*
Y615070D01*
X481227Y615028D01*
X479564Y616139D01*
Y619647D01*
X520683Y660766D01*
X520826Y660683D01*
X523115Y660070D01*
X525485D01*
X527774Y660683D01*
X529826Y661868D01*
X531502Y663544D01*
X532687Y665596D01*
X533124Y667227D01*
X535144Y668036D01*
X544044Y659136D01*
Y614531D01*
X544296Y613263D01*
X545014Y612188D01*
X563825Y593377D01*
X564901Y592659D01*
X566169Y592406D01*
X575950D01*
X577218Y592659D01*
X578293Y593377D01*
X582364Y597448D01*
X584147Y596970D01*
X586254D01*
X588288Y597515D01*
X590112Y598568D01*
X591602Y600058D01*
X592655Y601882D01*
X593200Y603917D01*
Y606023D01*
X592655Y608058D01*
X591602Y609882D01*
X590112Y611372D01*
X588288Y612425D01*
X586254Y612970D01*
X584147D01*
X582112Y612425D01*
X580288Y611372D01*
X578799Y609882D01*
X578755Y609806D01*
X576445D01*
X576401Y609882D01*
X574912Y611372D01*
X573088Y612425D01*
X571053Y612970D01*
X568947D01*
X567164Y612492D01*
X555171Y624485D01*
Y653742D01*
X557171Y655078D01*
X557530Y654930D01*
Y660400D01*
X560070D01*
Y654930D01*
X561938Y655703D01*
X563497Y657262D01*
X563525Y657331D01*
X565884Y657800D01*
X570514Y653170D01*
X569686Y651170D01*
X568947D01*
X566912Y650625D01*
X565088Y649572D01*
X563598Y648082D01*
X562545Y646258D01*
X562000Y644223D01*
Y642117D01*
X562545Y640082D01*
X563598Y638258D01*
X565088Y636769D01*
X566912Y635715D01*
X568947Y635170D01*
X571053D01*
X573088Y635715D01*
X574912Y636769D01*
X576401Y638258D01*
X576445Y638334D01*
X578755D01*
X578799Y638258D01*
X580288Y636769D01*
X582112Y635715D01*
X584147Y635170D01*
X586254D01*
X588288Y635715D01*
X590112Y636769D01*
X591602Y638258D01*
X592655Y640082D01*
X593200Y642117D01*
Y644223D01*
X592655Y646258D01*
X591602Y648082D01*
X590112Y649572D01*
X588288Y650625D01*
X586254Y651170D01*
X584147D01*
X582364Y650693D01*
X525900Y707156D01*
X525904Y707314D01*
X526525Y709156D01*
X755548D01*
X784634Y680070D01*
D02*
G37*
G36*
X803136Y676808D02*
Y631190D01*
X803389Y629922D01*
X804107Y628847D01*
X823406Y609548D01*
X822545Y608058D01*
X822000Y606023D01*
Y604105D01*
X821542Y603725D01*
X820138Y603138D01*
X797864Y625412D01*
Y674840D01*
X797611Y676108D01*
X796893Y677183D01*
X759300Y714776D01*
X759304Y714934D01*
X759925Y716776D01*
X763168D01*
X803136Y676808D01*
D02*
G37*
G36*
X250737Y667000D02*
Y571888D01*
X248737Y570819D01*
X248424Y571028D01*
Y667860D01*
X248737Y668069D01*
X250737Y667000D01*
D02*
G37*
G36*
X241796Y666490D02*
Y570236D01*
X240210Y569019D01*
X240019Y569070D01*
X237781D01*
X235619Y568491D01*
X233914Y567506D01*
X233005Y567777D01*
X231914Y568433D01*
Y659221D01*
X239949Y667256D01*
X241796Y666490D01*
D02*
G37*
G36*
X235619Y552649D02*
X237781Y552070D01*
X240019D01*
X242181Y552649D01*
X243337Y553316D01*
X245336Y552319D01*
Y435821D01*
X243337Y434823D01*
X242181Y435491D01*
X240019Y436070D01*
X237781D01*
X235619Y435491D01*
X233914Y434506D01*
X233005Y434777D01*
X231914Y435433D01*
Y552707D01*
X233005Y553362D01*
X233914Y553634D01*
X235619Y552649D01*
D02*
G37*
G36*
X260826Y660683D02*
X263115Y660070D01*
X265485D01*
X267774Y660683D01*
X267918Y660766D01*
X297436Y631248D01*
Y345388D01*
X295588Y344623D01*
X267614Y372597D01*
Y400640D01*
X267774Y400683D01*
X269826Y401868D01*
X271502Y403544D01*
X272038Y404472D01*
X274263Y404326D01*
X274703Y403262D01*
X276262Y401703D01*
X278130Y400930D01*
Y406400D01*
Y411870D01*
X276262Y411097D01*
X275300Y410135D01*
X274542Y410180D01*
X273182Y410695D01*
X272687Y412544D01*
X271502Y414596D01*
X269826Y416272D01*
X267774Y417457D01*
X265485Y418070D01*
X263115D01*
X260826Y417457D01*
X259364Y416612D01*
X257364Y417469D01*
Y660671D01*
X259364Y661528D01*
X260826Y660683D01*
D02*
G37*
G36*
X230634Y685578D02*
X230979Y684289D01*
X232099Y682351D01*
X233681Y680768D01*
X235619Y679649D01*
X237781Y679070D01*
X239562D01*
X240289Y677911D01*
X240468Y677147D01*
X226257Y662937D01*
X225539Y661862D01*
X225286Y660593D01*
Y350082D01*
X225270Y350047D01*
X223452Y349038D01*
X223358Y349027D01*
X223024Y349289D01*
Y680796D01*
X228515Y686287D01*
X230634Y685578D01*
D02*
G37*
G36*
X247628Y714934D02*
X247632Y714776D01*
X217367Y684511D01*
X216649Y683436D01*
X216396Y682168D01*
Y347542D01*
X216380Y347507D01*
X214562Y346498D01*
X214468Y346487D01*
X214134Y346749D01*
Y686967D01*
X243943Y716776D01*
X247007D01*
X247628Y714934D01*
D02*
G37*
G36*
X235619Y419649D02*
X237781Y419070D01*
X240019D01*
X242181Y419649D01*
X243337Y420316D01*
X245336Y419319D01*
Y340630D01*
X245486Y339879D01*
X244858Y339269D01*
X243753Y338783D01*
X231914Y350622D01*
Y419707D01*
X233005Y420363D01*
X233914Y420634D01*
X235619Y419649D01*
D02*
G37*
G36*
X318760Y278534D02*
X318677Y278118D01*
X316507Y277459D01*
X252989Y340977D01*
X253072Y341393D01*
X255242Y342052D01*
X318760Y278534D01*
D02*
G37*
G36*
X240186Y722554D02*
X240190Y722396D01*
X208477Y690683D01*
X207759Y689608D01*
X207506Y688340D01*
Y344170D01*
X207759Y342902D01*
X208477Y341827D01*
X239234Y311070D01*
X238405Y309070D01*
X237781D01*
X235619Y308491D01*
X233681Y307372D01*
X232099Y305789D01*
X230979Y303851D01*
X230400Y301689D01*
Y299451D01*
X230979Y297289D01*
X232099Y295351D01*
X233681Y293768D01*
X235619Y292649D01*
X237781Y292070D01*
X240019D01*
X242181Y292649D01*
X244119Y293768D01*
X245702Y295351D01*
X246821Y297289D01*
X247400Y299451D01*
Y300075D01*
X249400Y300904D01*
X272483Y277821D01*
Y245572D01*
X270483Y244743D01*
X205244Y309983D01*
Y694587D01*
X235053Y724396D01*
X239565D01*
X240186Y722554D01*
D02*
G37*
G36*
X310785Y262379D02*
Y247757D01*
X307481Y244454D01*
X304676Y244476D01*
X304629Y244523D01*
X304395Y244620D01*
X303482Y247001D01*
X303539Y247116D01*
X304328Y247730D01*
X304525D01*
X306362Y248491D01*
X307769Y249898D01*
X308530Y251735D01*
Y253725D01*
X307769Y255562D01*
X306362Y256969D01*
X304525Y257730D01*
X302535D01*
X300698Y256969D01*
X299291Y255562D01*
X298530Y253725D01*
Y252776D01*
X292953Y247199D01*
X292235Y246124D01*
X291983Y244856D01*
Y241715D01*
X289983Y240379D01*
X289791Y240458D01*
X287802D01*
X287610Y240379D01*
X285610Y241715D01*
Y284123D01*
X285461Y284874D01*
X287194Y285970D01*
X310785Y262379D01*
D02*
G37*
G36*
X419549Y240589D02*
X429450D01*
X432073Y237967D01*
Y231851D01*
X419549D01*
Y228104D01*
X412107D01*
X397722Y242489D01*
X398488Y244336D01*
X419549D01*
Y240589D01*
D02*
G37*
G36*
X520826Y400683D02*
X523115Y400070D01*
X525485D01*
X527774Y400683D01*
X527918Y400766D01*
X549036Y379648D01*
Y228998D01*
X547036Y228018D01*
X545825Y228520D01*
X543835D01*
X542571Y227996D01*
X540995Y228744D01*
X540571Y229160D01*
Y230581D01*
X525984D01*
Y221712D01*
X523983Y220813D01*
X523036Y221560D01*
Y230581D01*
X517364D01*
Y400671D01*
X519364Y401528D01*
X520826Y400683D01*
D02*
G37*
G36*
X543835Y218520D02*
X545825D01*
X547036Y219022D01*
X549036Y218042D01*
Y207408D01*
X547036Y206428D01*
X545825Y206930D01*
X543835D01*
X542571Y206406D01*
X540995Y207154D01*
X540571Y207570D01*
Y207721D01*
X527600D01*
Y215210D01*
X527601Y215210D01*
X529391Y216459D01*
X540571D01*
Y217880D01*
X540995Y218296D01*
X542571Y219044D01*
X543835Y218520D01*
D02*
G37*
G36*
X337483Y207540D02*
Y175291D01*
X324734Y162542D01*
X322887Y163308D01*
Y179700D01*
X298547D01*
X274207D01*
Y162577D01*
X272206Y161749D01*
X269293Y164662D01*
X268218Y165381D01*
X266950Y165633D01*
X249158D01*
X247890Y165381D01*
X246815Y164662D01*
X238251Y156099D01*
X236404Y156864D01*
Y186506D01*
X253341Y203442D01*
X274207D01*
Y182240D01*
X298547D01*
X322887D01*
Y203442D01*
X329184D01*
X330452Y203695D01*
X331527Y204413D01*
X335483Y208368D01*
X337483Y207540D01*
D02*
G37*
G36*
X508449Y157314D02*
Y147879D01*
X512429D01*
Y98846D01*
X442614Y29030D01*
X440986D01*
X438364Y31652D01*
Y38030D01*
X447300D01*
Y43344D01*
X465785Y61829D01*
X466503Y62904D01*
X466755Y64172D01*
Y157107D01*
X468755Y157505D01*
X469013Y156882D01*
X470572Y155323D01*
X472440Y154550D01*
Y160020D01*
X474980D01*
Y154550D01*
X476745Y155281D01*
X481120D01*
Y160130D01*
X482390D01*
Y161400D01*
X492699D01*
X493358Y161673D01*
X494917Y163232D01*
X495690Y165100D01*
X490220D01*
Y167640D01*
X496386D01*
X496558Y167768D01*
X497608Y168156D01*
X508449Y157314D01*
D02*
G37*
G36*
X260986Y400545D02*
Y371225D01*
X261239Y369957D01*
X261957Y368881D01*
X408392Y222447D01*
X409467Y221729D01*
X410735Y221476D01*
X419549D01*
Y217729D01*
X421076D01*
Y209929D01*
X417385D01*
X416411Y209735D01*
X415586Y209184D01*
X415035Y208358D01*
X414952Y207944D01*
X412896D01*
X411628Y207691D01*
X410553Y206973D01*
X393897Y190317D01*
X393179Y189242D01*
X392926Y187974D01*
Y160004D01*
X388620D01*
Y153670D01*
X386080D01*
Y160004D01*
X384522D01*
X383540Y160410D01*
Y154940D01*
X381000D01*
Y160410D01*
X379132Y159637D01*
X377573Y158078D01*
X376730Y156042D01*
X374820Y156259D01*
Y161860D01*
X368300D01*
Y154570D01*
X365760D01*
Y161860D01*
X359240D01*
Y159814D01*
X358812Y159637D01*
X357253Y158078D01*
X356480Y156210D01*
X361950D01*
Y153670D01*
X356480D01*
X357253Y151802D01*
X358812Y150243D01*
X359240Y150066D01*
X359240Y147280D01*
X359780Y145504D01*
Y144683D01*
X358366Y143269D01*
X351120D01*
Y147720D01*
X350829Y149183D01*
X350000Y150424D01*
X348760Y151252D01*
X347297Y151543D01*
X345834Y151252D01*
X345500Y151030D01*
X345361Y150988D01*
X344896Y151362D01*
X344757Y154042D01*
X345057Y154342D01*
X345830Y156210D01*
X334890D01*
X335663Y154342D01*
X336270Y153735D01*
X336110Y151244D01*
X335939Y151132D01*
X335760Y151252D01*
X334296Y151543D01*
X332833Y151252D01*
X331593Y150424D01*
X330500D01*
X329260Y151252D01*
X327797Y151543D01*
X326334Y151252D01*
X326000Y151030D01*
X324547Y150589D01*
X323093Y151030D01*
X322760Y151252D01*
X321296Y151543D01*
X319833Y151252D01*
X318593Y150424D01*
X317500D01*
X316260Y151252D01*
X314796Y151543D01*
X313333Y151252D01*
X312093Y150424D01*
X311000D01*
X309760Y151252D01*
X308297Y151543D01*
X306833Y151252D01*
X305593Y150424D01*
X304500D01*
X303260Y151252D01*
X301797Y151543D01*
X300333Y151252D01*
X300000Y151030D01*
X298547Y150589D01*
X297093Y151030D01*
X296759Y151252D01*
X295296Y151543D01*
X293833Y151252D01*
X292593Y150424D01*
X291500D01*
X290260Y151252D01*
X288797Y151543D01*
X287333Y151252D01*
X286093Y150424D01*
X285000D01*
X283760Y151252D01*
X282297Y151543D01*
X280833Y151252D01*
X279593Y150424D01*
X278500D01*
X277260Y151252D01*
X275797Y151543D01*
X274334Y151252D01*
X273049Y151865D01*
X273139Y152449D01*
X274117Y153658D01*
X323850D01*
X325118Y153911D01*
X326193Y154629D01*
X343139Y171575D01*
X343858Y172650D01*
X344110Y173918D01*
Y208784D01*
X344612Y209247D01*
X346027Y210035D01*
Y220970D01*
X347297D01*
Y222240D01*
X351671D01*
Y225726D01*
X352677Y226732D01*
X353450Y228600D01*
X347980D01*
Y229870D01*
X346710D01*
Y235340D01*
X344842Y234567D01*
X343283Y233008D01*
X343105Y232578D01*
X342132Y232530D01*
X340886Y234471D01*
X340925Y234564D01*
Y236554D01*
X340163Y238391D01*
X338757Y239798D01*
X336919Y240559D01*
X334930D01*
X333092Y239798D01*
X331784Y238490D01*
X330905Y237902D01*
X327453Y234451D01*
X325900Y235726D01*
X326161Y236116D01*
X326413Y237384D01*
Y278881D01*
X326161Y280149D01*
X325442Y281224D01*
X257364Y349302D01*
Y400671D01*
X259352Y401523D01*
X260986Y400545D01*
D02*
G37*
G36*
X319833Y130688D02*
X321296Y130397D01*
X322760Y130688D01*
X323093Y130910D01*
X324547Y131351D01*
X326000Y130910D01*
X326334Y130688D01*
X327797Y130397D01*
X328840Y130604D01*
X330254Y129838D01*
X330840Y129338D01*
Y119471D01*
X329915Y118546D01*
X329153Y116708D01*
Y114719D01*
X329915Y112881D01*
X330802Y111994D01*
X330067Y109994D01*
X266907D01*
X266142Y111841D01*
X268943Y114642D01*
X269661Y115718D01*
X269821Y116520D01*
X270633Y117085D01*
X270998Y117267D01*
X271914Y117505D01*
X273325Y116920D01*
X275315D01*
X277152Y117681D01*
X278559Y119088D01*
X279320Y120925D01*
Y122915D01*
X278986Y123720D01*
X279110Y124344D01*
Y125363D01*
X281110Y126191D01*
X286455Y120847D01*
X287530Y120129D01*
X288798Y119876D01*
X317553D01*
X318478Y118951D01*
X320315Y118190D01*
X322305D01*
X324142Y118951D01*
X325549Y120358D01*
X326310Y122195D01*
Y124185D01*
X325549Y126022D01*
X324142Y127429D01*
X322305Y128190D01*
X320315D01*
X318478Y127429D01*
X317553Y126504D01*
X290171D01*
X288198Y128476D01*
X288542Y129581D01*
X289055Y130448D01*
X290260Y130688D01*
X291500Y131516D01*
X292593D01*
X293833Y130688D01*
X295296Y130397D01*
X296759Y130688D01*
X297093Y130910D01*
X298547Y131351D01*
X300000Y130910D01*
X300333Y130688D01*
X301797Y130397D01*
X303260Y130688D01*
X304500Y131516D01*
X305593D01*
X306833Y130688D01*
X308297Y130397D01*
X309760Y130688D01*
X311000Y131516D01*
X312093D01*
X313333Y130688D01*
X314796Y130397D01*
X316260Y130688D01*
X317500Y131516D01*
X318593D01*
X319833Y130688D01*
D02*
G37*
G36*
X238760Y70935D02*
X236050D01*
Y59895D01*
Y48855D01*
X238760D01*
Y43180D01*
X210780D01*
Y43395D01*
X196780D01*
Y43180D01*
X172085D01*
Y105410D01*
X182959D01*
Y97418D01*
X193040D01*
X203121D01*
Y105410D01*
X210664D01*
Y99800D01*
X226244D01*
Y105410D01*
X238760D01*
Y70935D01*
D02*
G37*
G36*
X451128Y113961D02*
Y94645D01*
X442614Y86130D01*
X438364D01*
Y103810D01*
X449281Y114727D01*
X451128Y113961D01*
D02*
G37*
G36*
X460128Y72659D02*
Y65545D01*
X442614Y48030D01*
X438364D01*
Y57130D01*
X447300D01*
Y62444D01*
X458280Y73424D01*
X460128Y72659D01*
D02*
G37*
%LPC*%
G36*
X341770Y678606D02*
Y670340D01*
X350036D01*
X349390Y672752D01*
X348134Y674928D01*
X346358Y676704D01*
X344183Y677960D01*
X341770Y678606D01*
D02*
G37*
G36*
X306070Y665870D02*
Y661670D01*
X310270D01*
X309497Y663538D01*
X307938Y665097D01*
X306070Y665870D01*
D02*
G37*
G36*
X303530D02*
X301662Y665097D01*
X300103Y663538D01*
X299330Y661670D01*
X303530D01*
Y665870D01*
D02*
G37*
G36*
X310270Y659130D02*
X306070D01*
Y654930D01*
X307938Y655703D01*
X309497Y657262D01*
X310270Y659130D01*
D02*
G37*
G36*
X303530D02*
X299330D01*
X300103Y657262D01*
X301662Y655703D01*
X303530Y654930D01*
Y659130D01*
D02*
G37*
G36*
X433070Y615070D02*
Y610870D01*
X437270D01*
X436497Y612738D01*
X434938Y614297D01*
X433070Y615070D01*
D02*
G37*
G36*
X430530D02*
X428662Y614297D01*
X427103Y612738D01*
X426330Y610870D01*
X430530D01*
Y615070D01*
D02*
G37*
G36*
X382270D02*
Y610870D01*
X386470D01*
X385697Y612738D01*
X384138Y614297D01*
X382270Y615070D01*
D02*
G37*
G36*
X379730D02*
X377862Y614297D01*
X376303Y612738D01*
X375530Y610870D01*
X379730D01*
Y615070D01*
D02*
G37*
G36*
X437270Y608330D02*
X433070D01*
Y604130D01*
X434938Y604903D01*
X436497Y606462D01*
X437270Y608330D01*
D02*
G37*
G36*
X430530D02*
X426330D01*
X427103Y606462D01*
X428662Y604903D01*
X430530Y604130D01*
Y608330D01*
D02*
G37*
G36*
X386470D02*
X382270D01*
Y604130D01*
X384138Y604903D01*
X385697Y606462D01*
X386470Y608330D01*
D02*
G37*
G36*
X379730D02*
X375530D01*
X376303Y606462D01*
X377862Y604903D01*
X379730Y604130D01*
Y608330D01*
D02*
G37*
G36*
X458470Y564270D02*
Y560070D01*
X462670D01*
X461897Y561938D01*
X460338Y563497D01*
X458470Y564270D01*
D02*
G37*
G36*
X455930D02*
X454062Y563497D01*
X452503Y561938D01*
X451730Y560070D01*
X455930D01*
Y564270D01*
D02*
G37*
G36*
X462670Y557530D02*
X458470D01*
Y553330D01*
X460338Y554103D01*
X461897Y555662D01*
X462670Y557530D01*
D02*
G37*
G36*
X455930D02*
X451730D01*
X452503Y555662D01*
X454062Y554103D01*
X455930Y553330D01*
Y557530D01*
D02*
G37*
G36*
X367019Y569070D02*
X364781D01*
X362619Y568491D01*
X360681Y567372D01*
X359099Y565789D01*
X357980Y563851D01*
X357400Y561689D01*
Y559451D01*
X357980Y557289D01*
X359099Y555351D01*
X360681Y553768D01*
X362619Y552649D01*
X364781Y552070D01*
X367019D01*
X369181Y552649D01*
X371119Y553768D01*
X372702Y555351D01*
X373821Y557289D01*
X374400Y559451D01*
Y561689D01*
X373821Y563851D01*
X372702Y565789D01*
X371119Y567372D01*
X369181Y568491D01*
X367019Y569070D01*
D02*
G37*
G36*
X433070Y513470D02*
Y509270D01*
X437270D01*
X436497Y511138D01*
X434938Y512697D01*
X433070Y513470D01*
D02*
G37*
G36*
X430530D02*
X428662Y512697D01*
X427103Y511138D01*
X426330Y509270D01*
X430530D01*
Y513470D01*
D02*
G37*
G36*
X382270D02*
Y509270D01*
X386470D01*
X385697Y511138D01*
X384138Y512697D01*
X382270Y513470D01*
D02*
G37*
G36*
X379730D02*
X377862Y512697D01*
X376303Y511138D01*
X375530Y509270D01*
X379730D01*
Y513470D01*
D02*
G37*
G36*
X331470D02*
Y509270D01*
X335670D01*
X334897Y511138D01*
X333338Y512697D01*
X331470Y513470D01*
D02*
G37*
G36*
X328930D02*
X327062Y512697D01*
X325503Y511138D01*
X324730Y509270D01*
X328930D01*
Y513470D01*
D02*
G37*
G36*
X437270Y506730D02*
X433070D01*
Y502530D01*
X434938Y503303D01*
X436497Y504862D01*
X437270Y506730D01*
D02*
G37*
G36*
X430530D02*
X426330D01*
X427103Y504862D01*
X428662Y503303D01*
X430530Y502530D01*
Y506730D01*
D02*
G37*
G36*
X386470D02*
X382270D01*
Y502530D01*
X384138Y503303D01*
X385697Y504862D01*
X386470Y506730D01*
D02*
G37*
G36*
X379730D02*
X375530D01*
X376303Y504862D01*
X377862Y503303D01*
X379730Y502530D01*
Y506730D01*
D02*
G37*
G36*
X335670D02*
X331470D01*
Y502530D01*
X333338Y503303D01*
X334897Y504862D01*
X335670Y506730D01*
D02*
G37*
G36*
X328930D02*
X324730D01*
X325503Y504862D01*
X327062Y503303D01*
X328930Y502530D01*
Y506730D01*
D02*
G37*
G36*
X455930Y462670D02*
X454062Y461897D01*
X452503Y460338D01*
X451730Y458470D01*
X455930D01*
Y462670D01*
D02*
G37*
G36*
X407670D02*
Y458470D01*
X411870D01*
X411097Y460338D01*
X409538Y461897D01*
X407670Y462670D01*
D02*
G37*
G36*
X405130D02*
X403262Y461897D01*
X401703Y460338D01*
X400930Y458470D01*
X405130D01*
Y462670D01*
D02*
G37*
G36*
X356870D02*
Y458470D01*
X361070D01*
X360297Y460338D01*
X358738Y461897D01*
X356870Y462670D01*
D02*
G37*
G36*
X354330D02*
X352462Y461897D01*
X350903Y460338D01*
X350130Y458470D01*
X354330D01*
Y462670D01*
D02*
G37*
G36*
X455930Y455930D02*
X451730D01*
X452503Y454062D01*
X454062Y452503D01*
X455930Y451730D01*
Y455930D01*
D02*
G37*
G36*
X411870D02*
X407670D01*
Y451730D01*
X409538Y452503D01*
X411097Y454062D01*
X411870Y455930D01*
D02*
G37*
G36*
X405130D02*
X400930D01*
X401703Y454062D01*
X403262Y452503D01*
X405130Y451730D01*
Y455930D01*
D02*
G37*
G36*
X361070D02*
X356870D01*
Y451730D01*
X358738Y452503D01*
X360297Y454062D01*
X361070Y455930D01*
D02*
G37*
G36*
X354330D02*
X350130D01*
X350903Y454062D01*
X352462Y452503D01*
X354330Y451730D01*
Y455930D01*
D02*
G37*
G36*
X367019Y436070D02*
X364781D01*
X362619Y435491D01*
X360681Y434372D01*
X359099Y432789D01*
X357980Y430851D01*
X357400Y428689D01*
Y426451D01*
X357980Y424289D01*
X359099Y422351D01*
X360681Y420768D01*
X362619Y419649D01*
X364781Y419070D01*
X367019D01*
X369181Y419649D01*
X371119Y420768D01*
X372702Y422351D01*
X373821Y424289D01*
X374400Y426451D01*
Y428689D01*
X373821Y430851D01*
X372702Y432789D01*
X371119Y434372D01*
X369181Y435491D01*
X367019Y436070D01*
D02*
G37*
G36*
X341770Y418606D02*
Y410340D01*
X350036D01*
X349390Y412752D01*
X348134Y414928D01*
X346358Y416704D01*
X344183Y417960D01*
X341770Y418606D01*
D02*
G37*
G36*
X339230D02*
X336818Y417960D01*
X334642Y416704D01*
X332866Y414928D01*
X331610Y412752D01*
X330964Y410340D01*
X339230D01*
Y418606D01*
D02*
G37*
G36*
X433070Y411870D02*
Y407670D01*
X437270D01*
X436497Y409538D01*
X434938Y411097D01*
X433070Y411870D01*
D02*
G37*
G36*
X430530D02*
X428662Y411097D01*
X427103Y409538D01*
X426330Y407670D01*
X430530D01*
Y411870D01*
D02*
G37*
G36*
X382270D02*
Y407670D01*
X386470D01*
X385697Y409538D01*
X384138Y411097D01*
X382270Y411870D01*
D02*
G37*
G36*
X379730D02*
X377862Y411097D01*
X376303Y409538D01*
X375530Y407670D01*
X379730D01*
Y411870D01*
D02*
G37*
G36*
X437270Y405130D02*
X433070D01*
Y400930D01*
X434938Y401703D01*
X436497Y403262D01*
X437270Y405130D01*
D02*
G37*
G36*
X430530D02*
X426330D01*
X427103Y403262D01*
X428662Y401703D01*
X430530Y400930D01*
Y405130D01*
D02*
G37*
G36*
X386470D02*
X382270D01*
Y400930D01*
X384138Y401703D01*
X385697Y403262D01*
X386470Y405130D01*
D02*
G37*
G36*
X379730D02*
X375530D01*
X376303Y403262D01*
X377862Y401703D01*
X379730Y400930D01*
Y405130D01*
D02*
G37*
G36*
X350036Y407800D02*
X341770D01*
Y399534D01*
X344183Y400180D01*
X346358Y401436D01*
X348134Y403212D01*
X349390Y405388D01*
X350036Y407800D01*
D02*
G37*
G36*
X339230D02*
X330964D01*
X331610Y405388D01*
X332866Y403212D01*
X334642Y401436D01*
X336818Y400180D01*
X339230Y399534D01*
Y407800D01*
D02*
G37*
G36*
X455930Y361070D02*
X454062Y360297D01*
X452503Y358738D01*
X451730Y356870D01*
X455930D01*
Y361070D01*
D02*
G37*
G36*
X356870D02*
Y356870D01*
X361070D01*
X360297Y358738D01*
X358738Y360297D01*
X356870Y361070D01*
D02*
G37*
G36*
X354330D02*
X352462Y360297D01*
X350903Y358738D01*
X350130Y356870D01*
X354330D01*
Y361070D01*
D02*
G37*
G36*
X361070Y354330D02*
X356870D01*
Y350130D01*
X358738Y350903D01*
X360297Y352462D01*
X361070Y354330D01*
D02*
G37*
G36*
X354330D02*
X350130D01*
X350903Y352462D01*
X352462Y350903D01*
X354330Y350130D01*
Y354330D01*
D02*
G37*
G36*
X455930D02*
X451730D01*
X452503Y352462D01*
X454062Y350903D01*
X455930Y350130D01*
Y354330D01*
D02*
G37*
G36*
X433070Y310270D02*
Y306070D01*
X437270D01*
X436497Y307938D01*
X434938Y309497D01*
X433070Y310270D01*
D02*
G37*
G36*
X430530D02*
X428662Y309497D01*
X427103Y307938D01*
X426330Y306070D01*
X430530D01*
Y310270D01*
D02*
G37*
G36*
X382270D02*
Y306070D01*
X386470D01*
X385697Y307938D01*
X384138Y309497D01*
X382270Y310270D01*
D02*
G37*
G36*
X379730D02*
X377862Y309497D01*
X376303Y307938D01*
X375460Y305902D01*
Y305012D01*
X373460Y304476D01*
X372702Y305789D01*
X371119Y307372D01*
X369181Y308491D01*
X367019Y309070D01*
X364781D01*
X362619Y308491D01*
X360681Y307372D01*
X359099Y305789D01*
X357980Y303851D01*
X357400Y301689D01*
Y299451D01*
X357980Y297289D01*
X359099Y295351D01*
X360681Y293768D01*
X362619Y292649D01*
X364781Y292070D01*
X367019D01*
X369181Y292649D01*
X371119Y293768D01*
X372702Y295351D01*
X373821Y297289D01*
X374400Y299451D01*
Y301030D01*
X375911Y301532D01*
X376400Y301565D01*
X377862Y300103D01*
X379730Y299330D01*
Y304800D01*
Y310270D01*
D02*
G37*
G36*
X437270Y303530D02*
X433070D01*
Y299330D01*
X434938Y300103D01*
X436497Y301662D01*
X437270Y303530D01*
D02*
G37*
G36*
X430530D02*
X426330D01*
X427103Y301662D01*
X428662Y300103D01*
X430530Y299330D01*
Y303530D01*
D02*
G37*
G36*
X386470D02*
X382270D01*
Y299330D01*
X384138Y300103D01*
X385697Y301662D01*
X386470Y303530D01*
D02*
G37*
G36*
X407670Y259470D02*
Y255270D01*
X411870D01*
X411097Y257138D01*
X409538Y258697D01*
X407670Y259470D01*
D02*
G37*
G36*
X405130D02*
X403262Y258697D01*
X401703Y257138D01*
X400930Y255270D01*
X405130D01*
Y259470D01*
D02*
G37*
G36*
X915670Y767470D02*
Y763270D01*
X919870D01*
X919097Y765138D01*
X917538Y766697D01*
X915670Y767470D01*
D02*
G37*
G36*
X913130D02*
X911262Y766697D01*
X909703Y765138D01*
X908930Y763270D01*
X913130D01*
Y767470D01*
D02*
G37*
G36*
X864870D02*
Y763270D01*
X869070D01*
X868297Y765138D01*
X866738Y766697D01*
X864870Y767470D01*
D02*
G37*
G36*
X862330D02*
X860462Y766697D01*
X858903Y765138D01*
X858130Y763270D01*
X862330D01*
Y767470D01*
D02*
G37*
G36*
X814070D02*
Y763270D01*
X818270D01*
X817497Y765138D01*
X815938Y766697D01*
X814070Y767470D01*
D02*
G37*
G36*
X811530D02*
X809662Y766697D01*
X808103Y765138D01*
X807330Y763270D01*
X811530D01*
Y767470D01*
D02*
G37*
G36*
X763270D02*
Y763270D01*
X767470D01*
X766697Y765138D01*
X765138Y766697D01*
X763270Y767470D01*
D02*
G37*
G36*
X760730D02*
X758862Y766697D01*
X757303Y765138D01*
X756530Y763270D01*
X760730D01*
Y767470D01*
D02*
G37*
G36*
X712470D02*
Y763270D01*
X716670D01*
X715897Y765138D01*
X714338Y766697D01*
X712470Y767470D01*
D02*
G37*
G36*
X709930D02*
X708062Y766697D01*
X706503Y765138D01*
X705730Y763270D01*
X709930D01*
Y767470D01*
D02*
G37*
G36*
X661670D02*
Y763270D01*
X665870D01*
X665097Y765138D01*
X663538Y766697D01*
X661670Y767470D01*
D02*
G37*
G36*
X659130D02*
X657262Y766697D01*
X655703Y765138D01*
X654930Y763270D01*
X659130D01*
Y767470D01*
D02*
G37*
G36*
X610870D02*
Y763270D01*
X615070D01*
X614297Y765138D01*
X612738Y766697D01*
X610870Y767470D01*
D02*
G37*
G36*
X608330D02*
X606462Y766697D01*
X604903Y765138D01*
X604130Y763270D01*
X608330D01*
Y767470D01*
D02*
G37*
G36*
X560070D02*
Y763270D01*
X564270D01*
X563497Y765138D01*
X561938Y766697D01*
X560070Y767470D01*
D02*
G37*
G36*
X557530D02*
X555662Y766697D01*
X554103Y765138D01*
X553330Y763270D01*
X557530D01*
Y767470D01*
D02*
G37*
G36*
X509270D02*
Y763270D01*
X513470D01*
X512697Y765138D01*
X511138Y766697D01*
X509270Y767470D01*
D02*
G37*
G36*
X506730D02*
X504862Y766697D01*
X503303Y765138D01*
X502530Y763270D01*
X506730D01*
Y767470D01*
D02*
G37*
G36*
X458470D02*
Y763270D01*
X462670D01*
X461897Y765138D01*
X460338Y766697D01*
X458470Y767470D01*
D02*
G37*
G36*
X455930D02*
X454062Y766697D01*
X452503Y765138D01*
X451730Y763270D01*
X455930D01*
Y767470D01*
D02*
G37*
G36*
X407670D02*
Y763270D01*
X411870D01*
X411097Y765138D01*
X409538Y766697D01*
X407670Y767470D01*
D02*
G37*
G36*
X405130D02*
X403262Y766697D01*
X401703Y765138D01*
X400930Y763270D01*
X405130D01*
Y767470D01*
D02*
G37*
G36*
X356870D02*
Y763270D01*
X361070D01*
X360297Y765138D01*
X358738Y766697D01*
X356870Y767470D01*
D02*
G37*
G36*
X354330D02*
X352462Y766697D01*
X350903Y765138D01*
X350130Y763270D01*
X354330D01*
Y767470D01*
D02*
G37*
G36*
X306070D02*
Y763270D01*
X310270D01*
X309497Y765138D01*
X307938Y766697D01*
X306070Y767470D01*
D02*
G37*
G36*
X303530D02*
X301662Y766697D01*
X300103Y765138D01*
X299330Y763270D01*
X303530D01*
Y767470D01*
D02*
G37*
G36*
X255270D02*
Y763270D01*
X259470D01*
X258697Y765138D01*
X257138Y766697D01*
X255270Y767470D01*
D02*
G37*
G36*
X252730D02*
X250862Y766697D01*
X249303Y765138D01*
X248530Y763270D01*
X252730D01*
Y767470D01*
D02*
G37*
G36*
X204470D02*
Y763270D01*
X208670D01*
X207897Y765138D01*
X206338Y766697D01*
X204470Y767470D01*
D02*
G37*
G36*
X201930D02*
X200062Y766697D01*
X198503Y765138D01*
X197730Y763270D01*
X201930D01*
Y767470D01*
D02*
G37*
G36*
X919870Y760730D02*
X915670D01*
Y756530D01*
X917538Y757303D01*
X919097Y758862D01*
X919870Y760730D01*
D02*
G37*
G36*
X913130D02*
X908930D01*
X909703Y758862D01*
X911262Y757303D01*
X913130Y756530D01*
Y760730D01*
D02*
G37*
G36*
X869070D02*
X864870D01*
Y756530D01*
X866738Y757303D01*
X868297Y758862D01*
X869070Y760730D01*
D02*
G37*
G36*
X862330D02*
X858130D01*
X858903Y758862D01*
X860462Y757303D01*
X862330Y756530D01*
Y760730D01*
D02*
G37*
G36*
X818270D02*
X814070D01*
Y756530D01*
X815938Y757303D01*
X817497Y758862D01*
X818270Y760730D01*
D02*
G37*
G36*
X811530D02*
X807330D01*
X808103Y758862D01*
X809662Y757303D01*
X811530Y756530D01*
Y760730D01*
D02*
G37*
G36*
X767470D02*
X763270D01*
Y756530D01*
X765138Y757303D01*
X766697Y758862D01*
X767470Y760730D01*
D02*
G37*
G36*
X760730D02*
X756530D01*
X757303Y758862D01*
X758862Y757303D01*
X760730Y756530D01*
Y760730D01*
D02*
G37*
G36*
X716670D02*
X712470D01*
Y756530D01*
X714338Y757303D01*
X715897Y758862D01*
X716670Y760730D01*
D02*
G37*
G36*
X709930D02*
X705730D01*
X706503Y758862D01*
X708062Y757303D01*
X709930Y756530D01*
Y760730D01*
D02*
G37*
G36*
X665870D02*
X661670D01*
Y756530D01*
X663538Y757303D01*
X665097Y758862D01*
X665870Y760730D01*
D02*
G37*
G36*
X659130D02*
X654930D01*
X655703Y758862D01*
X657262Y757303D01*
X659130Y756530D01*
Y760730D01*
D02*
G37*
G36*
X615070D02*
X610870D01*
Y756530D01*
X612738Y757303D01*
X614297Y758862D01*
X615070Y760730D01*
D02*
G37*
G36*
X608330D02*
X604130D01*
X604903Y758862D01*
X606462Y757303D01*
X608330Y756530D01*
Y760730D01*
D02*
G37*
G36*
X564270D02*
X560070D01*
Y756530D01*
X561938Y757303D01*
X563497Y758862D01*
X564270Y760730D01*
D02*
G37*
G36*
X557530D02*
X553330D01*
X554103Y758862D01*
X555662Y757303D01*
X557530Y756530D01*
Y760730D01*
D02*
G37*
G36*
X513470D02*
X509270D01*
Y756530D01*
X511138Y757303D01*
X512697Y758862D01*
X513470Y760730D01*
D02*
G37*
G36*
X506730D02*
X502530D01*
X503303Y758862D01*
X504862Y757303D01*
X506730Y756530D01*
Y760730D01*
D02*
G37*
G36*
X462670D02*
X458470D01*
Y756530D01*
X460338Y757303D01*
X461897Y758862D01*
X462670Y760730D01*
D02*
G37*
G36*
X455930D02*
X451730D01*
X452503Y758862D01*
X454062Y757303D01*
X455930Y756530D01*
Y760730D01*
D02*
G37*
G36*
X411870D02*
X407670D01*
Y756530D01*
X409538Y757303D01*
X411097Y758862D01*
X411870Y760730D01*
D02*
G37*
G36*
X405130D02*
X400930D01*
X401703Y758862D01*
X403262Y757303D01*
X405130Y756530D01*
Y760730D01*
D02*
G37*
G36*
X361070D02*
X356870D01*
Y756530D01*
X358738Y757303D01*
X360297Y758862D01*
X361070Y760730D01*
D02*
G37*
G36*
X354330D02*
X350130D01*
X350903Y758862D01*
X352462Y757303D01*
X354330Y756530D01*
Y760730D01*
D02*
G37*
G36*
X310270D02*
X306070D01*
Y756530D01*
X307938Y757303D01*
X309497Y758862D01*
X310270Y760730D01*
D02*
G37*
G36*
X303530D02*
X299330D01*
X300103Y758862D01*
X301662Y757303D01*
X303530Y756530D01*
Y760730D01*
D02*
G37*
G36*
X259470D02*
X255270D01*
Y756530D01*
X257138Y757303D01*
X258697Y758862D01*
X259470Y760730D01*
D02*
G37*
G36*
X252730D02*
X248530D01*
X249303Y758862D01*
X250862Y757303D01*
X252730Y756530D01*
Y760730D01*
D02*
G37*
G36*
X208670D02*
X204470D01*
Y756530D01*
X206338Y757303D01*
X207897Y758862D01*
X208670Y760730D01*
D02*
G37*
G36*
X201930D02*
X197730D01*
X198503Y758862D01*
X200062Y757303D01*
X201930Y756530D01*
Y760730D01*
D02*
G37*
G36*
X956368Y781330D02*
X951331D01*
X946357Y780542D01*
X941566Y778986D01*
X937078Y776699D01*
X933003Y773738D01*
X929442Y770177D01*
X926481Y766102D01*
X924194Y761614D01*
X922638Y756823D01*
X921850Y751849D01*
Y746812D01*
X922638Y741837D01*
X924194Y737046D01*
X926481Y732558D01*
X929442Y728483D01*
X933003Y724922D01*
X937078Y721961D01*
X941566Y719674D01*
X946357Y718118D01*
X951331Y717330D01*
X956368D01*
X961343Y718118D01*
X966134Y719674D01*
X970622Y721961D01*
X974697Y724922D01*
X978258Y728483D01*
X981219Y732558D01*
X983506Y737046D01*
X985062Y741837D01*
X985850Y746812D01*
Y751849D01*
X985062Y756823D01*
X983506Y761614D01*
X981219Y766102D01*
X978258Y770177D01*
X974697Y773738D01*
X970622Y776699D01*
X966134Y778986D01*
X961343Y780542D01*
X956368Y781330D01*
D02*
G37*
G36*
X991870Y716670D02*
Y712470D01*
X996070D01*
X995297Y714338D01*
X993738Y715897D01*
X991870Y716670D01*
D02*
G37*
G36*
X989330D02*
X987462Y715897D01*
X985903Y714338D01*
X985130Y712470D01*
X989330D01*
Y716670D01*
D02*
G37*
G36*
X941070D02*
Y712470D01*
X945270D01*
X944497Y714338D01*
X942938Y715897D01*
X941070Y716670D01*
D02*
G37*
G36*
X938530D02*
X936662Y715897D01*
X935103Y714338D01*
X934330Y712470D01*
X938530D01*
Y716670D01*
D02*
G37*
G36*
X890270D02*
Y712470D01*
X894470D01*
X893697Y714338D01*
X892138Y715897D01*
X890270Y716670D01*
D02*
G37*
G36*
X887730D02*
X885862Y715897D01*
X884303Y714338D01*
X883530Y712470D01*
X887730D01*
Y716670D01*
D02*
G37*
G36*
X839470D02*
Y712470D01*
X843670D01*
X842897Y714338D01*
X841338Y715897D01*
X839470Y716670D01*
D02*
G37*
G36*
X836930D02*
X835062Y715897D01*
X833503Y714338D01*
X832730Y712470D01*
X836930D01*
Y716670D01*
D02*
G37*
G36*
X179070D02*
Y712470D01*
X183270D01*
X182497Y714338D01*
X180938Y715897D01*
X179070Y716670D01*
D02*
G37*
G36*
X176530D02*
X174662Y715897D01*
X173103Y714338D01*
X172330Y712470D01*
X176530D01*
Y716670D01*
D02*
G37*
G36*
X128249Y781330D02*
X123211D01*
X118237Y780542D01*
X113446Y778986D01*
X108958Y776699D01*
X104883Y773738D01*
X101322Y770177D01*
X98361Y766102D01*
X96074Y761614D01*
X94518Y756823D01*
X93730Y751849D01*
Y746812D01*
X94518Y741837D01*
X96074Y737046D01*
X98361Y732558D01*
X101322Y728483D01*
X104883Y724922D01*
X108958Y721961D01*
X113446Y719674D01*
X118237Y718118D01*
X122692Y717412D01*
X123269Y715953D01*
X123295Y715330D01*
X122303Y714338D01*
X121530Y712470D01*
X132470D01*
X131697Y714338D01*
X130390Y715644D01*
X130512Y716815D01*
X130893Y717749D01*
X133223Y718118D01*
X138014Y719674D01*
X142502Y721961D01*
X146577Y724922D01*
X150138Y728483D01*
X153099Y732558D01*
X155386Y737046D01*
X156942Y741837D01*
X157730Y746812D01*
Y751849D01*
X156942Y756823D01*
X155386Y761614D01*
X153099Y766102D01*
X150138Y770177D01*
X146577Y773738D01*
X142502Y776699D01*
X138014Y778986D01*
X133223Y780542D01*
X128249Y781330D01*
D02*
G37*
G36*
X996070Y709930D02*
X991870D01*
Y705730D01*
X993738Y706503D01*
X995297Y708062D01*
X996070Y709930D01*
D02*
G37*
G36*
X989330D02*
X985130D01*
X985903Y708062D01*
X987462Y706503D01*
X989330Y705730D01*
Y709930D01*
D02*
G37*
G36*
X945270D02*
X941070D01*
Y705730D01*
X942938Y706503D01*
X944497Y708062D01*
X945270Y709930D01*
D02*
G37*
G36*
X938530D02*
X934330D01*
X935103Y708062D01*
X936662Y706503D01*
X938530Y705730D01*
Y709930D01*
D02*
G37*
G36*
X894470D02*
X890270D01*
Y705730D01*
X892138Y706503D01*
X893697Y708062D01*
X894470Y709930D01*
D02*
G37*
G36*
X887730D02*
X883530D01*
X884303Y708062D01*
X885862Y706503D01*
X887730Y705730D01*
Y709930D01*
D02*
G37*
G36*
X843670D02*
X839470D01*
Y705730D01*
X841338Y706503D01*
X842897Y708062D01*
X843670Y709930D01*
D02*
G37*
G36*
X836930D02*
X832730D01*
X833503Y708062D01*
X835062Y706503D01*
X836930Y705730D01*
Y709930D01*
D02*
G37*
G36*
X183270D02*
X179070D01*
Y705730D01*
X180938Y706503D01*
X182497Y708062D01*
X183270Y709930D01*
D02*
G37*
G36*
X176530D02*
X172330D01*
X173103Y708062D01*
X174662Y706503D01*
X176530Y705730D01*
Y709930D01*
D02*
G37*
G36*
X132470D02*
X128270D01*
Y705730D01*
X130138Y706503D01*
X131697Y708062D01*
X132470Y709930D01*
D02*
G37*
G36*
X125730D02*
X121530D01*
X122303Y708062D01*
X123862Y706503D01*
X125730Y705730D01*
Y709930D01*
D02*
G37*
G36*
X887019Y696070D02*
X884781D01*
X882619Y695491D01*
X880681Y694372D01*
X879099Y692789D01*
X877979Y690851D01*
X877400Y688689D01*
Y686451D01*
X877979Y684289D01*
X879099Y682351D01*
X880681Y680768D01*
X882619Y679649D01*
X884781Y679070D01*
X887019D01*
X889181Y679649D01*
X891119Y680768D01*
X892702Y682351D01*
X893821Y684289D01*
X894400Y686451D01*
Y688689D01*
X893821Y690851D01*
X892702Y692789D01*
X891119Y694372D01*
X889181Y695491D01*
X887019Y696070D01*
D02*
G37*
G36*
X861770Y678606D02*
Y670340D01*
X870036D01*
X869390Y672752D01*
X868134Y674928D01*
X866358Y676704D01*
X864183Y677960D01*
X861770Y678606D01*
D02*
G37*
G36*
X859230D02*
X856818Y677960D01*
X854642Y676704D01*
X852866Y674928D01*
X851610Y672752D01*
X850964Y670340D01*
X859230D01*
Y678606D01*
D02*
G37*
G36*
X966470Y665870D02*
Y661670D01*
X970670D01*
X969897Y663538D01*
X968338Y665097D01*
X966470Y665870D01*
D02*
G37*
G36*
X963930D02*
X962062Y665097D01*
X960503Y663538D01*
X959730Y661670D01*
X963930D01*
Y665870D01*
D02*
G37*
G36*
X915670D02*
Y661670D01*
X919870D01*
X919097Y663538D01*
X917538Y665097D01*
X915670Y665870D01*
D02*
G37*
G36*
X913130D02*
X911262Y665097D01*
X909703Y663538D01*
X908930Y661670D01*
X913130D01*
Y665870D01*
D02*
G37*
G36*
X814070D02*
Y661670D01*
X818270D01*
X817497Y663538D01*
X815938Y665097D01*
X814070Y665870D01*
D02*
G37*
G36*
X153670D02*
Y661670D01*
X157870D01*
X157097Y663538D01*
X155538Y665097D01*
X153670Y665870D01*
D02*
G37*
G36*
X151130D02*
X149262Y665097D01*
X147703Y663538D01*
X146930Y661670D01*
X151130D01*
Y665870D01*
D02*
G37*
G36*
X102870D02*
Y661670D01*
X107070D01*
X106297Y663538D01*
X104738Y665097D01*
X102870Y665870D01*
D02*
G37*
G36*
X100330D02*
X98462Y665097D01*
X96903Y663538D01*
X96130Y661670D01*
X100330D01*
Y665870D01*
D02*
G37*
G36*
X870036Y667800D02*
X861770D01*
Y659534D01*
X864183Y660180D01*
X866358Y661436D01*
X868134Y663212D01*
X869390Y665388D01*
X870036Y667800D01*
D02*
G37*
G36*
X859230D02*
X850964D01*
X851610Y665388D01*
X852866Y663212D01*
X854642Y661436D01*
X856818Y660180D01*
X859230Y659534D01*
Y667800D01*
D02*
G37*
G36*
X970670Y659130D02*
X966470D01*
Y654930D01*
X968338Y655703D01*
X969897Y657262D01*
X970670Y659130D01*
D02*
G37*
G36*
X963930D02*
X959730D01*
X960503Y657262D01*
X962062Y655703D01*
X963930Y654930D01*
Y659130D01*
D02*
G37*
G36*
X919870D02*
X915670D01*
Y654930D01*
X917538Y655703D01*
X919097Y657262D01*
X919870Y659130D01*
D02*
G37*
G36*
X913130D02*
X908930D01*
X909703Y657262D01*
X911262Y655703D01*
X913130Y654930D01*
Y659130D01*
D02*
G37*
G36*
X818270D02*
X814070D01*
Y654930D01*
X815938Y655703D01*
X817497Y657262D01*
X818270Y659130D01*
D02*
G37*
G36*
X767470D02*
X763270D01*
Y654930D01*
X765138Y655703D01*
X766697Y657262D01*
X767470Y659130D01*
D02*
G37*
G36*
X760730D02*
X756530D01*
X757303Y657262D01*
X758862Y655703D01*
X760730Y654930D01*
Y659130D01*
D02*
G37*
G36*
X157870D02*
X153670D01*
Y654930D01*
X155538Y655703D01*
X157097Y657262D01*
X157870Y659130D01*
D02*
G37*
G36*
X151130D02*
X146930D01*
X147703Y657262D01*
X149262Y655703D01*
X151130Y654930D01*
Y659130D01*
D02*
G37*
G36*
X107070D02*
X102870D01*
Y654930D01*
X104738Y655703D01*
X106297Y657262D01*
X107070Y659130D01*
D02*
G37*
G36*
X100330D02*
X96130D01*
X96903Y657262D01*
X98462Y655703D01*
X100330Y654930D01*
Y659130D01*
D02*
G37*
G36*
X991870Y615070D02*
Y610870D01*
X996070D01*
X995297Y612738D01*
X993738Y614297D01*
X991870Y615070D01*
D02*
G37*
G36*
X989330D02*
X987462Y614297D01*
X985903Y612738D01*
X985130Y610870D01*
X989330D01*
Y615070D01*
D02*
G37*
G36*
X941070D02*
Y610870D01*
X945270D01*
X944497Y612738D01*
X942938Y614297D01*
X941070Y615070D01*
D02*
G37*
G36*
X938530D02*
X936662Y614297D01*
X935103Y612738D01*
X934330Y610870D01*
X938530D01*
Y615070D01*
D02*
G37*
G36*
X890270D02*
Y610870D01*
X894470D01*
X893697Y612738D01*
X892138Y614297D01*
X890270Y615070D01*
D02*
G37*
G36*
X887730D02*
X885862Y614297D01*
X884303Y612738D01*
X883530Y610870D01*
X887730D01*
Y615070D01*
D02*
G37*
G36*
X788670D02*
Y610870D01*
X792870D01*
X792097Y612738D01*
X790538Y614297D01*
X788670Y615070D01*
D02*
G37*
G36*
X786130D02*
X784262Y614297D01*
X782703Y612738D01*
X781930Y610870D01*
X786130D01*
Y615070D01*
D02*
G37*
G36*
X737870D02*
Y610870D01*
X742070D01*
X741297Y612738D01*
X739738Y614297D01*
X737870Y615070D01*
D02*
G37*
G36*
X735330D02*
X733462Y614297D01*
X731903Y612738D01*
X731130Y610870D01*
X735330D01*
Y615070D01*
D02*
G37*
G36*
X687070D02*
Y610870D01*
X691270D01*
X690497Y612738D01*
X688938Y614297D01*
X687070Y615070D01*
D02*
G37*
G36*
X684530D02*
X682662Y614297D01*
X681103Y612738D01*
X680330Y610870D01*
X684530D01*
Y615070D01*
D02*
G37*
G36*
X179070D02*
Y610870D01*
X183270D01*
X182497Y612738D01*
X180938Y614297D01*
X179070Y615070D01*
D02*
G37*
G36*
X176530D02*
X174662Y614297D01*
X173103Y612738D01*
X172330Y610870D01*
X176530D01*
Y615070D01*
D02*
G37*
G36*
X128270D02*
Y610870D01*
X132470D01*
X131697Y612738D01*
X130138Y614297D01*
X128270Y615070D01*
D02*
G37*
G36*
X125730D02*
X123862Y614297D01*
X122303Y612738D01*
X121530Y610870D01*
X125730D01*
Y615070D01*
D02*
G37*
G36*
X996070Y608330D02*
X991870D01*
Y604130D01*
X993738Y604903D01*
X995297Y606462D01*
X996070Y608330D01*
D02*
G37*
G36*
X989330D02*
X985130D01*
X985903Y606462D01*
X987462Y604903D01*
X989330Y604130D01*
Y608330D01*
D02*
G37*
G36*
X945270D02*
X941070D01*
Y604130D01*
X942938Y604903D01*
X944497Y606462D01*
X945270Y608330D01*
D02*
G37*
G36*
X938530D02*
X934330D01*
X935103Y606462D01*
X936662Y604903D01*
X938530Y604130D01*
Y608330D01*
D02*
G37*
G36*
X894470D02*
X890270D01*
Y604130D01*
X892138Y604903D01*
X893697Y606462D01*
X894470Y608330D01*
D02*
G37*
G36*
X887730D02*
X883530D01*
X884303Y606462D01*
X885862Y604903D01*
X887730Y604130D01*
Y608330D01*
D02*
G37*
G36*
X792870D02*
X788670D01*
Y604130D01*
X790538Y604903D01*
X792097Y606462D01*
X792870Y608330D01*
D02*
G37*
G36*
X786130D02*
X781930D01*
X782703Y606462D01*
X784262Y604903D01*
X786130Y604130D01*
Y608330D01*
D02*
G37*
G36*
X742070D02*
X737870D01*
Y604130D01*
X739738Y604903D01*
X741297Y606462D01*
X742070Y608330D01*
D02*
G37*
G36*
X735330D02*
X731130D01*
X731903Y606462D01*
X733462Y604903D01*
X735330Y604130D01*
Y608330D01*
D02*
G37*
G36*
X691270D02*
X687070D01*
Y604130D01*
X688938Y604903D01*
X690497Y606462D01*
X691270Y608330D01*
D02*
G37*
G36*
X684530D02*
X680330D01*
X681103Y606462D01*
X682662Y604903D01*
X684530Y604130D01*
Y608330D01*
D02*
G37*
G36*
X183270D02*
X179070D01*
Y604130D01*
X180938Y604903D01*
X182497Y606462D01*
X183270Y608330D01*
D02*
G37*
G36*
X176530D02*
X172330D01*
X173103Y606462D01*
X174662Y604903D01*
X176530Y604130D01*
Y608330D01*
D02*
G37*
G36*
X132470D02*
X128270D01*
Y604130D01*
X130138Y604903D01*
X131697Y606462D01*
X132470Y608330D01*
D02*
G37*
G36*
X125730D02*
X121530D01*
X122303Y606462D01*
X123862Y604903D01*
X125730Y604130D01*
Y608330D01*
D02*
G37*
G36*
X966470Y564270D02*
Y560070D01*
X970670D01*
X969897Y561938D01*
X968338Y563497D01*
X966470Y564270D01*
D02*
G37*
G36*
X963930D02*
X962062Y563497D01*
X960503Y561938D01*
X959730Y560070D01*
X963930D01*
Y564270D01*
D02*
G37*
G36*
X915670D02*
Y560070D01*
X919870D01*
X919097Y561938D01*
X917538Y563497D01*
X915670Y564270D01*
D02*
G37*
G36*
X913130D02*
X911262Y563497D01*
X909703Y561938D01*
X908930Y560070D01*
X913130D01*
Y564270D01*
D02*
G37*
G36*
X864870D02*
Y560070D01*
X869070D01*
X868297Y561938D01*
X866738Y563497D01*
X864870Y564270D01*
D02*
G37*
G36*
X862330D02*
X860462Y563497D01*
X858903Y561938D01*
X858130Y560070D01*
X862330D01*
Y564270D01*
D02*
G37*
G36*
X814070D02*
Y560070D01*
X818270D01*
X817497Y561938D01*
X815938Y563497D01*
X814070Y564270D01*
D02*
G37*
G36*
X811530D02*
X809662Y563497D01*
X808103Y561938D01*
X807330Y560070D01*
X811530D01*
Y564270D01*
D02*
G37*
G36*
X712470D02*
Y560070D01*
X716670D01*
X715897Y561938D01*
X714338Y563497D01*
X712470Y564270D01*
D02*
G37*
G36*
X709930D02*
X708062Y563497D01*
X706503Y561938D01*
X705730Y560070D01*
X709930D01*
Y564270D01*
D02*
G37*
G36*
X661670D02*
Y560070D01*
X665870D01*
X665097Y561938D01*
X663538Y563497D01*
X661670Y564270D01*
D02*
G37*
G36*
X659130D02*
X657262Y563497D01*
X655703Y561938D01*
X654930Y560070D01*
X659130D01*
Y564270D01*
D02*
G37*
G36*
X153670D02*
Y560070D01*
X157870D01*
X157097Y561938D01*
X155538Y563497D01*
X153670Y564270D01*
D02*
G37*
G36*
X151130D02*
X149262Y563497D01*
X147703Y561938D01*
X146930Y560070D01*
X151130D01*
Y564270D01*
D02*
G37*
G36*
X102870D02*
Y560070D01*
X107070D01*
X106297Y561938D01*
X104738Y563497D01*
X102870Y564270D01*
D02*
G37*
G36*
X100330D02*
X98462Y563497D01*
X96903Y561938D01*
X96130Y560070D01*
X100330D01*
Y564270D01*
D02*
G37*
G36*
X970670Y557530D02*
X966470D01*
Y553330D01*
X968338Y554103D01*
X969897Y555662D01*
X970670Y557530D01*
D02*
G37*
G36*
X963930D02*
X959730D01*
X960503Y555662D01*
X962062Y554103D01*
X963930Y553330D01*
Y557530D01*
D02*
G37*
G36*
X919870D02*
X915670D01*
Y553330D01*
X917538Y554103D01*
X919097Y555662D01*
X919870Y557530D01*
D02*
G37*
G36*
X913130D02*
X908930D01*
X909703Y555662D01*
X911262Y554103D01*
X913130Y553330D01*
Y557530D01*
D02*
G37*
G36*
X869070D02*
X864870D01*
Y553330D01*
X866738Y554103D01*
X868297Y555662D01*
X869070Y557530D01*
D02*
G37*
G36*
X862330D02*
X858130D01*
X858903Y555662D01*
X860462Y554103D01*
X862330Y553330D01*
Y557530D01*
D02*
G37*
G36*
X818270D02*
X814070D01*
Y553330D01*
X815938Y554103D01*
X817497Y555662D01*
X818270Y557530D01*
D02*
G37*
G36*
X811530D02*
X807330D01*
X808103Y555662D01*
X809662Y554103D01*
X811530Y553330D01*
Y557530D01*
D02*
G37*
G36*
X716670D02*
X712470D01*
Y553330D01*
X714338Y554103D01*
X715897Y555662D01*
X716670Y557530D01*
D02*
G37*
G36*
X709930D02*
X705730D01*
X706503Y555662D01*
X708062Y554103D01*
X709930Y553330D01*
Y557530D01*
D02*
G37*
G36*
X665870D02*
X661670D01*
Y553330D01*
X663538Y554103D01*
X665097Y555662D01*
X665870Y557530D01*
D02*
G37*
G36*
X659130D02*
X654930D01*
X655703Y555662D01*
X657262Y554103D01*
X659130Y553330D01*
Y557530D01*
D02*
G37*
G36*
X157870D02*
X153670D01*
Y553330D01*
X155538Y554103D01*
X157097Y555662D01*
X157870Y557530D01*
D02*
G37*
G36*
X151130D02*
X146930D01*
X147703Y555662D01*
X149262Y554103D01*
X151130Y553330D01*
Y557530D01*
D02*
G37*
G36*
X107070D02*
X102870D01*
Y553330D01*
X104738Y554103D01*
X106297Y555662D01*
X107070Y557530D01*
D02*
G37*
G36*
X100330D02*
X96130D01*
X96903Y555662D01*
X98462Y554103D01*
X100330Y553330D01*
Y557530D01*
D02*
G37*
G36*
X887019Y569070D02*
X884781D01*
X882619Y568491D01*
X880681Y567372D01*
X879099Y565789D01*
X877979Y563851D01*
X877400Y561689D01*
Y559451D01*
X877979Y557289D01*
X879099Y555351D01*
X880681Y553768D01*
X882619Y552649D01*
X884781Y552070D01*
X887019D01*
X889181Y552649D01*
X891119Y553768D01*
X892702Y555351D01*
X893821Y557289D01*
X894400Y559451D01*
Y561689D01*
X893821Y563851D01*
X892702Y565789D01*
X891119Y567372D01*
X889181Y568491D01*
X887019Y569070D01*
D02*
G37*
G36*
X760019D02*
X757781D01*
X755619Y568491D01*
X753681Y567372D01*
X752098Y565789D01*
X750979Y563851D01*
X750400Y561689D01*
Y559451D01*
X750979Y557289D01*
X752098Y555351D01*
X753681Y553768D01*
X755619Y552649D01*
X757781Y552070D01*
X760019D01*
X762181Y552649D01*
X764119Y553768D01*
X765702Y555351D01*
X766821Y557289D01*
X767400Y559451D01*
Y561689D01*
X766821Y563851D01*
X765702Y565789D01*
X764119Y567372D01*
X762181Y568491D01*
X760019Y569070D01*
D02*
G37*
G36*
X991870Y513470D02*
Y509270D01*
X996070D01*
X995297Y511138D01*
X993738Y512697D01*
X991870Y513470D01*
D02*
G37*
G36*
X989330D02*
X987462Y512697D01*
X985903Y511138D01*
X985130Y509270D01*
X989330D01*
Y513470D01*
D02*
G37*
G36*
X941070D02*
Y509270D01*
X945270D01*
X944497Y511138D01*
X942938Y512697D01*
X941070Y513470D01*
D02*
G37*
G36*
X938530D02*
X936662Y512697D01*
X935103Y511138D01*
X934330Y509270D01*
X938530D01*
Y513470D01*
D02*
G37*
G36*
X890270D02*
Y509270D01*
X894470D01*
X893697Y511138D01*
X892138Y512697D01*
X890270Y513470D01*
D02*
G37*
G36*
X887730D02*
X885862Y512697D01*
X884303Y511138D01*
X883530Y509270D01*
X887730D01*
Y513470D01*
D02*
G37*
G36*
X839470D02*
Y509270D01*
X843670D01*
X842897Y511138D01*
X841338Y512697D01*
X839470Y513470D01*
D02*
G37*
G36*
X836930D02*
X835062Y512697D01*
X833503Y511138D01*
X832730Y509270D01*
X836930D01*
Y513470D01*
D02*
G37*
G36*
X788670D02*
Y509270D01*
X792870D01*
X792097Y511138D01*
X790538Y512697D01*
X788670Y513470D01*
D02*
G37*
G36*
X786130D02*
X784262Y512697D01*
X782703Y511138D01*
X781930Y509270D01*
X786130D01*
Y513470D01*
D02*
G37*
G36*
X737870D02*
Y509270D01*
X742070D01*
X741297Y511138D01*
X739738Y512697D01*
X737870Y513470D01*
D02*
G37*
G36*
X735330D02*
X733462Y512697D01*
X731903Y511138D01*
X731130Y509270D01*
X735330D01*
Y513470D01*
D02*
G37*
G36*
X687070D02*
Y509270D01*
X691270D01*
X690497Y511138D01*
X688938Y512697D01*
X687070Y513470D01*
D02*
G37*
G36*
X684530D02*
X682662Y512697D01*
X681103Y511138D01*
X680330Y509270D01*
X684530D01*
Y513470D01*
D02*
G37*
G36*
X636270D02*
Y509270D01*
X640470D01*
X639697Y511138D01*
X638138Y512697D01*
X636270Y513470D01*
D02*
G37*
G36*
X633730D02*
X631862Y512697D01*
X630303Y511138D01*
X629530Y509270D01*
X633730D01*
Y513470D01*
D02*
G37*
G36*
X585470D02*
Y509270D01*
X589670D01*
X588897Y511138D01*
X587338Y512697D01*
X585470Y513470D01*
D02*
G37*
G36*
X582930D02*
X581062Y512697D01*
X579503Y511138D01*
X578730Y509270D01*
X582930D01*
Y513470D01*
D02*
G37*
G36*
X128270D02*
Y509270D01*
X132470D01*
X131697Y511138D01*
X130138Y512697D01*
X128270Y513470D01*
D02*
G37*
G36*
X125730D02*
X123862Y512697D01*
X122303Y511138D01*
X121530Y509270D01*
X125730D01*
Y513470D01*
D02*
G37*
G36*
X996070Y506730D02*
X991870D01*
Y502530D01*
X993738Y503303D01*
X995297Y504862D01*
X996070Y506730D01*
D02*
G37*
G36*
X989330D02*
X985130D01*
X985903Y504862D01*
X987462Y503303D01*
X989330Y502530D01*
Y506730D01*
D02*
G37*
G36*
X945270D02*
X941070D01*
Y502530D01*
X942938Y503303D01*
X944497Y504862D01*
X945270Y506730D01*
D02*
G37*
G36*
X938530D02*
X934330D01*
X935103Y504862D01*
X936662Y503303D01*
X938530Y502530D01*
Y506730D01*
D02*
G37*
G36*
X894470D02*
X890270D01*
Y502530D01*
X892138Y503303D01*
X893697Y504862D01*
X894470Y506730D01*
D02*
G37*
G36*
X887730D02*
X883530D01*
X884303Y504862D01*
X885862Y503303D01*
X887730Y502530D01*
Y506730D01*
D02*
G37*
G36*
X843670D02*
X839470D01*
Y502530D01*
X841338Y503303D01*
X842897Y504862D01*
X843670Y506730D01*
D02*
G37*
G36*
X836930D02*
X832730D01*
X833503Y504862D01*
X835062Y503303D01*
X836930Y502530D01*
Y506730D01*
D02*
G37*
G36*
X792870D02*
X788670D01*
Y502530D01*
X790538Y503303D01*
X792097Y504862D01*
X792870Y506730D01*
D02*
G37*
G36*
X786130D02*
X781930D01*
X782703Y504862D01*
X784262Y503303D01*
X786130Y502530D01*
Y506730D01*
D02*
G37*
G36*
X742070D02*
X737870D01*
Y502530D01*
X739738Y503303D01*
X741297Y504862D01*
X742070Y506730D01*
D02*
G37*
G36*
X735330D02*
X731130D01*
X731903Y504862D01*
X733462Y503303D01*
X735330Y502530D01*
Y506730D01*
D02*
G37*
G36*
X691270D02*
X687070D01*
Y502530D01*
X688938Y503303D01*
X690497Y504862D01*
X691270Y506730D01*
D02*
G37*
G36*
X684530D02*
X680330D01*
X681103Y504862D01*
X682662Y503303D01*
X684530Y502530D01*
Y506730D01*
D02*
G37*
G36*
X640470D02*
X636270D01*
Y502530D01*
X638138Y503303D01*
X639697Y504862D01*
X640470Y506730D01*
D02*
G37*
G36*
X633730D02*
X629530D01*
X630303Y504862D01*
X631862Y503303D01*
X633730Y502530D01*
Y506730D01*
D02*
G37*
G36*
X589670D02*
X585470D01*
Y502530D01*
X587338Y503303D01*
X588897Y504862D01*
X589670Y506730D01*
D02*
G37*
G36*
X582930D02*
X578730D01*
X579503Y504862D01*
X581062Y503303D01*
X582930Y502530D01*
Y506730D01*
D02*
G37*
G36*
X132470D02*
X128270D01*
Y502530D01*
X130138Y503303D01*
X131697Y504862D01*
X132470Y506730D01*
D02*
G37*
G36*
X125730D02*
X121530D01*
X122303Y504862D01*
X123862Y503303D01*
X125730Y502530D01*
Y506730D01*
D02*
G37*
G36*
X966470Y462670D02*
Y458470D01*
X970670D01*
X969897Y460338D01*
X968338Y461897D01*
X966470Y462670D01*
D02*
G37*
G36*
X963930D02*
X962062Y461897D01*
X960503Y460338D01*
X959730Y458470D01*
X963930D01*
Y462670D01*
D02*
G37*
G36*
X915670D02*
Y458470D01*
X919870D01*
X919097Y460338D01*
X917538Y461897D01*
X915670Y462670D01*
D02*
G37*
G36*
X913130D02*
X911262Y461897D01*
X909703Y460338D01*
X908930Y458470D01*
X913130D01*
Y462670D01*
D02*
G37*
G36*
X864870D02*
Y458470D01*
X869070D01*
X868297Y460338D01*
X866738Y461897D01*
X864870Y462670D01*
D02*
G37*
G36*
X862330D02*
X860462Y461897D01*
X858903Y460338D01*
X858130Y458470D01*
X862330D01*
Y462670D01*
D02*
G37*
G36*
X814070D02*
Y458470D01*
X818270D01*
X817497Y460338D01*
X815938Y461897D01*
X814070Y462670D01*
D02*
G37*
G36*
X811530D02*
X809662Y461897D01*
X808103Y460338D01*
X807330Y458470D01*
X811530D01*
Y462670D01*
D02*
G37*
G36*
X763270D02*
Y458470D01*
X767470D01*
X766697Y460338D01*
X765138Y461897D01*
X763270Y462670D01*
D02*
G37*
G36*
X760730D02*
X758862Y461897D01*
X757303Y460338D01*
X756530Y458470D01*
X760730D01*
Y462670D01*
D02*
G37*
G36*
X712470D02*
Y458470D01*
X716670D01*
X715897Y460338D01*
X714338Y461897D01*
X712470Y462670D01*
D02*
G37*
G36*
X709930D02*
X708062Y461897D01*
X706503Y460338D01*
X705730Y458470D01*
X709930D01*
Y462670D01*
D02*
G37*
G36*
X661670D02*
Y458470D01*
X665870D01*
X665097Y460338D01*
X663538Y461897D01*
X661670Y462670D01*
D02*
G37*
G36*
X659130D02*
X657262Y461897D01*
X655703Y460338D01*
X654930Y458470D01*
X659130D01*
Y462670D01*
D02*
G37*
G36*
X610870D02*
Y458470D01*
X615070D01*
X614297Y460338D01*
X612738Y461897D01*
X610870Y462670D01*
D02*
G37*
G36*
X608330D02*
X606462Y461897D01*
X604903Y460338D01*
X604130Y458470D01*
X608330D01*
Y462670D01*
D02*
G37*
G36*
X560070D02*
Y458470D01*
X564270D01*
X563497Y460338D01*
X561938Y461897D01*
X560070Y462670D01*
D02*
G37*
G36*
X557530D02*
X555662Y461897D01*
X554103Y460338D01*
X553330Y458470D01*
X557530D01*
Y462670D01*
D02*
G37*
G36*
X153670D02*
Y458470D01*
X157870D01*
X157097Y460338D01*
X155538Y461897D01*
X153670Y462670D01*
D02*
G37*
G36*
X151130D02*
X149262Y461897D01*
X147703Y460338D01*
X146930Y458470D01*
X151130D01*
Y462670D01*
D02*
G37*
G36*
X102870D02*
Y458470D01*
X107070D01*
X106297Y460338D01*
X104738Y461897D01*
X102870Y462670D01*
D02*
G37*
G36*
X100330D02*
X98462Y461897D01*
X96903Y460338D01*
X96130Y458470D01*
X100330D01*
Y462670D01*
D02*
G37*
G36*
X970670Y455930D02*
X966470D01*
Y451730D01*
X968338Y452503D01*
X969897Y454062D01*
X970670Y455930D01*
D02*
G37*
G36*
X963930D02*
X959730D01*
X960503Y454062D01*
X962062Y452503D01*
X963930Y451730D01*
Y455930D01*
D02*
G37*
G36*
X919870D02*
X915670D01*
Y451730D01*
X917538Y452503D01*
X919097Y454062D01*
X919870Y455930D01*
D02*
G37*
G36*
X913130D02*
X908930D01*
X909703Y454062D01*
X911262Y452503D01*
X913130Y451730D01*
Y455930D01*
D02*
G37*
G36*
X869070D02*
X864870D01*
Y451730D01*
X866738Y452503D01*
X868297Y454062D01*
X869070Y455930D01*
D02*
G37*
G36*
X862330D02*
X858130D01*
X858903Y454062D01*
X860462Y452503D01*
X862330Y451730D01*
Y455930D01*
D02*
G37*
G36*
X818270D02*
X814070D01*
Y451730D01*
X815938Y452503D01*
X817497Y454062D01*
X818270Y455930D01*
D02*
G37*
G36*
X811530D02*
X807330D01*
X808103Y454062D01*
X809662Y452503D01*
X811530Y451730D01*
Y455930D01*
D02*
G37*
G36*
X767470D02*
X763270D01*
Y451730D01*
X765138Y452503D01*
X766697Y454062D01*
X767470Y455930D01*
D02*
G37*
G36*
X760730D02*
X756530D01*
X757303Y454062D01*
X758862Y452503D01*
X760730Y451730D01*
Y455930D01*
D02*
G37*
G36*
X716670D02*
X712470D01*
Y451730D01*
X714338Y452503D01*
X715897Y454062D01*
X716670Y455930D01*
D02*
G37*
G36*
X709930D02*
X705730D01*
X706503Y454062D01*
X708062Y452503D01*
X709930Y451730D01*
Y455930D01*
D02*
G37*
G36*
X665870D02*
X661670D01*
Y451730D01*
X663538Y452503D01*
X665097Y454062D01*
X665870Y455930D01*
D02*
G37*
G36*
X659130D02*
X654930D01*
X655703Y454062D01*
X657262Y452503D01*
X659130Y451730D01*
Y455930D01*
D02*
G37*
G36*
X615070D02*
X610870D01*
Y451730D01*
X612738Y452503D01*
X614297Y454062D01*
X615070Y455930D01*
D02*
G37*
G36*
X608330D02*
X604130D01*
X604903Y454062D01*
X606462Y452503D01*
X608330Y451730D01*
Y455930D01*
D02*
G37*
G36*
X564270D02*
X560070D01*
Y451730D01*
X561938Y452503D01*
X563497Y454062D01*
X564270Y455930D01*
D02*
G37*
G36*
X557530D02*
X553330D01*
X554103Y454062D01*
X555662Y452503D01*
X557530Y451730D01*
Y455930D01*
D02*
G37*
G36*
X157870D02*
X153670D01*
Y451730D01*
X155538Y452503D01*
X157097Y454062D01*
X157870Y455930D01*
D02*
G37*
G36*
X151130D02*
X146930D01*
X147703Y454062D01*
X149262Y452503D01*
X151130Y451730D01*
Y455930D01*
D02*
G37*
G36*
X107070D02*
X102870D01*
Y451730D01*
X104738Y452503D01*
X106297Y454062D01*
X107070Y455930D01*
D02*
G37*
G36*
X100330D02*
X96130D01*
X96903Y454062D01*
X98462Y452503D01*
X100330Y451730D01*
Y455930D01*
D02*
G37*
G36*
X887019Y436070D02*
X884781D01*
X882619Y435491D01*
X880681Y434372D01*
X879099Y432789D01*
X877979Y430851D01*
X877400Y428689D01*
Y426451D01*
X877979Y424289D01*
X879099Y422351D01*
X880681Y420768D01*
X882619Y419649D01*
X884781Y419070D01*
X887019D01*
X889181Y419649D01*
X891119Y420768D01*
X892702Y422351D01*
X893821Y424289D01*
X894400Y426451D01*
Y428689D01*
X893821Y430851D01*
X892702Y432789D01*
X891119Y434372D01*
X889181Y435491D01*
X887019Y436070D01*
D02*
G37*
G36*
X760019D02*
X757781D01*
X755619Y435491D01*
X753681Y434372D01*
X752098Y432789D01*
X750979Y430851D01*
X750400Y428689D01*
Y426451D01*
X750979Y424289D01*
X752098Y422351D01*
X753681Y420768D01*
X755619Y419649D01*
X757781Y419070D01*
X760019D01*
X762181Y419649D01*
X764119Y420768D01*
X765702Y422351D01*
X766821Y424289D01*
X767400Y426451D01*
Y428689D01*
X766821Y430851D01*
X765702Y432789D01*
X764119Y434372D01*
X762181Y435491D01*
X760019Y436070D01*
D02*
G37*
G36*
X861770Y418606D02*
Y410340D01*
X870036D01*
X869390Y412752D01*
X868134Y414928D01*
X866358Y416704D01*
X864183Y417960D01*
X861770Y418606D01*
D02*
G37*
G36*
X859230D02*
X856818Y417960D01*
X854642Y416704D01*
X852866Y414928D01*
X851610Y412752D01*
X850964Y410340D01*
X859230D01*
Y418606D01*
D02*
G37*
G36*
X991870Y411870D02*
Y407670D01*
X996070D01*
X995297Y409538D01*
X993738Y411097D01*
X991870Y411870D01*
D02*
G37*
G36*
X989330D02*
X987462Y411097D01*
X985903Y409538D01*
X985130Y407670D01*
X989330D01*
Y411870D01*
D02*
G37*
G36*
X941070D02*
Y407670D01*
X945270D01*
X944497Y409538D01*
X942938Y411097D01*
X941070Y411870D01*
D02*
G37*
G36*
X938530D02*
X936662Y411097D01*
X935103Y409538D01*
X934330Y407670D01*
X938530D01*
Y411870D01*
D02*
G37*
G36*
X890270D02*
Y407670D01*
X894470D01*
X893697Y409538D01*
X892138Y411097D01*
X890270Y411870D01*
D02*
G37*
G36*
X887730D02*
X885862Y411097D01*
X884303Y409538D01*
X883530Y407670D01*
X887730D01*
Y411870D01*
D02*
G37*
G36*
X839470D02*
Y407670D01*
X843670D01*
X842897Y409538D01*
X841338Y411097D01*
X839470Y411870D01*
D02*
G37*
G36*
X836930D02*
X835062Y411097D01*
X833503Y409538D01*
X832730Y407670D01*
X836930D01*
Y411870D01*
D02*
G37*
G36*
X582930D02*
X581062Y411097D01*
X579503Y409538D01*
X578730Y407670D01*
X582930D01*
Y411870D01*
D02*
G37*
G36*
X128270D02*
Y407670D01*
X132470D01*
X131697Y409538D01*
X130138Y411097D01*
X128270Y411870D01*
D02*
G37*
G36*
X125730D02*
X123862Y411097D01*
X122303Y409538D01*
X121530Y407670D01*
X125730D01*
Y411870D01*
D02*
G37*
G36*
X996070Y405130D02*
X991870D01*
Y400930D01*
X993738Y401703D01*
X995297Y403262D01*
X996070Y405130D01*
D02*
G37*
G36*
X989330D02*
X985130D01*
X985903Y403262D01*
X987462Y401703D01*
X989330Y400930D01*
Y405130D01*
D02*
G37*
G36*
X945270D02*
X941070D01*
Y400930D01*
X942938Y401703D01*
X944497Y403262D01*
X945270Y405130D01*
D02*
G37*
G36*
X938530D02*
X934330D01*
X935103Y403262D01*
X936662Y401703D01*
X938530Y400930D01*
Y405130D01*
D02*
G37*
G36*
X894470D02*
X890270D01*
Y400930D01*
X892138Y401703D01*
X893697Y403262D01*
X894470Y405130D01*
D02*
G37*
G36*
X887730D02*
X883530D01*
X884303Y403262D01*
X885862Y401703D01*
X887730Y400930D01*
Y405130D01*
D02*
G37*
G36*
X843670D02*
X839470D01*
Y400930D01*
X841338Y401703D01*
X842897Y403262D01*
X843670Y405130D01*
D02*
G37*
G36*
X836930D02*
X832730D01*
X833503Y403262D01*
X835062Y401703D01*
X836930Y400930D01*
Y405130D01*
D02*
G37*
G36*
X582930D02*
X578730D01*
X579503Y403262D01*
X581062Y401703D01*
X582930Y400930D01*
Y405130D01*
D02*
G37*
G36*
X132470D02*
X128270D01*
Y400930D01*
X130138Y401703D01*
X131697Y403262D01*
X132470Y405130D01*
D02*
G37*
G36*
X125730D02*
X121530D01*
X122303Y403262D01*
X123862Y401703D01*
X125730Y400930D01*
Y405130D01*
D02*
G37*
G36*
X870036Y407800D02*
X861770D01*
Y399534D01*
X864183Y400180D01*
X866358Y401436D01*
X868134Y403212D01*
X869390Y405388D01*
X870036Y407800D01*
D02*
G37*
G36*
X859230D02*
X850964D01*
X851610Y405388D01*
X852866Y403212D01*
X854642Y401436D01*
X856818Y400180D01*
X859230Y399534D01*
Y407800D01*
D02*
G37*
G36*
X610036D02*
X601770D01*
Y399534D01*
X604183Y400180D01*
X606358Y401436D01*
X608134Y403212D01*
X609390Y405388D01*
X610036Y407800D01*
D02*
G37*
G36*
X846254Y391170D02*
X844147D01*
X842112Y390625D01*
X840288Y389572D01*
X838799Y388082D01*
X838755Y388006D01*
X836445D01*
X836402Y388082D01*
X834912Y389572D01*
X833088Y390625D01*
X831053Y391170D01*
X828947D01*
X826912Y390625D01*
X825088Y389572D01*
X823598Y388082D01*
X822545Y386258D01*
X822000Y384223D01*
Y382117D01*
X822545Y380082D01*
X823598Y378258D01*
X825088Y376769D01*
X826912Y375715D01*
X828947Y375170D01*
X831053D01*
X833088Y375715D01*
X834912Y376769D01*
X836402Y378258D01*
X836445Y378334D01*
X838755D01*
X838799Y378258D01*
X840288Y376769D01*
X842112Y375715D01*
X844147Y375170D01*
X846254D01*
X848288Y375715D01*
X850112Y376769D01*
X851602Y378258D01*
X852655Y380082D01*
X853200Y382117D01*
Y384223D01*
X852655Y386258D01*
X851602Y388082D01*
X850112Y389572D01*
X848288Y390625D01*
X846254Y391170D01*
D02*
G37*
G36*
X586254D02*
X584147D01*
X582112Y390625D01*
X580288Y389572D01*
X578799Y388082D01*
X578755Y388006D01*
X576445D01*
X576401Y388082D01*
X574912Y389572D01*
X573088Y390625D01*
X571053Y391170D01*
X568947D01*
X566912Y390625D01*
X565088Y389572D01*
X563598Y388082D01*
X562545Y386258D01*
X562000Y384223D01*
Y382117D01*
X562545Y380082D01*
X563598Y378258D01*
X565088Y376769D01*
X566912Y375715D01*
X568947Y375170D01*
X571053D01*
X573088Y375715D01*
X574912Y376769D01*
X576401Y378258D01*
X576445Y378334D01*
X578755D01*
X578799Y378258D01*
X580288Y376769D01*
X582112Y375715D01*
X584147Y375170D01*
X586254D01*
X588288Y375715D01*
X590112Y376769D01*
X591602Y378258D01*
X592655Y380082D01*
X593200Y382117D01*
Y384223D01*
X592655Y386258D01*
X591602Y388082D01*
X590112Y389572D01*
X588288Y390625D01*
X586254Y391170D01*
D02*
G37*
G36*
X966470Y361070D02*
Y356870D01*
X970670D01*
X969897Y358738D01*
X968338Y360297D01*
X966470Y361070D01*
D02*
G37*
G36*
X963930D02*
X962062Y360297D01*
X960503Y358738D01*
X959730Y356870D01*
X963930D01*
Y361070D01*
D02*
G37*
G36*
X915670D02*
Y356870D01*
X919870D01*
X919097Y358738D01*
X917538Y360297D01*
X915670Y361070D01*
D02*
G37*
G36*
X913130D02*
X911262Y360297D01*
X909703Y358738D01*
X908930Y356870D01*
X913130D01*
Y361070D01*
D02*
G37*
G36*
X864870D02*
Y356870D01*
X869070D01*
X868297Y358738D01*
X866738Y360297D01*
X864870Y361070D01*
D02*
G37*
G36*
X862330D02*
X860462Y360297D01*
X858903Y358738D01*
X858130Y356870D01*
X862330D01*
Y361070D01*
D02*
G37*
G36*
X814070D02*
Y356870D01*
X818270D01*
X817497Y358738D01*
X815938Y360297D01*
X814070Y361070D01*
D02*
G37*
G36*
X811530D02*
X809662Y360297D01*
X808103Y358738D01*
X807330Y356870D01*
X811530D01*
Y361070D01*
D02*
G37*
G36*
X763270D02*
Y356870D01*
X767470D01*
X766697Y358738D01*
X765138Y360297D01*
X763270Y361070D01*
D02*
G37*
G36*
X760730D02*
X758862Y360297D01*
X757303Y358738D01*
X756530Y356870D01*
X760730D01*
Y361070D01*
D02*
G37*
G36*
X712470D02*
Y356870D01*
X716670D01*
X715897Y358738D01*
X714338Y360297D01*
X712470Y361070D01*
D02*
G37*
G36*
X709930D02*
X708062Y360297D01*
X706503Y358738D01*
X705730Y356870D01*
X709930D01*
Y361070D01*
D02*
G37*
G36*
X661670D02*
Y356870D01*
X665870D01*
X665097Y358738D01*
X663538Y360297D01*
X661670Y361070D01*
D02*
G37*
G36*
X659130D02*
X657262Y360297D01*
X655703Y358738D01*
X654930Y356870D01*
X659130D01*
Y361070D01*
D02*
G37*
G36*
X610870D02*
Y356870D01*
X615070D01*
X614297Y358738D01*
X612738Y360297D01*
X610870Y361070D01*
D02*
G37*
G36*
X608330D02*
X606462Y360297D01*
X604903Y358738D01*
X604130Y356870D01*
X608330D01*
Y361070D01*
D02*
G37*
G36*
X560070D02*
Y356870D01*
X564270D01*
X563497Y358738D01*
X561938Y360297D01*
X560070Y361070D01*
D02*
G37*
G36*
X153670D02*
Y356870D01*
X157870D01*
X157097Y358738D01*
X155538Y360297D01*
X153670Y361070D01*
D02*
G37*
G36*
X151130D02*
X149262Y360297D01*
X147703Y358738D01*
X146930Y356870D01*
X151130D01*
Y361070D01*
D02*
G37*
G36*
X102870D02*
Y356870D01*
X107070D01*
X106297Y358738D01*
X104738Y360297D01*
X102870Y361070D01*
D02*
G37*
G36*
X100330D02*
X98462Y360297D01*
X96903Y358738D01*
X96130Y356870D01*
X100330D01*
Y361070D01*
D02*
G37*
G36*
X970670Y354330D02*
X966470D01*
Y350130D01*
X968338Y350903D01*
X969897Y352462D01*
X970670Y354330D01*
D02*
G37*
G36*
X963930D02*
X959730D01*
X960503Y352462D01*
X962062Y350903D01*
X963930Y350130D01*
Y354330D01*
D02*
G37*
G36*
X919870D02*
X915670D01*
Y350130D01*
X917538Y350903D01*
X919097Y352462D01*
X919870Y354330D01*
D02*
G37*
G36*
X913130D02*
X908930D01*
X909703Y352462D01*
X911262Y350903D01*
X913130Y350130D01*
Y354330D01*
D02*
G37*
G36*
X869070D02*
X864870D01*
Y350130D01*
X866738Y350903D01*
X868297Y352462D01*
X869070Y354330D01*
D02*
G37*
G36*
X862330D02*
X858130D01*
X858903Y352462D01*
X860462Y350903D01*
X862330Y350130D01*
Y354330D01*
D02*
G37*
G36*
X157870D02*
X153670D01*
Y350130D01*
X155538Y350903D01*
X157097Y352462D01*
X157870Y354330D01*
D02*
G37*
G36*
X151130D02*
X146930D01*
X147703Y352462D01*
X149262Y350903D01*
X151130Y350130D01*
Y354330D01*
D02*
G37*
G36*
X107070D02*
X102870D01*
Y350130D01*
X104738Y350903D01*
X106297Y352462D01*
X107070Y354330D01*
D02*
G37*
G36*
X100330D02*
X96130D01*
X96903Y352462D01*
X98462Y350903D01*
X100330Y350130D01*
Y354330D01*
D02*
G37*
G36*
X818270D02*
X814070D01*
Y350130D01*
X815938Y350903D01*
X817497Y352462D01*
X818270Y354330D01*
D02*
G37*
G36*
X811530D02*
X807330D01*
X808103Y352462D01*
X809662Y350903D01*
X811530Y350130D01*
Y354330D01*
D02*
G37*
G36*
X767470D02*
X763270D01*
Y350130D01*
X765138Y350903D01*
X766697Y352462D01*
X767470Y354330D01*
D02*
G37*
G36*
X760730D02*
X756530D01*
X757303Y352462D01*
X758862Y350903D01*
X760730Y350130D01*
Y354330D01*
D02*
G37*
G36*
X716670D02*
X712470D01*
Y350130D01*
X714338Y350903D01*
X715897Y352462D01*
X716670Y354330D01*
D02*
G37*
G36*
X709930D02*
X705730D01*
X706503Y352462D01*
X708062Y350903D01*
X709930Y350130D01*
Y354330D01*
D02*
G37*
G36*
X665870D02*
X661670D01*
Y350130D01*
X663538Y350903D01*
X665097Y352462D01*
X665870Y354330D01*
D02*
G37*
G36*
X659130D02*
X654930D01*
X655703Y352462D01*
X657262Y350903D01*
X659130Y350130D01*
Y354330D01*
D02*
G37*
G36*
X615070D02*
X610870D01*
Y350130D01*
X612738Y350903D01*
X614297Y352462D01*
X615070Y354330D01*
D02*
G37*
G36*
X608330D02*
X604130D01*
X604903Y352462D01*
X606462Y350903D01*
X608330Y350130D01*
Y354330D01*
D02*
G37*
G36*
X846254Y352970D02*
X844147D01*
X842112Y352425D01*
X840288Y351372D01*
X838799Y349882D01*
X838755Y349806D01*
X836445D01*
X836402Y349882D01*
X834912Y351372D01*
X833088Y352425D01*
X831053Y352970D01*
X828947D01*
X826912Y352425D01*
X825088Y351372D01*
X823598Y349882D01*
X822545Y348058D01*
X822000Y346023D01*
Y343917D01*
X822545Y341882D01*
X823598Y340058D01*
X825088Y338568D01*
X826912Y337515D01*
X828947Y336970D01*
X831053D01*
X833088Y337515D01*
X834912Y338568D01*
X836402Y340058D01*
X836445Y340134D01*
X838755D01*
X838799Y340058D01*
X840288Y338568D01*
X842112Y337515D01*
X844147Y336970D01*
X846254D01*
X848288Y337515D01*
X850112Y338568D01*
X851602Y340058D01*
X852655Y341882D01*
X853200Y343917D01*
Y346023D01*
X852655Y348058D01*
X851602Y349882D01*
X850112Y351372D01*
X848288Y352425D01*
X846254Y352970D01*
D02*
G37*
G36*
X564270Y354330D02*
X560070D01*
Y350130D01*
X561938Y350903D01*
X563397Y349534D01*
X562545Y348058D01*
X562000Y346023D01*
Y343917D01*
X562545Y341882D01*
X563598Y340058D01*
X565088Y338568D01*
X566912Y337515D01*
X568947Y336970D01*
X571053D01*
X573088Y337515D01*
X574912Y338568D01*
X576401Y340058D01*
X576445Y340134D01*
X578755D01*
X578799Y340058D01*
X580288Y338568D01*
X582112Y337515D01*
X584147Y336970D01*
X586254D01*
X588288Y337515D01*
X590112Y338568D01*
X591602Y340058D01*
X592655Y341882D01*
X593200Y343917D01*
Y346023D01*
X592655Y348058D01*
X591602Y349882D01*
X590112Y351372D01*
X588288Y352425D01*
X586254Y352970D01*
X584147D01*
X582112Y352425D01*
X580288Y351372D01*
X578799Y349882D01*
X578755Y349806D01*
X576445D01*
X576401Y349882D01*
X574912Y351372D01*
X573088Y352425D01*
X571053Y352970D01*
X568947D01*
X566912Y352425D01*
X565088Y351372D01*
X565015Y351299D01*
X563497Y352462D01*
X564270Y354330D01*
D02*
G37*
G36*
X991870Y310270D02*
Y306070D01*
X996070D01*
X995297Y307938D01*
X993738Y309497D01*
X991870Y310270D01*
D02*
G37*
G36*
X989330D02*
X987462Y309497D01*
X985903Y307938D01*
X985130Y306070D01*
X989330D01*
Y310270D01*
D02*
G37*
G36*
X941070D02*
Y306070D01*
X945270D01*
X944497Y307938D01*
X942938Y309497D01*
X941070Y310270D01*
D02*
G37*
G36*
X938530D02*
X936662Y309497D01*
X935103Y307938D01*
X934330Y306070D01*
X938530D01*
Y310270D01*
D02*
G37*
G36*
X839470D02*
Y306070D01*
X843670D01*
X842897Y307938D01*
X841338Y309497D01*
X839470Y310270D01*
D02*
G37*
G36*
X836930D02*
X835062Y309497D01*
X833503Y307938D01*
X832730Y306070D01*
X836930D01*
Y310270D01*
D02*
G37*
G36*
X788670D02*
Y306070D01*
X792870D01*
X792097Y307938D01*
X790538Y309497D01*
X788670Y310270D01*
D02*
G37*
G36*
X786130D02*
X784262Y309497D01*
X782703Y307938D01*
X781930Y306070D01*
X786130D01*
Y310270D01*
D02*
G37*
G36*
X737870D02*
Y306070D01*
X742070D01*
X741297Y307938D01*
X739738Y309497D01*
X737870Y310270D01*
D02*
G37*
G36*
X735330D02*
X733462Y309497D01*
X731903Y307938D01*
X731130Y306070D01*
X735330D01*
Y310270D01*
D02*
G37*
G36*
X687070D02*
Y306070D01*
X691270D01*
X690497Y307938D01*
X688938Y309497D01*
X687070Y310270D01*
D02*
G37*
G36*
X684530D02*
X682662Y309497D01*
X681103Y307938D01*
X680330Y306070D01*
X684530D01*
Y310270D01*
D02*
G37*
G36*
X585470D02*
Y306070D01*
X589670D01*
X588897Y307938D01*
X587338Y309497D01*
X585470Y310270D01*
D02*
G37*
G36*
X582930D02*
X581062Y309497D01*
X579503Y307938D01*
X578730Y306070D01*
X582930D01*
Y310270D01*
D02*
G37*
G36*
X128270D02*
Y306070D01*
X132470D01*
X131697Y307938D01*
X130138Y309497D01*
X128270Y310270D01*
D02*
G37*
G36*
X125730D02*
X123862Y309497D01*
X122303Y307938D01*
X121530Y306070D01*
X125730D01*
Y310270D01*
D02*
G37*
G36*
X996070Y303530D02*
X991870D01*
Y299330D01*
X993738Y300103D01*
X995297Y301662D01*
X996070Y303530D01*
D02*
G37*
G36*
X989330D02*
X985130D01*
X985903Y301662D01*
X987462Y300103D01*
X989330Y299330D01*
Y303530D01*
D02*
G37*
G36*
X945270D02*
X941070D01*
Y299330D01*
X942938Y300103D01*
X944497Y301662D01*
X945270Y303530D01*
D02*
G37*
G36*
X938530D02*
X934330D01*
X935103Y301662D01*
X936662Y300103D01*
X938530Y299330D01*
Y303530D01*
D02*
G37*
G36*
X843670D02*
X839470D01*
Y299330D01*
X841338Y300103D01*
X842897Y301662D01*
X843670Y303530D01*
D02*
G37*
G36*
X836930D02*
X832730D01*
X833503Y301662D01*
X835062Y300103D01*
X836930Y299330D01*
Y303530D01*
D02*
G37*
G36*
X792870D02*
X788670D01*
Y299330D01*
X790538Y300103D01*
X792097Y301662D01*
X792870Y303530D01*
D02*
G37*
G36*
X786130D02*
X781930D01*
X782703Y301662D01*
X784262Y300103D01*
X786130Y299330D01*
Y303530D01*
D02*
G37*
G36*
X742070D02*
X737870D01*
Y299330D01*
X739738Y300103D01*
X741297Y301662D01*
X742070Y303530D01*
D02*
G37*
G36*
X735330D02*
X731130D01*
X731903Y301662D01*
X733462Y300103D01*
X735330Y299330D01*
Y303530D01*
D02*
G37*
G36*
X691270D02*
X687070D01*
Y299330D01*
X688938Y300103D01*
X690497Y301662D01*
X691270Y303530D01*
D02*
G37*
G36*
X684530D02*
X680330D01*
X681103Y301662D01*
X682662Y300103D01*
X684530Y299330D01*
Y303530D01*
D02*
G37*
G36*
X589670D02*
X585470D01*
Y299330D01*
X587338Y300103D01*
X588897Y301662D01*
X589670Y303530D01*
D02*
G37*
G36*
X582930D02*
X578730D01*
X579503Y301662D01*
X581062Y300103D01*
X582930Y299330D01*
Y303530D01*
D02*
G37*
G36*
X132470D02*
X128270D01*
Y299330D01*
X130138Y300103D01*
X131697Y301662D01*
X132470Y303530D01*
D02*
G37*
G36*
X125730D02*
X121530D01*
X122303Y301662D01*
X123862Y300103D01*
X125730Y299330D01*
Y303530D01*
D02*
G37*
G36*
X887019Y309070D02*
X884781D01*
X882619Y308491D01*
X880681Y307372D01*
X879099Y305789D01*
X877979Y303851D01*
X877400Y301689D01*
Y299451D01*
X877979Y297289D01*
X879099Y295351D01*
X880681Y293768D01*
X882619Y292649D01*
X884781Y292070D01*
X887019D01*
X889181Y292649D01*
X891119Y293768D01*
X892702Y295351D01*
X893821Y297289D01*
X894400Y299451D01*
Y301689D01*
X893821Y303851D01*
X892702Y305789D01*
X891119Y307372D01*
X889181Y308491D01*
X887019Y309070D01*
D02*
G37*
G36*
X760019D02*
X757781D01*
X755619Y308491D01*
X753681Y307372D01*
X752098Y305789D01*
X750979Y303851D01*
X750400Y301689D01*
Y299451D01*
X750979Y297289D01*
X752098Y295351D01*
X753681Y293768D01*
X755619Y292649D01*
X757781Y292070D01*
X760019D01*
X762181Y292649D01*
X764119Y293768D01*
X765702Y295351D01*
X766821Y297289D01*
X767400Y299451D01*
Y301689D01*
X766821Y303851D01*
X765702Y305789D01*
X764119Y307372D01*
X762181Y308491D01*
X760019Y309070D01*
D02*
G37*
G36*
X627019D02*
X624781D01*
X622619Y308491D01*
X620681Y307372D01*
X619099Y305789D01*
X617980Y303851D01*
X617400Y301689D01*
Y299451D01*
X617980Y297289D01*
X619099Y295351D01*
X620681Y293768D01*
X622619Y292649D01*
X624781Y292070D01*
X627019D01*
X629181Y292649D01*
X631119Y293768D01*
X632702Y295351D01*
X633821Y297289D01*
X634400Y299451D01*
Y301689D01*
X633821Y303851D01*
X632702Y305789D01*
X631119Y307372D01*
X629181Y308491D01*
X627019Y309070D01*
D02*
G37*
G36*
X966470Y259470D02*
Y255270D01*
X970670D01*
X969897Y257138D01*
X968338Y258697D01*
X966470Y259470D01*
D02*
G37*
G36*
X963930D02*
X962062Y258697D01*
X960503Y257138D01*
X959730Y255270D01*
X963930D01*
Y259470D01*
D02*
G37*
G36*
X915670D02*
Y255270D01*
X919870D01*
X919097Y257138D01*
X917538Y258697D01*
X915670Y259470D01*
D02*
G37*
G36*
X913130D02*
X911262Y258697D01*
X909703Y257138D01*
X908930Y255270D01*
X913130D01*
Y259470D01*
D02*
G37*
G36*
X864870D02*
Y255270D01*
X869070D01*
X868297Y257138D01*
X866738Y258697D01*
X864870Y259470D01*
D02*
G37*
G36*
X862330D02*
X860462Y258697D01*
X858903Y257138D01*
X858130Y255270D01*
X862330D01*
Y259470D01*
D02*
G37*
G36*
X814070D02*
Y255270D01*
X818270D01*
X817497Y257138D01*
X815938Y258697D01*
X814070Y259470D01*
D02*
G37*
G36*
X811530D02*
X809662Y258697D01*
X808103Y257138D01*
X807330Y255270D01*
X811530D01*
Y259470D01*
D02*
G37*
G36*
X712470D02*
Y255270D01*
X716670D01*
X715897Y257138D01*
X714338Y258697D01*
X712470Y259470D01*
D02*
G37*
G36*
X709930D02*
X708062Y258697D01*
X706503Y257138D01*
X705730Y255270D01*
X709930D01*
Y259470D01*
D02*
G37*
G36*
X661670D02*
Y255270D01*
X665870D01*
X665097Y257138D01*
X663538Y258697D01*
X661670Y259470D01*
D02*
G37*
G36*
X659130D02*
X657262Y258697D01*
X655703Y257138D01*
X654930Y255270D01*
X659130D01*
Y259470D01*
D02*
G37*
G36*
X610870D02*
Y255270D01*
X615070D01*
X614297Y257138D01*
X612738Y258697D01*
X610870Y259470D01*
D02*
G37*
G36*
X608330D02*
X606462Y258697D01*
X604903Y257138D01*
X604130Y255270D01*
X608330D01*
Y259470D01*
D02*
G37*
G36*
X560070D02*
Y255270D01*
X564270D01*
X563497Y257138D01*
X561938Y258697D01*
X560070Y259470D01*
D02*
G37*
G36*
X153670D02*
Y255270D01*
X157870D01*
X157097Y257138D01*
X155538Y258697D01*
X153670Y259470D01*
D02*
G37*
G36*
X151130D02*
X149262Y258697D01*
X147703Y257138D01*
X146930Y255270D01*
X151130D01*
Y259470D01*
D02*
G37*
G36*
X102870D02*
Y255270D01*
X107070D01*
X106297Y257138D01*
X104738Y258697D01*
X102870Y259470D01*
D02*
G37*
G36*
X100330D02*
X98462Y258697D01*
X96903Y257138D01*
X96130Y255270D01*
X100330D01*
Y259470D01*
D02*
G37*
G36*
X970670Y252730D02*
X966470D01*
Y248530D01*
X968338Y249303D01*
X969897Y250862D01*
X970670Y252730D01*
D02*
G37*
G36*
X963930D02*
X959730D01*
X960503Y250862D01*
X962062Y249303D01*
X963930Y248530D01*
Y252730D01*
D02*
G37*
G36*
X919870D02*
X915670D01*
Y248530D01*
X917538Y249303D01*
X919097Y250862D01*
X919870Y252730D01*
D02*
G37*
G36*
X913130D02*
X908930D01*
X909703Y250862D01*
X911262Y249303D01*
X913130Y248530D01*
Y252730D01*
D02*
G37*
G36*
X869070D02*
X864870D01*
Y248530D01*
X866738Y249303D01*
X868297Y250862D01*
X869070Y252730D01*
D02*
G37*
G36*
X862330D02*
X858130D01*
X858903Y250862D01*
X860462Y249303D01*
X862330Y248530D01*
Y252730D01*
D02*
G37*
G36*
X157870D02*
X153670D01*
Y248530D01*
X155538Y249303D01*
X157097Y250862D01*
X157870Y252730D01*
D02*
G37*
G36*
X151130D02*
X146930D01*
X147703Y250862D01*
X149262Y249303D01*
X151130Y248530D01*
Y252730D01*
D02*
G37*
G36*
X107070D02*
X102870D01*
Y248530D01*
X104738Y249303D01*
X106297Y250862D01*
X107070Y252730D01*
D02*
G37*
G36*
X100330D02*
X96130D01*
X96903Y250862D01*
X98462Y249303D01*
X100330Y248530D01*
Y252730D01*
D02*
G37*
G36*
X818270D02*
X814070D01*
Y248530D01*
X815938Y249303D01*
X817497Y250862D01*
X818270Y252730D01*
D02*
G37*
G36*
X811530D02*
X807330D01*
X808103Y250862D01*
X809662Y249303D01*
X811530Y248530D01*
Y252730D01*
D02*
G37*
G36*
X716670D02*
X712470D01*
Y248530D01*
X714338Y249303D01*
X715897Y250862D01*
X716670Y252730D01*
D02*
G37*
G36*
X709930D02*
X705730D01*
X706503Y250862D01*
X708062Y249303D01*
X709930Y248530D01*
Y252730D01*
D02*
G37*
G36*
X665870D02*
X661670D01*
Y248530D01*
X663538Y249303D01*
X665097Y250862D01*
X665870Y252730D01*
D02*
G37*
G36*
X659130D02*
X654930D01*
X655703Y250862D01*
X657262Y249303D01*
X659130Y248530D01*
Y252730D01*
D02*
G37*
G36*
X615070D02*
X610870D01*
Y248530D01*
X612738Y249303D01*
X614297Y250862D01*
X615070Y252730D01*
D02*
G37*
G36*
X608330D02*
X604130D01*
X604903Y250862D01*
X606462Y249303D01*
X608330Y248530D01*
Y252730D01*
D02*
G37*
G36*
X564270D02*
X560070D01*
Y248530D01*
X561938Y249303D01*
X563497Y250862D01*
X564270Y252730D01*
D02*
G37*
G36*
X991870Y208670D02*
Y204470D01*
X996070D01*
X995297Y206338D01*
X993738Y207897D01*
X991870Y208670D01*
D02*
G37*
G36*
X989330D02*
X987462Y207897D01*
X985903Y206338D01*
X985130Y204470D01*
X989330D01*
Y208670D01*
D02*
G37*
G36*
X941070D02*
Y204470D01*
X945270D01*
X944497Y206338D01*
X942938Y207897D01*
X941070Y208670D01*
D02*
G37*
G36*
X938530D02*
X936662Y207897D01*
X935103Y206338D01*
X934330Y204470D01*
X938530D01*
Y208670D01*
D02*
G37*
G36*
X890270D02*
Y204470D01*
X894470D01*
X893697Y206338D01*
X892138Y207897D01*
X890270Y208670D01*
D02*
G37*
G36*
X887730D02*
X885862Y207897D01*
X884303Y206338D01*
X883530Y204470D01*
X887730D01*
Y208670D01*
D02*
G37*
G36*
X839470D02*
Y204470D01*
X843670D01*
X842897Y206338D01*
X841338Y207897D01*
X839470Y208670D01*
D02*
G37*
G36*
X836930D02*
X835062Y207897D01*
X833503Y206338D01*
X832730Y204470D01*
X836930D01*
Y208670D01*
D02*
G37*
G36*
X788670D02*
Y204470D01*
X792870D01*
X792097Y206338D01*
X790538Y207897D01*
X788670Y208670D01*
D02*
G37*
G36*
X786130D02*
X784262Y207897D01*
X782703Y206338D01*
X781930Y204470D01*
X786130D01*
Y208670D01*
D02*
G37*
G36*
X737870D02*
Y204470D01*
X742070D01*
X741297Y206338D01*
X739738Y207897D01*
X737870Y208670D01*
D02*
G37*
G36*
X735330D02*
X733462Y207897D01*
X731903Y206338D01*
X731130Y204470D01*
X735330D01*
Y208670D01*
D02*
G37*
G36*
X687070D02*
Y204470D01*
X691270D01*
X690497Y206338D01*
X688938Y207897D01*
X687070Y208670D01*
D02*
G37*
G36*
X684530D02*
X682662Y207897D01*
X681103Y206338D01*
X680330Y204470D01*
X684530D01*
Y208670D01*
D02*
G37*
G36*
X636270D02*
Y204470D01*
X640470D01*
X639697Y206338D01*
X638138Y207897D01*
X636270Y208670D01*
D02*
G37*
G36*
X633730D02*
X631862Y207897D01*
X630303Y206338D01*
X629530Y204470D01*
X633730D01*
Y208670D01*
D02*
G37*
G36*
X585470D02*
Y204470D01*
X589670D01*
X588897Y206338D01*
X587338Y207897D01*
X585470Y208670D01*
D02*
G37*
G36*
X582930D02*
X581062Y207897D01*
X579503Y206338D01*
X578730Y204470D01*
X582930D01*
Y208670D01*
D02*
G37*
G36*
X229870D02*
Y204470D01*
X234070D01*
X233297Y206338D01*
X231738Y207897D01*
X229870Y208670D01*
D02*
G37*
G36*
X227330D02*
X225462Y207897D01*
X223903Y206338D01*
X223130Y204470D01*
X227330D01*
Y208670D01*
D02*
G37*
G36*
X128270D02*
Y204470D01*
X132470D01*
X131697Y206338D01*
X130138Y207897D01*
X128270Y208670D01*
D02*
G37*
G36*
X125730D02*
X123862Y207897D01*
X122303Y206338D01*
X121530Y204470D01*
X125730D01*
Y208670D01*
D02*
G37*
G36*
X996070Y201930D02*
X991870D01*
Y197730D01*
X993738Y198503D01*
X995297Y200062D01*
X996070Y201930D01*
D02*
G37*
G36*
X989330D02*
X985130D01*
X985903Y200062D01*
X987462Y198503D01*
X989330Y197730D01*
Y201930D01*
D02*
G37*
G36*
X945270D02*
X941070D01*
Y197730D01*
X942938Y198503D01*
X944497Y200062D01*
X945270Y201930D01*
D02*
G37*
G36*
X938530D02*
X934330D01*
X935103Y200062D01*
X936662Y198503D01*
X938530Y197730D01*
Y201930D01*
D02*
G37*
G36*
X894470D02*
X890270D01*
Y197730D01*
X892138Y198503D01*
X893697Y200062D01*
X894470Y201930D01*
D02*
G37*
G36*
X887730D02*
X883530D01*
X884303Y200062D01*
X885862Y198503D01*
X887730Y197730D01*
Y201930D01*
D02*
G37*
G36*
X843670D02*
X839470D01*
Y197730D01*
X841338Y198503D01*
X842897Y200062D01*
X843670Y201930D01*
D02*
G37*
G36*
X836930D02*
X832730D01*
X833503Y200062D01*
X835062Y198503D01*
X836930Y197730D01*
Y201930D01*
D02*
G37*
G36*
X792870D02*
X788670D01*
Y197730D01*
X790538Y198503D01*
X792097Y200062D01*
X792870Y201930D01*
D02*
G37*
G36*
X786130D02*
X781930D01*
X782703Y200062D01*
X784262Y198503D01*
X786130Y197730D01*
Y201930D01*
D02*
G37*
G36*
X742070D02*
X737870D01*
Y197730D01*
X739738Y198503D01*
X741297Y200062D01*
X742070Y201930D01*
D02*
G37*
G36*
X735330D02*
X731130D01*
X731903Y200062D01*
X733462Y198503D01*
X735330Y197730D01*
Y201930D01*
D02*
G37*
G36*
X691270D02*
X687070D01*
Y197730D01*
X688938Y198503D01*
X690497Y200062D01*
X691270Y201930D01*
D02*
G37*
G36*
X684530D02*
X680330D01*
X681103Y200062D01*
X682662Y198503D01*
X684530Y197730D01*
Y201930D01*
D02*
G37*
G36*
X640470D02*
X636270D01*
Y197730D01*
X638138Y198503D01*
X639697Y200062D01*
X640470Y201930D01*
D02*
G37*
G36*
X633730D02*
X629530D01*
X630303Y200062D01*
X631862Y198503D01*
X633730Y197730D01*
Y201930D01*
D02*
G37*
G36*
X589670D02*
X585470D01*
Y197730D01*
X587338Y198503D01*
X588897Y200062D01*
X589670Y201930D01*
D02*
G37*
G36*
X582930D02*
X578730D01*
X579503Y200062D01*
X581062Y198503D01*
X582930Y197730D01*
Y201930D01*
D02*
G37*
G36*
X234070D02*
X229870D01*
Y197730D01*
X231738Y198503D01*
X233297Y200062D01*
X234070Y201930D01*
D02*
G37*
G36*
X227330D02*
X223130D01*
X223903Y200062D01*
X225462Y198503D01*
X227330Y197730D01*
Y201930D01*
D02*
G37*
G36*
X132470D02*
X128270D01*
Y197730D01*
X130138Y198503D01*
X131697Y200062D01*
X132470Y201930D01*
D02*
G37*
G36*
X125730D02*
X121530D01*
X122303Y200062D01*
X123862Y198503D01*
X125730Y197730D01*
Y201930D01*
D02*
G37*
G36*
X966470Y157870D02*
Y153670D01*
X970670D01*
X969897Y155538D01*
X968338Y157097D01*
X966470Y157870D01*
D02*
G37*
G36*
X963930D02*
X962062Y157097D01*
X960503Y155538D01*
X959730Y153670D01*
X963930D01*
Y157870D01*
D02*
G37*
G36*
X915670D02*
Y153670D01*
X919870D01*
X919097Y155538D01*
X917538Y157097D01*
X915670Y157870D01*
D02*
G37*
G36*
X913130D02*
X911262Y157097D01*
X909703Y155538D01*
X908930Y153670D01*
X913130D01*
Y157870D01*
D02*
G37*
G36*
X864870D02*
Y153670D01*
X869070D01*
X868297Y155538D01*
X866738Y157097D01*
X864870Y157870D01*
D02*
G37*
G36*
X862330D02*
X860462Y157097D01*
X858903Y155538D01*
X858130Y153670D01*
X862330D01*
Y157870D01*
D02*
G37*
G36*
X814070D02*
Y153670D01*
X818270D01*
X817497Y155538D01*
X815938Y157097D01*
X814070Y157870D01*
D02*
G37*
G36*
X811530D02*
X809662Y157097D01*
X808103Y155538D01*
X807330Y153670D01*
X811530D01*
Y157870D01*
D02*
G37*
G36*
X763270D02*
Y153670D01*
X767470D01*
X766697Y155538D01*
X765138Y157097D01*
X763270Y157870D01*
D02*
G37*
G36*
X760730D02*
X758862Y157097D01*
X757303Y155538D01*
X756530Y153670D01*
X760730D01*
Y157870D01*
D02*
G37*
G36*
X712470D02*
Y153670D01*
X716670D01*
X715897Y155538D01*
X714338Y157097D01*
X712470Y157870D01*
D02*
G37*
G36*
X709930D02*
X708062Y157097D01*
X706503Y155538D01*
X705730Y153670D01*
X709930D01*
Y157870D01*
D02*
G37*
G36*
X661670D02*
Y153670D01*
X665870D01*
X665097Y155538D01*
X663538Y157097D01*
X661670Y157870D01*
D02*
G37*
G36*
X659130D02*
X657262Y157097D01*
X655703Y155538D01*
X654930Y153670D01*
X659130D01*
Y157870D01*
D02*
G37*
G36*
X610870D02*
Y153670D01*
X615070D01*
X614297Y155538D01*
X612738Y157097D01*
X610870Y157870D01*
D02*
G37*
G36*
X608330D02*
X606462Y157097D01*
X604903Y155538D01*
X604130Y153670D01*
X608330D01*
Y157870D01*
D02*
G37*
G36*
X560070D02*
Y153670D01*
X564270D01*
X563497Y155538D01*
X561938Y157097D01*
X560070Y157870D01*
D02*
G37*
G36*
X557530D02*
X555662Y157097D01*
X554103Y155538D01*
X553330Y153670D01*
X557530D01*
Y157870D01*
D02*
G37*
G36*
X153670D02*
Y153670D01*
X157870D01*
X157097Y155538D01*
X155538Y157097D01*
X153670Y157870D01*
D02*
G37*
G36*
X151130D02*
X149262Y157097D01*
X147703Y155538D01*
X146930Y153670D01*
X151130D01*
Y157870D01*
D02*
G37*
G36*
X102870D02*
Y153670D01*
X107070D01*
X106297Y155538D01*
X104738Y157097D01*
X102870Y157870D01*
D02*
G37*
G36*
X100330D02*
X98462Y157097D01*
X96903Y155538D01*
X96130Y153670D01*
X100330D01*
Y157870D01*
D02*
G37*
G36*
X540571Y162001D02*
X525984D01*
Y147879D01*
X540571D01*
Y149300D01*
X540995Y149716D01*
X542571Y150464D01*
X543835Y149940D01*
X545825D01*
X547662Y150701D01*
X549069Y152108D01*
X549830Y153945D01*
Y155935D01*
X549069Y157772D01*
X547662Y159179D01*
X545825Y159940D01*
X543835D01*
X542571Y159416D01*
X540995Y160164D01*
X540571Y160580D01*
Y162001D01*
D02*
G37*
G36*
X970670Y151130D02*
X966470D01*
Y146930D01*
X968338Y147703D01*
X969897Y149262D01*
X970670Y151130D01*
D02*
G37*
G36*
X963930D02*
X959730D01*
X960503Y149262D01*
X962062Y147703D01*
X963930Y146930D01*
Y151130D01*
D02*
G37*
G36*
X919870D02*
X915670D01*
Y146930D01*
X917538Y147703D01*
X919097Y149262D01*
X919870Y151130D01*
D02*
G37*
G36*
X913130D02*
X908930D01*
X909703Y149262D01*
X911262Y147703D01*
X913130Y146930D01*
Y151130D01*
D02*
G37*
G36*
X869070D02*
X864870D01*
Y146930D01*
X866738Y147703D01*
X868297Y149262D01*
X869070Y151130D01*
D02*
G37*
G36*
X862330D02*
X858130D01*
X858903Y149262D01*
X860462Y147703D01*
X862330Y146930D01*
Y151130D01*
D02*
G37*
G36*
X818270D02*
X814070D01*
Y146930D01*
X815938Y147703D01*
X817497Y149262D01*
X818270Y151130D01*
D02*
G37*
G36*
X811530D02*
X807330D01*
X808103Y149262D01*
X809662Y147703D01*
X811530Y146930D01*
Y151130D01*
D02*
G37*
G36*
X767470D02*
X763270D01*
Y146930D01*
X765138Y147703D01*
X766697Y149262D01*
X767470Y151130D01*
D02*
G37*
G36*
X760730D02*
X756530D01*
X757303Y149262D01*
X758862Y147703D01*
X760730Y146930D01*
Y151130D01*
D02*
G37*
G36*
X716670D02*
X712470D01*
Y146930D01*
X714338Y147703D01*
X715897Y149262D01*
X716670Y151130D01*
D02*
G37*
G36*
X709930D02*
X705730D01*
X706503Y149262D01*
X708062Y147703D01*
X709930Y146930D01*
Y151130D01*
D02*
G37*
G36*
X665870D02*
X661670D01*
Y146930D01*
X663538Y147703D01*
X665097Y149262D01*
X665870Y151130D01*
D02*
G37*
G36*
X659130D02*
X654930D01*
X655703Y149262D01*
X657262Y147703D01*
X659130Y146930D01*
Y151130D01*
D02*
G37*
G36*
X615070D02*
X610870D01*
Y146930D01*
X612738Y147703D01*
X614297Y149262D01*
X615070Y151130D01*
D02*
G37*
G36*
X608330D02*
X604130D01*
X604903Y149262D01*
X606462Y147703D01*
X608330Y146930D01*
Y151130D01*
D02*
G37*
G36*
X564270D02*
X560070D01*
Y146930D01*
X561938Y147703D01*
X563497Y149262D01*
X564270Y151130D01*
D02*
G37*
G36*
X557530D02*
X553330D01*
X554103Y149262D01*
X555662Y147703D01*
X557530Y146930D01*
Y151130D01*
D02*
G37*
G36*
X157870D02*
X153670D01*
Y146930D01*
X155538Y147703D01*
X157097Y149262D01*
X157870Y151130D01*
D02*
G37*
G36*
X151130D02*
X146930D01*
X147703Y149262D01*
X149262Y147703D01*
X151130Y146930D01*
Y151130D01*
D02*
G37*
G36*
X107070D02*
X102870D01*
Y146930D01*
X104738Y147703D01*
X106297Y149262D01*
X107070Y151130D01*
D02*
G37*
G36*
X100330D02*
X96130D01*
X96903Y149262D01*
X98462Y147703D01*
X100330Y146930D01*
Y151130D01*
D02*
G37*
G36*
X199390Y127390D02*
Y123190D01*
X203590D01*
X202817Y125058D01*
X201258Y126617D01*
X199390Y127390D01*
D02*
G37*
G36*
X196850D02*
X194982Y126617D01*
X193423Y125058D01*
X193085Y124241D01*
X182959D01*
Y115942D01*
X193040D01*
X203121D01*
Y119517D01*
X203590Y120650D01*
X198120D01*
Y121920D01*
X196850D01*
Y127390D01*
D02*
G37*
G36*
X226244Y120320D02*
X219724D01*
Y114300D01*
X226244D01*
Y120320D01*
D02*
G37*
G36*
X991870Y107070D02*
Y102870D01*
X996070D01*
X995297Y104738D01*
X993738Y106297D01*
X991870Y107070D01*
D02*
G37*
G36*
X989330D02*
X987462Y106297D01*
X985903Y104738D01*
X985130Y102870D01*
X989330D01*
Y107070D01*
D02*
G37*
G36*
X941070D02*
Y102870D01*
X945270D01*
X944497Y104738D01*
X942938Y106297D01*
X941070Y107070D01*
D02*
G37*
G36*
X938530D02*
X936662Y106297D01*
X935103Y104738D01*
X934330Y102870D01*
X938530D01*
Y107070D01*
D02*
G37*
G36*
X890270D02*
Y102870D01*
X894470D01*
X893697Y104738D01*
X892138Y106297D01*
X890270Y107070D01*
D02*
G37*
G36*
X887730D02*
X885862Y106297D01*
X884303Y104738D01*
X883530Y102870D01*
X887730D01*
Y107070D01*
D02*
G37*
G36*
X839470D02*
Y102870D01*
X843670D01*
X842897Y104738D01*
X841338Y106297D01*
X839470Y107070D01*
D02*
G37*
G36*
X836930D02*
X835062Y106297D01*
X833503Y104738D01*
X832730Y102870D01*
X836930D01*
Y107070D01*
D02*
G37*
G36*
X788670D02*
Y102870D01*
X792870D01*
X792097Y104738D01*
X790538Y106297D01*
X788670Y107070D01*
D02*
G37*
G36*
X786130D02*
X784262Y106297D01*
X782703Y104738D01*
X781930Y102870D01*
X786130D01*
Y107070D01*
D02*
G37*
G36*
X737870D02*
Y102870D01*
X742070D01*
X741297Y104738D01*
X739738Y106297D01*
X737870Y107070D01*
D02*
G37*
G36*
X735330D02*
X733462Y106297D01*
X731903Y104738D01*
X731130Y102870D01*
X735330D01*
Y107070D01*
D02*
G37*
G36*
X687070D02*
Y102870D01*
X691270D01*
X690497Y104738D01*
X688938Y106297D01*
X687070Y107070D01*
D02*
G37*
G36*
X684530D02*
X682662Y106297D01*
X681103Y104738D01*
X680330Y102870D01*
X684530D01*
Y107070D01*
D02*
G37*
G36*
X636270D02*
Y102870D01*
X640470D01*
X639697Y104738D01*
X638138Y106297D01*
X636270Y107070D01*
D02*
G37*
G36*
X633730D02*
X631862Y106297D01*
X630303Y104738D01*
X629530Y102870D01*
X633730D01*
Y107070D01*
D02*
G37*
G36*
X585470D02*
Y102870D01*
X589670D01*
X588897Y104738D01*
X587338Y106297D01*
X585470Y107070D01*
D02*
G37*
G36*
X582930D02*
X581062Y106297D01*
X579503Y104738D01*
X578730Y102870D01*
X582930D01*
Y107070D01*
D02*
G37*
G36*
X534670D02*
Y102870D01*
X538870D01*
X538097Y104738D01*
X536538Y106297D01*
X534670Y107070D01*
D02*
G37*
G36*
X532130D02*
X530262Y106297D01*
X528703Y104738D01*
X527930Y102870D01*
X532130D01*
Y107070D01*
D02*
G37*
G36*
X128270D02*
Y102870D01*
X132470D01*
X131697Y104738D01*
X130138Y106297D01*
X128270Y107070D01*
D02*
G37*
G36*
X125730D02*
X123862Y106297D01*
X122303Y104738D01*
X121530Y102870D01*
X125730D01*
Y107070D01*
D02*
G37*
G36*
X996070Y100330D02*
X991870D01*
Y96130D01*
X993738Y96903D01*
X995297Y98462D01*
X996070Y100330D01*
D02*
G37*
G36*
X989330D02*
X985130D01*
X985903Y98462D01*
X987462Y96903D01*
X989330Y96130D01*
Y100330D01*
D02*
G37*
G36*
X945270D02*
X941070D01*
Y96130D01*
X942938Y96903D01*
X944497Y98462D01*
X945270Y100330D01*
D02*
G37*
G36*
X938530D02*
X934330D01*
X935103Y98462D01*
X936662Y96903D01*
X938530Y96130D01*
Y100330D01*
D02*
G37*
G36*
X894470D02*
X890270D01*
Y96130D01*
X892138Y96903D01*
X893697Y98462D01*
X894470Y100330D01*
D02*
G37*
G36*
X887730D02*
X883530D01*
X884303Y98462D01*
X885862Y96903D01*
X887730Y96130D01*
Y100330D01*
D02*
G37*
G36*
X132470D02*
X128270D01*
Y96130D01*
X130138Y96903D01*
X131697Y98462D01*
X132470Y100330D01*
D02*
G37*
G36*
X125730D02*
X121530D01*
X122303Y98462D01*
X123862Y96903D01*
X125730Y96130D01*
Y100330D01*
D02*
G37*
G36*
X843670D02*
X839470D01*
Y96130D01*
X841338Y96903D01*
X842897Y98462D01*
X843670Y100330D01*
D02*
G37*
G36*
X836930D02*
X832730D01*
X833503Y98462D01*
X835062Y96903D01*
X836930Y96130D01*
Y100330D01*
D02*
G37*
G36*
X792870D02*
X788670D01*
Y96130D01*
X790538Y96903D01*
X792097Y98462D01*
X792870Y100330D01*
D02*
G37*
G36*
X786130D02*
X781930D01*
X782703Y98462D01*
X784262Y96903D01*
X786130Y96130D01*
Y100330D01*
D02*
G37*
G36*
X742070D02*
X737870D01*
Y96130D01*
X739738Y96903D01*
X741297Y98462D01*
X742070Y100330D01*
D02*
G37*
G36*
X735330D02*
X731130D01*
X731903Y98462D01*
X733462Y96903D01*
X735330Y96130D01*
Y100330D01*
D02*
G37*
G36*
X691270D02*
X687070D01*
Y96130D01*
X688938Y96903D01*
X690497Y98462D01*
X691270Y100330D01*
D02*
G37*
G36*
X684530D02*
X680330D01*
X681103Y98462D01*
X682662Y96903D01*
X684530Y96130D01*
Y100330D01*
D02*
G37*
G36*
X640470D02*
X636270D01*
Y96130D01*
X638138Y96903D01*
X639697Y98462D01*
X640470Y100330D01*
D02*
G37*
G36*
X633730D02*
X629530D01*
X630303Y98462D01*
X631862Y96903D01*
X633730Y96130D01*
Y100330D01*
D02*
G37*
G36*
X589670D02*
X585470D01*
Y96130D01*
X587338Y96903D01*
X588897Y98462D01*
X589670Y100330D01*
D02*
G37*
G36*
X582930D02*
X578730D01*
X579503Y98462D01*
X581062Y96903D01*
X582930Y96130D01*
Y100330D01*
D02*
G37*
G36*
X538870D02*
X534670D01*
Y96130D01*
X536538Y96903D01*
X538097Y98462D01*
X538870Y100330D01*
D02*
G37*
G36*
X532130D02*
X527930D01*
X528703Y98462D01*
X530262Y96903D01*
X532130Y96130D01*
Y100330D01*
D02*
G37*
G36*
X915670Y56270D02*
Y52070D01*
X919870D01*
X919097Y53938D01*
X917538Y55497D01*
X915670Y56270D01*
D02*
G37*
G36*
X913130D02*
X911262Y55497D01*
X909703Y53938D01*
X908930Y52070D01*
X913130D01*
Y56270D01*
D02*
G37*
G36*
X864870D02*
Y52070D01*
X869070D01*
X868297Y53938D01*
X866738Y55497D01*
X864870Y56270D01*
D02*
G37*
G36*
X862330D02*
X860462Y55497D01*
X858903Y53938D01*
X858130Y52070D01*
X862330D01*
Y56270D01*
D02*
G37*
G36*
X814070D02*
Y52070D01*
X818270D01*
X817497Y53938D01*
X815938Y55497D01*
X814070Y56270D01*
D02*
G37*
G36*
X811530D02*
X809662Y55497D01*
X808103Y53938D01*
X807330Y52070D01*
X811530D01*
Y56270D01*
D02*
G37*
G36*
X763270D02*
Y52070D01*
X767470D01*
X766697Y53938D01*
X765138Y55497D01*
X763270Y56270D01*
D02*
G37*
G36*
X760730D02*
X758862Y55497D01*
X757303Y53938D01*
X756530Y52070D01*
X760730D01*
Y56270D01*
D02*
G37*
G36*
X712470D02*
Y52070D01*
X716670D01*
X715897Y53938D01*
X714338Y55497D01*
X712470Y56270D01*
D02*
G37*
G36*
X709930D02*
X708062Y55497D01*
X706503Y53938D01*
X705730Y52070D01*
X709930D01*
Y56270D01*
D02*
G37*
G36*
X661670D02*
Y52070D01*
X665870D01*
X665097Y53938D01*
X663538Y55497D01*
X661670Y56270D01*
D02*
G37*
G36*
X659130D02*
X657262Y55497D01*
X655703Y53938D01*
X654930Y52070D01*
X659130D01*
Y56270D01*
D02*
G37*
G36*
X610870D02*
Y52070D01*
X615070D01*
X614297Y53938D01*
X612738Y55497D01*
X610870Y56270D01*
D02*
G37*
G36*
X608330D02*
X606462Y55497D01*
X604903Y53938D01*
X604130Y52070D01*
X608330D01*
Y56270D01*
D02*
G37*
G36*
X560070D02*
Y52070D01*
X564270D01*
X563497Y53938D01*
X561938Y55497D01*
X560070Y56270D01*
D02*
G37*
G36*
X557530D02*
X555662Y55497D01*
X554103Y53938D01*
X553330Y52070D01*
X557530D01*
Y56270D01*
D02*
G37*
G36*
X509270D02*
Y52070D01*
X513470D01*
X512697Y53938D01*
X511138Y55497D01*
X509270Y56270D01*
D02*
G37*
G36*
X506730D02*
X504862Y55497D01*
X503303Y53938D01*
X502530Y52070D01*
X506730D01*
Y56270D01*
D02*
G37*
G36*
X407670D02*
Y52070D01*
X411870D01*
X411097Y53938D01*
X409538Y55497D01*
X407670Y56270D01*
D02*
G37*
G36*
X405130D02*
X403262Y55497D01*
X401703Y53938D01*
X400930Y52070D01*
X405130D01*
Y56270D01*
D02*
G37*
G36*
X818270Y49530D02*
X814070D01*
Y45330D01*
X815938Y46103D01*
X817497Y47662D01*
X818270Y49530D01*
D02*
G37*
G36*
X811530D02*
X807330D01*
X808103Y47662D01*
X809662Y46103D01*
X811530Y45330D01*
Y49530D01*
D02*
G37*
G36*
X767470D02*
X763270D01*
Y45330D01*
X765138Y46103D01*
X766697Y47662D01*
X767470Y49530D01*
D02*
G37*
G36*
X760730D02*
X756530D01*
X757303Y47662D01*
X758862Y46103D01*
X760730Y45330D01*
Y49530D01*
D02*
G37*
G36*
X716670D02*
X712470D01*
Y45330D01*
X714338Y46103D01*
X715897Y47662D01*
X716670Y49530D01*
D02*
G37*
G36*
X709930D02*
X705730D01*
X706503Y47662D01*
X708062Y46103D01*
X709930Y45330D01*
Y49530D01*
D02*
G37*
G36*
X665870D02*
X661670D01*
Y45330D01*
X663538Y46103D01*
X665097Y47662D01*
X665870Y49530D01*
D02*
G37*
G36*
X659130D02*
X654930D01*
X655703Y47662D01*
X657262Y46103D01*
X659130Y45330D01*
Y49530D01*
D02*
G37*
G36*
X615070D02*
X610870D01*
Y45330D01*
X612738Y46103D01*
X614297Y47662D01*
X615070Y49530D01*
D02*
G37*
G36*
X608330D02*
X604130D01*
X604903Y47662D01*
X606462Y46103D01*
X608330Y45330D01*
Y49530D01*
D02*
G37*
G36*
X564270D02*
X560070D01*
Y45330D01*
X561938Y46103D01*
X563497Y47662D01*
X564270Y49530D01*
D02*
G37*
G36*
X557530D02*
X553330D01*
X554103Y47662D01*
X555662Y46103D01*
X557530Y45330D01*
Y49530D01*
D02*
G37*
G36*
X513470D02*
X509270D01*
Y45330D01*
X511138Y46103D01*
X512697Y47662D01*
X513470Y49530D01*
D02*
G37*
G36*
X506730D02*
X502530D01*
X503303Y47662D01*
X504862Y46103D01*
X506730Y45330D01*
Y49530D01*
D02*
G37*
G36*
X919870D02*
X915670D01*
Y45330D01*
X917538Y46103D01*
X919097Y47662D01*
X919870Y49530D01*
D02*
G37*
G36*
X913130D02*
X908930D01*
X909703Y47662D01*
X911262Y46103D01*
X913130Y45330D01*
Y49530D01*
D02*
G37*
G36*
X869070D02*
X864870D01*
Y45330D01*
X866738Y46103D01*
X868297Y47662D01*
X869070Y49530D01*
D02*
G37*
G36*
X862330D02*
X858130D01*
X858903Y47662D01*
X860462Y46103D01*
X862330Y45330D01*
Y49530D01*
D02*
G37*
G36*
X956368Y94230D02*
X951331D01*
X946357Y93442D01*
X941566Y91886D01*
X937078Y89599D01*
X933003Y86638D01*
X929442Y83077D01*
X926481Y79002D01*
X924194Y74514D01*
X922638Y69723D01*
X921850Y64749D01*
Y59711D01*
X922638Y54737D01*
X924194Y49946D01*
X926481Y45458D01*
X929442Y41383D01*
X933003Y37822D01*
X937078Y34861D01*
X941566Y32574D01*
X946357Y31018D01*
X951331Y30230D01*
X956368D01*
X961343Y31018D01*
X966134Y32574D01*
X970622Y34861D01*
X974697Y37822D01*
X978258Y41383D01*
X981219Y45458D01*
X983506Y49946D01*
X985062Y54737D01*
X985850Y59711D01*
Y64749D01*
X985062Y69723D01*
X983506Y74514D01*
X981219Y79002D01*
X978258Y83077D01*
X974697Y86638D01*
X970622Y89599D01*
X966134Y91886D01*
X961343Y93442D01*
X956368Y94230D01*
D02*
G37*
G36*
X128168Y92880D02*
X123132D01*
X118157Y92092D01*
X113366Y90536D01*
X108878Y88249D01*
X104803Y85288D01*
X101242Y81727D01*
X98281Y77652D01*
X95994Y73164D01*
X94438Y68373D01*
X93650Y63398D01*
Y58362D01*
X94438Y53387D01*
X95994Y48596D01*
X98281Y44108D01*
X101242Y40033D01*
X104803Y36472D01*
X108878Y33511D01*
X113366Y31224D01*
X118157Y29668D01*
X123132Y28880D01*
X128168D01*
X133143Y29668D01*
X137934Y31224D01*
X142422Y33511D01*
X146497Y36472D01*
X150058Y40033D01*
X153019Y44108D01*
X155306Y48596D01*
X156862Y53387D01*
X157650Y58362D01*
Y63398D01*
X156862Y68373D01*
X155306Y73164D01*
X153019Y77652D01*
X150058Y81727D01*
X146497Y85288D01*
X142422Y88249D01*
X137934Y90536D01*
X133143Y92092D01*
X128168Y92880D01*
D02*
G37*
G36*
X405050Y88210D02*
X395050D01*
Y83324D01*
X383628D01*
X382360Y83071D01*
X381285Y82353D01*
X371455Y72523D01*
X370737Y71448D01*
X370527Y70395D01*
X367280D01*
Y49395D01*
X377280D01*
Y67518D01*
X377780Y67852D01*
X379780Y66783D01*
Y49395D01*
X389780D01*
Y70395D01*
X381527D01*
X380699Y72395D01*
X385000Y76696D01*
X398677D01*
X398780Y76676D01*
X412039D01*
X416300Y72415D01*
Y66630D01*
X418486D01*
Y62078D01*
X418466Y61976D01*
Y38530D01*
X416300D01*
Y28530D01*
X427300D01*
Y38530D01*
X425134D01*
Y61976D01*
X425114Y62078D01*
Y66630D01*
X427300D01*
Y76630D01*
X421515D01*
X415778Y82367D01*
X414696Y83090D01*
X413420Y83344D01*
X405050D01*
Y88210D01*
D02*
G37*
G36*
X760019Y696070D02*
X757781D01*
X755619Y695491D01*
X753681Y694372D01*
X752098Y692789D01*
X750979Y690851D01*
X750400Y688689D01*
Y686451D01*
X750979Y684289D01*
X752098Y682351D01*
X753681Y680768D01*
X755619Y679649D01*
X757781Y679070D01*
X760019D01*
X762181Y679649D01*
X764119Y680768D01*
X765702Y682351D01*
X766821Y684289D01*
X767400Y686451D01*
Y688689D01*
X766821Y690851D01*
X765702Y692789D01*
X764119Y694372D01*
X762181Y695491D01*
X760019Y696070D01*
D02*
G37*
G36*
X627019D02*
X624781D01*
X622619Y695491D01*
X620681Y694372D01*
X619099Y692789D01*
X617980Y690851D01*
X617400Y688689D01*
Y686451D01*
X617980Y684289D01*
X619099Y682351D01*
X620681Y680768D01*
X622619Y679649D01*
X624781Y679070D01*
X627019D01*
X629181Y679649D01*
X631119Y680768D01*
X632702Y682351D01*
X633821Y684289D01*
X634400Y686451D01*
Y688689D01*
X633821Y690851D01*
X632702Y692789D01*
X631119Y694372D01*
X629181Y695491D01*
X627019Y696070D01*
D02*
G37*
G36*
X601770Y678606D02*
Y670340D01*
X610036D01*
X609390Y672752D01*
X608134Y674928D01*
X606358Y676704D01*
X604183Y677960D01*
X601770Y678606D01*
D02*
G37*
G36*
X599230D02*
X596818Y677960D01*
X594642Y676704D01*
X592866Y674928D01*
X591610Y672752D01*
X590964Y670340D01*
X599230D01*
Y678606D01*
D02*
G37*
G36*
X661670Y665870D02*
Y661670D01*
X665870D01*
X665097Y663538D01*
X663538Y665097D01*
X661670Y665870D01*
D02*
G37*
G36*
X659130D02*
X657262Y665097D01*
X655703Y663538D01*
X654930Y661670D01*
X659130D01*
Y665870D01*
D02*
G37*
G36*
X599230Y667800D02*
X590964D01*
X591610Y665388D01*
X592866Y663212D01*
X594642Y661436D01*
X596818Y660180D01*
X599230Y659534D01*
Y667800D01*
D02*
G37*
G36*
X665870Y659130D02*
X661670D01*
Y654930D01*
X663538Y655703D01*
X665097Y657262D01*
X665870Y659130D01*
D02*
G37*
G36*
X659130D02*
X654930D01*
X655703Y657262D01*
X657262Y655703D01*
X659130Y654930D01*
Y659130D01*
D02*
G37*
G36*
X615070D02*
X610870D01*
Y654930D01*
X612738Y655703D01*
X614297Y657262D01*
X615070Y659130D01*
D02*
G37*
G36*
X610036Y667800D02*
X601770D01*
Y659534D01*
X603240Y659928D01*
X604060Y659298D01*
X604903Y657262D01*
X606462Y655703D01*
X608330Y654930D01*
Y660400D01*
X609600D01*
Y661670D01*
X615070D01*
X614297Y663538D01*
X612738Y665097D01*
X610702Y665940D01*
X609839Y667064D01*
X610036Y667800D01*
D02*
G37*
G36*
X636270Y615070D02*
Y610870D01*
X640470D01*
X639697Y612738D01*
X638138Y614297D01*
X636270Y615070D01*
D02*
G37*
G36*
X633730D02*
X631862Y614297D01*
X630303Y612738D01*
X629530Y610870D01*
X633730D01*
Y615070D01*
D02*
G37*
G36*
X534670D02*
Y610870D01*
X538870D01*
X538097Y612738D01*
X536538Y614297D01*
X534670Y615070D01*
D02*
G37*
G36*
X532130D02*
X530262Y614297D01*
X528703Y612738D01*
X527930Y610870D01*
X532130D01*
Y615070D01*
D02*
G37*
G36*
X483870D02*
Y610870D01*
X488070D01*
X487297Y612738D01*
X485738Y614297D01*
X483870Y615070D01*
D02*
G37*
G36*
X640470Y608330D02*
X636270D01*
Y604130D01*
X638138Y604903D01*
X639697Y606462D01*
X640470Y608330D01*
D02*
G37*
G36*
X633730D02*
X629530D01*
X630303Y606462D01*
X631862Y604903D01*
X633730Y604130D01*
Y608330D01*
D02*
G37*
G36*
X538870D02*
X534670D01*
Y604130D01*
X536538Y604903D01*
X538097Y606462D01*
X538870Y608330D01*
D02*
G37*
G36*
X532130D02*
X527930D01*
X528703Y606462D01*
X530262Y604903D01*
X532130Y604130D01*
Y608330D01*
D02*
G37*
G36*
X488070D02*
X483870D01*
Y604130D01*
X485738Y604903D01*
X487297Y606462D01*
X488070Y608330D01*
D02*
G37*
G36*
X560070Y564270D02*
Y560070D01*
X564270D01*
X563497Y561938D01*
X561938Y563497D01*
X560070Y564270D01*
D02*
G37*
G36*
X557530D02*
X555662Y563497D01*
X554103Y561938D01*
X553330Y560070D01*
X557530D01*
Y564270D01*
D02*
G37*
G36*
X564270Y557530D02*
X560070D01*
Y553330D01*
X561938Y554103D01*
X563497Y555662D01*
X564270Y557530D01*
D02*
G37*
G36*
X557530D02*
X553330D01*
X554103Y555662D01*
X555662Y554103D01*
X557530Y553330D01*
Y557530D01*
D02*
G37*
G36*
X500019Y569070D02*
X497781D01*
X495619Y568491D01*
X493681Y567372D01*
X492099Y565789D01*
X490979Y563851D01*
X490400Y561689D01*
Y559451D01*
X490979Y557289D01*
X492099Y555351D01*
X493681Y553768D01*
X495619Y552649D01*
X497781Y552070D01*
X500019D01*
X502181Y552649D01*
X504119Y553768D01*
X505702Y555351D01*
X506821Y557289D01*
X507400Y559451D01*
Y561689D01*
X506821Y563851D01*
X505702Y565789D01*
X504119Y567372D01*
X502181Y568491D01*
X500019Y569070D01*
D02*
G37*
G36*
X534670Y513470D02*
Y509270D01*
X538870D01*
X538097Y511138D01*
X536538Y512697D01*
X534670Y513470D01*
D02*
G37*
G36*
X532130D02*
X530262Y512697D01*
X528703Y511138D01*
X527930Y509270D01*
X532130D01*
Y513470D01*
D02*
G37*
G36*
X483870D02*
Y509270D01*
X488070D01*
X487297Y511138D01*
X485738Y512697D01*
X483870Y513470D01*
D02*
G37*
G36*
X538870Y506730D02*
X534670D01*
Y502530D01*
X536538Y503303D01*
X538097Y504862D01*
X538870Y506730D01*
D02*
G37*
G36*
X532130D02*
X527930D01*
X528703Y504862D01*
X530262Y503303D01*
X532130Y502530D01*
Y506730D01*
D02*
G37*
G36*
X488070D02*
X483870D01*
Y502530D01*
X485738Y503303D01*
X487297Y504862D01*
X488070Y506730D01*
D02*
G37*
G36*
X280670Y513470D02*
Y509270D01*
X284870D01*
X284097Y511138D01*
X282538Y512697D01*
X280670Y513470D01*
D02*
G37*
G36*
X278130D02*
X276262Y512697D01*
X274703Y511138D01*
X273930Y509270D01*
X278130D01*
Y513470D01*
D02*
G37*
G36*
X284870Y506730D02*
X280670D01*
Y502530D01*
X282538Y503303D01*
X284097Y504862D01*
X284870Y506730D01*
D02*
G37*
G36*
X278130D02*
X273930D01*
X274703Y504862D01*
X276262Y503303D01*
X278130Y502530D01*
Y506730D01*
D02*
G37*
G36*
X280670Y411870D02*
Y407670D01*
X284870D01*
X284097Y409538D01*
X282538Y411097D01*
X280670Y411870D01*
D02*
G37*
G36*
X284870Y405130D02*
X280670D01*
Y400930D01*
X282538Y401703D01*
X284097Y403262D01*
X284870Y405130D01*
D02*
G37*
G36*
X534670Y310270D02*
Y306070D01*
X538870D01*
X538097Y307938D01*
X536538Y309497D01*
X534670Y310270D01*
D02*
G37*
G36*
X532130D02*
X530262Y309497D01*
X528703Y307938D01*
X527930Y306070D01*
X532130D01*
Y310270D01*
D02*
G37*
G36*
X538870Y303530D02*
X534670D01*
Y299330D01*
X536538Y300103D01*
X538097Y301662D01*
X538870Y303530D01*
D02*
G37*
G36*
X532130D02*
X527930D01*
X528703Y301662D01*
X530262Y300103D01*
X532130Y299330D01*
Y303530D01*
D02*
G37*
G36*
X492490Y158860D02*
X483660D01*
Y155281D01*
X489395D01*
X490579Y155516D01*
X491583Y156187D01*
X492254Y157191D01*
X492490Y158375D01*
Y158860D01*
D02*
G37*
G36*
X483870Y107070D02*
Y102870D01*
X488070D01*
X487297Y104738D01*
X485738Y106297D01*
X483870Y107070D01*
D02*
G37*
G36*
X481330D02*
X479462Y106297D01*
X477903Y104738D01*
X477130Y102870D01*
X481330D01*
Y107070D01*
D02*
G37*
G36*
X488070Y100330D02*
X483870D01*
Y96130D01*
X485738Y96903D01*
X487297Y98462D01*
X488070Y100330D01*
D02*
G37*
G36*
X481330D02*
X477130D01*
X477903Y98462D01*
X479462Y96903D01*
X481330Y96130D01*
Y100330D01*
D02*
G37*
G36*
X356870Y259470D02*
Y255270D01*
X361070D01*
X360297Y257138D01*
X358738Y258697D01*
X356870Y259470D01*
D02*
G37*
G36*
X354330D02*
X352462Y258697D01*
X350903Y257138D01*
X350130Y255270D01*
X354330D01*
Y259470D01*
D02*
G37*
G36*
X361070Y252730D02*
X356870D01*
Y248530D01*
X358738Y249303D01*
X360297Y250862D01*
X361070Y252730D01*
D02*
G37*
G36*
X354330D02*
X350130D01*
X350903Y250862D01*
X352462Y249303D01*
X354330Y248530D01*
Y252730D01*
D02*
G37*
G36*
X349250Y235340D02*
Y231140D01*
X353450D01*
X352677Y233008D01*
X351118Y234567D01*
X349250Y235340D01*
D02*
G37*
G36*
X351671Y219700D02*
X348567D01*
Y210098D01*
X348971Y210179D01*
X350390Y211127D01*
X351338Y212546D01*
X351671Y214220D01*
Y219700D01*
D02*
G37*
G36*
X382270Y208670D02*
Y204470D01*
X386470D01*
X385697Y206338D01*
X384138Y207897D01*
X382270Y208670D01*
D02*
G37*
G36*
X379730D02*
X377862Y207897D01*
X376303Y206338D01*
X375530Y204470D01*
X379730D01*
Y208670D01*
D02*
G37*
G36*
X386470Y201930D02*
X382270D01*
Y197730D01*
X384138Y198503D01*
X385697Y200062D01*
X386470Y201930D01*
D02*
G37*
G36*
X379730D02*
X375530D01*
X376303Y200062D01*
X377862Y198503D01*
X379730Y197730D01*
Y201930D01*
D02*
G37*
G36*
X341630Y162950D02*
Y158750D01*
X345830D01*
X345057Y160618D01*
X343498Y162177D01*
X341630Y162950D01*
D02*
G37*
G36*
X339090D02*
X337222Y162177D01*
X335663Y160618D01*
X334890Y158750D01*
X339090D01*
Y162950D01*
D02*
G37*
G36*
X226244Y97260D02*
X219724D01*
Y91240D01*
X226244D01*
Y97260D01*
D02*
G37*
G36*
X217184D02*
X210664D01*
Y91240D01*
X217184D01*
Y97260D01*
D02*
G37*
G36*
X203121Y94878D02*
X194310D01*
Y86579D01*
X203121D01*
Y94878D01*
D02*
G37*
G36*
X191770D02*
X182959D01*
Y86579D01*
X191770D01*
Y94878D01*
D02*
G37*
G36*
X204470Y80400D02*
Y76200D01*
X208670D01*
X207897Y78068D01*
X206338Y79627D01*
X204470Y80400D01*
D02*
G37*
G36*
X201930D02*
X200062Y79627D01*
X198503Y78068D01*
X197730Y76200D01*
X201930D01*
Y80400D01*
D02*
G37*
G36*
X186690D02*
Y76200D01*
X190890D01*
X190117Y78068D01*
X188558Y79627D01*
X186690Y80400D01*
D02*
G37*
G36*
X184150D02*
X182282Y79627D01*
X180723Y78068D01*
X179950Y76200D01*
X184150D01*
Y80400D01*
D02*
G37*
G36*
X208670Y73660D02*
X204470D01*
Y69460D01*
X206338Y70233D01*
X207897Y71792D01*
X208670Y73660D01*
D02*
G37*
G36*
X201930D02*
X197730D01*
X198503Y71792D01*
X200062Y70233D01*
X201930Y69460D01*
Y73660D01*
D02*
G37*
G36*
X190890D02*
X186690D01*
Y69460D01*
X188558Y70233D01*
X190117Y71792D01*
X190890Y73660D01*
D02*
G37*
G36*
X184150D02*
X179950D01*
X180723Y71792D01*
X182282Y70233D01*
X184150Y69460D01*
Y73660D01*
D02*
G37*
G36*
X221010Y70935D02*
X216740D01*
Y61165D01*
X221010D01*
Y70935D01*
D02*
G37*
G36*
X204470Y63890D02*
Y59690D01*
X208670D01*
X207897Y61558D01*
X206338Y63117D01*
X204470Y63890D01*
D02*
G37*
G36*
X201930D02*
X200062Y63117D01*
X198503Y61558D01*
X197730Y59690D01*
X201930D01*
Y63890D01*
D02*
G37*
G36*
X186690D02*
Y59690D01*
X190890D01*
X190117Y61558D01*
X188558Y63117D01*
X186690Y63890D01*
D02*
G37*
G36*
X184150D02*
X182282Y63117D01*
X180723Y61558D01*
X179950Y59690D01*
X184150D01*
Y63890D01*
D02*
G37*
G36*
X208670Y57150D02*
X204470D01*
Y52950D01*
X206338Y53723D01*
X207897Y55282D01*
X208670Y57150D01*
D02*
G37*
G36*
X201930D02*
X197730D01*
X198503Y55282D01*
X200062Y53723D01*
X201930Y52950D01*
Y57150D01*
D02*
G37*
G36*
X190890D02*
X186690D01*
Y52950D01*
X188558Y53723D01*
X190117Y55282D01*
X190890Y57150D01*
D02*
G37*
G36*
X184150D02*
X179950D01*
X180723Y55282D01*
X182282Y53723D01*
X184150Y52950D01*
Y57150D01*
D02*
G37*
G36*
X221010Y58625D02*
X216740D01*
Y48855D01*
X221010D01*
Y58625D01*
D02*
G37*
G36*
X229240Y70935D02*
X224240Y70935D01*
X223550D01*
Y59895D01*
Y48855D01*
X224240D01*
X227820Y48855D01*
X232820Y48855D01*
X233510D01*
Y59895D01*
Y70935D01*
X229240D01*
D02*
G37*
%LPD*%
D11*
X242062Y251460D02*
X249796Y243726D01*
Y220970D02*
Y243726D01*
X222250Y257810D02*
X246366D01*
X256297Y247879D01*
Y220970D02*
Y247879D01*
X630611Y409070D02*
X784300D01*
X620362Y419320D02*
X630611Y409070D01*
X520054Y419320D02*
X620362D01*
X514050Y413316D02*
X520054Y419320D01*
X514050Y225213D02*
Y413316D01*
Y225213D02*
X515743Y223520D01*
X515976D01*
X524286Y215210D01*
Y194253D02*
Y215210D01*
X522383Y192349D02*
X524286Y194253D01*
X473834Y198130D02*
X481390D01*
X441800Y81130D02*
X442300D01*
X454442Y93272D01*
Y178738D02*
X473834Y198130D01*
X454442Y93272D02*
Y178738D01*
X508691Y192349D02*
X522383D01*
X481390Y198130D02*
X482390Y199130D01*
X501910D01*
X508691Y192349D01*
X262796Y220970D02*
Y237397D01*
X262890Y237490D01*
X329184Y206756D02*
X334296Y211868D01*
X269296Y220970D02*
Y241244D01*
X282297Y220970D02*
Y284123D01*
X295296Y220970D02*
Y244856D01*
X233090Y187878D02*
X251968Y206756D01*
X219710Y346710D02*
X282297Y284123D01*
X254050Y347930D02*
X323099Y278881D01*
X210820Y344170D02*
X275797Y279193D01*
Y220970D02*
Y279193D01*
X323850Y156972D02*
X340796Y173918D01*
X245110Y670739D02*
X271691Y697320D01*
X264300Y669070D02*
X300750Y632621D01*
X228600Y349250D02*
X314098Y263752D01*
X264300Y371225D02*
Y409070D01*
X308297Y240583D02*
X314098Y246385D01*
X314796Y220970D02*
Y238082D01*
X288797Y220970D02*
Y235458D01*
X314796Y238082D02*
X318599Y241884D01*
X308297Y220970D02*
Y240583D01*
X248650Y340630D02*
Y564608D01*
X300750Y341139D02*
Y632621D01*
X248650Y340630D02*
X318599Y270681D01*
X314098Y246385D02*
Y263752D01*
X318599Y241884D02*
Y270681D01*
X323099Y237384D02*
Y278881D01*
X201930Y695960D02*
X233680Y727710D01*
X315755Y679320D02*
X336254Y658820D01*
X228600Y660593D02*
X272857Y704850D01*
X219710Y682168D02*
X250012Y712470D01*
X260054Y679320D02*
X315755D01*
X210820Y688340D02*
X242570Y720090D01*
X254050Y347930D02*
Y673316D01*
X228600Y349250D02*
Y660593D01*
X254050Y673316D02*
X260054Y679320D01*
X210820Y344170D02*
Y688340D01*
X245110Y568149D02*
X248650Y564608D01*
X245110Y568149D02*
Y670739D01*
X219710Y346710D02*
Y682168D01*
X201930Y308610D02*
X269296Y241244D01*
X201930Y308610D02*
Y695960D01*
X321296Y220970D02*
Y235581D01*
X323099Y237384D01*
X301797Y220970D02*
Y240284D01*
X327797Y220970D02*
Y230108D01*
X333248Y235559D01*
X303170Y252730D02*
X303530D01*
X295296Y244856D02*
X303170Y252730D01*
X251968Y206756D02*
X329184D01*
X449580Y190500D02*
X476250Y217170D01*
X544120Y189841D02*
X552350Y198071D01*
X528017Y189841D02*
X544120D01*
X505460Y207010D02*
X509794Y202676D01*
X505460Y207010D02*
X505460D01*
X487775Y224695D02*
X505460Y207010D01*
X491684Y185130D02*
X495204Y181611D01*
X515976Y177800D02*
X528017Y189841D01*
X498680Y192200D02*
X499110Y191770D01*
X264300Y371225D02*
X410735Y224790D01*
X427076Y247650D02*
X435387Y239339D01*
X394239Y247650D02*
X426843D01*
X427076D01*
X453136Y236220D02*
X464820Y247904D01*
X300750Y341139D02*
X394239Y247650D01*
X552350Y198071D02*
Y381020D01*
X464820Y247904D02*
Y503550D01*
X476250Y217170D02*
Y621020D01*
X487775Y224695D02*
Y436233D01*
X233680Y727710D02*
X770890D01*
X487775Y436233D02*
X720612Y669070D01*
X271691Y697320D02*
X516910D01*
X720612Y669070D02*
X784300D01*
X756920Y712470D02*
X794550Y674840D01*
X806450Y631190D02*
Y678180D01*
X764540Y720090D02*
X806450Y678180D01*
X845200Y643170D02*
Y653400D01*
X770890Y727710D02*
X845200Y653400D01*
X794550Y624040D02*
X822870Y595720D01*
X524300Y409070D02*
X552350Y381020D01*
X476250Y621020D02*
X524300Y669070D01*
X483939Y658820D02*
X504439Y679320D01*
X528546D02*
X547357Y660509D01*
X504439Y679320D02*
X528546D01*
X551857Y623113D02*
Y662373D01*
X547357Y614531D02*
Y660509D01*
X516910Y697320D02*
X551857Y662373D01*
Y623113D02*
X570000Y604970D01*
X523520Y704850D02*
X585200Y643170D01*
X547357Y614531D02*
X566169Y595720D01*
X575950D01*
X585200Y604970D01*
X250012Y712470D02*
X756920D01*
X272857Y704850D02*
X523520D01*
X325200Y643170D02*
X464820Y503550D01*
X336254Y658820D02*
X483939D01*
X242570Y720090D02*
X764540D01*
X794550Y624040D02*
Y674840D01*
X822870Y595720D02*
X835950D01*
X845200Y604970D01*
X806450Y631190D02*
X826941Y610699D01*
Y610600D02*
X830000Y607541D01*
Y604970D02*
Y607541D01*
X826941Y610600D02*
Y610699D01*
X233090Y116146D02*
Y187878D01*
Y116146D02*
X247636Y101600D01*
X237590Y118010D02*
X248920Y106680D01*
X245113Y129540D02*
X249796Y134223D01*
X245110Y129540D02*
X245113D01*
X237590Y150751D02*
X249158Y162319D01*
X237590Y118010D02*
Y150751D01*
X322280Y59895D02*
Y82850D01*
X340988Y128912D02*
X346710Y123190D01*
X340360Y97790D02*
X346995Y91155D01*
Y60180D02*
Y91155D01*
X314460Y101600D02*
X334780Y81280D01*
X311150Y93980D02*
X322280Y82850D01*
X334780Y59895D02*
Y81280D01*
X359780Y59895D02*
Y97420D01*
X350520Y106680D02*
X359780Y97420D01*
X340988Y128912D02*
Y140779D01*
X340796Y140970D02*
X340988Y140779D01*
X266600Y116986D02*
Y124509D01*
X262796Y128312D02*
X266600Y124509D01*
X261474Y111860D02*
X266600Y116986D01*
X248920Y106680D02*
X350520D01*
X384300Y97864D02*
Y108710D01*
X247636Y101600D02*
X314460D01*
X346995Y60180D02*
X347280Y59895D01*
X249158Y162319D02*
X266950D01*
X262956Y155956D02*
X269296Y149616D01*
X256286Y155956D02*
X262956D01*
X266950Y162319D02*
X272297Y156972D01*
X334153Y140827D02*
X334296Y140970D01*
X334153Y115713D02*
Y140827D01*
X253900Y111860D02*
X261474D01*
X256282Y140955D02*
X256297Y140970D01*
X248920Y116840D02*
X253900Y111860D01*
X262796Y128312D02*
Y140970D01*
X260350Y121920D02*
Y122867D01*
X256282Y126935D02*
X260350Y122867D01*
X249796Y134223D02*
Y140970D01*
X256282Y126935D02*
Y140955D01*
X274320Y121920D02*
Y122867D01*
X269296Y140970D02*
Y149616D01*
X274320Y122867D02*
X275797Y124344D01*
X288798Y123190D02*
X321310D01*
X275797Y124344D02*
Y140970D01*
X272297Y156972D02*
X323850D01*
X282297Y129691D02*
X288798Y123190D01*
X282297Y129691D02*
Y140970D01*
X515743Y177800D02*
X515976D01*
X511932Y181611D02*
X515743Y177800D01*
X442300Y24030D02*
X515743Y97473D01*
Y154940D01*
X515510D02*
X515743D01*
X458942Y176738D02*
X473834Y191630D01*
X490105Y185130D02*
X491684D01*
X490104Y185130D02*
X490105Y185130D01*
X483390Y185130D02*
X490104D01*
X473834Y185130D02*
X481390D01*
X482390Y186130D02*
X483390Y185130D01*
X481390Y185130D02*
X482390Y186130D01*
X473834Y191630D02*
X481390D01*
X482390Y192630D01*
X482820Y192200D02*
X498680D01*
X495204Y181611D02*
X511932D01*
X491820Y178630D02*
X515510Y154940D01*
X483390Y178630D02*
X491820D01*
X482390Y179630D02*
X483390Y178630D01*
X333248Y235559D02*
X335925D01*
X340796Y173918D02*
Y220970D01*
X334296Y211868D02*
Y220970D01*
X435050Y30280D02*
X441300Y24030D01*
X421800Y61976D02*
Y71630D01*
X435050Y30280D02*
Y105182D01*
X383628Y80010D02*
X398780D01*
X373798Y61413D02*
Y70180D01*
X384300Y97864D02*
X386914Y95250D01*
X373798Y70180D02*
X383628Y80010D01*
X372280Y59895D02*
X373798Y61413D01*
X482390Y192630D02*
X482820Y192200D01*
X386914Y95250D02*
X402590D01*
X409550Y102210D01*
Y102710D01*
X390550D02*
Y103210D01*
X401320Y113980D01*
X384300Y108710D02*
X396240Y120650D01*
X401320Y113980D02*
Y186690D01*
X396240Y120650D02*
Y187974D01*
X401320Y186690D02*
X412760Y198130D01*
X396240Y187974D02*
X412896Y204630D01*
X412760Y198130D02*
X423390D01*
X424390Y199130D01*
X425390Y200130D01*
X432946D01*
X435387Y202570D01*
X412896Y204630D02*
X423390D01*
X424390Y205630D01*
Y222337D01*
X435387Y202570D02*
Y239339D01*
X424390Y222337D02*
X426843Y224790D01*
X410735D02*
X426843D01*
X441300Y24030D02*
X441800D01*
X442300D01*
X441800Y43030D02*
X442300D01*
X463442Y64172D01*
X441800Y62130D02*
X442300D01*
X458942Y78772D01*
X435050Y105182D02*
X449580Y119712D01*
X463442Y64172D02*
Y174738D01*
X473834Y185130D01*
X458942Y78772D02*
Y176738D01*
X449580Y119712D02*
Y190500D01*
D13*
X421800Y33530D02*
Y61976D01*
X421300Y71630D02*
X421800D01*
X419570Y73360D02*
X421300Y71630D01*
X419570Y73360D02*
Y73860D01*
X413420Y80010D02*
X419570Y73860D01*
X398780Y80010D02*
X400050D01*
X413420D01*
X398780D02*
Y81440D01*
X400050Y82710D01*
D15*
X438067Y120650D02*
D03*
X425533D02*
D03*
D16*
X426843Y224790D02*
D03*
X444377D02*
D03*
X426843Y247650D02*
D03*
X444377D02*
D03*
X515743Y200660D02*
D03*
X533277D02*
D03*
X515743Y154940D02*
D03*
X533277D02*
D03*
X515743Y177800D02*
D03*
X533277D02*
D03*
X515743Y223520D02*
D03*
X533277D02*
D03*
D18*
X372280Y59895D02*
D03*
X384780D02*
D03*
X347280D02*
D03*
X334780D02*
D03*
X322280D02*
D03*
X309780D02*
D03*
X297280D02*
D03*
X284780D02*
D03*
X234780D02*
D03*
X222280D02*
D03*
X259780D02*
D03*
X272280D02*
D03*
X247280D02*
D03*
X359780D02*
D03*
D19*
X403280Y27895D02*
D03*
X203780D02*
D03*
D20*
X193040Y96148D02*
D03*
Y114672D02*
D03*
D21*
X387350Y153670D02*
D03*
Y141136D02*
D03*
D22*
X439050Y140970D02*
D03*
X424550D02*
D03*
D23*
X424390Y205630D02*
D03*
X482390Y192630D02*
D03*
Y199130D02*
D03*
Y179630D02*
D03*
X424390Y199130D02*
D03*
X482390Y186130D02*
D03*
X424390Y166630D02*
D03*
Y173130D02*
D03*
Y179630D02*
D03*
Y186130D02*
D03*
Y192630D02*
D03*
X482390Y160130D02*
D03*
Y166630D02*
D03*
Y205630D02*
D03*
Y173130D02*
D03*
X424390Y160130D02*
D03*
D24*
X218454Y98530D02*
D03*
Y113030D02*
D03*
X367030Y154570D02*
D03*
Y140070D02*
D03*
D25*
X298547Y180970D02*
D03*
D26*
X347297Y220970D02*
D03*
X249796D02*
D03*
X256297D02*
D03*
X262796D02*
D03*
X308297Y140970D02*
D03*
X301797D02*
D03*
X295296D02*
D03*
X288797D02*
D03*
X269296D02*
D03*
X249796D02*
D03*
X282297D02*
D03*
X275797D02*
D03*
X262796D02*
D03*
X340796Y220970D02*
D03*
X314796D02*
D03*
X327797D02*
D03*
X334296D02*
D03*
X269296D02*
D03*
X301797D02*
D03*
X321296D02*
D03*
X308297D02*
D03*
X288797D02*
D03*
X282297D02*
D03*
X295296D02*
D03*
X256297Y140970D02*
D03*
X347297D02*
D03*
X275797Y220970D02*
D03*
X314796Y140970D02*
D03*
X321296D02*
D03*
X327797D02*
D03*
X334296D02*
D03*
X340796D02*
D03*
D27*
X441800Y43030D02*
D03*
Y24030D02*
D03*
X421800Y33530D02*
D03*
X441800Y81130D02*
D03*
Y62130D02*
D03*
X421800Y71630D02*
D03*
D28*
X390550Y102710D02*
D03*
X409550D02*
D03*
X400050Y82710D02*
D03*
D29*
X953850Y749330D02*
D03*
Y62230D02*
D03*
X125730Y749330D02*
D03*
X125650Y60880D02*
D03*
D30*
X625900Y300570D02*
D03*
Y427570D02*
D03*
X498900D02*
D03*
Y300570D02*
D03*
X885900D02*
D03*
Y427570D02*
D03*
X758900D02*
D03*
Y300570D02*
D03*
X365900D02*
D03*
Y427570D02*
D03*
X238900D02*
D03*
Y300570D02*
D03*
X625900Y560570D02*
D03*
Y687570D02*
D03*
X498900D02*
D03*
Y560570D02*
D03*
X885900D02*
D03*
Y687570D02*
D03*
X758900D02*
D03*
Y560570D02*
D03*
X365900D02*
D03*
Y687570D02*
D03*
X238900D02*
D03*
Y560570D02*
D03*
D31*
X570000Y344970D02*
D03*
X585200D02*
D03*
Y383170D02*
D03*
X570000D02*
D03*
X830000Y344970D02*
D03*
X845200D02*
D03*
Y383170D02*
D03*
X830000D02*
D03*
X310000Y344970D02*
D03*
X325200D02*
D03*
Y383170D02*
D03*
X310000D02*
D03*
X570000Y604970D02*
D03*
X585200D02*
D03*
Y643170D02*
D03*
X570000D02*
D03*
X830000Y604970D02*
D03*
X845200D02*
D03*
Y643170D02*
D03*
X830000D02*
D03*
X310000Y604970D02*
D03*
X325200D02*
D03*
X310000Y643170D02*
D03*
X325200D02*
D03*
D32*
X524300Y409070D02*
D03*
X600500D02*
D03*
X784300D02*
D03*
X860500D02*
D03*
X264300D02*
D03*
X340500D02*
D03*
X524300Y669070D02*
D03*
X600500D02*
D03*
X784300D02*
D03*
X860500D02*
D03*
X264300D02*
D03*
X340500D02*
D03*
D33*
X990600Y711200D02*
D03*
X965200Y660400D02*
D03*
X990600Y609600D02*
D03*
X965200Y558800D02*
D03*
X990600Y508000D02*
D03*
X965200Y457200D02*
D03*
X990600Y406400D02*
D03*
X965200Y355600D02*
D03*
X990600Y304800D02*
D03*
X965200Y254000D02*
D03*
X990600Y203200D02*
D03*
X965200Y152400D02*
D03*
X990600Y101600D02*
D03*
X914400Y762000D02*
D03*
X939800Y711200D02*
D03*
X914400Y660400D02*
D03*
X939800Y609600D02*
D03*
X914400Y558800D02*
D03*
X939800Y508000D02*
D03*
X914400Y457200D02*
D03*
X939800Y406400D02*
D03*
X914400Y355600D02*
D03*
X939800Y304800D02*
D03*
X914400Y254000D02*
D03*
X939800Y203200D02*
D03*
X914400Y152400D02*
D03*
X939800Y101600D02*
D03*
X914400Y50800D02*
D03*
X863600Y762000D02*
D03*
X889000Y711200D02*
D03*
Y609600D02*
D03*
X863600Y558800D02*
D03*
X889000Y508000D02*
D03*
X863600Y457200D02*
D03*
X889000Y406400D02*
D03*
X863600Y355600D02*
D03*
Y254000D02*
D03*
X889000Y203200D02*
D03*
X863600Y152400D02*
D03*
X889000Y101600D02*
D03*
X863600Y50800D02*
D03*
X812800Y762000D02*
D03*
X838200Y711200D02*
D03*
X812800Y660400D02*
D03*
Y558800D02*
D03*
X838200Y508000D02*
D03*
X812800Y457200D02*
D03*
X838200Y406400D02*
D03*
X812800Y355600D02*
D03*
X838200Y304800D02*
D03*
X812800Y254000D02*
D03*
X838200Y203200D02*
D03*
X812800Y152400D02*
D03*
X838200Y101600D02*
D03*
X812800Y50800D02*
D03*
X762000Y762000D02*
D03*
Y660400D02*
D03*
X787400Y609600D02*
D03*
Y508000D02*
D03*
X762000Y457200D02*
D03*
Y355600D02*
D03*
X787400Y304800D02*
D03*
Y203200D02*
D03*
X762000Y152400D02*
D03*
X787400Y101600D02*
D03*
X762000Y50800D02*
D03*
X711200Y762000D02*
D03*
X736600Y609600D02*
D03*
X711200Y558800D02*
D03*
X736600Y508000D02*
D03*
X711200Y457200D02*
D03*
Y355600D02*
D03*
X736600Y304800D02*
D03*
X711200Y254000D02*
D03*
X736600Y203200D02*
D03*
X711200Y152400D02*
D03*
X736600Y101600D02*
D03*
X711200Y50800D02*
D03*
X660400Y762000D02*
D03*
Y660400D02*
D03*
X685800Y609600D02*
D03*
X660400Y558800D02*
D03*
X685800Y508000D02*
D03*
X660400Y457200D02*
D03*
Y355600D02*
D03*
X685800Y304800D02*
D03*
X660400Y254000D02*
D03*
X685800Y203200D02*
D03*
X660400Y152400D02*
D03*
X685800Y101600D02*
D03*
X660400Y50800D02*
D03*
X609600Y762000D02*
D03*
Y660400D02*
D03*
X635000Y609600D02*
D03*
Y508000D02*
D03*
X609600Y457200D02*
D03*
Y355600D02*
D03*
Y254000D02*
D03*
X635000Y203200D02*
D03*
X609600Y152400D02*
D03*
X635000Y101600D02*
D03*
X609600Y50800D02*
D03*
X558800Y762000D02*
D03*
Y660400D02*
D03*
Y558800D02*
D03*
X584200Y508000D02*
D03*
X558800Y457200D02*
D03*
X584200Y406400D02*
D03*
X558800Y355600D02*
D03*
X584200Y304800D02*
D03*
X558800Y254000D02*
D03*
X584200Y203200D02*
D03*
X558800Y152400D02*
D03*
X584200Y101600D02*
D03*
X558800Y50800D02*
D03*
X508000Y762000D02*
D03*
X533400Y609600D02*
D03*
Y508000D02*
D03*
Y304800D02*
D03*
Y101600D02*
D03*
X508000Y50800D02*
D03*
X457200Y762000D02*
D03*
X482600Y609600D02*
D03*
X457200Y558800D02*
D03*
X482600Y508000D02*
D03*
X457200Y457200D02*
D03*
Y355600D02*
D03*
X482600Y101600D02*
D03*
X406400Y762000D02*
D03*
X431800Y609600D02*
D03*
Y508000D02*
D03*
X406400Y457200D02*
D03*
X431800Y406400D02*
D03*
Y304800D02*
D03*
X406400Y254000D02*
D03*
Y50800D02*
D03*
X355600Y762000D02*
D03*
X381000Y609600D02*
D03*
Y508000D02*
D03*
X355600Y457200D02*
D03*
X381000Y406400D02*
D03*
X355600Y355600D02*
D03*
X381000Y304800D02*
D03*
X355600Y254000D02*
D03*
X381000Y203200D02*
D03*
X304800Y762000D02*
D03*
Y660400D02*
D03*
X330200Y508000D02*
D03*
X254000Y762000D02*
D03*
X279400Y508000D02*
D03*
Y406400D02*
D03*
X203200Y762000D02*
D03*
X228600Y203200D02*
D03*
X177800Y711200D02*
D03*
X152400Y660400D02*
D03*
X177800Y609600D02*
D03*
X152400Y558800D02*
D03*
Y457200D02*
D03*
Y355600D02*
D03*
Y254000D02*
D03*
Y152400D02*
D03*
X127000Y711200D02*
D03*
X101600Y660400D02*
D03*
X127000Y609600D02*
D03*
X101600Y558800D02*
D03*
X127000Y508000D02*
D03*
X101600Y457200D02*
D03*
X127000Y406400D02*
D03*
X101600Y355600D02*
D03*
X127000Y304800D02*
D03*
X101600Y254000D02*
D03*
X127000Y203200D02*
D03*
X101600Y152400D02*
D03*
X127000Y101600D02*
D03*
X315046Y196850D02*
D03*
X298550D02*
D03*
X315046Y165100D02*
D03*
X298550D02*
D03*
X281940D02*
D03*
X315046Y180970D02*
D03*
X281940D02*
D03*
X298547Y180970D02*
D03*
X281940Y196850D02*
D03*
X260350Y68580D02*
D03*
X273050D02*
D03*
X361950Y154940D02*
D03*
X340360Y157480D02*
D03*
X382270Y154940D02*
D03*
X439420Y124460D02*
D03*
Y146050D02*
D03*
X473710Y160020D02*
D03*
X490220Y166370D02*
D03*
X473687Y172649D02*
D03*
X347980Y229870D02*
D03*
X490220Y207010D02*
D03*
X198120Y121920D02*
D03*
X212090Y113030D02*
D03*
X185420Y74930D02*
D03*
X203200Y58420D02*
D03*
X185420D02*
D03*
X203200Y74930D02*
D03*
X242062Y251460D02*
D03*
X222250Y257810D02*
D03*
X262890Y237490D02*
D03*
X252730Y83820D02*
D03*
X274320Y121920D02*
D03*
X260350D02*
D03*
X248920Y116840D02*
D03*
X256286Y155956D02*
D03*
X245110Y129540D02*
D03*
X340360Y97790D02*
D03*
X346710Y123190D02*
D03*
X321310D02*
D03*
X334153Y115713D02*
D03*
X455930Y252730D02*
D03*
X407670Y170180D02*
D03*
X410210Y157480D02*
D03*
Y182880D02*
D03*
X455930Y220980D02*
D03*
X425450Y130402D02*
D03*
X377190Y139700D02*
D03*
X453136Y236220D02*
D03*
X499110Y191770D02*
D03*
X505460Y207010D02*
D03*
X544830Y223520D02*
D03*
Y201930D02*
D03*
Y177800D02*
D03*
Y154940D02*
D03*
X335925Y235559D02*
D03*
X301797Y240284D02*
D03*
X303530Y252730D02*
D03*
X287020Y44450D02*
D03*
X300990D02*
D03*
X313690Y80010D02*
D03*
X311150Y93980D02*
D03*
X288797Y235458D02*
D03*
D34*
X272665Y60280D02*
Y68195D01*
X272280Y59895D02*
X272665Y60280D01*
X260065Y60180D02*
Y68295D01*
X260350Y68580D01*
X272665Y68195D02*
X273050Y68580D01*
X361950Y154940D02*
X362320Y154570D01*
X367030D01*
X386654Y154366D02*
X387350Y153670D01*
X382270Y154940D02*
X382844Y154366D01*
X386654D01*
X438067Y120650D02*
X439420Y122003D01*
X439050Y140970D02*
X439420Y141340D01*
Y122003D02*
Y124460D01*
Y141340D02*
Y146050D01*
X473710Y160020D02*
X473765Y160075D01*
X482335D01*
X473687Y172649D02*
X473927Y172889D01*
X482150D01*
X482335Y160075D02*
X482390Y160130D01*
X482150Y172889D02*
X482390Y173130D01*
Y166630D02*
X482520Y166500D01*
X347297Y220970D02*
X347392Y221066D01*
Y228471D01*
X482390Y205630D02*
X483140Y206380D01*
X347980Y229058D02*
Y229870D01*
X347392Y228471D02*
X347980Y229058D01*
X490090Y166500D02*
X490220Y166370D01*
X483140Y206380D02*
X488778D01*
X482520Y166500D02*
X490090D01*
X488778Y206380D02*
X489408Y207010D01*
X490220D01*
X193040Y114672D02*
X198120Y119752D01*
Y121920D01*
X212090Y113030D02*
X218454D01*
X444377Y224790D02*
X447938Y221229D01*
X455681D02*
X455930Y220980D01*
X447938Y221229D02*
X455681D01*
X543560Y201472D02*
Y201930D01*
X533277Y200660D02*
X542748D01*
X543560Y201930D02*
X544830D01*
X542748Y200660D02*
X543560Y201472D01*
X533277Y223520D02*
X544830D01*
X512258Y203082D02*
X513321D01*
X515743Y200660D01*
X455118Y252730D02*
X455930D01*
X447938Y251211D02*
X453599D01*
X455118Y252730D01*
X444377Y247650D02*
X447938Y251211D01*
X284780Y47502D02*
X287020Y45262D01*
X284780Y47502D02*
Y59895D01*
X309780Y75288D02*
X313690Y79198D01*
Y80010D01*
X347297Y139931D02*
X347528Y139700D01*
X287020Y44450D02*
Y45262D01*
X297280Y48160D02*
Y59895D01*
Y48160D02*
X300990Y44450D01*
X309780Y59895D02*
Y75288D01*
X367030Y139700D02*
X377190D01*
X347528D02*
X367030D01*
X385914D02*
X387350Y141136D01*
X377190Y139700D02*
X385914D01*
X347297Y139931D02*
Y140970D01*
X533277Y177800D02*
X544830D01*
X533277Y154940D02*
X544830D01*
X410210Y157480D02*
X410784Y158054D01*
X407670Y170180D02*
X408482D01*
X411432Y173130D01*
X424390Y141130D02*
Y160130D01*
X411022Y182880D02*
X413522Y180380D01*
X410784Y158054D02*
Y160934D01*
X410210Y182880D02*
X411022D01*
X410784Y160934D02*
X415730Y165880D01*
X423640D01*
X424390Y166630D01*
X411432Y173130D02*
X424390D01*
X423640Y180380D02*
X424390Y179630D01*
X413522Y180380D02*
X423640D01*
X424550Y140970D02*
X425450Y140070D01*
X424390Y141130D02*
X424550Y140970D01*
X425450Y130402D02*
Y140070D01*
Y120733D02*
X425533Y120650D01*
X425450Y120733D02*
Y130402D01*
D35*
X247280Y59895D02*
Y78370D01*
X252730Y83820D01*
M02*
