G04*
G04 #@! TF.GenerationSoftware,Altium Limited,Altium Designer,26.5.0 (11)*
G04*
G04 Layer_Color=8388736*
G04 Board_Origin=0|0*
%FSLAX44Y44*%
%MOMM*%
G71*
G04*
G04 #@! TF.SameCoordinates,F89594A8-7EC5-4CD2-83AE-746AC17129C5*
G04*
G04*
G04 #@! TF.FilePolarity,Negative*
G04*
G01*
G75*
%ADD15R,0.7587X0.8121*%
%ADD16R,1.0587X1.0121*%
%ADD18R,0.6000X1.7000*%
%ADD19R,1.0000X2.7000*%
%ADD20R,1.5082X1.4057*%
%ADD21R,0.8121X0.7587*%
%ADD22R,0.9500X1.0500*%
G04:AMPARAMS|DCode=23|XSize=1.5mm|YSize=0.45mm|CornerRadius=0.0495mm|HoleSize=0mm|Usage=FLASHONLY|Rotation=180.000|XOffset=0mm|YOffset=0mm|HoleType=Round|Shape=RoundedRectangle|*
%AMROUNDEDRECTD23*
21,1,1.5000,0.3510,0,0,180.0*
21,1,1.4010,0.4500,0,0,180.0*
1,1,0.0990,-0.7005,0.1755*
1,1,0.0990,0.7005,0.1755*
1,1,0.0990,0.7005,-0.1755*
1,1,0.0990,-0.7005,-0.1755*
%
%ADD23ROUNDEDRECTD23*%
%ADD24R,1.0500X0.9500*%
%ADD25R,4.3600X4.1100*%
%ADD26O,0.3500X1.7000*%
%ADD27R,0.7000X0.6000*%
%ADD28R,0.6000X0.7000*%
%ADD29C,6.0000*%
%ADD30C,0.6500*%
%ADD31C,1.2000*%
%ADD32C,1.4000*%
%ADD33C,0.6000*%
D15*
X438067Y120650D02*
D03*
X425533D02*
D03*
D16*
X426843Y224790D02*
D03*
X444377D02*
D03*
X426843Y247650D02*
D03*
X444377D02*
D03*
X515743Y200660D02*
D03*
X533277D02*
D03*
X515743Y154940D02*
D03*
X533277D02*
D03*
X515743Y177800D02*
D03*
X533277D02*
D03*
X515743Y223520D02*
D03*
X533277D02*
D03*
D18*
X372280Y59895D02*
D03*
X384780D02*
D03*
X347280D02*
D03*
X334780D02*
D03*
X322280D02*
D03*
X309780D02*
D03*
X297280D02*
D03*
X284780D02*
D03*
X234780D02*
D03*
X222280D02*
D03*
X259780D02*
D03*
X272280D02*
D03*
X247280D02*
D03*
X359780D02*
D03*
D19*
X403280Y27895D02*
D03*
X203780D02*
D03*
D20*
X193040Y96148D02*
D03*
Y114672D02*
D03*
D21*
X387350Y153670D02*
D03*
Y141136D02*
D03*
D22*
X439050Y140970D02*
D03*
X424550D02*
D03*
D23*
X424390Y205630D02*
D03*
X482390Y192630D02*
D03*
Y199130D02*
D03*
Y179630D02*
D03*
X424390Y199130D02*
D03*
X482390Y186130D02*
D03*
X424390Y166630D02*
D03*
Y173130D02*
D03*
Y179630D02*
D03*
Y186130D02*
D03*
Y192630D02*
D03*
X482390Y160130D02*
D03*
Y166630D02*
D03*
Y205630D02*
D03*
Y173130D02*
D03*
X424390Y160130D02*
D03*
D24*
X218454Y98530D02*
D03*
Y113030D02*
D03*
X367030Y154570D02*
D03*
Y140070D02*
D03*
D25*
X298547Y180970D02*
D03*
D26*
X347297Y220970D02*
D03*
X249796D02*
D03*
X256297D02*
D03*
X262796D02*
D03*
X308297Y140970D02*
D03*
X301797D02*
D03*
X295296D02*
D03*
X288797D02*
D03*
X269296D02*
D03*
X249796D02*
D03*
X282297D02*
D03*
X275797D02*
D03*
X262796D02*
D03*
X340796Y220970D02*
D03*
X314796D02*
D03*
X327797D02*
D03*
X334296D02*
D03*
X269296D02*
D03*
X301797D02*
D03*
X321296D02*
D03*
X308297D02*
D03*
X288797D02*
D03*
X282297D02*
D03*
X295296D02*
D03*
X256297Y140970D02*
D03*
X347297D02*
D03*
X275797Y220970D02*
D03*
X314796Y140970D02*
D03*
X321296D02*
D03*
X327797D02*
D03*
X334296D02*
D03*
X340796D02*
D03*
D27*
X441800Y43030D02*
D03*
Y24030D02*
D03*
X421800Y33530D02*
D03*
X441800Y81130D02*
D03*
Y62130D02*
D03*
X421800Y71630D02*
D03*
D28*
X390550Y102710D02*
D03*
X409550D02*
D03*
X400050Y82710D02*
D03*
D29*
X953850Y749330D02*
D03*
Y62230D02*
D03*
X125730Y749330D02*
D03*
X125650Y60880D02*
D03*
D30*
X625900Y300570D02*
D03*
Y427570D02*
D03*
X498900D02*
D03*
Y300570D02*
D03*
X885900D02*
D03*
Y427570D02*
D03*
X758900D02*
D03*
Y300570D02*
D03*
X365900D02*
D03*
Y427570D02*
D03*
X238900D02*
D03*
Y300570D02*
D03*
X625900Y560570D02*
D03*
Y687570D02*
D03*
X498900D02*
D03*
Y560570D02*
D03*
X885900D02*
D03*
Y687570D02*
D03*
X758900D02*
D03*
Y560570D02*
D03*
X365900D02*
D03*
Y687570D02*
D03*
X238900D02*
D03*
Y560570D02*
D03*
D31*
X570000Y344970D02*
D03*
X585200D02*
D03*
Y383170D02*
D03*
X570000D02*
D03*
X830000Y344970D02*
D03*
X845200D02*
D03*
Y383170D02*
D03*
X830000D02*
D03*
X310000Y344970D02*
D03*
X325200D02*
D03*
Y383170D02*
D03*
X310000D02*
D03*
X570000Y604970D02*
D03*
X585200D02*
D03*
Y643170D02*
D03*
X570000D02*
D03*
X830000Y604970D02*
D03*
X845200D02*
D03*
Y643170D02*
D03*
X830000D02*
D03*
X310000Y604970D02*
D03*
X325200D02*
D03*
X310000Y643170D02*
D03*
X325200D02*
D03*
D32*
X524300Y409070D02*
D03*
X600500D02*
D03*
X784300D02*
D03*
X860500D02*
D03*
X264300D02*
D03*
X340500D02*
D03*
X524300Y669070D02*
D03*
X600500D02*
D03*
X784300D02*
D03*
X860500D02*
D03*
X264300D02*
D03*
X340500D02*
D03*
D33*
X990600Y711200D02*
D03*
X965200Y660400D02*
D03*
X990600Y609600D02*
D03*
X965200Y558800D02*
D03*
X990600Y508000D02*
D03*
X965200Y457200D02*
D03*
X990600Y406400D02*
D03*
X965200Y355600D02*
D03*
X990600Y304800D02*
D03*
X965200Y254000D02*
D03*
X990600Y203200D02*
D03*
X965200Y152400D02*
D03*
X990600Y101600D02*
D03*
X914400Y762000D02*
D03*
X939800Y711200D02*
D03*
X914400Y660400D02*
D03*
X939800Y609600D02*
D03*
X914400Y558800D02*
D03*
X939800Y508000D02*
D03*
X914400Y457200D02*
D03*
X939800Y406400D02*
D03*
X914400Y355600D02*
D03*
X939800Y304800D02*
D03*
X914400Y254000D02*
D03*
X939800Y203200D02*
D03*
X914400Y152400D02*
D03*
X939800Y101600D02*
D03*
X914400Y50800D02*
D03*
X863600Y762000D02*
D03*
X889000Y711200D02*
D03*
Y609600D02*
D03*
X863600Y558800D02*
D03*
X889000Y508000D02*
D03*
X863600Y457200D02*
D03*
X889000Y406400D02*
D03*
X863600Y355600D02*
D03*
Y254000D02*
D03*
X889000Y203200D02*
D03*
X863600Y152400D02*
D03*
X889000Y101600D02*
D03*
X863600Y50800D02*
D03*
X812800Y762000D02*
D03*
X838200Y711200D02*
D03*
X812800Y660400D02*
D03*
Y558800D02*
D03*
X838200Y508000D02*
D03*
X812800Y457200D02*
D03*
X838200Y406400D02*
D03*
X812800Y355600D02*
D03*
X838200Y304800D02*
D03*
X812800Y254000D02*
D03*
X838200Y203200D02*
D03*
X812800Y152400D02*
D03*
X838200Y101600D02*
D03*
X812800Y50800D02*
D03*
X762000Y762000D02*
D03*
Y660400D02*
D03*
X787400Y609600D02*
D03*
Y508000D02*
D03*
X762000Y457200D02*
D03*
Y355600D02*
D03*
X787400Y304800D02*
D03*
Y203200D02*
D03*
X762000Y152400D02*
D03*
X787400Y101600D02*
D03*
X762000Y50800D02*
D03*
X711200Y762000D02*
D03*
X736600Y609600D02*
D03*
X711200Y558800D02*
D03*
X736600Y508000D02*
D03*
X711200Y457200D02*
D03*
Y355600D02*
D03*
X736600Y304800D02*
D03*
X711200Y254000D02*
D03*
X736600Y203200D02*
D03*
X711200Y152400D02*
D03*
X736600Y101600D02*
D03*
X711200Y50800D02*
D03*
X660400Y762000D02*
D03*
Y660400D02*
D03*
X685800Y609600D02*
D03*
X660400Y558800D02*
D03*
X685800Y508000D02*
D03*
X660400Y457200D02*
D03*
Y355600D02*
D03*
X685800Y304800D02*
D03*
X660400Y254000D02*
D03*
X685800Y203200D02*
D03*
X660400Y152400D02*
D03*
X685800Y101600D02*
D03*
X660400Y50800D02*
D03*
X609600Y762000D02*
D03*
Y660400D02*
D03*
X635000Y609600D02*
D03*
Y508000D02*
D03*
X609600Y457200D02*
D03*
Y355600D02*
D03*
Y254000D02*
D03*
X635000Y203200D02*
D03*
X609600Y152400D02*
D03*
X635000Y101600D02*
D03*
X609600Y50800D02*
D03*
X558800Y762000D02*
D03*
Y660400D02*
D03*
Y558800D02*
D03*
X584200Y508000D02*
D03*
X558800Y457200D02*
D03*
X584200Y406400D02*
D03*
X558800Y355600D02*
D03*
X584200Y304800D02*
D03*
X558800Y254000D02*
D03*
X584200Y203200D02*
D03*
X558800Y152400D02*
D03*
X584200Y101600D02*
D03*
X558800Y50800D02*
D03*
X508000Y762000D02*
D03*
X533400Y609600D02*
D03*
Y508000D02*
D03*
Y304800D02*
D03*
Y101600D02*
D03*
X508000Y50800D02*
D03*
X457200Y762000D02*
D03*
X482600Y609600D02*
D03*
X457200Y558800D02*
D03*
X482600Y508000D02*
D03*
X457200Y457200D02*
D03*
Y355600D02*
D03*
X482600Y101600D02*
D03*
X406400Y762000D02*
D03*
X431800Y609600D02*
D03*
Y508000D02*
D03*
X406400Y457200D02*
D03*
X431800Y406400D02*
D03*
Y304800D02*
D03*
X406400Y254000D02*
D03*
Y50800D02*
D03*
X355600Y762000D02*
D03*
X381000Y609600D02*
D03*
Y508000D02*
D03*
X355600Y457200D02*
D03*
X381000Y406400D02*
D03*
X355600Y355600D02*
D03*
X381000Y304800D02*
D03*
X355600Y254000D02*
D03*
X381000Y203200D02*
D03*
X304800Y762000D02*
D03*
Y660400D02*
D03*
X330200Y508000D02*
D03*
X254000Y762000D02*
D03*
X279400Y508000D02*
D03*
Y406400D02*
D03*
X203200Y762000D02*
D03*
X228600Y203200D02*
D03*
X177800Y711200D02*
D03*
X152400Y660400D02*
D03*
X177800Y609600D02*
D03*
X152400Y558800D02*
D03*
Y457200D02*
D03*
Y355600D02*
D03*
Y254000D02*
D03*
Y152400D02*
D03*
X127000Y711200D02*
D03*
X101600Y660400D02*
D03*
X127000Y609600D02*
D03*
X101600Y558800D02*
D03*
X127000Y508000D02*
D03*
X101600Y457200D02*
D03*
X127000Y406400D02*
D03*
X101600Y355600D02*
D03*
X127000Y304800D02*
D03*
X101600Y254000D02*
D03*
X127000Y203200D02*
D03*
X101600Y152400D02*
D03*
X127000Y101600D02*
D03*
X315046Y196850D02*
D03*
X298550D02*
D03*
X315046Y165100D02*
D03*
X298550D02*
D03*
X281940D02*
D03*
X315046Y180970D02*
D03*
X281940D02*
D03*
X298547Y180970D02*
D03*
X281940Y196850D02*
D03*
X260350Y68580D02*
D03*
X273050D02*
D03*
X361950Y154940D02*
D03*
X340360Y157480D02*
D03*
X382270Y154940D02*
D03*
X439420Y124460D02*
D03*
Y146050D02*
D03*
X473710Y160020D02*
D03*
X490220Y166370D02*
D03*
X473687Y172649D02*
D03*
X347980Y229870D02*
D03*
X490220Y207010D02*
D03*
X198120Y121920D02*
D03*
X212090Y113030D02*
D03*
X185420Y74930D02*
D03*
X203200Y58420D02*
D03*
X185420D02*
D03*
X203200Y74930D02*
D03*
X242062Y251460D02*
D03*
X222250Y257810D02*
D03*
X262890Y237490D02*
D03*
X252730Y83820D02*
D03*
X274320Y121920D02*
D03*
X260350D02*
D03*
X248920Y116840D02*
D03*
X256286Y155956D02*
D03*
X245110Y129540D02*
D03*
X340360Y97790D02*
D03*
X346710Y123190D02*
D03*
X321310D02*
D03*
X334153Y115713D02*
D03*
X455930Y252730D02*
D03*
X407670Y170180D02*
D03*
X410210Y157480D02*
D03*
Y182880D02*
D03*
X455930Y220980D02*
D03*
X425450Y130402D02*
D03*
X377190Y139700D02*
D03*
X453136Y236220D02*
D03*
X499110Y191770D02*
D03*
X505460Y207010D02*
D03*
X544830Y223520D02*
D03*
Y201930D02*
D03*
Y177800D02*
D03*
Y154940D02*
D03*
X335925Y235559D02*
D03*
X301797Y240284D02*
D03*
X303530Y252730D02*
D03*
X287020Y44450D02*
D03*
X300990D02*
D03*
X313690Y80010D02*
D03*
X311150Y93980D02*
D03*
X288797Y235458D02*
D03*
M02*
