G04*
G04 #@! TF.GenerationSoftware,Altium Limited,Altium Designer,26.5.0 (11)*
G04*
G04 Layer_Color=65535*
G04 Board_Origin=0|0*
%FSLAX44Y44*%
%MOMM*%
G71*
G04*
G04 #@! TF.SameCoordinates,F89594A8-7EC5-4CD2-83AE-746AC17129C5*
G04*
G04*
G04 #@! TF.FilePolarity,Positive*
G04*
G01*
G75*
%ADD10C,0.2000*%
%ADD11C,0.2500*%
%ADD12C,0.6000*%
%ADD13C,0.2540*%
D10*
X468300Y409070D02*
G03*
X469300Y409070I500J0D01*
G01*
D02*
G03*
X468300Y409070I-500J0D01*
G01*
D02*
G03*
X469300Y409070I500J0D01*
G01*
X728300D02*
G03*
X729300Y409070I500J0D01*
G01*
D02*
G03*
X728300Y409070I-500J0D01*
G01*
D02*
G03*
X729300Y409070I500J0D01*
G01*
X449700Y24030D02*
G03*
X449700Y24030I-200J0D01*
G01*
Y62130D02*
G03*
X449700Y62130I-200J0D01*
G01*
X409750Y110410D02*
G03*
X409750Y110410I-200J0D01*
G01*
X208300Y409070D02*
G03*
X209300Y409070I500J0D01*
G01*
D02*
G03*
X208300Y409070I-500J0D01*
G01*
D02*
G03*
X209300Y409070I500J0D01*
G01*
X468300Y669070D02*
G03*
X469300Y669070I500J0D01*
G01*
D02*
G03*
X468300Y669070I-500J0D01*
G01*
D02*
G03*
X469300Y669070I500J0D01*
G01*
X728300D02*
G03*
X729300Y669070I500J0D01*
G01*
D02*
G03*
X728300Y669070I-500J0D01*
G01*
D02*
G03*
X729300Y669070I500J0D01*
G01*
X208300D02*
G03*
X209300Y669070I500J0D01*
G01*
D02*
G03*
X208300Y669070I-500J0D01*
G01*
D02*
G03*
X209300Y669070I500J0D01*
G01*
X475400Y277070D02*
Y451070D01*
Y277070D02*
X649400D01*
Y451070D01*
X475400D02*
X649400D01*
X735400Y277070D02*
Y451070D01*
Y277070D02*
X909400D01*
Y451070D01*
X735400D02*
X909400D01*
X425300Y19030D02*
Y26530D01*
Y19030D02*
X434840D01*
X425300Y48030D02*
X434840D01*
X438300Y31030D02*
Y36030D01*
X425300Y40530D02*
Y48030D01*
Y57130D02*
Y64630D01*
Y57130D02*
X434840D01*
X425300Y86130D02*
X434840D01*
X438300Y69130D02*
Y74130D01*
X425300Y78630D02*
Y86130D01*
X421740Y129150D02*
X441860D01*
X421740Y112150D02*
X441860D01*
X421550Y215729D02*
X449670D01*
X421550Y233851D02*
X449670D01*
X421550Y238589D02*
X449670D01*
X421550Y256711D02*
X449670D01*
X407050Y86210D02*
X414550D01*
Y95750D01*
X385550Y86210D02*
Y95750D01*
X397550Y99210D02*
X402550D01*
X385550Y86210D02*
X393050D01*
X199780Y45145D02*
Y57395D01*
X212530Y16895D02*
X394530D01*
X407280Y45145D02*
Y57395D01*
X391530D02*
X407280D01*
X199780D02*
X215530D01*
X181499Y89119D02*
Y121701D01*
X204581Y89119D02*
Y121701D01*
X378850Y137342D02*
Y157463D01*
X395850Y137342D02*
Y157463D01*
X510450Y191599D02*
X538570D01*
X510450Y209721D02*
X538570D01*
X215400Y277070D02*
Y451070D01*
Y277070D02*
X389400D01*
Y451070D01*
X215400D02*
X389400D01*
X475400Y537070D02*
Y711070D01*
Y537070D02*
X649400D01*
Y711070D01*
X475400D02*
X649400D01*
X735400Y537070D02*
Y711070D01*
Y537070D02*
X909400D01*
Y711070D01*
X735400D02*
X909400D01*
X435640Y208380D02*
X471140D01*
X435640Y157380D02*
X471140D01*
X510450Y145879D02*
X538570D01*
X510450Y164001D02*
X538570D01*
X510450Y168739D02*
X538570D01*
X510450Y186861D02*
X538570D01*
X510450Y214459D02*
X538570D01*
X510450Y232581D02*
X538570D01*
X215400Y537070D02*
Y711070D01*
Y537070D02*
X389400D01*
Y711070D01*
X215400D02*
X389400D01*
X243046Y152400D02*
X354047D01*
X243046D02*
Y208280D01*
X354047D01*
Y152400D02*
Y208280D01*
D11*
X223530Y74145D02*
G03*
X223530Y74145I-1250J0D01*
G01*
X497140Y159880D02*
G03*
X497140Y159880I-1250J0D01*
G01*
X355297Y220970D02*
G03*
X355297Y220970I-1250J0D01*
G01*
D12*
X347047Y200470D02*
G03*
X347047Y200470I-3000J0D01*
G01*
D13*
X477517Y481834D02*
X474977Y484373D01*
X469899D01*
X467360Y481834D01*
Y479295D01*
X469899Y476755D01*
X474977D01*
X477517Y474216D01*
Y471677D01*
X474977Y469138D01*
X469899D01*
X467360Y471677D01*
X492752Y469138D02*
X482595D01*
X492752Y479295D01*
Y481834D01*
X490213Y484373D01*
X485134D01*
X482595Y481834D01*
X737613D02*
X735073Y484373D01*
X729995D01*
X727456Y481834D01*
Y479295D01*
X729995Y476755D01*
X735073D01*
X737613Y474216D01*
Y471677D01*
X735073Y469138D01*
X729995D01*
X727456Y471677D01*
X750309Y469138D02*
Y484373D01*
X742691Y476755D01*
X752848D01*
X449583Y46227D02*
Y30993D01*
X457201D01*
X459740Y33532D01*
Y43688D01*
X457201Y46227D01*
X449583D01*
X464818Y30993D02*
X469897D01*
X467358D01*
Y46227D01*
X464818Y43688D01*
X449584Y84327D02*
Y69092D01*
X457202D01*
X459741Y71632D01*
Y81788D01*
X457202Y84327D01*
X449584D01*
X474976Y69092D02*
X464819D01*
X474976Y79249D01*
Y81788D01*
X472437Y84327D01*
X467358D01*
X464819Y81788D01*
X462283Y125728D02*
X459744Y128267D01*
X454666D01*
X452127Y125728D01*
Y115572D01*
X454666Y113033D01*
X459744D01*
X462283Y115572D01*
X467362Y125728D02*
X469901Y128267D01*
X474979D01*
X477518Y125728D01*
Y123189D01*
X474979Y120650D01*
X472440D01*
X474979D01*
X477518Y118111D01*
Y115572D01*
X474979Y113033D01*
X469901D01*
X467362Y115572D01*
X482597Y125728D02*
X485136Y128267D01*
X490214D01*
X492753Y125728D01*
Y123189D01*
X490214Y120650D01*
X487675D01*
X490214D01*
X492753Y118111D01*
Y115572D01*
X490214Y113033D01*
X485136D01*
X482597Y115572D01*
X458477Y217173D02*
Y232407D01*
X466094D01*
X468633Y229868D01*
Y224790D01*
X466094Y222251D01*
X458477D01*
X463555D02*
X468633Y217173D01*
X481329D02*
Y232407D01*
X473712Y224790D01*
X483868D01*
X499103Y232407D02*
X494025Y229868D01*
X488947Y224790D01*
Y219712D01*
X491486Y217173D01*
X496564D01*
X499103Y219712D01*
Y222251D01*
X496564Y224790D01*
X488947D01*
X458477Y240033D02*
Y255268D01*
X466094D01*
X468633Y252728D01*
Y247650D01*
X466094Y245111D01*
X458477D01*
X463555D02*
X468633Y240033D01*
X481329D02*
Y255268D01*
X473712Y247650D01*
X483868D01*
X488947Y255268D02*
X499103D01*
Y252728D01*
X488947Y242572D01*
Y240033D01*
X354334Y101597D02*
Y86362D01*
X361952D01*
X364491Y88902D01*
Y99058D01*
X361952Y101597D01*
X354334D01*
X369569Y99058D02*
X372108Y101597D01*
X377187D01*
X379726Y99058D01*
Y96519D01*
X377187Y93980D01*
X374647D01*
X377187D01*
X379726Y91441D01*
Y88902D01*
X377187Y86362D01*
X372108D01*
X369569Y88902D01*
X176531Y68892D02*
X171453D01*
X173992D01*
Y56197D01*
X171453Y53657D01*
X168913D01*
X166374Y56197D01*
X191766Y68892D02*
X181609D01*
Y61275D01*
X186688Y63814D01*
X189227D01*
X191766Y61275D01*
Y56197D01*
X189227Y53657D01*
X184148D01*
X181609Y56197D01*
X196848Y161287D02*
X199388Y163826D01*
Y168904D01*
X196848Y171443D01*
X186692D01*
X184153Y168904D01*
Y163826D01*
X186692Y161287D01*
X196848Y156208D02*
X199388Y153669D01*
Y148591D01*
X196848Y146052D01*
X194309D01*
X191770Y148591D01*
Y151130D01*
Y148591D01*
X189231Y146052D01*
X186692D01*
X184153Y148591D01*
Y153669D01*
X186692Y156208D01*
X199388Y130816D02*
Y140973D01*
X191770D01*
X194309Y135895D01*
Y133356D01*
X191770Y130816D01*
X186692D01*
X184153Y133356D01*
Y138434D01*
X186692Y140973D01*
X382272Y175263D02*
X379732Y172724D01*
Y167646D01*
X382272Y165107D01*
X392428D01*
X394967Y167646D01*
Y172724D01*
X392428Y175263D01*
X382272Y180342D02*
X379732Y182881D01*
Y187959D01*
X382272Y190498D01*
X384811D01*
X387350Y187959D01*
Y185420D01*
Y187959D01*
X389889Y190498D01*
X392428D01*
X394967Y187959D01*
Y182881D01*
X392428Y180342D01*
X394967Y205733D02*
Y195577D01*
X384811Y205733D01*
X382272D01*
X379732Y203194D01*
Y198116D01*
X382272Y195577D01*
X547377Y193043D02*
Y208277D01*
X554994D01*
X557533Y205738D01*
Y200660D01*
X554994Y198121D01*
X547377D01*
X552455D02*
X557533Y193043D01*
X570229D02*
Y208277D01*
X562612Y200660D01*
X572768D01*
X585464Y193043D02*
Y208277D01*
X577847Y200660D01*
X588003D01*
X217675Y481834D02*
X215135Y484373D01*
X210057D01*
X207518Y481834D01*
Y479295D01*
X210057Y476755D01*
X215135D01*
X217675Y474216D01*
Y471677D01*
X215135Y469138D01*
X210057D01*
X207518Y471677D01*
X232910Y484373D02*
X222753D01*
Y476755D01*
X227831Y479295D01*
X230371D01*
X232910Y476755D01*
Y471677D01*
X230371Y469138D01*
X225292D01*
X222753Y471677D01*
X477517Y741930D02*
X474977Y744469D01*
X469899D01*
X467360Y741930D01*
Y739391D01*
X469899Y736852D01*
X474977D01*
X477517Y734312D01*
Y731773D01*
X474977Y729234D01*
X469899D01*
X467360Y731773D01*
X482595Y729234D02*
X487673D01*
X485134D01*
Y744469D01*
X482595Y741930D01*
X737613D02*
X735073Y744469D01*
X729995D01*
X727456Y741930D01*
Y739391D01*
X729995Y736852D01*
X735073D01*
X737613Y734312D01*
Y731773D01*
X735073Y729234D01*
X729995D01*
X727456Y731773D01*
X742691Y741930D02*
X745230Y744469D01*
X750309D01*
X752848Y741930D01*
Y739391D01*
X750309Y736852D01*
X747769D01*
X750309D01*
X752848Y734312D01*
Y731773D01*
X750309Y729234D01*
X745230D01*
X742691Y731773D01*
X462282Y146048D02*
X459743Y148588D01*
X454665D01*
X452126Y146048D01*
Y135892D01*
X454665Y133352D01*
X459743D01*
X462282Y135892D01*
X467361Y146048D02*
X469900Y148588D01*
X474978D01*
X477518Y146048D01*
Y143509D01*
X474978Y140970D01*
X472439D01*
X474978D01*
X477518Y138431D01*
Y135892D01*
X474978Y133352D01*
X469900D01*
X467361Y135892D01*
X482596Y133352D02*
X487674D01*
X485135D01*
Y148588D01*
X482596Y146048D01*
X384814Y231138D02*
Y218442D01*
X387353Y215903D01*
X392432D01*
X394971Y218442D01*
Y231138D01*
X410206D02*
X405127Y228598D01*
X400049Y223520D01*
Y218442D01*
X402588Y215903D01*
X407667D01*
X410206Y218442D01*
Y220981D01*
X407667Y223520D01*
X400049D01*
X222248Y161287D02*
X224788Y163826D01*
Y168904D01*
X222248Y171443D01*
X212092D01*
X209552Y168904D01*
Y163826D01*
X212092Y161287D01*
X222248Y156208D02*
X224788Y153669D01*
Y148591D01*
X222248Y146052D01*
X219709D01*
X217170Y148591D01*
Y151130D01*
Y148591D01*
X214631Y146052D01*
X212092D01*
X209552Y148591D01*
Y153669D01*
X212092Y156208D01*
X209552Y133356D02*
X224788D01*
X217170Y140973D01*
Y130817D01*
X547376Y147323D02*
Y162558D01*
X554993D01*
X557533Y160018D01*
Y154940D01*
X554993Y152401D01*
X547376D01*
X552454D02*
X557533Y147323D01*
X570228D02*
Y162558D01*
X562611Y154940D01*
X572768D01*
X577846Y147323D02*
X582924D01*
X580385D01*
Y162558D01*
X577846Y160018D01*
X547377Y170182D02*
Y185417D01*
X554994D01*
X557533Y182878D01*
Y177800D01*
X554994Y175261D01*
X547377D01*
X552455D02*
X557533Y170182D01*
X570229D02*
Y185417D01*
X562612Y177800D01*
X572768D01*
X577847Y182878D02*
X580386Y185417D01*
X585464D01*
X588003Y182878D01*
Y180339D01*
X585464Y177800D01*
X582925D01*
X585464D01*
X588003Y175261D01*
Y172722D01*
X585464Y170182D01*
X580386D01*
X577847Y172722D01*
X547377Y214632D02*
Y229867D01*
X554994D01*
X557533Y227328D01*
Y222250D01*
X554994Y219711D01*
X547377D01*
X552455D02*
X557533Y214632D01*
X570229D02*
Y229867D01*
X562612Y222250D01*
X572768D01*
X588003Y229867D02*
X577847D01*
Y222250D01*
X582925Y224789D01*
X585464D01*
X588003Y222250D01*
Y217172D01*
X585464Y214632D01*
X580386D01*
X577847Y217172D01*
X361952Y175263D02*
X359412Y172724D01*
Y167646D01*
X361952Y165107D01*
X372108D01*
X374647Y167646D01*
Y172724D01*
X372108Y175263D01*
X361952Y180342D02*
X359412Y182881D01*
Y187959D01*
X361952Y190498D01*
X364491D01*
X367030Y187959D01*
Y185420D01*
Y187959D01*
X369569Y190498D01*
X372108D01*
X374647Y187959D01*
Y182881D01*
X372108Y180342D01*
X361952Y195577D02*
X359412Y198116D01*
Y203194D01*
X361952Y205733D01*
X372108D01*
X374647Y203194D01*
Y198116D01*
X372108Y195577D01*
X361952D01*
X217675Y741930D02*
X215135Y744469D01*
X210057D01*
X207518Y741930D01*
Y739391D01*
X210057Y736852D01*
X215135D01*
X217675Y734312D01*
Y731773D01*
X215135Y729234D01*
X210057D01*
X207518Y731773D01*
X232910Y744469D02*
X227831Y741930D01*
X222753Y736852D01*
Y731773D01*
X225292Y729234D01*
X230371D01*
X232910Y731773D01*
Y734312D01*
X230371Y736852D01*
X222753D01*
M02*
