G04*
G04 #@! TF.GenerationSoftware,Altium Limited,Altium Designer,26.5.0 (11)*
G04*
G04 Layer_Color=8421504*
G04 Board_Origin=0|0*
%FSLAX44Y44*%
%MOMM*%
G71*
G04*
G04 #@! TF.SameCoordinates,F89594A8-7EC5-4CD2-83AE-746AC17129C5*
G04*
G04*
G04 #@! TF.FilePolarity,Positive*
G04*
G01*
G75*
%ADD14R,0.6000X0.5000*%
%ADD15R,0.7587X0.8121*%
%ADD16R,1.0587X1.0121*%
%ADD17R,0.5000X0.6000*%
%ADD18R,0.6000X1.7000*%
%ADD19R,1.0000X2.7000*%
%ADD20R,1.5082X1.4057*%
%ADD21R,0.8121X0.7587*%
%ADD22R,0.9500X1.0500*%
G04:AMPARAMS|DCode=23|XSize=1.5mm|YSize=0.45mm|CornerRadius=0.0495mm|HoleSize=0mm|Usage=FLASHONLY|Rotation=180.000|XOffset=0mm|YOffset=0mm|HoleType=Round|Shape=RoundedRectangle|*
%AMROUNDEDRECTD23*
21,1,1.5000,0.3510,0,0,180.0*
21,1,1.4010,0.4500,0,0,180.0*
1,1,0.0990,-0.7005,0.1755*
1,1,0.0990,0.7005,0.1755*
1,1,0.0990,0.7005,-0.1755*
1,1,0.0990,-0.7005,-0.1755*
%
%ADD23ROUNDEDRECTD23*%
%ADD24R,1.0500X0.9500*%
%ADD25R,4.3600X4.1100*%
%ADD26O,0.3500X1.7000*%
D14*
X441800Y43030D02*
D03*
Y24030D02*
D03*
X421800Y33530D02*
D03*
X441800Y81130D02*
D03*
Y62130D02*
D03*
X421800Y71630D02*
D03*
D15*
X438067Y120650D02*
D03*
X425533D02*
D03*
D16*
X426843Y224790D02*
D03*
X444377D02*
D03*
X426843Y247650D02*
D03*
X444377D02*
D03*
X515743Y200660D02*
D03*
X533277D02*
D03*
X515743Y154940D02*
D03*
X533277D02*
D03*
X515743Y177800D02*
D03*
X533277D02*
D03*
X515743Y223520D02*
D03*
X533277D02*
D03*
D17*
X390550Y102710D02*
D03*
X409550D02*
D03*
X400050Y82710D02*
D03*
D18*
X372280Y59895D02*
D03*
X384780D02*
D03*
X347280D02*
D03*
X334780D02*
D03*
X322280D02*
D03*
X309780D02*
D03*
X297280D02*
D03*
X284780D02*
D03*
X234780D02*
D03*
X222280D02*
D03*
X259780D02*
D03*
X272280D02*
D03*
X247280D02*
D03*
X359780D02*
D03*
D19*
X403280Y27895D02*
D03*
X203780D02*
D03*
D20*
X193040Y96148D02*
D03*
Y114672D02*
D03*
D21*
X387350Y153670D02*
D03*
Y141136D02*
D03*
D22*
X439050Y140970D02*
D03*
X424550D02*
D03*
D23*
X424390Y205630D02*
D03*
X482390Y192630D02*
D03*
Y199130D02*
D03*
Y179630D02*
D03*
X424390Y199130D02*
D03*
X482390Y186130D02*
D03*
X424390Y166630D02*
D03*
Y173130D02*
D03*
Y179630D02*
D03*
Y186130D02*
D03*
Y192630D02*
D03*
X482390Y160130D02*
D03*
Y166630D02*
D03*
Y205630D02*
D03*
Y173130D02*
D03*
X424390Y160130D02*
D03*
D24*
X218454Y98530D02*
D03*
Y113030D02*
D03*
X367030Y154570D02*
D03*
Y140070D02*
D03*
D25*
X298547Y180970D02*
D03*
D26*
X347297Y220970D02*
D03*
X249796D02*
D03*
X256297D02*
D03*
X262796D02*
D03*
X308297Y140970D02*
D03*
X301797D02*
D03*
X295296D02*
D03*
X288797D02*
D03*
X269296D02*
D03*
X249796D02*
D03*
X282297D02*
D03*
X275797D02*
D03*
X262796D02*
D03*
X340796Y220970D02*
D03*
X314796D02*
D03*
X327797D02*
D03*
X334296D02*
D03*
X269296D02*
D03*
X301797D02*
D03*
X321296D02*
D03*
X308297D02*
D03*
X288797D02*
D03*
X282297D02*
D03*
X295296D02*
D03*
X256297Y140970D02*
D03*
X347297D02*
D03*
X275797Y220970D02*
D03*
X314796Y140970D02*
D03*
X321296D02*
D03*
X327797D02*
D03*
X334296D02*
D03*
X340796D02*
D03*
M02*
