G04*
G04 #@! TF.GenerationSoftware,Altium Limited,Altium Designer,26.5.0 (11)*
G04*
G04 Layer_Color=8388736*
G04 Board_Origin=0|0*
%FSLAX44Y44*%
%MOMM*%
G71*
G04*
G04 #@! TF.SameCoordinates,99C48058-1AB6-4DC2-B902-E6427AB3A3D0*
G04*
G04*
G04 #@! TF.FilePolarity,Negative*
G04*
G01*
G75*
%ADD19R,0.6000X1.1500*%
%ADD20R,0.3000X1.1500*%
%ADD21R,1.3000X1.5500*%
%ADD22R,1.8500X3.4500*%
%ADD23R,1.0500X0.9500*%
%ADD24R,0.9500X1.0500*%
%ADD25R,1.1057X1.6582*%
%ADD26R,0.9000X1.5000*%
%ADD27R,0.8121X0.7587*%
%ADD28R,0.9000X0.9000*%
%ADD29R,3.4500X1.8500*%
%ADD30R,1.4057X1.5082*%
%ADD31R,0.8500X0.3000*%
%ADD32R,1.5082X1.4057*%
%ADD33R,0.6000X1.7000*%
%ADD34R,0.8000X0.9000*%
%ADD35R,0.7587X0.8121*%
%ADD36O,0.8000X0.2500*%
%ADD37R,0.8000X0.9500*%
%ADD38R,1.2500X0.6000*%
%ADD39R,1.0121X1.0587*%
%ADD40R,1.2000X0.3000*%
%ADD41R,1.0587X1.0121*%
%ADD42R,0.8587X0.9121*%
%ADD43R,1.1587X1.0121*%
%ADD44R,0.6500X0.9000*%
%ADD45R,0.9000X0.7500*%
%ADD46R,1.9000X0.6000*%
G04:AMPARAMS|DCode=47|XSize=0.8061mm|YSize=0.2568mm|CornerRadius=0.1284mm|HoleSize=0mm|Usage=FLASHONLY|Rotation=270.000|XOffset=0mm|YOffset=0mm|HoleType=Round|Shape=RoundedRectangle|*
%AMROUNDEDRECTD47*
21,1,0.8061,0.0000,0,0,270.0*
21,1,0.5492,0.2568,0,0,270.0*
1,1,0.2568,0.0000,-0.2746*
1,1,0.2568,0.0000,0.2746*
1,1,0.2568,0.0000,0.2746*
1,1,0.2568,0.0000,-0.2746*
%
%ADD47ROUNDEDRECTD47*%
%ADD48R,0.7000X1.0000*%
%ADD49R,1.6582X1.1057*%
%ADD50R,0.9546X1.2621*%
%ADD51R,1.0000X1.0000*%
%ADD52R,2.8000X2.1000*%
%ADD53R,1.0000X1.3500*%
%ADD54R,2.4000X1.5000*%
%ADD55R,1.5000X0.9000*%
%ADD56R,1.2061X1.0582*%
%ADD57R,0.7250X0.9000*%
%ADD58R,1.3000X0.9000*%
%ADD59R,0.2568X0.8061*%
%ADD60R,0.8121X0.8552*%
%ADD61R,1.0000X2.8000*%
%ADD62R,1.4500X1.2000*%
%ADD63R,0.9000X0.4000*%
%ADD64R,1.6400X2.3800*%
%ADD65R,1.7000X1.0000*%
%ADD66C,0.6000*%
%ADD67C,0.6500*%
G04:AMPARAMS|DCode=68|XSize=1mm|YSize=2.1mm|CornerRadius=0.5mm|HoleSize=0mm|Usage=FLASHONLY|Rotation=180.000|XOffset=0mm|YOffset=0mm|HoleType=Round|Shape=RoundedRectangle|*
%AMROUNDEDRECTD68*
21,1,1.0000,1.1000,0,0,180.0*
21,1,0.0000,2.1000,0,0,180.0*
1,1,1.0000,0.0000,0.5500*
1,1,1.0000,0.0000,0.5500*
1,1,1.0000,0.0000,-0.5500*
1,1,1.0000,0.0000,-0.5500*
%
%ADD68ROUNDEDRECTD68*%
G04:AMPARAMS|DCode=69|XSize=1mm|YSize=1.8mm|CornerRadius=0.5mm|HoleSize=0mm|Usage=FLASHONLY|Rotation=180.000|XOffset=0mm|YOffset=0mm|HoleType=Round|Shape=RoundedRectangle|*
%AMROUNDEDRECTD69*
21,1,1.0000,0.8000,0,0,180.0*
21,1,0.0000,1.8000,0,0,180.0*
1,1,1.0000,0.0000,0.4000*
1,1,1.0000,0.0000,0.4000*
1,1,1.0000,0.0000,-0.4000*
1,1,1.0000,0.0000,-0.4000*
%
%ADD69ROUNDEDRECTD69*%
%ADD70R,1.5000X1.5000*%
%ADD71C,1.4000*%
%ADD72C,1.3500*%
%ADD73C,1.5000*%
%ADD74C,6.0000*%
%ADD75R,1.4000X1.4000*%
G36*
X713760Y930330D02*
X705760D01*
Y922330D01*
X689760D01*
Y946330D01*
X713760D01*
Y930330D01*
D02*
G37*
G36*
X705760Y1175330D02*
X713760D01*
Y1159330D01*
X689760D01*
Y1183330D01*
X705760D01*
Y1175330D01*
D02*
G37*
D19*
X594490Y1202373D02*
D03*
X642490D02*
D03*
X586490D02*
D03*
X650490D02*
D03*
D20*
X605990D02*
D03*
X630990D02*
D03*
X635990D02*
D03*
X615990D02*
D03*
X625990D02*
D03*
X610990D02*
D03*
X620990D02*
D03*
X600990D02*
D03*
D21*
X1194710Y1233550D02*
D03*
Y1154050D02*
D03*
X1121087Y1233550D02*
D03*
Y1154050D02*
D03*
X1076087Y1233550D02*
D03*
Y1154050D02*
D03*
X1149710Y1233550D02*
D03*
Y1154050D02*
D03*
D22*
X1239520Y1090930D02*
D03*
X1173480Y1092200D02*
D03*
D23*
X1135800Y1056060D02*
D03*
X1114210D02*
D03*
X1111250Y878100D02*
D03*
X485140Y1037253D02*
D03*
X1135800Y1041560D02*
D03*
X1114210D02*
D03*
X1111250Y863600D02*
D03*
X485140Y1051753D02*
D03*
D24*
X1085900Y1060610D02*
D03*
X1000390Y1216660D02*
D03*
X1138820Y989330D02*
D03*
X769250Y1148080D02*
D03*
X490590Y1150620D02*
D03*
X781420Y961390D02*
D03*
X795920Y882650D02*
D03*
X505090Y1150620D02*
D03*
X985890Y1216660D02*
D03*
X1124320Y989330D02*
D03*
X754750Y1148080D02*
D03*
X781420Y882650D02*
D03*
X1071400Y1060610D02*
D03*
X795920Y961390D02*
D03*
D25*
X1013522Y1239520D02*
D03*
X987998D02*
D03*
D26*
X995480Y1187168D02*
D03*
Y1012167D02*
D03*
X982780Y1187168D02*
D03*
X881180D02*
D03*
X868480D02*
D03*
X906580D02*
D03*
X982780Y1012167D02*
D03*
X970080Y1187168D02*
D03*
Y1012167D02*
D03*
X893880Y1187168D02*
D03*
X843080D02*
D03*
X830380D02*
D03*
X843080Y1012167D02*
D03*
X855780D02*
D03*
X868480D02*
D03*
X881180D02*
D03*
X893880D02*
D03*
X906580D02*
D03*
X919280D02*
D03*
X931980D02*
D03*
X944680D02*
D03*
X957380D02*
D03*
X830380D02*
D03*
X944680Y1187168D02*
D03*
X957380D02*
D03*
X855780D02*
D03*
X919280D02*
D03*
X931980D02*
D03*
D27*
X943610Y1231817D02*
D03*
X483870Y1119350D02*
D03*
X943610Y1219283D02*
D03*
X483870Y1106816D02*
D03*
D28*
X918280Y1128667D02*
D03*
X932280D02*
D03*
X904280D02*
D03*
X932280Y1114667D02*
D03*
Y1100667D02*
D03*
X918280Y1114667D02*
D03*
X904280D02*
D03*
X918280Y1100667D02*
D03*
X904280D02*
D03*
D29*
X1169670Y934720D02*
D03*
X883920Y815340D02*
D03*
X393700Y933450D02*
D03*
X847090Y1249680D02*
D03*
X541020Y933450D02*
D03*
X359410Y1156970D02*
D03*
X491490Y933450D02*
D03*
X393700Y878840D02*
D03*
D30*
X1133289Y1017430D02*
D03*
X1114764D02*
D03*
D31*
X1100423Y980640D02*
D03*
Y985640D02*
D03*
X1068923Y990640D02*
D03*
X1100423D02*
D03*
X1068923Y975640D02*
D03*
Y980640D02*
D03*
Y985640D02*
D03*
X1100423Y975640D02*
D03*
D32*
X1131584Y884665D02*
D03*
X458470Y1125258D02*
D03*
X459740Y1037218D02*
D03*
X1131584Y866140D02*
D03*
X458470Y1106733D02*
D03*
X459740Y1055742D02*
D03*
D33*
X1074990Y832407D02*
D03*
X1062490D02*
D03*
X1087490D02*
D03*
X1049990D02*
D03*
X1037490D02*
D03*
X962490D02*
D03*
X1024990D02*
D03*
X949990D02*
D03*
X974990D02*
D03*
X987490D02*
D03*
X999990D02*
D03*
X1012490D02*
D03*
X1099990D02*
D03*
X1112490D02*
D03*
D34*
X862230Y925830D02*
D03*
X421640Y1093080D02*
D03*
Y1076080D02*
D03*
X849730Y925830D02*
D03*
D35*
X825417Y962285D02*
D03*
X769537Y1167130D02*
D03*
X492843Y1170940D02*
D03*
X794937Y900805D02*
D03*
X505377Y1170940D02*
D03*
X782403Y900805D02*
D03*
X757003Y1167130D02*
D03*
X812883Y962285D02*
D03*
D36*
X835170Y928597D02*
D03*
Y938597D02*
D03*
X805670Y928597D02*
D03*
X835170Y923597D02*
D03*
Y933597D02*
D03*
X805670D02*
D03*
Y923597D02*
D03*
Y938597D02*
D03*
D37*
X862730Y911860D02*
D03*
X849230D02*
D03*
D38*
X687270Y1223010D02*
D03*
X712270D02*
D03*
X687270Y1213510D02*
D03*
Y1232510D02*
D03*
X712270D02*
D03*
Y1213510D02*
D03*
D39*
X789940Y1177167D02*
D03*
Y1014853D02*
D03*
X965713Y1234317D02*
D03*
X1038860Y893957D02*
D03*
X965713Y1216783D02*
D03*
X439420Y1172087D02*
D03*
Y1154553D02*
D03*
X789940Y1032387D02*
D03*
Y1159633D02*
D03*
X1038860Y876423D02*
D03*
D40*
X728760Y1150330D02*
D03*
Y960330D02*
D03*
Y1090330D02*
D03*
Y965330D02*
D03*
Y1145330D02*
D03*
Y1140330D02*
D03*
Y1135330D02*
D03*
Y1130330D02*
D03*
Y1125330D02*
D03*
Y1110330D02*
D03*
Y1105330D02*
D03*
Y1100330D02*
D03*
Y1095330D02*
D03*
Y1085330D02*
D03*
Y1080330D02*
D03*
Y1075330D02*
D03*
Y1070330D02*
D03*
Y1065330D02*
D03*
Y1060330D02*
D03*
Y1055330D02*
D03*
Y1050330D02*
D03*
Y1045330D02*
D03*
Y1040330D02*
D03*
Y1035330D02*
D03*
Y1030330D02*
D03*
Y1025330D02*
D03*
Y1020330D02*
D03*
Y1015330D02*
D03*
Y1010330D02*
D03*
Y1000330D02*
D03*
Y995330D02*
D03*
Y990330D02*
D03*
Y985330D02*
D03*
Y980330D02*
D03*
Y975330D02*
D03*
Y970330D02*
D03*
Y955330D02*
D03*
Y1005330D02*
D03*
Y1115330D02*
D03*
Y1120330D02*
D03*
D41*
X544707Y1177290D02*
D03*
X810383Y984388D02*
D03*
X873514Y943610D02*
D03*
X1084457Y876300D02*
D03*
X803787Y825500D02*
D03*
X559824Y1082040D02*
D03*
X786253Y825500D02*
D03*
X855980Y943610D02*
D03*
X518160Y1082040D02*
D03*
X500626D02*
D03*
X1066923Y876300D02*
D03*
X827917Y984388D02*
D03*
X542290Y1082040D02*
D03*
X527173Y1177290D02*
D03*
D42*
X528173Y1233170D02*
D03*
Y1210384D02*
D03*
X543707D02*
D03*
Y1233170D02*
D03*
D43*
X544207Y1154430D02*
D03*
X527673D02*
D03*
D44*
X552080Y1106170D02*
D03*
X537580D02*
D03*
D45*
X767080Y928720D02*
D03*
Y940720D02*
D03*
D46*
X755917Y865900D02*
D03*
Y835900D02*
D03*
Y845900D02*
D03*
Y855900D02*
D03*
Y825900D02*
D03*
Y875900D02*
D03*
D47*
X520580Y1107070D02*
D03*
X510580Y1128130D02*
D03*
X505580D02*
D03*
X515580Y1107070D02*
D03*
X510580D02*
D03*
X515580Y1128130D02*
D03*
X505580Y1107070D02*
D03*
D48*
X504240Y1033235D02*
D03*
X523240Y1055225D02*
D03*
Y1033235D02*
D03*
X513740D02*
D03*
Y1055225D02*
D03*
X504240D02*
D03*
D49*
X476250Y1016062D02*
D03*
X453390D02*
D03*
X476250Y990538D02*
D03*
X453390D02*
D03*
D50*
X331194Y995680D02*
D03*
X346710D02*
D03*
D51*
X701260Y936330D02*
D03*
Y1169330D02*
D03*
D52*
X732417Y794400D02*
D03*
Y907400D02*
D03*
D53*
X802480Y866140D02*
D03*
Y847090D02*
D03*
X782480Y866140D02*
D03*
Y847090D02*
D03*
D54*
X513080Y978193D02*
D03*
Y1015192D02*
D03*
D55*
X817880Y1067917D02*
D03*
Y1169517D02*
D03*
Y1156817D02*
D03*
Y1055217D02*
D03*
Y1042517D02*
D03*
Y1029817D02*
D03*
Y1131417D02*
D03*
Y1144117D02*
D03*
Y1080617D02*
D03*
Y1093317D02*
D03*
Y1106017D02*
D03*
Y1118717D02*
D03*
D56*
X751449Y1205230D02*
D03*
Y1229360D02*
D03*
X767471Y1205230D02*
D03*
Y1229360D02*
D03*
D57*
X362695Y996692D02*
D03*
X376445D02*
D03*
X1068865Y957740D02*
D03*
X1082615D02*
D03*
X1114955Y971710D02*
D03*
X1128705D02*
D03*
D58*
X1017270Y896030D02*
D03*
Y875030D02*
D03*
X998220Y896030D02*
D03*
Y875030D02*
D03*
X979170Y896030D02*
D03*
Y875030D02*
D03*
X960120Y896030D02*
D03*
Y875030D02*
D03*
D59*
X520580Y1128130D02*
D03*
D60*
X543560Y1032605D02*
D03*
Y1045115D02*
D03*
D61*
X1130990Y798907D02*
D03*
X931490Y798907D02*
D03*
D62*
X1151890Y821690D02*
D03*
Y841690D02*
D03*
D63*
X1071460Y1035210D02*
D03*
X1093460D02*
D03*
Y1041710D02*
D03*
X1071460D02*
D03*
Y1028710D02*
D03*
X1093460D02*
D03*
D64*
X820420Y931097D02*
D03*
D65*
X513080Y1117600D02*
D03*
D66*
X1109980Y1121410D02*
D03*
X886460Y965200D02*
D03*
X1038860Y1122680D02*
D03*
X995680Y962660D02*
D03*
X1038860Y1098550D02*
D03*
X764540Y1249680D02*
D03*
X699770D02*
D03*
X546100Y948690D02*
D03*
X416560Y878840D02*
D03*
X1050290Y876300D02*
D03*
X557530Y1070610D02*
D03*
X417830Y932180D02*
D03*
X1061720Y1035111D02*
D03*
X750570Y956310D02*
D03*
X749300Y991870D02*
D03*
X995680Y1008450D02*
D03*
X1058060Y987140D02*
D03*
X1062990Y996950D02*
D03*
X1113790Y985520D02*
D03*
X786981Y892391D02*
D03*
X1137920Y971550D02*
D03*
X1092200Y957580D02*
D03*
X918210Y1118870D02*
D03*
Y1109980D02*
D03*
X800100Y901700D02*
D03*
X539750Y1071880D02*
D03*
X1075690Y845820D02*
D03*
X1062990D02*
D03*
X795020Y971550D02*
D03*
X505460Y1179830D02*
D03*
X1060450Y1060450D02*
D03*
X591820Y1258570D02*
D03*
X615950D02*
D03*
X641350D02*
D03*
X982980Y1226820D02*
D03*
X1005840Y1215390D02*
D03*
X591820Y1221740D02*
D03*
X641350Y1224280D02*
D03*
X1219200Y1168400D02*
D03*
X1244600Y1117600D02*
D03*
X1219200Y1066800D02*
D03*
X1244600Y1016000D02*
D03*
X1219200Y965200D02*
D03*
X1244600Y914400D02*
D03*
X1219200Y863600D02*
D03*
Y762000D02*
D03*
X1168400Y1168400D02*
D03*
X1193800Y1117600D02*
D03*
Y1016000D02*
D03*
Y914400D02*
D03*
X1168400Y863600D02*
D03*
X1193800Y812800D02*
D03*
X1168400Y762000D02*
D03*
X1143000Y1117600D02*
D03*
Y914400D02*
D03*
X1117600Y762000D02*
D03*
X1092200Y1219200D02*
D03*
X1066800Y1168400D02*
D03*
X1092200Y1016000D02*
D03*
Y914400D02*
D03*
X1066800Y863600D02*
D03*
X1092200Y812800D02*
D03*
X1066800Y762000D02*
D03*
X1041400Y1219200D02*
D03*
X1016000Y1168400D02*
D03*
Y965200D02*
D03*
X1041400Y914400D02*
D03*
X1016000Y762000D02*
D03*
X965200Y1168400D02*
D03*
X990600Y1117600D02*
D03*
X965200Y1066800D02*
D03*
X990600Y812800D02*
D03*
X914400Y1168400D02*
D03*
Y1066800D02*
D03*
Y863600D02*
D03*
X889000Y1219200D02*
D03*
X863600Y1168400D02*
D03*
Y1066800D02*
D03*
Y863600D02*
D03*
X787400Y914400D02*
D03*
X711200Y863600D02*
D03*
X685800Y1016000D02*
D03*
X660400Y863600D02*
D03*
X685800Y812800D02*
D03*
X660400Y762000D02*
D03*
X609600Y1168400D02*
D03*
X635000Y1117600D02*
D03*
X609600Y1066800D02*
D03*
X635000Y1016000D02*
D03*
X609600Y965200D02*
D03*
X635000Y914400D02*
D03*
X609600Y863600D02*
D03*
X635000Y812800D02*
D03*
X609600Y762000D02*
D03*
X558800Y1168400D02*
D03*
X584200Y1117600D02*
D03*
Y1016000D02*
D03*
X558800Y965200D02*
D03*
X584200Y914400D02*
D03*
X558800Y863600D02*
D03*
X584200Y812800D02*
D03*
X558800Y762000D02*
D03*
X533400Y914400D02*
D03*
X508000Y762000D02*
D03*
X482600Y1219200D02*
D03*
X457200Y1168400D02*
D03*
X482600Y914400D02*
D03*
X457200Y863600D02*
D03*
Y762000D02*
D03*
X431800Y1219200D02*
D03*
Y1016000D02*
D03*
Y914400D02*
D03*
X406400Y863600D02*
D03*
Y762000D02*
D03*
X381000Y1219200D02*
D03*
Y1117600D02*
D03*
Y1016000D02*
D03*
X355600Y965200D02*
D03*
X381000Y914400D02*
D03*
X355600Y863600D02*
D03*
Y762000D02*
D03*
X304800Y1168400D02*
D03*
X330200Y1117600D02*
D03*
Y1016000D02*
D03*
X304800Y965200D02*
D03*
X330200Y914400D02*
D03*
X304800Y863600D02*
D03*
X1195070Y1225550D02*
D03*
Y1162050D02*
D03*
X1019810Y1239520D02*
D03*
X1121410Y1225550D02*
D03*
Y1162050D02*
D03*
X1225550Y1090930D02*
D03*
X1135800Y1061510D02*
D03*
X1114210D02*
D03*
X1091350Y1060610D02*
D03*
X995680Y1197610D02*
D03*
X943610Y1235710D02*
D03*
X925830Y1140460D02*
D03*
X910590D02*
D03*
X891540Y1122680D02*
D03*
X944880Y1121410D02*
D03*
Y1107440D02*
D03*
X925830Y1089660D02*
D03*
X891540Y1108710D02*
D03*
X910590Y1089660D02*
D03*
X1144270Y989330D02*
D03*
X1140880Y1017430D02*
D03*
X1169670Y944880D02*
D03*
X1082460Y1020053D02*
D03*
X1088810Y976790D02*
D03*
X1131570Y891540D02*
D03*
X1111250Y882650D02*
D03*
X866884Y922683D02*
D03*
X827889Y959969D02*
D03*
X820420Y937347D02*
D03*
X828670Y928597D02*
D03*
X820420Y924847D02*
D03*
X883920Y830580D02*
D03*
X867410Y911860D02*
D03*
X679450Y1223010D02*
D03*
X651368Y1196482D02*
D03*
X615950Y1228090D02*
D03*
X585470Y1196340D02*
D03*
X801370Y1170940D02*
D03*
X773430Y1167130D02*
D03*
X774700Y1148080D02*
D03*
X739140Y1150620D02*
D03*
X549910Y1177290D02*
D03*
X523240Y1233096D02*
D03*
Y1210384D02*
D03*
X488950Y1170940D02*
D03*
X549910Y1154430D02*
D03*
X485140Y1150620D02*
D03*
X458470Y1132840D02*
D03*
X483870Y1123950D02*
D03*
X789940Y1009650D02*
D03*
X775275Y959545D02*
D03*
X552450Y1117600D02*
D03*
X717550Y960120D02*
D03*
X801370Y882650D02*
D03*
X771040Y866140D02*
D03*
X521970Y1117600D02*
D03*
X504190D02*
D03*
X500239Y1032651D02*
D03*
X485140Y1031240D02*
D03*
X457200Y1029970D02*
D03*
X453390Y1022350D02*
D03*
X480060Y1021080D02*
D03*
X321310Y995680D02*
D03*
X723900Y1223010D02*
D03*
X579120Y1172210D02*
D03*
X642620Y1183640D02*
D03*
X505460Y1140460D02*
D03*
X552450Y1210384D02*
D03*
X607060Y1182370D02*
D03*
X633577Y1191707D02*
D03*
X552450Y1233096D02*
D03*
X852170Y775970D02*
D03*
X712470Y836930D02*
D03*
X732790Y845820D02*
D03*
X1050290Y817880D02*
D03*
X1037590D02*
D03*
X887730Y1256180D02*
D03*
X904240Y1252220D02*
D03*
X732790Y855980D02*
D03*
X905510Y1198880D02*
D03*
X899160Y1214120D02*
D03*
X781427Y995087D02*
D03*
X802490Y1037590D02*
D03*
X817880Y1003300D02*
D03*
X800100Y984250D02*
D03*
X932180Y994410D02*
D03*
X906780D02*
D03*
X944880D02*
D03*
X919480D02*
D03*
X894080D02*
D03*
X803910Y1051560D02*
D03*
X792480Y1056640D02*
D03*
X1038860Y904240D02*
D03*
X1084580Y886460D02*
D03*
X770890Y811530D02*
D03*
X1089660Y1106170D02*
D03*
X1038860Y1084580D02*
D03*
X986790Y962660D02*
D03*
X1033780Y1023620D02*
D03*
X426720Y1150620D02*
D03*
X383540D02*
D03*
X873760Y955040D02*
D03*
X694690Y910590D02*
D03*
X730250Y944880D02*
D03*
X709930Y910590D02*
D03*
X784860Y935990D02*
D03*
X811530Y847090D02*
D03*
Y866140D02*
D03*
X814070Y825783D02*
D03*
X753110Y1158240D02*
D03*
X717550Y1065530D02*
D03*
X532130Y1055370D02*
D03*
X711200Y1007110D02*
D03*
X455930Y969010D02*
D03*
X481330D02*
D03*
X468630D02*
D03*
X786130Y815340D02*
D03*
X754683Y1010617D02*
D03*
X744220Y944880D02*
D03*
X893622Y952500D02*
D03*
X906780Y941070D02*
D03*
X919480Y929640D02*
D03*
X932180Y918210D02*
D03*
X1055370Y1023620D02*
D03*
X974090Y998220D02*
D03*
X986790Y991870D02*
D03*
X1104900Y998220D02*
D03*
X937260Y902970D02*
D03*
X805029Y1082191D02*
D03*
X944880Y858520D02*
D03*
X1151890Y810260D02*
D03*
X1056640Y858520D02*
D03*
X796290Y1087120D02*
D03*
X795020Y943610D02*
D03*
X844550Y1219200D02*
D03*
X929640Y1201420D02*
D03*
X955040D02*
D03*
X942340Y1207770D02*
D03*
X919480Y1211580D02*
D03*
X444500Y1082040D02*
D03*
X457200D02*
D03*
X469900D02*
D03*
X482600D02*
D03*
X481330Y947420D02*
D03*
X759460Y999490D02*
D03*
X740410Y1079500D02*
D03*
X788670Y1080770D02*
D03*
X744496Y1090115D02*
D03*
X742950Y1101090D02*
D03*
X740410Y1111250D02*
D03*
X760730Y1125220D02*
D03*
X778510D02*
D03*
X795020D02*
D03*
X787400Y1132840D02*
D03*
X769620D02*
D03*
D67*
X589590Y1213123D02*
D03*
X647390D02*
D03*
D68*
X575290Y1208123D02*
D03*
X661690D02*
D03*
D69*
X575290Y1249923D02*
D03*
X661690D02*
D03*
D70*
X1165860Y981080D02*
D03*
D71*
X375290Y1201420D02*
D03*
X435290D02*
D03*
X395290D02*
D03*
X415290D02*
D03*
D72*
X306070Y1072243D02*
D03*
X356070D02*
D03*
D73*
X1165860Y1001080D02*
D03*
Y1021080D02*
D03*
Y1041080D02*
D03*
D74*
X1244600Y793750D02*
D03*
Y1219200D02*
D03*
X304800D02*
D03*
Y793750D02*
D03*
D75*
X455290Y1201420D02*
D03*
M02*
