G04*
G04 #@! TF.GenerationSoftware,Altium Limited,Altium Designer,26.5.0 (11)*
G04*
G04 Layer_Color=65535*
G04 Board_Origin=0|0*
%FSLAX44Y44*%
%MOMM*%
G71*
G04*
G04 #@! TF.SameCoordinates,99C48058-1AB6-4DC2-B902-E6427AB3A3D0*
G04*
G04*
G04 #@! TF.FilePolarity,Positive*
G04*
G01*
G75*
%ADD10C,0.2500*%
%ADD11C,0.2000*%
%ADD12C,0.2540*%
%ADD13C,0.1000*%
%ADD14C,0.1270*%
D10*
X652390Y1191123D02*
G03*
X652390Y1191123I-1250J0D01*
G01*
X741510Y1150330D02*
G03*
X741510Y1150330I-1250J0D01*
G01*
X772167Y875900D02*
G03*
X772167Y875900I-1250J0D01*
G01*
X1062710Y1041710D02*
G03*
X1062710Y1041710I-1250J0D01*
G01*
X524490Y1066230D02*
G03*
X524490Y1066230I-1250J0D01*
G01*
X521830Y1137911D02*
G03*
X521830Y1137911I-1250J0D01*
G01*
X1113990Y848907D02*
G03*
X1113990Y848907I-1250J0D01*
G01*
D11*
X1173480Y1115200D02*
G03*
X1171480Y1115200I-1000J0D01*
G01*
D02*
G03*
X1173480Y1115200I1000J0D01*
G01*
X382410Y1158970D02*
G03*
X382410Y1156970I0J-1000D01*
G01*
D02*
G03*
X382410Y1158970I0J1000D01*
G01*
X518020Y931450D02*
G03*
X518020Y933450I0J1000D01*
G01*
D02*
G03*
X518020Y931450I0J-1000D01*
G01*
X468490D02*
G03*
X468490Y933450I0J1000D01*
G01*
D02*
G03*
X468490Y931450I0J-1000D01*
G01*
X1237520Y1113930D02*
G03*
X1239520Y1113930I1000J0D01*
G01*
D02*
G03*
X1237520Y1113930I-1000J0D01*
G01*
X1192670Y936720D02*
G03*
X1192670Y934720I0J-1000D01*
G01*
D02*
G03*
X1192670Y936720I0J1000D01*
G01*
X370700Y931450D02*
G03*
X370700Y933450I0J1000D01*
G01*
D02*
G03*
X370700Y931450I0J-1000D01*
G01*
Y876840D02*
G03*
X370700Y878840I0J1000D01*
G01*
D02*
G03*
X370700Y876840I0J-1000D01*
G01*
X906920Y817340D02*
G03*
X906920Y815340I0J-1000D01*
G01*
D02*
G03*
X906920Y817340I0J1000D01*
G01*
X824090Y1247680D02*
G03*
X824090Y1249680I0J1000D01*
G01*
D02*
G03*
X824090Y1247680I0J-1000D01*
G01*
X667140Y1222373D02*
Y1237173D01*
Y1262673D02*
Y1276673D01*
X569840D02*
X667140D01*
X569840Y1222373D02*
Y1237173D01*
Y1262673D02*
Y1276673D01*
X684260Y1174330D02*
X685760D01*
X717760D02*
X725760D01*
X684260Y931330D02*
X685760D01*
X717760D02*
X725760D01*
X684260Y1174330D02*
Y1180330D01*
X675760Y1180330D02*
X684260Y1180330D01*
X675760Y925330D02*
Y1180330D01*
Y925330D02*
X684260Y925330D01*
Y931330D01*
X725760Y1155830D02*
Y1174330D01*
Y931330D02*
Y949830D01*
X1193860Y961580D02*
Y1060580D01*
X1148860Y961580D02*
X1193860D01*
X1148860Y1060580D02*
X1193860D01*
X1148860Y961580D02*
Y1060580D01*
X681020Y1239010D02*
X693520D01*
X697020Y1208510D02*
Y1237510D01*
Y1208510D02*
X702520D01*
Y1237510D01*
X697020D02*
X702520D01*
X675417Y786780D02*
X676297Y785900D01*
X685537D02*
X686417Y786780D01*
Y800400D02*
X700417D01*
Y795900D02*
X714417D01*
X742417Y808900D02*
Y892900D01*
X700417Y795900D02*
Y800400D01*
X676297Y785900D02*
X685537D01*
X675417Y786780D02*
Y915021D01*
X686417Y786780D02*
Y800400D01*
X675417Y915021D02*
X676296Y915901D01*
X685537D02*
X686416Y915021D01*
X686417Y901401D02*
Y915021D01*
X676297Y915901D02*
X685537D01*
X700417Y901401D02*
Y905901D01*
X686417Y901401D02*
X700417D01*
Y905901D02*
X714417D01*
X413640Y1076080D02*
Y1093080D01*
X429713Y1076133D02*
Y1093133D01*
X523879Y1201823D02*
X548001D01*
X523879Y1218944D02*
X548001D01*
X361570Y988442D02*
X377570D01*
X361623Y1004995D02*
X377623D01*
X326421Y1006430D02*
X351483D01*
X326421Y984930D02*
X351483D01*
X1096172Y970640D02*
X1104672D01*
X1092673Y973140D02*
Y993140D01*
X1076673D02*
X1092673D01*
X1076673Y973140D02*
Y993140D01*
Y973140D02*
X1092673D01*
X1067740Y965990D02*
X1083740D01*
X1067687Y949437D02*
X1083687D01*
X1107735Y1005889D02*
X1140318D01*
X1107735Y1028971D02*
X1140318D01*
X430359Y1149259D02*
Y1177381D01*
X448481Y1149259D02*
Y1177381D01*
X1113830Y979960D02*
X1129830D01*
X1113777Y963407D02*
X1129777D01*
X1079710Y1024460D02*
X1085210D01*
X1079710Y1045960D02*
X1085210D01*
X753209Y1175630D02*
X773331D01*
X753209Y1158630D02*
X773331D01*
X745419Y1214521D02*
X773501D01*
X745419Y1195939D02*
X773501D01*
X536289Y1114961D02*
X553371D01*
X536289Y1097379D02*
X553371D01*
X996526Y1248270D02*
X1004994D01*
X996526Y1230770D02*
X1004994D01*
X1024020Y883280D02*
Y887780D01*
X1010520Y883280D02*
Y887780D01*
X1120042Y859111D02*
Y891693D01*
X1143125Y859111D02*
Y891693D01*
X470011Y1099705D02*
Y1132287D01*
X446929Y1099705D02*
Y1132287D01*
X498740Y1041985D02*
Y1046475D01*
X528740Y1041985D02*
Y1046475D01*
X799001Y1009559D02*
Y1037681D01*
X780879Y1009559D02*
Y1037681D01*
X528830Y1020192D02*
X534630D01*
X491530D02*
X497330D01*
X491530Y973193D02*
Y1020192D01*
X528830Y973193D02*
X534630D01*
X491530D02*
X497330D01*
X534630D02*
Y1020192D01*
X499080Y1107600D02*
Y1127600D01*
X527080Y1107600D02*
Y1127600D01*
X1004970Y883280D02*
Y887780D01*
X991470Y883280D02*
Y887780D01*
X448199Y1030189D02*
Y1062771D01*
X471281Y1030189D02*
Y1062771D01*
X492370Y1103023D02*
Y1123144D01*
X475370Y1103023D02*
Y1123144D01*
X850686Y934549D02*
X878808D01*
X850686Y952671D02*
X878808D01*
X780879Y1154339D02*
Y1182461D01*
X799001Y1154339D02*
Y1182461D01*
X803170Y943848D02*
Y948347D01*
X808920D01*
X803170Y913848D02*
Y918347D01*
Y913848D02*
X808920D01*
X837670D02*
Y918347D01*
X831920Y913848D02*
X837670D01*
Y943848D02*
Y948347D01*
X831920D02*
X837670D01*
X745419Y1238651D02*
X773501D01*
X745419Y1220069D02*
X773501D01*
X985920Y883280D02*
Y887780D01*
X972420Y883280D02*
Y887780D01*
X495332Y1072979D02*
X523454D01*
X495332Y1091101D02*
X523454D01*
X791230Y873140D02*
X793730D01*
X791230Y859140D02*
X793730D01*
X462140Y999066D02*
Y1007534D01*
X444640Y999066D02*
Y1007534D01*
X1047921Y871129D02*
Y899251D01*
X1029799Y871129D02*
Y899251D01*
X552060Y1028329D02*
Y1049391D01*
X535060Y1028329D02*
Y1049391D01*
X521879Y1163491D02*
X550001D01*
X521879Y1145369D02*
X550001D01*
X1061629Y867239D02*
X1089751D01*
X1061629Y885361D02*
X1089751D01*
X758550Y925917D02*
Y943417D01*
X775580Y925970D02*
Y943470D01*
X805089Y993449D02*
X833211D01*
X805089Y975328D02*
X833211D01*
X809089Y970785D02*
X829211D01*
X809089Y953785D02*
X829211D01*
X966870Y883280D02*
Y887780D01*
X953370Y883280D02*
Y887780D01*
X927490Y816657D02*
Y830407D01*
X940240Y787907D02*
X1122240D01*
X1134990Y816657D02*
Y830407D01*
X1119240D02*
X1134990D01*
X927490D02*
X943240D01*
X485000Y999066D02*
Y1007534D01*
X467500Y999066D02*
Y1007534D01*
X780959Y816439D02*
X809081D01*
X780959Y834561D02*
X809081D01*
X935110Y1215489D02*
Y1235611D01*
X952110Y1215489D02*
Y1235611D01*
X523879Y1241731D02*
X548001D01*
X523879Y1224609D02*
X548001D01*
X536996Y1072979D02*
X565118D01*
X536996Y1091101D02*
X565118D01*
X1158140Y830690D02*
Y832690D01*
X1145640Y830690D02*
Y832690D01*
X778609Y892305D02*
X798731D01*
X778609Y909305D02*
X798731D01*
X489049Y1162440D02*
X509171D01*
X489049Y1179440D02*
X509171D01*
X521879Y1168229D02*
X550001D01*
X521879Y1186351D02*
X550001D01*
X974774Y1211489D02*
Y1239611D01*
X956653Y1211489D02*
Y1239611D01*
X1007380Y1009667D02*
Y1189667D01*
X791230Y854090D02*
X793730D01*
X791230Y840090D02*
X793730D01*
D12*
X392070Y1072243D02*
G03*
X392070Y1072243I-61000J0D01*
G01*
X400181Y1074522D02*
G03*
X400181Y1074522I-501J0D01*
G01*
X537214Y1068067D02*
Y1055372D01*
X539753Y1052832D01*
X544832D01*
X547371Y1055372D01*
Y1068067D01*
X560067Y1052832D02*
Y1068067D01*
X552449Y1060450D01*
X562606D01*
X1036744Y1063148D02*
Y1050452D01*
X1039283Y1047913D01*
X1044362D01*
X1046901Y1050452D01*
Y1063148D01*
X1051979Y1060608D02*
X1054518Y1063148D01*
X1059597D01*
X1062136Y1060608D01*
Y1058069D01*
X1059597Y1055530D01*
X1057057D01*
X1059597D01*
X1062136Y1052991D01*
Y1050452D01*
X1059597Y1047913D01*
X1054518D01*
X1051979Y1050452D01*
X806454Y909505D02*
Y896809D01*
X808993Y894270D01*
X814072D01*
X816611Y896809D01*
Y909505D01*
X831846Y894270D02*
X821689D01*
X831846Y904427D01*
Y906966D01*
X829307Y909505D01*
X824228D01*
X821689Y906966D01*
X532133Y1135378D02*
Y1122682D01*
X534673Y1120143D01*
X539751D01*
X542290Y1122682D01*
Y1135378D01*
X547368Y1120143D02*
X552447D01*
X549908D01*
Y1135378D01*
X547368Y1132838D01*
X1003309Y971547D02*
X1013465D01*
X1008387D01*
Y956312D01*
X1018544D02*
Y971547D01*
X1026161D01*
X1028700Y969008D01*
Y963930D01*
X1026161Y961391D01*
X1018544D01*
X1033779Y956312D02*
X1038857D01*
X1036318D01*
Y971547D01*
X1033779Y969008D01*
X1046475Y971547D02*
X1056631D01*
Y969008D01*
X1046475Y958852D01*
Y956312D01*
X1145549Y916937D02*
X1155705D01*
X1150627D01*
Y901702D01*
X1160784D02*
Y916937D01*
X1168401D01*
X1170940Y914398D01*
Y909320D01*
X1168401Y906781D01*
X1160784D01*
X1176019Y901702D02*
X1181097D01*
X1178558D01*
Y916937D01*
X1176019Y914398D01*
X1198871Y916937D02*
X1193793Y914398D01*
X1188715Y909320D01*
Y904242D01*
X1191254Y901702D01*
X1196332D01*
X1198871Y904242D01*
Y906781D01*
X1196332Y909320D01*
X1188715D01*
X1046489Y1106168D02*
X1056645D01*
X1051567D01*
Y1090932D01*
X1061724D02*
Y1106168D01*
X1069341D01*
X1071880Y1103628D01*
Y1098550D01*
X1069341Y1096011D01*
X1061724D01*
X1076959Y1090932D02*
X1082037D01*
X1079498D01*
Y1106168D01*
X1076959Y1103628D01*
X1099811Y1106168D02*
X1089655D01*
Y1098550D01*
X1094733Y1101089D01*
X1097272D01*
X1099811Y1098550D01*
Y1093472D01*
X1097272Y1090932D01*
X1092194D01*
X1089655Y1093472D01*
X858529Y800098D02*
X868685D01*
X863607D01*
Y784863D01*
X873764D02*
Y800098D01*
X881381D01*
X883920Y797558D01*
Y792480D01*
X881381Y789941D01*
X873764D01*
X888999Y784863D02*
X894077D01*
X891538D01*
Y800098D01*
X888999Y797558D01*
X909312Y784863D02*
Y800098D01*
X901695Y792480D01*
X911851D01*
X892819Y972818D02*
X902975D01*
X897897D01*
Y957582D01*
X908054D02*
Y972818D01*
X915671D01*
X918210Y970278D01*
Y965200D01*
X915671Y962661D01*
X908054D01*
X923289Y957582D02*
X928367D01*
X925828D01*
Y972818D01*
X923289Y970278D01*
X935985D02*
X938524Y972818D01*
X943602D01*
X946141Y970278D01*
Y967739D01*
X943602Y965200D01*
X941063D01*
X943602D01*
X946141Y962661D01*
Y960122D01*
X943602Y957582D01*
X938524D01*
X935985Y960122D01*
X1046489Y1130297D02*
X1056645D01*
X1051567D01*
Y1115062D01*
X1061724D02*
Y1130297D01*
X1069341D01*
X1071880Y1127758D01*
Y1122680D01*
X1069341Y1120141D01*
X1061724D01*
X1076959Y1115062D02*
X1082037D01*
X1079498D01*
Y1130297D01*
X1076959Y1127758D01*
X1099811Y1115062D02*
X1089655D01*
X1099811Y1125219D01*
Y1127758D01*
X1097272Y1130297D01*
X1092194D01*
X1089655Y1127758D01*
X1258572Y1069348D02*
Y1079504D01*
Y1074426D01*
X1273808D01*
Y1084583D02*
X1258572D01*
Y1092200D01*
X1261112Y1094740D01*
X1266190D01*
X1268729Y1092200D01*
Y1084583D01*
X1273808Y1099818D02*
Y1104896D01*
Y1102357D01*
X1258572D01*
X1261112Y1099818D01*
X1273808Y1112514D02*
Y1117592D01*
Y1115053D01*
X1258572D01*
X1261112Y1112514D01*
X703589Y1262377D02*
X713745D01*
X708667D01*
Y1247142D01*
X718824D02*
Y1262377D01*
X726441D01*
X728980Y1259838D01*
Y1254760D01*
X726441Y1252221D01*
X718824D01*
X734059Y1247142D02*
X739137D01*
X736598D01*
Y1262377D01*
X734059Y1259838D01*
X746755D02*
X749294Y1262377D01*
X754372D01*
X756911Y1259838D01*
Y1249682D01*
X754372Y1247142D01*
X749294D01*
X746755Y1249682D01*
Y1259838D01*
X320047Y941068D02*
X330203D01*
X325125D01*
Y925833D01*
X335282D02*
Y941068D01*
X342899D01*
X345438Y938528D01*
Y933450D01*
X342899Y930911D01*
X335282D01*
X350517Y928372D02*
X353056Y925833D01*
X358134D01*
X360673Y928372D01*
Y938528D01*
X358134Y941068D01*
X353056D01*
X350517Y938528D01*
Y935989D01*
X353056Y933450D01*
X360673D01*
X769627Y1262377D02*
X779783D01*
X774705D01*
Y1247142D01*
X784862D02*
Y1262377D01*
X792479D01*
X795018Y1259838D01*
Y1254760D01*
X792479Y1252221D01*
X784862D01*
X800097Y1259838D02*
X802636Y1262377D01*
X807714D01*
X810253Y1259838D01*
Y1257299D01*
X807714Y1254760D01*
X810253Y1252221D01*
Y1249682D01*
X807714Y1247142D01*
X802636D01*
X800097Y1249682D01*
Y1252221D01*
X802636Y1254760D01*
X800097Y1257299D01*
Y1259838D01*
X802636Y1254760D02*
X807714D01*
X1117607Y1130297D02*
X1127763D01*
X1122685D01*
Y1115062D01*
X1132842D02*
Y1130297D01*
X1140459D01*
X1142998Y1127758D01*
Y1122680D01*
X1140459Y1120141D01*
X1132842D01*
X1148077Y1130297D02*
X1158233D01*
Y1127758D01*
X1148077Y1117602D01*
Y1115062D01*
X1191263Y1076967D02*
Y1087123D01*
Y1082045D01*
X1206497D01*
Y1092202D02*
X1191263D01*
Y1099819D01*
X1193802Y1102358D01*
X1198880D01*
X1201419Y1099819D01*
Y1092202D01*
X1191263Y1117593D02*
X1193802Y1112515D01*
X1198880Y1107437D01*
X1203958D01*
X1206497Y1109976D01*
Y1115054D01*
X1203958Y1117593D01*
X1201419D01*
X1198880Y1115054D01*
Y1107437D01*
X519437Y918207D02*
X529593D01*
X524515D01*
Y902972D01*
X534672D02*
Y918207D01*
X542289D01*
X544828Y915668D01*
Y910590D01*
X542289Y908051D01*
X534672D01*
X560063Y918207D02*
X549907D01*
Y910590D01*
X554985Y913129D01*
X557524D01*
X560063Y910590D01*
Y905512D01*
X557524Y902972D01*
X552446D01*
X549907Y905512D01*
X471177Y918207D02*
X481333D01*
X476255D01*
Y902972D01*
X486412D02*
Y918207D01*
X494029D01*
X496568Y915668D01*
Y910590D01*
X494029Y908051D01*
X486412D01*
X509264Y902972D02*
Y918207D01*
X501647Y910590D01*
X511803D01*
X320042Y1136657D02*
Y1146813D01*
Y1141735D01*
X335277D01*
Y1151892D02*
X320042D01*
Y1159509D01*
X322582Y1162048D01*
X327660D01*
X330199Y1159509D01*
Y1151892D01*
X322582Y1167127D02*
X320042Y1169666D01*
Y1174744D01*
X322582Y1177283D01*
X325121D01*
X327660Y1174744D01*
Y1172205D01*
Y1174744D01*
X330199Y1177283D01*
X332738D01*
X335277Y1174744D01*
Y1169666D01*
X332738Y1167127D01*
X320047Y886458D02*
X330203D01*
X325125D01*
Y871223D01*
X335282D02*
Y886458D01*
X342899D01*
X345438Y883918D01*
Y878840D01*
X342899Y876301D01*
X335282D01*
X360673Y871223D02*
X350517D01*
X360673Y881379D01*
Y883918D01*
X358134Y886458D01*
X353056D01*
X350517Y883918D01*
X869956Y1257298D02*
X880113D01*
X875034D01*
Y1242063D01*
X885191D02*
Y1257298D01*
X892808D01*
X895348Y1254758D01*
Y1249680D01*
X892808Y1247141D01*
X885191D01*
X900426Y1242063D02*
X905504D01*
X902965D01*
Y1257298D01*
X900426Y1254758D01*
X1162053Y1258568D02*
X1159514Y1261107D01*
X1154436D01*
X1151897Y1258568D01*
Y1256029D01*
X1154436Y1253490D01*
X1159514D01*
X1162053Y1250951D01*
Y1248412D01*
X1159514Y1245872D01*
X1154436D01*
X1151897Y1248412D01*
X1167132Y1261107D02*
Y1245872D01*
X1172210Y1250951D01*
X1177288Y1245872D01*
Y1261107D01*
X1192523Y1245872D02*
X1182367D01*
X1192523Y1256029D01*
Y1258568D01*
X1189984Y1261107D01*
X1184906D01*
X1182367Y1258568D01*
X1084583D02*
X1082043Y1261107D01*
X1076965D01*
X1074426Y1258568D01*
Y1256029D01*
X1076965Y1253490D01*
X1082043D01*
X1084583Y1250951D01*
Y1248412D01*
X1082043Y1245872D01*
X1076965D01*
X1074426Y1248412D01*
X1089661Y1261107D02*
Y1245872D01*
X1094739Y1250951D01*
X1099818Y1245872D01*
Y1261107D01*
X1104896Y1245872D02*
X1109974D01*
X1107435D01*
Y1261107D01*
X1104896Y1258568D01*
X273057Y970283D02*
Y985518D01*
X280674D01*
X283213Y982978D01*
Y977900D01*
X280674Y975361D01*
X273057D01*
X278135D02*
X283213Y970283D01*
X295909D02*
Y985518D01*
X288292Y977900D01*
X298448D01*
X303527Y982978D02*
X306066Y985518D01*
X311144D01*
X313683Y982978D01*
Y972822D01*
X311144Y970283D01*
X306066D01*
X303527Y972822D01*
Y982978D01*
X273057Y991872D02*
Y1007107D01*
X280674D01*
X283213Y1004568D01*
Y999490D01*
X280674Y996951D01*
X273057D01*
X278135D02*
X283213Y991872D01*
X288292Y1004568D02*
X290831Y1007107D01*
X295909D01*
X298448Y1004568D01*
Y1002029D01*
X295909Y999490D01*
X293370D01*
X295909D01*
X298448Y996951D01*
Y994412D01*
X295909Y991872D01*
X290831D01*
X288292Y994412D01*
X303527D02*
X306066Y991872D01*
X311144D01*
X313683Y994412D01*
Y1004568D01*
X311144Y1007107D01*
X306066D01*
X303527Y1004568D01*
Y1002029D01*
X306066Y999490D01*
X313683D01*
X966468Y904247D02*
X951232D01*
Y911864D01*
X953772Y914403D01*
X958850D01*
X961389Y911864D01*
Y904247D01*
Y909325D02*
X966468Y914403D01*
X953772Y919482D02*
X951232Y922021D01*
Y927099D01*
X953772Y929638D01*
X956311D01*
X958850Y927099D01*
Y924560D01*
Y927099D01*
X961389Y929638D01*
X963928D01*
X966468Y927099D01*
Y922021D01*
X963928Y919482D01*
X951232Y934717D02*
Y944873D01*
X953772D01*
X963928Y934717D01*
X966468D01*
X1101097Y943613D02*
Y958848D01*
X1108714D01*
X1111253Y956308D01*
Y951230D01*
X1108714Y948691D01*
X1101097D01*
X1106175D02*
X1111253Y943613D01*
X1116332Y956308D02*
X1118871Y958848D01*
X1123949D01*
X1126488Y956308D01*
Y953769D01*
X1123949Y951230D01*
X1121410D01*
X1123949D01*
X1126488Y948691D01*
Y946152D01*
X1123949Y943613D01*
X1118871D01*
X1116332Y946152D01*
X1141723Y958848D02*
X1136645Y956308D01*
X1131567Y951230D01*
Y946152D01*
X1134106Y943613D01*
X1139184D01*
X1141723Y946152D01*
Y948691D01*
X1139184Y951230D01*
X1131567D01*
X1055377Y929642D02*
Y944877D01*
X1062994D01*
X1065533Y942338D01*
Y937260D01*
X1062994Y934721D01*
X1055377D01*
X1060455D02*
X1065533Y929642D01*
X1070612Y942338D02*
X1073151Y944877D01*
X1078229D01*
X1080768Y942338D01*
Y939799D01*
X1078229Y937260D01*
X1075690D01*
X1078229D01*
X1080768Y934721D01*
Y932182D01*
X1078229Y929642D01*
X1073151D01*
X1070612Y932182D01*
X1096003Y944877D02*
X1085847D01*
Y937260D01*
X1090925Y939799D01*
X1093464D01*
X1096003Y937260D01*
Y932182D01*
X1093464Y929642D01*
X1088386D01*
X1085847Y932182D01*
X986787Y904247D02*
X971553D01*
Y911864D01*
X974092Y914403D01*
X979170D01*
X981709Y911864D01*
Y904247D01*
Y909325D02*
X986787Y914403D01*
X974092Y919482D02*
X971553Y922021D01*
Y927099D01*
X974092Y929638D01*
X976631D01*
X979170Y927099D01*
Y924560D01*
Y927099D01*
X981709Y929638D01*
X984248D01*
X986787Y927099D01*
Y922021D01*
X984248Y919482D01*
X986787Y942334D02*
X971553D01*
X979170Y934717D01*
Y944873D01*
X1007107Y904247D02*
X991872D01*
Y911864D01*
X994412Y914403D01*
X999490D01*
X1002029Y911864D01*
Y904247D01*
Y909325D02*
X1007107Y914403D01*
X994412Y919482D02*
X991872Y922021D01*
Y927099D01*
X994412Y929638D01*
X996951D01*
X999490Y927099D01*
Y924560D01*
Y927099D01*
X1002029Y929638D01*
X1004568D01*
X1007107Y927099D01*
Y922021D01*
X1004568Y919482D01*
X994412Y934717D02*
X991872Y937256D01*
Y942334D01*
X994412Y944873D01*
X996951D01*
X999490Y942334D01*
Y939795D01*
Y942334D01*
X1002029Y944873D01*
X1004568D01*
X1007107Y942334D01*
Y937256D01*
X1004568Y934717D01*
X1027428Y904247D02*
X1012192D01*
Y911864D01*
X1014732Y914403D01*
X1019810D01*
X1022349Y911864D01*
Y904247D01*
Y909325D02*
X1027428Y914403D01*
X1014732Y919482D02*
X1012192Y922021D01*
Y927099D01*
X1014732Y929638D01*
X1017271D01*
X1019810Y927099D01*
Y924560D01*
Y927099D01*
X1022349Y929638D01*
X1024888D01*
X1027428Y927099D01*
Y922021D01*
X1024888Y919482D01*
X1027428Y944873D02*
Y934717D01*
X1017271Y944873D01*
X1014732D01*
X1012192Y942334D01*
Y937256D01*
X1014732Y934717D01*
X1165863Y848353D02*
X1181098D01*
Y840736D01*
X1178558Y838197D01*
X1173480D01*
X1170941Y840736D01*
Y848353D01*
Y843275D02*
X1165863Y838197D01*
X1178558Y833118D02*
X1181098Y830579D01*
Y825501D01*
X1178558Y822962D01*
X1176019D01*
X1173480Y825501D01*
Y828040D01*
Y825501D01*
X1170941Y822962D01*
X1168402D01*
X1165863Y825501D01*
Y830579D01*
X1168402Y833118D01*
X1178558Y817883D02*
X1181098Y815344D01*
Y810266D01*
X1178558Y807727D01*
X1168402D01*
X1165863Y810266D01*
Y815344D01*
X1168402Y817883D01*
X1178558D01*
X445900Y1074423D02*
Y1089658D01*
X453517D01*
X456056Y1087118D01*
Y1082040D01*
X453517Y1079501D01*
X445900D01*
X450978D02*
X456056Y1074423D01*
X471291D02*
X461135D01*
X471291Y1084579D01*
Y1087118D01*
X468752Y1089658D01*
X463674D01*
X461135Y1087118D01*
X476370Y1076962D02*
X478909Y1074423D01*
X483987D01*
X486526Y1076962D01*
Y1087118D01*
X483987Y1089658D01*
X478909D01*
X476370Y1087118D01*
Y1084579D01*
X478909Y1082040D01*
X486526D01*
X1055377Y890273D02*
Y905508D01*
X1062994D01*
X1065533Y902968D01*
Y897890D01*
X1062994Y895351D01*
X1055377D01*
X1060455D02*
X1065533Y890273D01*
X1080768D02*
X1070612D01*
X1080768Y900429D01*
Y902968D01*
X1078229Y905508D01*
X1073151D01*
X1070612Y902968D01*
X1085847D02*
X1088386Y905508D01*
X1093464D01*
X1096003Y902968D01*
Y900429D01*
X1093464Y897890D01*
X1096003Y895351D01*
Y892812D01*
X1093464Y890273D01*
X1088386D01*
X1085847Y892812D01*
Y895351D01*
X1088386Y897890D01*
X1085847Y900429D01*
Y902968D01*
X1088386Y897890D02*
X1093464D01*
X1049017Y904247D02*
X1033782D01*
Y911864D01*
X1036322Y914403D01*
X1041400D01*
X1043939Y911864D01*
Y904247D01*
Y909325D02*
X1049017Y914403D01*
Y929638D02*
Y919482D01*
X1038861Y929638D01*
X1036322D01*
X1033782Y927099D01*
Y922021D01*
X1036322Y919482D01*
X1033782Y934717D02*
Y944873D01*
X1036322D01*
X1046478Y934717D01*
X1049017D01*
X425448Y1143007D02*
X410212D01*
Y1150624D01*
X412752Y1153163D01*
X417830D01*
X420369Y1150624D01*
Y1143007D01*
Y1148085D02*
X425448Y1153163D01*
Y1168398D02*
Y1158242D01*
X415291Y1168398D01*
X412752D01*
X410212Y1165859D01*
Y1160781D01*
X412752Y1158242D01*
X425448Y1181094D02*
X410212D01*
X417830Y1173477D01*
Y1183633D01*
X887737Y935993D02*
Y951227D01*
X895354D01*
X897893Y948688D01*
Y943610D01*
X895354Y941071D01*
X887737D01*
X892815D02*
X897893Y935993D01*
X913128D02*
X902972D01*
X913128Y946149D01*
Y948688D01*
X910589Y951227D01*
X905511D01*
X902972Y948688D01*
X928363Y935993D02*
X918207D01*
X928363Y946149D01*
Y948688D01*
X925824Y951227D01*
X920746D01*
X918207Y948688D01*
X819157Y838203D02*
Y853438D01*
X826774D01*
X829313Y850898D01*
Y845820D01*
X826774Y843281D01*
X819157D01*
X824235D02*
X829313Y838203D01*
X844548D02*
X834392D01*
X844548Y848359D01*
Y850898D01*
X842009Y853438D01*
X836931D01*
X834392Y850898D01*
X849627D02*
X852166Y853438D01*
X857244D01*
X859783Y850898D01*
Y840742D01*
X857244Y838203D01*
X852166D01*
X849627Y840742D01*
Y850898D01*
X782326Y1196342D02*
Y1211578D01*
X789944D01*
X792483Y1209038D01*
Y1203960D01*
X789944Y1201421D01*
X782326D01*
X787404D02*
X792483Y1196342D01*
X797561D02*
X802640D01*
X800100D01*
Y1211578D01*
X797561Y1209038D01*
X810257D02*
X812796Y1211578D01*
X817875D01*
X820414Y1209038D01*
Y1206499D01*
X817875Y1203960D01*
X820414Y1201421D01*
Y1198882D01*
X817875Y1196342D01*
X812796D01*
X810257Y1198882D01*
Y1201421D01*
X812796Y1203960D01*
X810257Y1206499D01*
Y1209038D01*
X812796Y1203960D02*
X817875D01*
X839476Y886462D02*
Y901697D01*
X847094D01*
X849633Y899158D01*
Y894080D01*
X847094Y891541D01*
X839476D01*
X844555D02*
X849633Y886462D01*
X854711D02*
X859790D01*
X857250D01*
Y901697D01*
X854711Y899158D01*
X867407Y901697D02*
X877564D01*
Y899158D01*
X867407Y889002D01*
Y886462D01*
X819156Y858522D02*
Y873757D01*
X826774D01*
X829313Y871218D01*
Y866140D01*
X826774Y863601D01*
X819156D01*
X824234D02*
X829313Y858522D01*
X834391D02*
X839470D01*
X836930D01*
Y873757D01*
X834391Y871218D01*
X857244Y873757D02*
X847087D01*
Y866140D01*
X852166Y868679D01*
X854705D01*
X857244Y866140D01*
Y861062D01*
X854705Y858522D01*
X849626D01*
X847087Y861062D01*
X782326Y1221742D02*
Y1236977D01*
X789944D01*
X792483Y1234438D01*
Y1229360D01*
X789944Y1226821D01*
X782326D01*
X787404D02*
X792483Y1221742D01*
X797561D02*
X802640D01*
X800100D01*
Y1236977D01*
X797561Y1234438D01*
X817875Y1221742D02*
Y1236977D01*
X810257Y1229360D01*
X820414D01*
X479919Y1202766D02*
Y1218001D01*
X487537D01*
X490076Y1215462D01*
Y1210384D01*
X487537Y1207845D01*
X479919D01*
X484997D02*
X490076Y1202766D01*
X495154D02*
X500233D01*
X497693D01*
Y1218001D01*
X495154Y1215462D01*
X507850D02*
X510389Y1218001D01*
X515468D01*
X518007Y1215462D01*
Y1212923D01*
X515468Y1210384D01*
X512928D01*
X515468D01*
X518007Y1207845D01*
Y1205305D01*
X515468Y1202766D01*
X510389D01*
X507850Y1205305D01*
X775967Y1004576D02*
X760732D01*
Y1012194D01*
X763272Y1014733D01*
X768350D01*
X770889Y1012194D01*
Y1004576D01*
Y1009654D02*
X775967Y1014733D01*
Y1019811D02*
Y1024890D01*
Y1022350D01*
X760732D01*
X763272Y1019811D01*
X775967Y1042664D02*
Y1032507D01*
X765811Y1042664D01*
X763272D01*
X760732Y1040125D01*
Y1035046D01*
X763272Y1032507D01*
X480066Y1225553D02*
Y1240788D01*
X487684D01*
X490223Y1238248D01*
Y1233170D01*
X487684Y1230631D01*
X480066D01*
X485145D02*
X490223Y1225553D01*
X495301D02*
X500380D01*
X497840D01*
Y1240788D01*
X495301Y1238248D01*
X507997D02*
X510536Y1240788D01*
X515615D01*
X518154Y1238248D01*
Y1228092D01*
X515615Y1225553D01*
X510536D01*
X507997Y1228092D01*
Y1238248D01*
X819154Y817883D02*
Y833118D01*
X826772D01*
X829311Y830578D01*
Y825500D01*
X826772Y822961D01*
X819154D01*
X824232D02*
X829311Y817883D01*
X834389Y820422D02*
X836928Y817883D01*
X842007D01*
X844546Y820422D01*
Y830578D01*
X842007Y833118D01*
X836928D01*
X834389Y830578D01*
Y828039D01*
X836928Y825500D01*
X844546D01*
X842014Y978041D02*
Y993276D01*
X849632D01*
X852171Y990737D01*
Y985658D01*
X849632Y983119D01*
X842014D01*
X847093D02*
X852171Y978041D01*
X857249Y990737D02*
X859788Y993276D01*
X864867D01*
X867406Y990737D01*
Y988197D01*
X864867Y985658D01*
X867406Y983119D01*
Y980580D01*
X864867Y978041D01*
X859788D01*
X857249Y980580D01*
Y983119D01*
X859788Y985658D01*
X857249Y988197D01*
Y990737D01*
X859788Y985658D02*
X864867D01*
X953774Y1247142D02*
Y1262377D01*
X961392D01*
X963931Y1259838D01*
Y1254760D01*
X961392Y1252221D01*
X953774D01*
X958852D02*
X963931Y1247142D01*
X979166Y1262377D02*
X974088Y1259838D01*
X969009Y1254760D01*
Y1249682D01*
X971548Y1247142D01*
X976627D01*
X979166Y1249682D01*
Y1252221D01*
X976627Y1254760D01*
X969009D01*
X561344Y1098552D02*
Y1113788D01*
X568962D01*
X571501Y1111248D01*
Y1106170D01*
X568962Y1103631D01*
X561344D01*
X566423D02*
X571501Y1098552D01*
X576579Y1111248D02*
X579118Y1113788D01*
X584197D01*
X586736Y1111248D01*
Y1108709D01*
X584197Y1106170D01*
X581657D01*
X584197D01*
X586736Y1103631D01*
Y1101092D01*
X584197Y1098552D01*
X579118D01*
X576579Y1101092D01*
X558804Y1169672D02*
Y1184908D01*
X566422D01*
X568961Y1182368D01*
Y1177290D01*
X566422Y1174751D01*
X558804D01*
X563882D02*
X568961Y1169672D01*
X584196D02*
X574039D01*
X584196Y1179829D01*
Y1182368D01*
X581657Y1184908D01*
X576578D01*
X574039Y1182368D01*
X573920Y1074423D02*
Y1089658D01*
X581538D01*
X584077Y1087118D01*
Y1082040D01*
X581538Y1079501D01*
X573920D01*
X578999D02*
X584077Y1074423D01*
X589155D02*
X594234D01*
X591695D01*
Y1089658D01*
X589155Y1087118D01*
X1200153Y1043942D02*
Y1059177D01*
X1207771D01*
X1210310Y1056638D01*
Y1051560D01*
X1207771Y1049021D01*
X1200153D01*
X1215388Y1043942D02*
X1220467D01*
X1217928D01*
Y1059177D01*
X1215388Y1056638D01*
X270516Y1150783D02*
Y1135547D01*
X280672D01*
X295908Y1148243D02*
X293368Y1150783D01*
X288290D01*
X285751Y1148243D01*
Y1145704D01*
X288290Y1143165D01*
X293368D01*
X295908Y1140626D01*
Y1138087D01*
X293368Y1135547D01*
X288290D01*
X285751Y1138087D01*
X300986Y1135547D02*
X306064D01*
X303525D01*
Y1150783D01*
X300986Y1148243D01*
X541023Y1021641D02*
Y1006406D01*
X551180D01*
X556258D02*
X561337D01*
X558798D01*
Y1021641D01*
X556258Y1019101D01*
X904241Y844548D02*
X899163D01*
X901702D01*
Y831852D01*
X899163Y829313D01*
X896623D01*
X894084Y831852D01*
X916937Y829313D02*
Y844548D01*
X909319Y836930D01*
X919476D01*
X546101Y1263648D02*
X541022D01*
X543562D01*
Y1250952D01*
X541022Y1248412D01*
X538483D01*
X535944Y1250952D01*
X551179Y1261108D02*
X553718Y1263648D01*
X558797D01*
X561336Y1261108D01*
Y1258569D01*
X558797Y1256030D01*
X556258D01*
X558797D01*
X561336Y1253491D01*
Y1250952D01*
X558797Y1248412D01*
X553718D01*
X551179Y1250952D01*
X655321Y1179827D02*
X650242D01*
X652782D01*
Y1167132D01*
X650242Y1164593D01*
X647703D01*
X645164Y1167132D01*
X670556Y1164593D02*
X660399D01*
X670556Y1174749D01*
Y1177288D01*
X668017Y1179827D01*
X662938D01*
X660399Y1177288D01*
X658757Y915017D02*
X653678D01*
X656218D01*
Y902322D01*
X653678Y899782D01*
X651139D01*
X648600Y902322D01*
X663835Y899782D02*
X668913D01*
X666374D01*
Y915017D01*
X663835Y912478D01*
X347218Y1297173D02*
X352296D01*
X349757D01*
Y1281938D01*
X347218D01*
X352296D01*
X359914D02*
Y1297173D01*
X364992Y1292095D01*
X370071Y1297173D01*
Y1281938D01*
X375149Y1297173D02*
Y1284477D01*
X377688Y1281938D01*
X382766D01*
X385306Y1284477D01*
Y1297173D01*
X390384Y1281938D02*
X395462D01*
X392923D01*
Y1297173D01*
X390384Y1294634D01*
X1021086Y995677D02*
X1026164D01*
X1023625D01*
Y980443D01*
X1021086D01*
X1026164D01*
X1043939Y993138D02*
X1041400Y995677D01*
X1036321D01*
X1033782Y993138D01*
Y982982D01*
X1036321Y980443D01*
X1041400D01*
X1043939Y982982D01*
X1049017Y993138D02*
X1051556Y995677D01*
X1056635D01*
X1059174Y993138D01*
Y990599D01*
X1056635Y988060D01*
X1054096D01*
X1056635D01*
X1059174Y985521D01*
Y982982D01*
X1056635Y980443D01*
X1051556D01*
X1049017Y982982D01*
X680726Y1202688D02*
X685805D01*
X683265D01*
Y1187452D01*
X680726D01*
X685805D01*
X703579Y1200148D02*
X701040Y1202688D01*
X695961D01*
X693422Y1200148D01*
Y1189992D01*
X695961Y1187452D01*
X701040D01*
X703579Y1189992D01*
X718814Y1187452D02*
X708657D01*
X718814Y1197609D01*
Y1200148D01*
X716275Y1202688D01*
X711196D01*
X708657Y1200148D01*
X850905Y1225547D02*
X855984D01*
X853445D01*
Y1210312D01*
X850905D01*
X855984D01*
X873758Y1223008D02*
X871219Y1225547D01*
X866140D01*
X863601Y1223008D01*
Y1212852D01*
X866140Y1210312D01*
X871219D01*
X873758Y1212852D01*
X878836Y1210312D02*
X883915D01*
X881376D01*
Y1225547D01*
X878836Y1223008D01*
X1130722Y1078023D02*
X1128182Y1075484D01*
Y1070406D01*
X1130722Y1067867D01*
X1140878D01*
X1143418Y1070406D01*
Y1075484D01*
X1140878Y1078023D01*
X1143418Y1093258D02*
Y1083102D01*
X1133261Y1093258D01*
X1130722D01*
X1128182Y1090719D01*
Y1085641D01*
X1130722Y1083102D01*
Y1098337D02*
X1128182Y1100876D01*
Y1105954D01*
X1130722Y1108493D01*
X1133261D01*
X1135800Y1105954D01*
X1138339Y1108493D01*
X1140878D01*
X1143418Y1105954D01*
Y1100876D01*
X1140878Y1098337D01*
X1138339D01*
X1135800Y1100876D01*
X1133261Y1098337D01*
X1130722D01*
X1135800Y1100876D02*
Y1105954D01*
X408943Y998218D02*
X406404Y1000758D01*
X401326D01*
X398787Y998218D01*
Y988062D01*
X401326Y985523D01*
X406404D01*
X408943Y988062D01*
X424178Y985523D02*
X414022D01*
X424178Y995679D01*
Y998218D01*
X421639Y1000758D01*
X416561D01*
X414022Y998218D01*
X429257Y1000758D02*
X439413D01*
Y998218D01*
X429257Y988062D01*
Y985523D01*
X412753Y1063886D02*
X410214Y1066425D01*
X405136D01*
X402597Y1063886D01*
Y1053729D01*
X405136Y1051190D01*
X410214D01*
X412753Y1053729D01*
X427988Y1051190D02*
X417832D01*
X427988Y1061347D01*
Y1063886D01*
X425449Y1066425D01*
X420371D01*
X417832Y1063886D01*
X443223Y1066425D02*
X438145Y1063886D01*
X433067Y1058808D01*
Y1053729D01*
X435606Y1051190D01*
X440684D01*
X443223Y1053729D01*
Y1056268D01*
X440684Y1058808D01*
X433067D01*
X1158243Y887728D02*
X1155704Y890267D01*
X1150626D01*
X1148087Y887728D01*
Y877572D01*
X1150626Y875033D01*
X1155704D01*
X1158243Y877572D01*
X1173478Y875033D02*
X1163322D01*
X1173478Y885189D01*
Y887728D01*
X1170939Y890267D01*
X1165861D01*
X1163322Y887728D01*
X1188713Y890267D02*
X1178557D01*
Y882650D01*
X1183635Y885189D01*
X1186174D01*
X1188713Y882650D01*
Y877572D01*
X1186174Y875033D01*
X1181096D01*
X1178557Y877572D01*
X1068493Y1082198D02*
X1065954Y1084737D01*
X1060876D01*
X1058337Y1082198D01*
Y1072042D01*
X1060876Y1069502D01*
X1065954D01*
X1068493Y1072042D01*
X1083728Y1069502D02*
X1073572D01*
X1083728Y1079659D01*
Y1082198D01*
X1081189Y1084737D01*
X1076111D01*
X1073572Y1082198D01*
X1096424Y1069502D02*
Y1084737D01*
X1088807Y1077120D01*
X1098963D01*
X412753Y1043938D02*
X410214Y1046478D01*
X405136D01*
X402597Y1043938D01*
Y1033782D01*
X405136Y1031243D01*
X410214D01*
X412753Y1033782D01*
X427988Y1031243D02*
X417832D01*
X427988Y1041399D01*
Y1043938D01*
X425449Y1046478D01*
X420371D01*
X417832Y1043938D01*
X433067D02*
X435606Y1046478D01*
X440684D01*
X443223Y1043938D01*
Y1041399D01*
X440684Y1038860D01*
X438145D01*
X440684D01*
X443223Y1036321D01*
Y1033782D01*
X440684Y1031243D01*
X435606D01*
X433067Y1033782D01*
X408943Y1018476D02*
X406404Y1021015D01*
X401326D01*
X398787Y1018476D01*
Y1008319D01*
X401326Y1005780D01*
X406404D01*
X408943Y1008319D01*
X424178Y1005780D02*
X414022D01*
X424178Y1015937D01*
Y1018476D01*
X421639Y1021015D01*
X416561D01*
X414022Y1018476D01*
X439413Y1005780D02*
X429257D01*
X439413Y1015937D01*
Y1018476D01*
X436874Y1021015D01*
X431796D01*
X429257Y1018476D01*
X1158242Y867408D02*
X1155703Y869948D01*
X1150625D01*
X1148086Y867408D01*
Y857252D01*
X1150625Y854713D01*
X1155703D01*
X1158242Y857252D01*
X1173478Y854713D02*
X1163321D01*
X1173478Y864869D01*
Y867408D01*
X1170938Y869948D01*
X1165860D01*
X1163321Y867408D01*
X1178556Y854713D02*
X1183634D01*
X1181095D01*
Y869948D01*
X1178556Y867408D01*
X567693Y1043938D02*
X565154Y1046478D01*
X560076D01*
X557537Y1043938D01*
Y1033782D01*
X560076Y1031243D01*
X565154D01*
X567693Y1033782D01*
X582928Y1031243D02*
X572772D01*
X582928Y1041399D01*
Y1043938D01*
X580389Y1046478D01*
X575311D01*
X572772Y1043938D01*
X588007D02*
X590546Y1046478D01*
X595624D01*
X598163Y1043938D01*
Y1033782D01*
X595624Y1031243D01*
X590546D01*
X588007Y1033782D01*
Y1043938D01*
X1107862Y1078023D02*
X1105322Y1075484D01*
Y1070405D01*
X1107862Y1067866D01*
X1118018D01*
X1120557Y1070405D01*
Y1075484D01*
X1118018Y1078023D01*
X1120557Y1083101D02*
Y1088180D01*
Y1085640D01*
X1105322D01*
X1107862Y1083101D01*
X1118018Y1095797D02*
X1120557Y1098336D01*
Y1103415D01*
X1118018Y1105954D01*
X1107862D01*
X1105322Y1103415D01*
Y1098336D01*
X1107862Y1095797D01*
X1110401D01*
X1112940Y1098336D01*
Y1105954D01*
X1074843Y1014888D02*
X1072304Y1017428D01*
X1067225D01*
X1064686Y1014888D01*
Y1004732D01*
X1067225Y1002193D01*
X1072304D01*
X1074843Y1004732D01*
X1079921Y1002193D02*
X1085000D01*
X1082460D01*
Y1017428D01*
X1079921Y1014888D01*
X1092617D02*
X1095156Y1017428D01*
X1100235D01*
X1102774Y1014888D01*
Y1012349D01*
X1100235Y1009810D01*
X1102774Y1007271D01*
Y1004732D01*
X1100235Y1002193D01*
X1095156D01*
X1092617Y1004732D01*
Y1007271D01*
X1095156Y1009810D01*
X1092617Y1012349D01*
Y1014888D01*
X1095156Y1009810D02*
X1100235D01*
X919483Y1259838D02*
X916944Y1262377D01*
X911865D01*
X909326Y1259838D01*
Y1249682D01*
X911865Y1247142D01*
X916944D01*
X919483Y1249682D01*
X924561Y1247142D02*
X929640D01*
X927100D01*
Y1262377D01*
X924561Y1259838D01*
X947414Y1262377D02*
X937257D01*
Y1254760D01*
X942336Y1257299D01*
X944875D01*
X947414Y1254760D01*
Y1249682D01*
X944875Y1247142D01*
X939796D01*
X937257Y1249682D01*
X1033783Y1244598D02*
X1031244Y1247138D01*
X1026165D01*
X1023626Y1244598D01*
Y1234442D01*
X1026165Y1231902D01*
X1031244D01*
X1033783Y1234442D01*
X1038861Y1231902D02*
X1043940D01*
X1041400D01*
Y1247138D01*
X1038861Y1244598D01*
X1061714Y1231902D02*
X1051557D01*
X1061714Y1242059D01*
Y1244598D01*
X1059175Y1247138D01*
X1054096D01*
X1051557Y1244598D01*
X882652Y927098D02*
X880113Y929638D01*
X875034D01*
X872495Y927098D01*
Y916942D01*
X875034Y914402D01*
X880113D01*
X882652Y916942D01*
X887730Y914402D02*
X892809D01*
X890270D01*
Y929638D01*
X887730Y927098D01*
X900426Y914402D02*
X905505D01*
X902965D01*
Y929638D01*
X900426Y927098D01*
X1033783Y1221738D02*
X1031244Y1224277D01*
X1026165D01*
X1023626Y1221738D01*
Y1211582D01*
X1026165Y1209043D01*
X1031244D01*
X1033783Y1211582D01*
X1038861Y1209043D02*
X1043940D01*
X1041400D01*
Y1224277D01*
X1038861Y1221738D01*
X1051557D02*
X1054096Y1224277D01*
X1059175D01*
X1061714Y1221738D01*
Y1211582D01*
X1059175Y1209043D01*
X1054096D01*
X1051557Y1211582D01*
Y1221738D01*
X844551Y971173D02*
X842012Y973713D01*
X836933D01*
X834394Y971173D01*
Y961017D01*
X836933Y958477D01*
X842012D01*
X844551Y961017D01*
X849629D02*
X852168Y958477D01*
X857247D01*
X859786Y961017D01*
Y971173D01*
X857247Y973713D01*
X852168D01*
X849629Y971173D01*
Y968634D01*
X852168Y966095D01*
X859786D01*
X781051Y988058D02*
X778512Y990598D01*
X773433D01*
X770894Y988058D01*
Y977902D01*
X773433Y975362D01*
X778512D01*
X781051Y977902D01*
X786129Y988058D02*
X788668Y990598D01*
X793747D01*
X796286Y988058D01*
Y985519D01*
X793747Y982980D01*
X796286Y980441D01*
Y977902D01*
X793747Y975362D01*
X788668D01*
X786129Y977902D01*
Y980441D01*
X788668Y982980D01*
X786129Y985519D01*
Y988058D01*
X788668Y982980D02*
X793747D01*
X426721Y1134108D02*
X424182Y1136647D01*
X419103D01*
X416564Y1134108D01*
Y1123952D01*
X419103Y1121413D01*
X424182D01*
X426721Y1123952D01*
X431799Y1136647D02*
X441956D01*
Y1134108D01*
X431799Y1123952D01*
Y1121413D01*
X463551Y1176018D02*
X461012Y1178558D01*
X455933D01*
X453394Y1176018D01*
Y1165862D01*
X455933Y1163323D01*
X461012D01*
X463551Y1165862D01*
X478786Y1178558D02*
X473708Y1176018D01*
X468629Y1170940D01*
Y1165862D01*
X471168Y1163323D01*
X476247D01*
X478786Y1165862D01*
Y1168401D01*
X476247Y1170940D01*
X468629D01*
X426721Y1114352D02*
X424182Y1116891D01*
X419103D01*
X416564Y1114352D01*
Y1104195D01*
X419103Y1101656D01*
X424182D01*
X426721Y1104195D01*
X441956Y1116891D02*
X431799D01*
Y1109273D01*
X436878Y1111812D01*
X439417D01*
X441956Y1109273D01*
Y1104195D01*
X439417Y1101656D01*
X434338D01*
X431799Y1104195D01*
X463551Y1155698D02*
X461012Y1158238D01*
X455933D01*
X453394Y1155698D01*
Y1145542D01*
X455933Y1143002D01*
X461012D01*
X463551Y1145542D01*
X476247Y1143002D02*
Y1158238D01*
X468629Y1150620D01*
X478786D01*
X568961Y1159508D02*
X566422Y1162048D01*
X561343D01*
X558804Y1159508D01*
Y1149352D01*
X561343Y1146813D01*
X566422D01*
X568961Y1149352D01*
X574039Y1159508D02*
X576578Y1162048D01*
X581657D01*
X584196Y1159508D01*
Y1156969D01*
X581657Y1154430D01*
X579118D01*
X581657D01*
X584196Y1151891D01*
Y1149352D01*
X581657Y1146813D01*
X576578D01*
X574039Y1149352D01*
D13*
X799670Y948347D02*
G03*
X799670Y948347I-500J0D01*
G01*
X995380Y1199668D02*
G03*
X995380Y1198668I0J-500D01*
G01*
D02*
G03*
X995380Y1199668I0J500D01*
G01*
X475290Y1186920D02*
Y1263920D01*
X355290D02*
X475290D01*
X355290Y1186920D02*
Y1263920D01*
Y1186920D02*
X475290D01*
D14*
X1085587Y1224800D02*
X1111587D01*
X1129587Y1164800D02*
Y1222800D01*
X1085587Y1162800D02*
X1111587D01*
X1067588Y1164800D02*
Y1222800D01*
X1159210Y1224800D02*
X1185210D01*
X1203210Y1164800D02*
Y1222800D01*
X1159210Y1162800D02*
X1185210D01*
X1141210Y1164800D02*
Y1222800D01*
M02*
