G04*
G04 #@! TF.GenerationSoftware,Altium Limited,Altium Designer,26.5.0 (11)*
G04*
G04 Layer_Physical_Order=4*
G04 Layer_Color=16711680*
G04 Board_Origin=0|0*
%FSLAX44Y44*%
%MOMM*%
G71*
G04*
G04 #@! TF.SameCoordinates,99C48058-1AB6-4DC2-B902-E6427AB3A3D0*
G04*
G04*
G04 #@! TF.FilePolarity,Positive*
G04*
G01*
G75*
%ADD10C,0.2500*%
%ADD39R,1.0121X1.0587*%
%ADD41R,1.0587X1.0121*%
%ADD62R,1.4500X1.2000*%
%ADD66C,0.6000*%
%ADD67C,0.6500*%
G04:AMPARAMS|DCode=68|XSize=1mm|YSize=2.1mm|CornerRadius=0.5mm|HoleSize=0mm|Usage=FLASHONLY|Rotation=180.000|XOffset=0mm|YOffset=0mm|HoleType=Round|Shape=RoundedRectangle|*
%AMROUNDEDRECTD68*
21,1,1.0000,1.1000,0,0,180.0*
21,1,0.0000,2.1000,0,0,180.0*
1,1,1.0000,0.0000,0.5500*
1,1,1.0000,0.0000,0.5500*
1,1,1.0000,0.0000,-0.5500*
1,1,1.0000,0.0000,-0.5500*
%
%ADD68ROUNDEDRECTD68*%
G04:AMPARAMS|DCode=69|XSize=1mm|YSize=1.8mm|CornerRadius=0.5mm|HoleSize=0mm|Usage=FLASHONLY|Rotation=180.000|XOffset=0mm|YOffset=0mm|HoleType=Round|Shape=RoundedRectangle|*
%AMROUNDEDRECTD69*
21,1,1.0000,0.8000,0,0,180.0*
21,1,0.0000,1.8000,0,0,180.0*
1,1,1.0000,0.0000,0.4000*
1,1,1.0000,0.0000,0.4000*
1,1,1.0000,0.0000,-0.4000*
1,1,1.0000,0.0000,-0.4000*
%
%ADD69ROUNDEDRECTD69*%
%ADD70R,1.5000X1.5000*%
%ADD71C,1.4000*%
%ADD72C,1.3500*%
%ADD73C,1.5000*%
%ADD74C,6.0000*%
%ADD75R,1.4000X1.4000*%
%ADD76C,0.3810*%
%ADD77C,0.4000*%
%ADD78C,0.3000*%
%ADD95R,1.0121X1.2552*%
%ADD96R,1.2621X0.9546*%
G36*
X1290320Y748030D02*
X259080D01*
Y1264920D01*
X590165D01*
X590463Y1263420D01*
X588988Y1262809D01*
X587581Y1261402D01*
X586820Y1259565D01*
Y1257575D01*
X586852Y1257497D01*
X586019Y1256250D01*
X583496D01*
X582570Y1256250D01*
X581487Y1257255D01*
X581404Y1257453D01*
X580283Y1258916D01*
X578820Y1260038D01*
X577117Y1260743D01*
X575290Y1260984D01*
X573463Y1260743D01*
X571760Y1260038D01*
X570298Y1258916D01*
X569175Y1257453D01*
X568470Y1255751D01*
X568230Y1253923D01*
Y1245923D01*
X568470Y1244096D01*
X569175Y1242393D01*
X570298Y1240931D01*
X571760Y1239809D01*
X573463Y1239103D01*
X575290Y1238863D01*
X577117Y1239103D01*
X578820Y1239809D01*
X580283Y1240931D01*
X581070Y1241957D01*
X582570Y1241448D01*
Y1240250D01*
X601070D01*
Y1256250D01*
X597621D01*
X596788Y1257497D01*
X596820Y1257575D01*
Y1259565D01*
X596059Y1261402D01*
X594652Y1262809D01*
X593177Y1263420D01*
X593475Y1264920D01*
X614295D01*
X614593Y1263420D01*
X613118Y1262809D01*
X611711Y1261402D01*
X610950Y1259565D01*
Y1257575D01*
X611263Y1256821D01*
X610260Y1255321D01*
X607639D01*
Y1241845D01*
X607639Y1241775D01*
X607469Y1240345D01*
X607099D01*
Y1234302D01*
X615950D01*
X624801D01*
Y1240345D01*
X624431D01*
X624261Y1241775D01*
X624261Y1241845D01*
Y1255321D01*
X621640D01*
X620638Y1256821D01*
X620950Y1257575D01*
Y1259565D01*
X620189Y1261402D01*
X618782Y1262809D01*
X617307Y1263420D01*
X617605Y1264920D01*
X639695D01*
X639993Y1263420D01*
X638518Y1262809D01*
X637111Y1261402D01*
X636350Y1259565D01*
Y1257575D01*
X636465Y1257298D01*
X635631Y1256051D01*
X634289D01*
Y1240081D01*
X633749D01*
Y1232535D01*
X641350D01*
X648951D01*
Y1240081D01*
X648411D01*
Y1256051D01*
X647068D01*
X646235Y1257298D01*
X646350Y1257575D01*
Y1259565D01*
X645589Y1261402D01*
X644182Y1262809D01*
X642707Y1263420D01*
X643005Y1264920D01*
X1290320D01*
Y748030D01*
D02*
G37*
%LPC*%
G36*
X1021080Y1244990D02*
Y1240790D01*
X1025280D01*
X1024507Y1242658D01*
X1022948Y1244217D01*
X1021080Y1244990D01*
D02*
G37*
G36*
X1018540D02*
X1016672Y1244217D01*
X1015113Y1242658D01*
X1014340Y1240790D01*
X1018540D01*
Y1244990D01*
D02*
G37*
G36*
X661690Y1260984D02*
X659863Y1260743D01*
X658160Y1260038D01*
X656697Y1258916D01*
X655575Y1257453D01*
X654870Y1255751D01*
X654630Y1253923D01*
Y1245923D01*
X654870Y1244096D01*
X655575Y1242393D01*
X656697Y1240931D01*
X658160Y1239809D01*
X659863Y1239103D01*
X661690Y1238863D01*
X663517Y1239103D01*
X665220Y1239809D01*
X666682Y1240931D01*
X667804Y1242393D01*
X668510Y1244096D01*
X668750Y1245923D01*
Y1253923D01*
X668510Y1255751D01*
X667804Y1257453D01*
X666682Y1258916D01*
X665220Y1260038D01*
X663517Y1260743D01*
X661690Y1260984D01*
D02*
G37*
G36*
X944880Y1241180D02*
Y1236980D01*
X949080D01*
X948307Y1238848D01*
X946748Y1240407D01*
X944880Y1241180D01*
D02*
G37*
G36*
X942340D02*
X940472Y1240407D01*
X938913Y1238848D01*
X938140Y1236980D01*
X942340D01*
Y1241180D01*
D02*
G37*
G36*
X524510Y1238567D02*
Y1234366D01*
X528710D01*
X527937Y1236234D01*
X526378Y1237793D01*
X524510Y1238567D01*
D02*
G37*
G36*
X521970D02*
X520102Y1237793D01*
X518543Y1236234D01*
X517770Y1234366D01*
X521970D01*
Y1238567D01*
D02*
G37*
G36*
X1025280Y1238250D02*
X1021080D01*
Y1234050D01*
X1022948Y1234823D01*
X1024507Y1236382D01*
X1025280Y1238250D01*
D02*
G37*
G36*
X1018540D02*
X1014340D01*
X1015113Y1236382D01*
X1016672Y1234823D01*
X1018540Y1234050D01*
Y1238250D01*
D02*
G37*
G36*
X949080Y1234440D02*
X944880D01*
Y1230240D01*
X946748Y1231013D01*
X948307Y1232572D01*
X949080Y1234440D01*
D02*
G37*
G36*
X942340D02*
X938140D01*
X938913Y1232572D01*
X940472Y1231013D01*
X942340Y1230240D01*
Y1234440D01*
D02*
G37*
G36*
X601610Y1236790D02*
X593090D01*
Y1229520D01*
X601610D01*
Y1236790D01*
D02*
G37*
G36*
X590550D02*
X582030D01*
Y1229520D01*
X590550D01*
Y1236790D01*
D02*
G37*
G36*
X528710Y1231826D02*
X524510D01*
Y1227626D01*
X526378Y1228400D01*
X527937Y1229958D01*
X528710Y1231826D01*
D02*
G37*
G36*
X521970D02*
X517770D01*
X518543Y1229958D01*
X520102Y1228400D01*
X521970Y1227626D01*
Y1231826D01*
D02*
G37*
G36*
X1196340Y1231020D02*
Y1226820D01*
X1200540D01*
X1199767Y1228688D01*
X1198208Y1230247D01*
X1196340Y1231020D01*
D02*
G37*
G36*
X1193800D02*
X1191932Y1230247D01*
X1190373Y1228688D01*
X1189600Y1226820D01*
X1193800D01*
Y1231020D01*
D02*
G37*
G36*
X1122680D02*
Y1226820D01*
X1126880D01*
X1126107Y1228688D01*
X1124548Y1230247D01*
X1122680Y1231020D01*
D02*
G37*
G36*
X1120140D02*
X1118272Y1230247D01*
X1116713Y1228688D01*
X1115940Y1226820D01*
X1120140D01*
Y1231020D01*
D02*
G37*
G36*
X680720Y1228480D02*
Y1224280D01*
X684920D01*
X684147Y1226148D01*
X682588Y1227707D01*
X680720Y1228480D01*
D02*
G37*
G36*
X678180D02*
X676312Y1227707D01*
X674753Y1226148D01*
X673980Y1224280D01*
X678180D01*
Y1228480D01*
D02*
G37*
G36*
X624801Y1231762D02*
X615950D01*
X607099D01*
Y1225719D01*
X610936D01*
X611253Y1224952D01*
X612812Y1223393D01*
X614680Y1222620D01*
Y1228090D01*
X617220D01*
Y1222620D01*
X619088Y1223393D01*
X620647Y1224952D01*
X620964Y1225719D01*
X624801D01*
Y1231762D01*
D02*
G37*
G36*
X983975Y1231820D02*
X981985D01*
X980148Y1231059D01*
X978741Y1229652D01*
X977980Y1227815D01*
Y1225825D01*
X978741Y1223988D01*
X980148Y1222581D01*
X981985Y1221820D01*
X983975D01*
X985812Y1222581D01*
X987219Y1223988D01*
X987980Y1225825D01*
Y1227815D01*
X987219Y1229652D01*
X985812Y1231059D01*
X983975Y1231820D01*
D02*
G37*
G36*
X1093470Y1224670D02*
Y1220470D01*
X1097670D01*
X1096897Y1222338D01*
X1095338Y1223897D01*
X1093470Y1224670D01*
D02*
G37*
G36*
X1090930D02*
X1089062Y1223897D01*
X1087503Y1222338D01*
X1086730Y1220470D01*
X1090930D01*
Y1224670D01*
D02*
G37*
G36*
X1042670D02*
Y1220470D01*
X1046870D01*
X1046097Y1222338D01*
X1044538Y1223897D01*
X1042670Y1224670D01*
D02*
G37*
G36*
X1040130D02*
X1038262Y1223897D01*
X1036703Y1222338D01*
X1035930Y1220470D01*
X1040130D01*
Y1224670D01*
D02*
G37*
G36*
X483870D02*
Y1220470D01*
X488070D01*
X487297Y1222338D01*
X485738Y1223897D01*
X483870Y1224670D01*
D02*
G37*
G36*
X481330D02*
X479462Y1223897D01*
X477903Y1222338D01*
X477130Y1220470D01*
X481330D01*
Y1224670D01*
D02*
G37*
G36*
X433070D02*
Y1220470D01*
X437270D01*
X436497Y1222338D01*
X434938Y1223897D01*
X433070Y1224670D01*
D02*
G37*
G36*
X430530D02*
X428662Y1223897D01*
X427103Y1222338D01*
X426330Y1220470D01*
X430530D01*
Y1224670D01*
D02*
G37*
G36*
X382270D02*
Y1220470D01*
X386470D01*
X385697Y1222338D01*
X384138Y1223897D01*
X382270Y1224670D01*
D02*
G37*
G36*
X379730D02*
X377862Y1223897D01*
X376303Y1222338D01*
X375530Y1220470D01*
X379730D01*
Y1224670D01*
D02*
G37*
G36*
X1200540Y1224280D02*
X1196340D01*
Y1220080D01*
X1198208Y1220853D01*
X1199767Y1222412D01*
X1200540Y1224280D01*
D02*
G37*
G36*
X1193800D02*
X1189600D01*
X1190373Y1222412D01*
X1191932Y1220853D01*
X1193800Y1220080D01*
Y1224280D01*
D02*
G37*
G36*
X1126880D02*
X1122680D01*
Y1220080D01*
X1124548Y1220853D01*
X1126107Y1222412D01*
X1126880Y1224280D01*
D02*
G37*
G36*
X1120140D02*
X1115940D01*
X1116713Y1222412D01*
X1118272Y1220853D01*
X1120140Y1220080D01*
Y1224280D01*
D02*
G37*
G36*
X648951Y1229995D02*
X641350D01*
X633749D01*
Y1222449D01*
X636112D01*
X636653Y1221142D01*
X638212Y1219583D01*
X640080Y1218810D01*
Y1224280D01*
X642620D01*
Y1218810D01*
X644488Y1219583D01*
X646047Y1221142D01*
X646588Y1222449D01*
X648951D01*
Y1229995D01*
D02*
G37*
G36*
X724895Y1228010D02*
X722905D01*
X721068Y1227249D01*
X719661Y1225842D01*
X718900Y1224005D01*
Y1222015D01*
X719661Y1220178D01*
X721068Y1218771D01*
X722905Y1218010D01*
X724895D01*
X726732Y1218771D01*
X728139Y1220178D01*
X728900Y1222015D01*
Y1224005D01*
X728139Y1225842D01*
X726732Y1227249D01*
X724895Y1228010D01*
D02*
G37*
G36*
X684920Y1221740D02*
X680720D01*
Y1217540D01*
X682588Y1218313D01*
X684147Y1219872D01*
X684920Y1221740D01*
D02*
G37*
G36*
X678180D02*
X673980D01*
X674753Y1219872D01*
X676312Y1218313D01*
X678180Y1217540D01*
Y1221740D01*
D02*
G37*
G36*
X1007110Y1220860D02*
Y1216660D01*
X1011310D01*
X1010537Y1218528D01*
X1008978Y1220087D01*
X1007110Y1220860D01*
D02*
G37*
G36*
X1004570D02*
X1002702Y1220087D01*
X1001143Y1218528D01*
X1000370Y1216660D01*
X1004570D01*
Y1220860D01*
D02*
G37*
G36*
X1097670Y1217930D02*
X1093470D01*
Y1213730D01*
X1095338Y1214503D01*
X1096897Y1216062D01*
X1097670Y1217930D01*
D02*
G37*
G36*
X1090930D02*
X1086730D01*
X1087503Y1216062D01*
X1089062Y1214503D01*
X1090930Y1213730D01*
Y1217930D01*
D02*
G37*
G36*
X1046870D02*
X1042670D01*
Y1213730D01*
X1044538Y1214503D01*
X1046097Y1216062D01*
X1046870Y1217930D01*
D02*
G37*
G36*
X1040130D02*
X1035930D01*
X1036703Y1216062D01*
X1038262Y1214503D01*
X1040130Y1213730D01*
Y1217930D01*
D02*
G37*
G36*
X887730D02*
X883530D01*
X884303Y1216062D01*
X885862Y1214503D01*
X887730Y1213730D01*
Y1217930D01*
D02*
G37*
G36*
X488070D02*
X483870D01*
Y1213730D01*
X485738Y1214503D01*
X487297Y1216062D01*
X488070Y1217930D01*
D02*
G37*
G36*
X481330D02*
X477130D01*
X477903Y1216062D01*
X479462Y1214503D01*
X481330Y1213730D01*
Y1217930D01*
D02*
G37*
G36*
X437270D02*
X433070D01*
Y1213730D01*
X434938Y1214503D01*
X436497Y1216062D01*
X437270Y1217930D01*
D02*
G37*
G36*
X430530D02*
X426330D01*
X427103Y1216062D01*
X428662Y1214503D01*
X430530Y1213730D01*
Y1217930D01*
D02*
G37*
G36*
X386470D02*
X382270D01*
Y1213730D01*
X384138Y1214503D01*
X385697Y1216062D01*
X386470Y1217930D01*
D02*
G37*
G36*
X379730D02*
X375530D01*
X376303Y1216062D01*
X377862Y1214503D01*
X379730Y1213730D01*
Y1217930D01*
D02*
G37*
G36*
X524510Y1215854D02*
Y1211654D01*
X528710D01*
X527937Y1213522D01*
X526378Y1215080D01*
X524510Y1215854D01*
D02*
G37*
G36*
X521970D02*
X520102Y1215080D01*
X518543Y1213522D01*
X517770Y1211654D01*
X521970D01*
Y1215854D01*
D02*
G37*
G36*
X1011310Y1214120D02*
X1007110D01*
Y1209920D01*
X1008978Y1210693D01*
X1010537Y1212252D01*
X1011310Y1214120D01*
D02*
G37*
G36*
X1004570D02*
X1000370D01*
X1001143Y1212252D01*
X1002702Y1210693D01*
X1004570Y1209920D01*
Y1214120D01*
D02*
G37*
G36*
X648434Y1218373D02*
X646346D01*
X644416Y1217574D01*
X642939Y1216097D01*
X642140Y1214167D01*
Y1212079D01*
X642939Y1210149D01*
X644416Y1208672D01*
X646346Y1207873D01*
X648434D01*
X650364Y1208672D01*
X651841Y1210149D01*
X652640Y1212079D01*
Y1214167D01*
X651841Y1216097D01*
X650364Y1217574D01*
X648434Y1218373D01*
D02*
G37*
G36*
X601610Y1226980D02*
X591820D01*
X582030D01*
Y1219710D01*
X586197D01*
X586605Y1219097D01*
X586616Y1217574D01*
X585139Y1216097D01*
X584340Y1214167D01*
Y1212079D01*
X585139Y1210149D01*
X586616Y1208672D01*
X588546Y1207873D01*
X590634D01*
X592564Y1208672D01*
X594041Y1210149D01*
X594840Y1212079D01*
Y1214167D01*
X594415Y1215195D01*
X594958Y1217043D01*
X596517Y1218602D01*
X596976Y1219710D01*
X601610D01*
Y1226980D01*
D02*
G37*
G36*
X528710Y1209114D02*
X524510D01*
Y1204913D01*
X526378Y1205687D01*
X527937Y1207246D01*
X528710Y1209114D01*
D02*
G37*
G36*
X521970D02*
X517770D01*
X518543Y1207246D01*
X520102Y1205687D01*
X521970Y1204913D01*
Y1209114D01*
D02*
G37*
G36*
X374020Y1210956D02*
X371608Y1210310D01*
X369432Y1209054D01*
X367656Y1207278D01*
X366400Y1205102D01*
X365754Y1202690D01*
X374020D01*
Y1210956D01*
D02*
G37*
G36*
X661690Y1220684D02*
X659863Y1220443D01*
X658160Y1219738D01*
X656697Y1218616D01*
X655575Y1217153D01*
X654870Y1215451D01*
X654630Y1213623D01*
Y1202751D01*
X654348Y1202437D01*
X653238Y1201704D01*
X652638Y1201952D01*
Y1196482D01*
Y1191011D01*
X654507Y1191785D01*
X656065Y1193344D01*
X656908Y1195380D01*
Y1195800D01*
X658408Y1196406D01*
X659863Y1195803D01*
X661690Y1195563D01*
X663517Y1195803D01*
X665220Y1196509D01*
X666682Y1197631D01*
X667804Y1199093D01*
X668510Y1200796D01*
X668750Y1202623D01*
Y1213623D01*
X668510Y1215451D01*
X667804Y1217153D01*
X666682Y1218616D01*
X665220Y1219738D01*
X663517Y1220443D01*
X661690Y1220684D01*
D02*
G37*
G36*
X996950Y1203080D02*
Y1198880D01*
X1001150D01*
X1000377Y1200748D01*
X998818Y1202307D01*
X996950Y1203080D01*
D02*
G37*
G36*
X994410D02*
X992542Y1202307D01*
X990983Y1200748D01*
X990210Y1198880D01*
X994410D01*
Y1203080D01*
D02*
G37*
G36*
X650098Y1201952D02*
X648230Y1201178D01*
X646672Y1199620D01*
X645898Y1197752D01*
X650098D01*
Y1201952D01*
D02*
G37*
G36*
X586740Y1201810D02*
Y1197610D01*
X590940D01*
X590167Y1199478D01*
X588608Y1201037D01*
X586740Y1201810D01*
D02*
G37*
G36*
X888725Y1261180D02*
X886735D01*
X884898Y1260419D01*
X884078Y1259599D01*
X816610D01*
X815244Y1259327D01*
X814087Y1258553D01*
X711685Y1156151D01*
X710299Y1156725D01*
Y1159330D01*
X710144Y1160111D01*
X709702Y1160772D01*
X709040Y1161214D01*
X708260Y1161370D01*
X691260D01*
X690479Y1161214D01*
X689818Y1160772D01*
X689376Y1160111D01*
X689220Y1159330D01*
Y1153830D01*
X689376Y1153050D01*
X689818Y1152389D01*
X690479Y1151946D01*
X691260Y1151791D01*
X705365D01*
X705939Y1150406D01*
X662957Y1107423D01*
X662183Y1106266D01*
X661911Y1104900D01*
Y882650D01*
X662183Y881284D01*
X662957Y880127D01*
X699787Y843297D01*
X700944Y842523D01*
X702310Y842251D01*
X708630D01*
X709220Y840751D01*
X708231Y839762D01*
X707470Y837925D01*
Y836977D01*
X699787Y829293D01*
X699013Y828136D01*
X698741Y826770D01*
Y779780D01*
X699013Y778414D01*
X699787Y777257D01*
X723917Y753127D01*
X725074Y752353D01*
X726440Y752081D01*
X990600D01*
X991966Y752353D01*
X993123Y753127D01*
X1052239Y812243D01*
X1053013Y813400D01*
X1053055Y813614D01*
X1053122Y813641D01*
X1054529Y815048D01*
X1055290Y816885D01*
Y818875D01*
X1054529Y820712D01*
X1053122Y822119D01*
X1051285Y822880D01*
X1049295D01*
X1047458Y822119D01*
X1046051Y820712D01*
X1045290Y818875D01*
Y816885D01*
X1045729Y815826D01*
X989122Y759219D01*
X727918D01*
X705879Y781258D01*
Y825292D01*
X712517Y831930D01*
X713465D01*
X714843Y832501D01*
X715693Y831229D01*
X709947Y825483D01*
X709173Y824326D01*
X708901Y822960D01*
Y782320D01*
X709173Y780954D01*
X709947Y779797D01*
X727727Y762017D01*
X728884Y761243D01*
X730250Y760971D01*
X984250D01*
X985616Y761243D01*
X986773Y762017D01*
X1037637Y812880D01*
X1038585D01*
X1040422Y813641D01*
X1041829Y815048D01*
X1042590Y816885D01*
Y818875D01*
X1041829Y820712D01*
X1040422Y822119D01*
X1038585Y822880D01*
X1036595D01*
X1034758Y822119D01*
X1033351Y820712D01*
X1032590Y818875D01*
Y817927D01*
X982772Y768109D01*
X731728D01*
X716039Y783798D01*
Y821482D01*
X734739Y840183D01*
X735513Y841340D01*
X735555Y841553D01*
X735622Y841581D01*
X737029Y842988D01*
X737790Y844825D01*
Y846815D01*
X737029Y848652D01*
X735622Y850059D01*
X735551Y850088D01*
Y851712D01*
X735622Y851741D01*
X737029Y853148D01*
X737790Y854985D01*
Y856975D01*
X737029Y858812D01*
X735622Y860219D01*
X733785Y860980D01*
X731795D01*
X729958Y860219D01*
X729287Y859549D01*
X716943D01*
X716140Y861049D01*
X716670Y862330D01*
X705730D01*
X705773Y862225D01*
X704501Y861375D01*
X679209Y886668D01*
Y1013517D01*
X680709Y1013815D01*
X681103Y1012862D01*
X682662Y1011303D01*
X684530Y1010530D01*
Y1016000D01*
Y1021470D01*
X682662Y1020697D01*
X681103Y1019138D01*
X680709Y1018185D01*
X679209Y1018483D01*
Y1102152D01*
X756218Y1179161D01*
X757587Y1178567D01*
X757652Y1178474D01*
X757416Y1177290D01*
Y1163126D01*
X755942Y1162479D01*
X754105Y1163240D01*
X752115D01*
X750278Y1162479D01*
X748871Y1161072D01*
X748110Y1159235D01*
Y1157245D01*
X748871Y1155408D01*
X750278Y1154001D01*
X752115Y1153240D01*
X754105D01*
X755942Y1154001D01*
X757416Y1153354D01*
Y1128977D01*
X756491Y1128052D01*
X755730Y1126215D01*
Y1124225D01*
X756491Y1122388D01*
X757898Y1120981D01*
X759735Y1120220D01*
X761725D01*
X763562Y1120981D01*
X764969Y1122388D01*
X765730Y1124225D01*
Y1126215D01*
X764969Y1128052D01*
X764894Y1128127D01*
X764875Y1128392D01*
X765347Y1128732D01*
X766548Y1128841D01*
X766788Y1128601D01*
X768625Y1127840D01*
X770615D01*
X772452Y1128601D01*
X772692Y1128841D01*
X773894Y1128732D01*
X774364Y1128392D01*
X774346Y1128127D01*
X774271Y1128052D01*
X773510Y1126215D01*
Y1124225D01*
X774271Y1122388D01*
X775678Y1120981D01*
X777515Y1120220D01*
X779505D01*
X781342Y1120981D01*
X782749Y1122388D01*
X783510Y1124225D01*
Y1126215D01*
X782749Y1128052D01*
X782674Y1128127D01*
X782655Y1128392D01*
X783127Y1128732D01*
X784328Y1128841D01*
X784568Y1128601D01*
X786405Y1127840D01*
X788395D01*
X789210Y1128178D01*
X790358Y1127029D01*
X790020Y1126215D01*
Y1124225D01*
X790781Y1122388D01*
X792188Y1120981D01*
X794025Y1120220D01*
X796015D01*
X797852Y1120981D01*
X799259Y1122388D01*
X800020Y1124225D01*
Y1126215D01*
X799259Y1128052D01*
X798334Y1128977D01*
Y1149824D01*
X798081Y1151092D01*
X797363Y1152167D01*
X797064Y1152466D01*
Y1165452D01*
X798564Y1166106D01*
X800100Y1165470D01*
Y1170940D01*
X801370D01*
Y1172210D01*
X806840D01*
X806067Y1174078D01*
X804508Y1175637D01*
X802472Y1176480D01*
X802288D01*
X801666Y1177980D01*
X839573Y1215886D01*
X840793D01*
X841718Y1214961D01*
X843555Y1214200D01*
X845545D01*
X847382Y1214961D01*
X848789Y1216368D01*
X849550Y1218205D01*
Y1220195D01*
X849326Y1220736D01*
X850328Y1222236D01*
X882911D01*
X883745Y1220989D01*
X883530Y1220470D01*
X889000D01*
Y1219200D01*
X890270D01*
Y1213730D01*
X892138Y1214503D01*
X892660Y1215025D01*
X894160Y1214404D01*
Y1213125D01*
X894921Y1211288D01*
X896328Y1209881D01*
X898165Y1209120D01*
X900155D01*
X901992Y1209881D01*
X902077Y1209966D01*
X906776Y1205268D01*
X906042Y1203880D01*
X904515D01*
X902678Y1203119D01*
X902008Y1202449D01*
X844550D01*
X843184Y1202177D01*
X842027Y1201403D01*
X810277Y1169653D01*
X809503Y1168496D01*
X809231Y1167130D01*
Y1091243D01*
X807731Y1091095D01*
X807659Y1091459D01*
X806941Y1092534D01*
X785882Y1113593D01*
X784807Y1114311D01*
X783539Y1114564D01*
X744167D01*
X743242Y1115489D01*
X741405Y1116250D01*
X739415D01*
X737578Y1115489D01*
X736171Y1114082D01*
X735410Y1112245D01*
Y1110255D01*
X736171Y1108418D01*
X737578Y1107011D01*
X739068Y1106394D01*
X739496Y1105276D01*
X739539Y1104750D01*
X738711Y1103922D01*
X737950Y1102085D01*
Y1100095D01*
X738711Y1098258D01*
X740118Y1096851D01*
X741945Y1096094D01*
X741962Y1096052D01*
X742234Y1094590D01*
X741663Y1094354D01*
X740257Y1092947D01*
X739496Y1091109D01*
Y1089120D01*
X740257Y1087283D01*
X741635Y1085905D01*
X741601Y1085729D01*
X741079Y1084500D01*
X739415D01*
X737578Y1083739D01*
X736171Y1082332D01*
X735410Y1080495D01*
Y1078505D01*
X736171Y1076668D01*
X736841Y1075997D01*
Y1072591D01*
X732993D01*
Y1058469D01*
X747581D01*
Y1072591D01*
X743979D01*
Y1075997D01*
X744649Y1076668D01*
X745410Y1078505D01*
Y1080495D01*
X744649Y1082332D01*
X743271Y1083710D01*
X743305Y1083886D01*
X743826Y1085115D01*
X745490D01*
X747328Y1085876D01*
X747798Y1086346D01*
X766977D01*
X769738Y1083586D01*
X770813Y1082868D01*
X772081Y1082615D01*
X782523D01*
X783670Y1081765D01*
Y1079775D01*
X784431Y1077938D01*
X785838Y1076531D01*
X787675Y1075770D01*
X789665D01*
X791502Y1076531D01*
X792909Y1077938D01*
X793670Y1079775D01*
Y1081170D01*
X794836Y1082147D01*
X795056Y1082219D01*
X795295Y1082120D01*
X797285D01*
X798529Y1082635D01*
X799927Y1081882D01*
X800029Y1081757D01*
Y1081197D01*
X800790Y1079359D01*
X802197Y1077952D01*
X804034Y1077191D01*
X806023D01*
X806393Y1077344D01*
X808133Y1076441D01*
X808201Y1076138D01*
X806242Y1074179D01*
X792480D01*
X791114Y1073907D01*
X789957Y1073133D01*
X752160Y1035337D01*
X751386Y1034179D01*
X751115Y1032813D01*
Y1014119D01*
X750444Y1013449D01*
X749683Y1011611D01*
Y1009622D01*
X750444Y1007785D01*
X751851Y1006378D01*
X753689Y1005617D01*
X755678D01*
X757515Y1006378D01*
X757612Y1006474D01*
X759344D01*
X759660Y1005990D01*
X758847Y1004490D01*
X758465D01*
X756628Y1003729D01*
X755957Y1003059D01*
X743391D01*
X741354Y1005096D01*
Y1014171D01*
X726766D01*
Y1000049D01*
X736307D01*
X739390Y996967D01*
X740547Y996193D01*
X741913Y995921D01*
X744321D01*
X744945Y994421D01*
X744300Y992865D01*
Y990875D01*
X745061Y989038D01*
X744779Y987611D01*
X744779D01*
Y973024D01*
X758901D01*
Y987611D01*
X754233D01*
X753539Y989038D01*
X754300Y990875D01*
Y992865D01*
X753655Y994421D01*
X754279Y995921D01*
X755957D01*
X756628Y995251D01*
X758465Y994490D01*
X760277D01*
X760795Y993921D01*
X761234Y993189D01*
X760971Y991870D01*
Y858218D01*
X761243Y856852D01*
X762017Y855694D01*
X768591Y849119D01*
Y833583D01*
X768367Y833358D01*
X767593Y832200D01*
X767321Y830835D01*
Y815033D01*
X766651Y814362D01*
X765890Y812525D01*
Y810535D01*
X766651Y808698D01*
X768058Y807291D01*
X769895Y806530D01*
X771885D01*
X773722Y807291D01*
X775129Y808698D01*
X775890Y810535D01*
Y812525D01*
X775129Y814362D01*
X774459Y815033D01*
Y829357D01*
X774683Y829581D01*
X775457Y830739D01*
X775729Y832105D01*
Y850598D01*
X775457Y851963D01*
X774683Y853121D01*
X769003Y858801D01*
X769056Y859342D01*
X769770Y860360D01*
Y866140D01*
X772310D01*
Y860670D01*
X774178Y861443D01*
X775737Y863002D01*
X775978Y863584D01*
X777449Y863877D01*
X782561Y858764D01*
Y818842D01*
X781891Y818172D01*
X781130Y816335D01*
Y814345D01*
X781891Y812508D01*
X783298Y811101D01*
X785135Y810340D01*
X787125D01*
X788962Y811101D01*
X790369Y812508D01*
X791130Y814345D01*
Y816335D01*
X790369Y818172D01*
X789699Y818842D01*
Y860242D01*
X789427Y861608D01*
X788653Y862766D01*
X775729Y875691D01*
Y940862D01*
X779791Y944925D01*
X781291Y944303D01*
Y939492D01*
X780621Y938822D01*
X779860Y936985D01*
Y934995D01*
X780621Y933158D01*
X782028Y931751D01*
X783865Y930990D01*
X785855D01*
X787692Y931751D01*
X789099Y933158D01*
X789860Y934995D01*
Y936985D01*
X789099Y938822D01*
X788429Y939492D01*
Y942018D01*
X788634Y942155D01*
X790454Y941567D01*
X790781Y940778D01*
X791706Y939853D01*
Y928565D01*
X791959Y927296D01*
X792677Y926221D01*
X794141Y924757D01*
X795216Y924039D01*
X796485Y923786D01*
X797886D01*
Y920039D01*
X812474D01*
Y934161D01*
X798334D01*
Y939853D01*
X799259Y940778D01*
X800020Y942615D01*
Y944605D01*
X799259Y946442D01*
X797852Y947849D01*
X796794Y948287D01*
X796154Y949937D01*
X796165Y950048D01*
X796481Y950519D01*
X804977D01*
Y959860D01*
X806362Y960434D01*
X807924Y958873D01*
Y950519D01*
X816510D01*
X823223Y943807D01*
X822373Y942535D01*
X821690Y942818D01*
Y937347D01*
X820420D01*
Y936077D01*
X814950D01*
X815275Y935291D01*
X814881Y934701D01*
X814881D01*
Y928370D01*
X822714D01*
Y927100D01*
X823984D01*
Y919499D01*
X830548D01*
Y923379D01*
X831808Y923901D01*
X833367Y925459D01*
X834140Y927327D01*
X828670D01*
Y929867D01*
X834140D01*
X833504Y931404D01*
X834775Y932254D01*
X848092Y918938D01*
Y778963D01*
X847931Y778802D01*
X847170Y776965D01*
Y774975D01*
X847931Y773138D01*
X849338Y771731D01*
X851175Y770970D01*
X853165D01*
X855002Y771731D01*
X856409Y773138D01*
X857170Y774975D01*
Y776965D01*
X856409Y778802D01*
X856248Y778963D01*
Y920627D01*
X856248Y920627D01*
X855938Y922188D01*
X855054Y923511D01*
X855054Y923511D01*
X825033Y953532D01*
X825883Y954803D01*
X826619Y954498D01*
Y959969D01*
X829159D01*
Y954498D01*
X831027Y955272D01*
X832585Y956831D01*
X833429Y958867D01*
Y958993D01*
X834929Y959614D01*
X862347Y932197D01*
X863504Y931423D01*
X864870Y931151D01*
X869742D01*
X940319Y860574D01*
X939880Y859515D01*
Y857525D01*
X940641Y855688D01*
X942048Y854281D01*
X943885Y853520D01*
X945875D01*
X947712Y854281D01*
X948382Y854951D01*
X1053138D01*
X1053808Y854281D01*
X1055645Y853520D01*
X1057635D01*
X1059472Y854281D01*
X1060879Y855688D01*
X1061640Y857525D01*
Y858804D01*
X1063140Y859425D01*
X1063662Y858903D01*
X1065530Y858130D01*
Y863600D01*
Y869070D01*
X1063662Y868297D01*
X1062103Y866738D01*
X1061260Y864702D01*
Y863092D01*
X1059779Y862452D01*
X1059472Y862759D01*
X1057635Y863520D01*
X1055645D01*
X1053808Y862759D01*
X1053138Y862089D01*
X948382D01*
X947712Y862759D01*
X947645Y862786D01*
X947603Y863000D01*
X946829Y864157D01*
X873743Y937243D01*
X872586Y938017D01*
X871220Y938289D01*
X866348D01*
X815264Y989373D01*
X815917Y990841D01*
X843280D01*
X844646Y991113D01*
X845803Y991887D01*
X853648Y999731D01*
X890240D01*
X890830Y998231D01*
X889841Y997242D01*
X889080Y995405D01*
Y993415D01*
X889841Y991578D01*
X890511Y990908D01*
Y956461D01*
X889383Y955332D01*
X888622Y953495D01*
Y951505D01*
X889383Y949668D01*
X890789Y948261D01*
X892627Y947500D01*
X894616D01*
X896454Y948261D01*
X897861Y949668D01*
X898622Y951505D01*
Y953495D01*
X897861Y955332D01*
X897649Y955544D01*
Y990908D01*
X898319Y991578D01*
X899080Y993415D01*
Y995405D01*
X898319Y997242D01*
X897330Y998231D01*
X897920Y999731D01*
X902940D01*
X903530Y998231D01*
X902541Y997242D01*
X901780Y995405D01*
Y993415D01*
X902541Y991578D01*
X903211Y990908D01*
Y944573D01*
X902541Y943902D01*
X901780Y942065D01*
Y940075D01*
X902541Y938238D01*
X903948Y936831D01*
X905785Y936070D01*
X907775D01*
X909612Y936831D01*
X911019Y938238D01*
X911780Y940075D01*
Y942065D01*
X911019Y943902D01*
X910349Y944573D01*
Y990908D01*
X911019Y991578D01*
X911780Y993415D01*
Y995405D01*
X911019Y997242D01*
X910030Y998231D01*
X910620Y999731D01*
X915640D01*
X916230Y998231D01*
X915241Y997242D01*
X914480Y995405D01*
Y993415D01*
X915241Y991578D01*
X915911Y990908D01*
Y933142D01*
X915241Y932472D01*
X914480Y930635D01*
Y928645D01*
X915241Y926808D01*
X916648Y925401D01*
X918485Y924640D01*
X920475D01*
X922312Y925401D01*
X923719Y926808D01*
X924480Y928645D01*
Y930635D01*
X923719Y932472D01*
X923049Y933142D01*
Y990908D01*
X923719Y991578D01*
X924480Y993415D01*
Y995405D01*
X923719Y997242D01*
X922730Y998231D01*
X923320Y999731D01*
X928340D01*
X928930Y998231D01*
X927941Y997242D01*
X927180Y995405D01*
Y993415D01*
X927941Y991578D01*
X928611Y990908D01*
Y921712D01*
X927941Y921042D01*
X927180Y919205D01*
Y917215D01*
X927941Y915378D01*
X929348Y913971D01*
X931185Y913210D01*
X933175D01*
X935012Y913971D01*
X936419Y915378D01*
X937180Y917215D01*
Y919205D01*
X936419Y921042D01*
X935749Y921712D01*
Y990908D01*
X936419Y991578D01*
X937180Y993415D01*
Y995405D01*
X936419Y997242D01*
X935430Y998231D01*
X936020Y999731D01*
X941040D01*
X941630Y998231D01*
X940641Y997242D01*
X939880Y995405D01*
Y993415D01*
X940641Y991578D01*
X941311Y990908D01*
Y912068D01*
X937213Y907970D01*
X936265D01*
X934428Y907209D01*
X933021Y905802D01*
X932260Y903965D01*
Y901975D01*
X933021Y900138D01*
X934428Y898731D01*
X936265Y897970D01*
X938255D01*
X940092Y898731D01*
X941499Y900138D01*
X942260Y901975D01*
Y902923D01*
X947403Y908067D01*
X948177Y909224D01*
X948449Y910590D01*
Y990908D01*
X949119Y991578D01*
X949880Y993415D01*
Y995405D01*
X949119Y997242D01*
X948695Y997666D01*
X949231Y999252D01*
X950112Y999371D01*
X960361Y989122D01*
Y960120D01*
X960633Y958754D01*
X961407Y957597D01*
X1040133Y878871D01*
X1041290Y878097D01*
X1042656Y877825D01*
X1043299D01*
X1045290Y875835D01*
Y875305D01*
X1046051Y873468D01*
X1047458Y872061D01*
X1049295Y871300D01*
X1051285D01*
X1053122Y872061D01*
X1054529Y873468D01*
X1055290Y875305D01*
Y877295D01*
X1054529Y879132D01*
X1053122Y880539D01*
X1051285Y881300D01*
X1049918D01*
X1047301Y883917D01*
X1046143Y884691D01*
X1044777Y884962D01*
X1044134D01*
X967499Y961598D01*
Y990600D01*
X967227Y991966D01*
X966453Y993123D01*
X953753Y1005823D01*
X952596Y1006597D01*
X951230Y1006869D01*
X852170D01*
X850804Y1006597D01*
X849647Y1005823D01*
X849647Y1005823D01*
X841802Y997979D01*
X821720D01*
X821130Y999479D01*
X822119Y1000468D01*
X822880Y1002305D01*
Y1003253D01*
X830563Y1010937D01*
X831337Y1012094D01*
X831609Y1013460D01*
Y1099612D01*
X916923Y1184927D01*
X917697Y1186084D01*
X917969Y1187450D01*
Y1202690D01*
X917697Y1204056D01*
X916923Y1205213D01*
X916257Y1205879D01*
X917107Y1207151D01*
X918485Y1206580D01*
X920475D01*
X922312Y1207341D01*
X923719Y1208748D01*
X923770Y1208871D01*
X925288Y1209209D01*
X926326Y1208313D01*
Y1205177D01*
X925401Y1204252D01*
X924640Y1202415D01*
Y1200425D01*
X925401Y1198588D01*
X926808Y1197181D01*
X928645Y1196420D01*
X930635D01*
X932472Y1197181D01*
X933879Y1198588D01*
X934640Y1200425D01*
Y1202415D01*
X933879Y1204252D01*
X932954Y1205177D01*
Y1210259D01*
X932931Y1210371D01*
X934314Y1211110D01*
X937340Y1208084D01*
Y1206775D01*
X938101Y1204938D01*
X939508Y1203531D01*
X941345Y1202770D01*
X943335D01*
X945172Y1203531D01*
X946579Y1204938D01*
X946762Y1205379D01*
X948531Y1205731D01*
X950570Y1203693D01*
X950040Y1202415D01*
Y1200425D01*
X950801Y1198588D01*
X952208Y1197181D01*
X954045Y1196420D01*
X956035D01*
X957872Y1197181D01*
X959279Y1198588D01*
X960040Y1200425D01*
Y1202415D01*
X959279Y1204252D01*
X957872Y1205659D01*
X957433Y1205841D01*
X957432Y1205847D01*
X956713Y1206922D01*
X916692Y1246943D01*
X915617Y1247661D01*
X914349Y1247914D01*
X909126D01*
X908479Y1249388D01*
X909240Y1251225D01*
Y1253215D01*
X908479Y1255052D01*
X907072Y1256459D01*
X905235Y1257220D01*
X903245D01*
X901408Y1256459D01*
X900001Y1255052D01*
X899254Y1253249D01*
X893551D01*
X892549Y1254749D01*
X892730Y1255185D01*
Y1257175D01*
X891969Y1259012D01*
X890562Y1260419D01*
X888725Y1261180D01*
D02*
G37*
G36*
X464290Y1210420D02*
X446290D01*
Y1192420D01*
X464290D01*
Y1210420D01*
D02*
G37*
G36*
X436475D02*
X434105D01*
X431816Y1209807D01*
X429764Y1208622D01*
X428088Y1206946D01*
X426903Y1204894D01*
X426290Y1202605D01*
Y1200235D01*
X426903Y1197946D01*
X428088Y1195894D01*
X429764Y1194218D01*
X431816Y1193033D01*
X434105Y1192420D01*
X436475D01*
X438764Y1193033D01*
X440816Y1194218D01*
X442492Y1195894D01*
X443677Y1197946D01*
X444290Y1200235D01*
Y1202605D01*
X443677Y1204894D01*
X442492Y1206946D01*
X440816Y1208622D01*
X438764Y1209807D01*
X436475Y1210420D01*
D02*
G37*
G36*
X416475D02*
X414105D01*
X411816Y1209807D01*
X409764Y1208622D01*
X408088Y1206946D01*
X406903Y1204894D01*
X406290Y1202605D01*
Y1200235D01*
X406903Y1197946D01*
X408088Y1195894D01*
X409764Y1194218D01*
X411816Y1193033D01*
X414105Y1192420D01*
X416475D01*
X418764Y1193033D01*
X420816Y1194218D01*
X422492Y1195894D01*
X423677Y1197946D01*
X424290Y1200235D01*
Y1202605D01*
X423677Y1204894D01*
X422492Y1206946D01*
X420816Y1208622D01*
X418764Y1209807D01*
X416475Y1210420D01*
D02*
G37*
G36*
X376560Y1210956D02*
Y1201420D01*
Y1191884D01*
X378972Y1192530D01*
X381148Y1193786D01*
X382924Y1195562D01*
X384180Y1197738D01*
X384830Y1200164D01*
X386290Y1200235D01*
X386903Y1197946D01*
X388088Y1195894D01*
X389764Y1194218D01*
X391816Y1193033D01*
X394105Y1192420D01*
X396475D01*
X398764Y1193033D01*
X400816Y1194218D01*
X402492Y1195894D01*
X403677Y1197946D01*
X404290Y1200235D01*
Y1202605D01*
X403677Y1204894D01*
X402492Y1206946D01*
X400816Y1208622D01*
X398764Y1209807D01*
X396475Y1210420D01*
X394105D01*
X391816Y1209807D01*
X389764Y1208622D01*
X388088Y1206946D01*
X386903Y1204894D01*
X386290Y1202605D01*
X384830Y1202676D01*
X384180Y1205102D01*
X382924Y1207278D01*
X381148Y1209054D01*
X378972Y1210310D01*
X376560Y1210956D01*
D02*
G37*
G36*
X1001150Y1196340D02*
X996950D01*
Y1192140D01*
X998818Y1192913D01*
X1000377Y1194472D01*
X1001150Y1196340D01*
D02*
G37*
G36*
X994410D02*
X990210D01*
X990983Y1194472D01*
X992542Y1192913D01*
X994410Y1192140D01*
Y1196340D01*
D02*
G37*
G36*
X374020Y1200150D02*
X365754D01*
X366400Y1197738D01*
X367656Y1195562D01*
X369432Y1193786D01*
X371608Y1192530D01*
X374020Y1191884D01*
Y1200150D01*
D02*
G37*
G36*
X650098Y1195212D02*
X645898D01*
X646672Y1193344D01*
X648230Y1191785D01*
X650098Y1191011D01*
Y1195212D01*
D02*
G37*
G36*
X1247119Y1251200D02*
X1242082D01*
X1237107Y1250412D01*
X1232316Y1248856D01*
X1227828Y1246569D01*
X1223753Y1243608D01*
X1220192Y1240047D01*
X1217231Y1235972D01*
X1214944Y1231484D01*
X1213388Y1226693D01*
X1212600Y1221719D01*
Y1216682D01*
X1213388Y1211707D01*
X1214944Y1206916D01*
X1217231Y1202428D01*
X1220192Y1198353D01*
X1223753Y1194792D01*
X1227828Y1191831D01*
X1232316Y1189544D01*
X1237107Y1187988D01*
X1242082Y1187200D01*
X1247119D01*
X1252093Y1187988D01*
X1256884Y1189544D01*
X1261372Y1191831D01*
X1265447Y1194792D01*
X1269008Y1198353D01*
X1271969Y1202428D01*
X1274256Y1206916D01*
X1275812Y1211707D01*
X1276600Y1216682D01*
Y1221719D01*
X1275812Y1226693D01*
X1274256Y1231484D01*
X1271969Y1235972D01*
X1269008Y1240047D01*
X1265447Y1243608D01*
X1261372Y1246569D01*
X1256884Y1248856D01*
X1252093Y1250412D01*
X1247119Y1251200D01*
D02*
G37*
G36*
X307318D02*
X302281D01*
X297307Y1250412D01*
X292516Y1248856D01*
X288028Y1246569D01*
X283953Y1243608D01*
X280392Y1240047D01*
X277431Y1235972D01*
X275144Y1231484D01*
X273588Y1226693D01*
X272800Y1221719D01*
Y1216682D01*
X273588Y1211707D01*
X275144Y1206916D01*
X277431Y1202428D01*
X280392Y1198353D01*
X283953Y1194792D01*
X288028Y1191831D01*
X292516Y1189544D01*
X297307Y1187988D01*
X302281Y1187200D01*
X307318D01*
X312293Y1187988D01*
X317084Y1189544D01*
X321572Y1191831D01*
X325647Y1194792D01*
X329208Y1198353D01*
X332169Y1202428D01*
X334456Y1206916D01*
X336012Y1211707D01*
X336800Y1216682D01*
Y1221719D01*
X336012Y1226693D01*
X334456Y1231484D01*
X332169Y1235972D01*
X329208Y1240047D01*
X325647Y1243608D01*
X321572Y1246569D01*
X317084Y1248856D01*
X312293Y1250412D01*
X307318Y1251200D01*
D02*
G37*
G36*
X553445Y1238096D02*
X551455D01*
X549618Y1237335D01*
X548211Y1235928D01*
X547450Y1234091D01*
Y1232102D01*
X548211Y1230264D01*
X549618Y1228857D01*
X551455Y1228096D01*
X552764D01*
X559296Y1221564D01*
Y1196340D01*
X559549Y1195072D01*
X560267Y1193997D01*
X566617Y1187647D01*
X567335Y1187167D01*
X566855Y1185684D01*
X565253D01*
X555764Y1195173D01*
Y1206626D01*
X556689Y1207552D01*
X557450Y1209389D01*
Y1211378D01*
X556689Y1213216D01*
X555282Y1214623D01*
X553445Y1215384D01*
X551455D01*
X549618Y1214623D01*
X548211Y1213216D01*
X547450Y1211378D01*
Y1209389D01*
X548211Y1207552D01*
X549136Y1206626D01*
Y1193800D01*
X549389Y1192532D01*
X550107Y1191457D01*
X561537Y1180027D01*
X562612Y1179309D01*
X563880Y1179056D01*
X603303D01*
X604228Y1178131D01*
X606065Y1177370D01*
X608055D01*
X609892Y1178131D01*
X611299Y1179538D01*
X612060Y1181375D01*
Y1183365D01*
X611299Y1185202D01*
X611946Y1186676D01*
X630913D01*
X632091Y1186911D01*
X632583Y1186707D01*
X634572D01*
X636409Y1187468D01*
X637816Y1188875D01*
X638577Y1190713D01*
Y1192702D01*
X637816Y1194539D01*
X636409Y1195946D01*
X634572Y1196707D01*
X632583D01*
X630745Y1195946D01*
X629338Y1194539D01*
X628826Y1193304D01*
X591559D01*
X590725Y1194551D01*
X590940Y1195070D01*
X585470D01*
Y1196340D01*
X584200D01*
Y1201810D01*
X583731Y1201616D01*
X582350Y1202623D01*
Y1213623D01*
X582110Y1215451D01*
X581404Y1217153D01*
X580283Y1218616D01*
X578820Y1219738D01*
X577117Y1220443D01*
X575290Y1220684D01*
X573463Y1220443D01*
X571760Y1219738D01*
X570298Y1218616D01*
X569175Y1217153D01*
X568470Y1215451D01*
X568230Y1213623D01*
Y1202623D01*
X568470Y1200796D01*
X569175Y1199093D01*
X570298Y1197631D01*
X571760Y1196509D01*
X573463Y1195803D01*
X575290Y1195563D01*
X577117Y1195803D01*
X578265Y1196279D01*
X579656Y1195614D01*
X579943Y1194571D01*
X579020Y1193304D01*
X570333D01*
X565924Y1197712D01*
Y1222936D01*
X565671Y1224204D01*
X564953Y1225279D01*
X557450Y1232782D01*
Y1234091D01*
X556689Y1235928D01*
X555282Y1237335D01*
X553445Y1238096D01*
D02*
G37*
G36*
X643615Y1188640D02*
X641625D01*
X639788Y1187879D01*
X638381Y1186472D01*
X637620Y1184635D01*
Y1182645D01*
X638381Y1180808D01*
X639788Y1179401D01*
X641625Y1178640D01*
X643615D01*
X645452Y1179401D01*
X646859Y1180808D01*
X647620Y1182645D01*
Y1184635D01*
X646859Y1186472D01*
X645452Y1187879D01*
X643615Y1188640D01*
D02*
G37*
G36*
X551180Y1182760D02*
Y1178560D01*
X555380D01*
X554607Y1180428D01*
X553048Y1181987D01*
X551180Y1182760D01*
D02*
G37*
G36*
X548640D02*
X546772Y1181987D01*
X545213Y1180428D01*
X544440Y1178560D01*
X548640D01*
Y1182760D01*
D02*
G37*
G36*
X506455Y1184830D02*
X504465D01*
X502628Y1184069D01*
X501221Y1182662D01*
X500460Y1180825D01*
Y1178835D01*
X501221Y1176998D01*
X502628Y1175591D01*
X504465Y1174830D01*
X506455D01*
X508292Y1175591D01*
X509699Y1176998D01*
X510460Y1178835D01*
Y1180825D01*
X509699Y1182662D01*
X508292Y1184069D01*
X506455Y1184830D01*
D02*
G37*
G36*
X490220Y1176410D02*
Y1172210D01*
X494420D01*
X493647Y1174078D01*
X492088Y1175637D01*
X490220Y1176410D01*
D02*
G37*
G36*
X487680D02*
X485812Y1175637D01*
X484253Y1174078D01*
X483480Y1172210D01*
X487680D01*
Y1176410D01*
D02*
G37*
G36*
X548640Y1176020D02*
X544440D01*
X545213Y1174152D01*
X546772Y1172593D01*
X548640Y1171820D01*
Y1176020D01*
D02*
G37*
G36*
X1220470Y1173870D02*
Y1169670D01*
X1224670D01*
X1223897Y1171538D01*
X1222338Y1173097D01*
X1220470Y1173870D01*
D02*
G37*
G36*
X1217930D02*
X1216062Y1173097D01*
X1214503Y1171538D01*
X1213730Y1169670D01*
X1217930D01*
Y1173870D01*
D02*
G37*
G36*
X1169670D02*
Y1169670D01*
X1173870D01*
X1173097Y1171538D01*
X1171538Y1173097D01*
X1169670Y1173870D01*
D02*
G37*
G36*
X1167130D02*
X1165262Y1173097D01*
X1163703Y1171538D01*
X1162930Y1169670D01*
X1167130D01*
Y1173870D01*
D02*
G37*
G36*
X1068070D02*
Y1169670D01*
X1072270D01*
X1071497Y1171538D01*
X1069938Y1173097D01*
X1068070Y1173870D01*
D02*
G37*
G36*
X1065530D02*
X1063662Y1173097D01*
X1062103Y1171538D01*
X1061330Y1169670D01*
X1065530D01*
Y1173870D01*
D02*
G37*
G36*
X1017270D02*
Y1169670D01*
X1021470D01*
X1020697Y1171538D01*
X1019138Y1173097D01*
X1017270Y1173870D01*
D02*
G37*
G36*
X1014730D02*
X1012862Y1173097D01*
X1011303Y1171538D01*
X1010530Y1169670D01*
X1014730D01*
Y1173870D01*
D02*
G37*
G36*
X966470D02*
Y1169670D01*
X970670D01*
X969897Y1171538D01*
X968338Y1173097D01*
X966470Y1173870D01*
D02*
G37*
G36*
X963930D02*
X962062Y1173097D01*
X960503Y1171538D01*
X959730Y1169670D01*
X963930D01*
Y1173870D01*
D02*
G37*
G36*
X915670D02*
Y1169670D01*
X919870D01*
X919097Y1171538D01*
X917538Y1173097D01*
X915670Y1173870D01*
D02*
G37*
G36*
X913130D02*
X911262Y1173097D01*
X909703Y1171538D01*
X908930Y1169670D01*
X913130D01*
Y1173870D01*
D02*
G37*
G36*
X610870D02*
Y1169670D01*
X615070D01*
X614297Y1171538D01*
X612738Y1173097D01*
X610870Y1173870D01*
D02*
G37*
G36*
X608330D02*
X606462Y1173097D01*
X604903Y1171538D01*
X604130Y1169670D01*
X608330D01*
Y1173870D01*
D02*
G37*
G36*
X560070D02*
Y1169670D01*
X564270D01*
X563497Y1171538D01*
X561938Y1173097D01*
X560070Y1173870D01*
D02*
G37*
G36*
X555380Y1176020D02*
X551180D01*
Y1171820D01*
X553048Y1172593D01*
X554103Y1171538D01*
X553330Y1169670D01*
X557530D01*
Y1173870D01*
X555662Y1173097D01*
X554607Y1174152D01*
X555380Y1176020D01*
D02*
G37*
G36*
X458470Y1173870D02*
Y1169670D01*
X462670D01*
X461897Y1171538D01*
X460338Y1173097D01*
X458470Y1173870D01*
D02*
G37*
G36*
X455930D02*
X454062Y1173097D01*
X452503Y1171538D01*
X451730Y1169670D01*
X455930D01*
Y1173870D01*
D02*
G37*
G36*
X306070D02*
Y1169670D01*
X310270D01*
X309497Y1171538D01*
X307938Y1173097D01*
X306070Y1173870D01*
D02*
G37*
G36*
X303530D02*
X301662Y1173097D01*
X300103Y1171538D01*
X299330Y1169670D01*
X303530D01*
Y1173870D01*
D02*
G37*
G36*
X580115Y1177210D02*
X578125D01*
X576288Y1176449D01*
X574881Y1175042D01*
X574120Y1173205D01*
Y1171215D01*
X574881Y1169378D01*
X576288Y1167971D01*
X578125Y1167210D01*
X580115D01*
X581952Y1167971D01*
X583359Y1169378D01*
X584120Y1171215D01*
Y1173205D01*
X583359Y1175042D01*
X581952Y1176449D01*
X580115Y1177210D01*
D02*
G37*
G36*
X806840Y1169670D02*
X802640D01*
Y1165470D01*
X804508Y1166243D01*
X806067Y1167802D01*
X806840Y1169670D01*
D02*
G37*
G36*
X494420D02*
X490220D01*
Y1165470D01*
X492088Y1166243D01*
X493647Y1167802D01*
X494420Y1169670D01*
D02*
G37*
G36*
X487680D02*
X483480D01*
X484253Y1167802D01*
X485812Y1166243D01*
X487680Y1165470D01*
Y1169670D01*
D02*
G37*
G36*
X1196340Y1167520D02*
Y1163320D01*
X1200540D01*
X1199767Y1165188D01*
X1198208Y1166747D01*
X1196340Y1167520D01*
D02*
G37*
G36*
X1193800D02*
X1191932Y1166747D01*
X1190373Y1165188D01*
X1189600Y1163320D01*
X1193800D01*
Y1167520D01*
D02*
G37*
G36*
X1122680D02*
Y1163320D01*
X1126880D01*
X1126107Y1165188D01*
X1124548Y1166747D01*
X1122680Y1167520D01*
D02*
G37*
G36*
X1120140D02*
X1118272Y1166747D01*
X1116713Y1165188D01*
X1115940Y1163320D01*
X1120140D01*
Y1167520D01*
D02*
G37*
G36*
X1224670Y1167130D02*
X1220470D01*
Y1162930D01*
X1222338Y1163703D01*
X1223897Y1165262D01*
X1224670Y1167130D01*
D02*
G37*
G36*
X1217930D02*
X1213730D01*
X1214503Y1165262D01*
X1216062Y1163703D01*
X1217930Y1162930D01*
Y1167130D01*
D02*
G37*
G36*
X1173870D02*
X1169670D01*
Y1162930D01*
X1171538Y1163703D01*
X1173097Y1165262D01*
X1173870Y1167130D01*
D02*
G37*
G36*
X1167130D02*
X1162930D01*
X1163703Y1165262D01*
X1165262Y1163703D01*
X1167130Y1162930D01*
Y1167130D01*
D02*
G37*
G36*
X1072270D02*
X1068070D01*
Y1162930D01*
X1069938Y1163703D01*
X1071497Y1165262D01*
X1072270Y1167130D01*
D02*
G37*
G36*
X1065530D02*
X1061330D01*
X1062103Y1165262D01*
X1063662Y1163703D01*
X1065530Y1162930D01*
Y1167130D01*
D02*
G37*
G36*
X1021470D02*
X1017270D01*
Y1162930D01*
X1019138Y1163703D01*
X1020697Y1165262D01*
X1021470Y1167130D01*
D02*
G37*
G36*
X1014730D02*
X1010530D01*
X1011303Y1165262D01*
X1012862Y1163703D01*
X1014730Y1162930D01*
Y1167130D01*
D02*
G37*
G36*
X970670D02*
X966470D01*
Y1162930D01*
X968338Y1163703D01*
X969897Y1165262D01*
X970670Y1167130D01*
D02*
G37*
G36*
X963930D02*
X959730D01*
X960503Y1165262D01*
X962062Y1163703D01*
X963930Y1162930D01*
Y1167130D01*
D02*
G37*
G36*
X919870D02*
X915670D01*
Y1162930D01*
X917538Y1163703D01*
X919097Y1165262D01*
X919870Y1167130D01*
D02*
G37*
G36*
X913130D02*
X908930D01*
X909703Y1165262D01*
X911262Y1163703D01*
X913130Y1162930D01*
Y1167130D01*
D02*
G37*
G36*
X615070D02*
X610870D01*
Y1162930D01*
X612738Y1163703D01*
X614297Y1165262D01*
X615070Y1167130D01*
D02*
G37*
G36*
X608330D02*
X604130D01*
X604903Y1165262D01*
X606462Y1163703D01*
X608330Y1162930D01*
Y1167130D01*
D02*
G37*
G36*
X564270D02*
X560070D01*
Y1162930D01*
X561938Y1163703D01*
X563497Y1165262D01*
X564270Y1167130D01*
D02*
G37*
G36*
X557530D02*
X553330D01*
X554103Y1165262D01*
X555662Y1163703D01*
X557530Y1162930D01*
Y1167130D01*
D02*
G37*
G36*
X462670D02*
X458470D01*
Y1162930D01*
X460338Y1163703D01*
X461897Y1165262D01*
X462670Y1167130D01*
D02*
G37*
G36*
X455930D02*
X451730D01*
X452503Y1165262D01*
X454062Y1163703D01*
X455930Y1162930D01*
Y1167130D01*
D02*
G37*
G36*
X310270D02*
X306070D01*
Y1162930D01*
X307938Y1163703D01*
X309497Y1165262D01*
X310270Y1167130D01*
D02*
G37*
G36*
X303530D02*
X299330D01*
X300103Y1165262D01*
X301662Y1163703D01*
X303530Y1162930D01*
Y1167130D01*
D02*
G37*
G36*
X1200540Y1160780D02*
X1196340D01*
Y1156580D01*
X1198208Y1157353D01*
X1199767Y1158912D01*
X1200540Y1160780D01*
D02*
G37*
G36*
X1193800D02*
X1189600D01*
X1190373Y1158912D01*
X1191932Y1157353D01*
X1193800Y1156580D01*
Y1160780D01*
D02*
G37*
G36*
X1126880D02*
X1122680D01*
Y1156580D01*
X1124548Y1157353D01*
X1126107Y1158912D01*
X1126880Y1160780D01*
D02*
G37*
G36*
X1120140D02*
X1115940D01*
X1116713Y1158912D01*
X1118272Y1157353D01*
X1120140Y1156580D01*
Y1160780D01*
D02*
G37*
G36*
X551180Y1159900D02*
Y1155700D01*
X555380D01*
X554607Y1157568D01*
X553048Y1159127D01*
X551180Y1159900D01*
D02*
G37*
G36*
X548640D02*
X546772Y1159127D01*
X545213Y1157568D01*
X544440Y1155700D01*
X548640D01*
Y1159900D01*
D02*
G37*
G36*
X427715Y1155620D02*
X425725D01*
X423888Y1154859D01*
X423218Y1154189D01*
X387043D01*
X386372Y1154859D01*
X384535Y1155620D01*
X382545D01*
X380708Y1154859D01*
X379301Y1153452D01*
X378540Y1151615D01*
Y1149625D01*
X379301Y1147788D01*
X380708Y1146381D01*
X382545Y1145620D01*
X384535D01*
X386372Y1146381D01*
X387043Y1147051D01*
X423218D01*
X423888Y1146381D01*
X425725Y1145620D01*
X427715D01*
X429552Y1146381D01*
X430959Y1147788D01*
X431720Y1149625D01*
Y1151615D01*
X430959Y1153452D01*
X429552Y1154859D01*
X427715Y1155620D01*
D02*
G37*
G36*
X740410Y1156090D02*
Y1151890D01*
X744610D01*
X743837Y1153758D01*
X742278Y1155317D01*
X740410Y1156090D01*
D02*
G37*
G36*
X737870D02*
X736002Y1155317D01*
X734443Y1153758D01*
X733670Y1151890D01*
X737870D01*
Y1156090D01*
D02*
G37*
G36*
X486410D02*
Y1151890D01*
X490610D01*
X489837Y1153758D01*
X488278Y1155317D01*
X486410Y1156090D01*
D02*
G37*
G36*
X483870D02*
X482002Y1155317D01*
X480443Y1153758D01*
X479670Y1151890D01*
X483870D01*
Y1156090D01*
D02*
G37*
G36*
X555380Y1153160D02*
X551180D01*
Y1148960D01*
X553048Y1149733D01*
X554607Y1151292D01*
X555380Y1153160D01*
D02*
G37*
G36*
X548640D02*
X544440D01*
X545213Y1151292D01*
X546772Y1149733D01*
X548640Y1148960D01*
Y1153160D01*
D02*
G37*
G36*
X744610Y1149350D02*
X740410D01*
Y1145150D01*
X742278Y1145923D01*
X743837Y1147482D01*
X744610Y1149350D01*
D02*
G37*
G36*
X737870D02*
X733670D01*
X734443Y1147482D01*
X736002Y1145923D01*
X737870Y1145150D01*
Y1149350D01*
D02*
G37*
G36*
X490610D02*
X486410D01*
Y1145150D01*
X488278Y1145923D01*
X489837Y1147482D01*
X490610Y1149350D01*
D02*
G37*
G36*
X483870D02*
X479670D01*
X480443Y1147482D01*
X482002Y1145923D01*
X483870Y1145150D01*
Y1149350D01*
D02*
G37*
G36*
X927100Y1145930D02*
Y1141730D01*
X931300D01*
X930527Y1143598D01*
X928968Y1145157D01*
X927100Y1145930D01*
D02*
G37*
G36*
X924560D02*
X922692Y1145157D01*
X921133Y1143598D01*
X920360Y1141730D01*
X924560D01*
Y1145930D01*
D02*
G37*
G36*
X911860D02*
Y1141730D01*
X916060D01*
X915287Y1143598D01*
X913728Y1145157D01*
X911860Y1145930D01*
D02*
G37*
G36*
X909320D02*
X907452Y1145157D01*
X905893Y1143598D01*
X905120Y1141730D01*
X909320D01*
Y1145930D01*
D02*
G37*
G36*
X506455Y1145460D02*
X504465D01*
X502628Y1144699D01*
X501221Y1143292D01*
X500460Y1141455D01*
Y1139465D01*
X501221Y1137628D01*
X502628Y1136221D01*
X504465Y1135460D01*
X506455D01*
X508292Y1136221D01*
X509699Y1137628D01*
X510460Y1139465D01*
Y1141455D01*
X509699Y1143292D01*
X508292Y1144699D01*
X506455Y1145460D01*
D02*
G37*
G36*
X931300Y1139190D02*
X927100D01*
Y1134990D01*
X928968Y1135763D01*
X930527Y1137322D01*
X931300Y1139190D01*
D02*
G37*
G36*
X924560D02*
X920360D01*
X921133Y1137322D01*
X922692Y1135763D01*
X924560Y1134990D01*
Y1139190D01*
D02*
G37*
G36*
X916060D02*
X911860D01*
Y1134990D01*
X913728Y1135763D01*
X915287Y1137322D01*
X916060Y1139190D01*
D02*
G37*
G36*
X909320D02*
X905120D01*
X905893Y1137322D01*
X907452Y1135763D01*
X909320Y1134990D01*
Y1139190D01*
D02*
G37*
G36*
X459740Y1138310D02*
Y1134110D01*
X463940D01*
X463167Y1135978D01*
X461608Y1137537D01*
X459740Y1138310D01*
D02*
G37*
G36*
X457200D02*
X455332Y1137537D01*
X453773Y1135978D01*
X453000Y1134110D01*
X457200D01*
Y1138310D01*
D02*
G37*
G36*
X463940Y1131570D02*
X459740D01*
Y1127370D01*
X461608Y1128143D01*
X463167Y1129702D01*
X463940Y1131570D01*
D02*
G37*
G36*
X457200D02*
X453000D01*
X453773Y1129702D01*
X455332Y1128143D01*
X457200Y1127370D01*
Y1131570D01*
D02*
G37*
G36*
X485140Y1129420D02*
Y1125220D01*
X489340D01*
X488567Y1127088D01*
X487008Y1128647D01*
X485140Y1129420D01*
D02*
G37*
G36*
X482600D02*
X480732Y1128647D01*
X479173Y1127088D01*
X478400Y1125220D01*
X482600D01*
Y1129420D01*
D02*
G37*
G36*
X892810Y1128150D02*
Y1123950D01*
X897010D01*
X896237Y1125818D01*
X894678Y1127377D01*
X892810Y1128150D01*
D02*
G37*
G36*
X890270D02*
X888402Y1127377D01*
X886843Y1125818D01*
X886070Y1123950D01*
X890270D01*
Y1128150D01*
D02*
G37*
G36*
X946150Y1126880D02*
Y1122680D01*
X950350D01*
X949577Y1124548D01*
X948018Y1126107D01*
X946150Y1126880D01*
D02*
G37*
G36*
X943610D02*
X941742Y1126107D01*
X940183Y1124548D01*
X939410Y1122680D01*
X943610D01*
Y1126880D01*
D02*
G37*
G36*
X919480Y1124340D02*
Y1120140D01*
X923680D01*
X922907Y1122008D01*
X921348Y1123567D01*
X919480Y1124340D01*
D02*
G37*
G36*
X916940D02*
X915072Y1123567D01*
X913513Y1122008D01*
X912740Y1120140D01*
X916940D01*
Y1124340D01*
D02*
G37*
G36*
X1245870Y1123070D02*
Y1118870D01*
X1250070D01*
X1249297Y1120738D01*
X1247738Y1122297D01*
X1245870Y1123070D01*
D02*
G37*
G36*
X1243330D02*
X1241462Y1122297D01*
X1239903Y1120738D01*
X1239130Y1118870D01*
X1243330D01*
Y1123070D01*
D02*
G37*
G36*
X1195070D02*
Y1118870D01*
X1199270D01*
X1198497Y1120738D01*
X1196938Y1122297D01*
X1195070Y1123070D01*
D02*
G37*
G36*
X1192530D02*
X1190662Y1122297D01*
X1189103Y1120738D01*
X1188330Y1118870D01*
X1192530D01*
Y1123070D01*
D02*
G37*
G36*
X1144270D02*
Y1118870D01*
X1148470D01*
X1147697Y1120738D01*
X1146138Y1122297D01*
X1144270Y1123070D01*
D02*
G37*
G36*
X1141730D02*
X1139862Y1122297D01*
X1138303Y1120738D01*
X1137530Y1118870D01*
X1141730D01*
Y1123070D01*
D02*
G37*
G36*
X991870D02*
Y1118870D01*
X996070D01*
X995297Y1120738D01*
X993738Y1122297D01*
X991870Y1123070D01*
D02*
G37*
G36*
X989330D02*
X987462Y1122297D01*
X985903Y1120738D01*
X985130Y1118870D01*
X989330D01*
Y1123070D01*
D02*
G37*
G36*
X636270D02*
Y1118870D01*
X640470D01*
X639697Y1120738D01*
X638138Y1122297D01*
X636270Y1123070D01*
D02*
G37*
G36*
X633730D02*
X631862Y1122297D01*
X630303Y1120738D01*
X629530Y1118870D01*
X633730D01*
Y1123070D01*
D02*
G37*
G36*
X585470D02*
Y1118870D01*
X589670D01*
X588897Y1120738D01*
X587338Y1122297D01*
X585470Y1123070D01*
D02*
G37*
G36*
X582930D02*
X581062Y1122297D01*
X579503Y1120738D01*
X578730Y1118870D01*
X582930D01*
Y1123070D01*
D02*
G37*
G36*
X553720D02*
Y1118870D01*
X557920D01*
X557147Y1120738D01*
X555588Y1122297D01*
X553720Y1123070D01*
D02*
G37*
G36*
X551180D02*
X549312Y1122297D01*
X547753Y1120738D01*
X546980Y1118870D01*
X551180D01*
Y1123070D01*
D02*
G37*
G36*
X523240D02*
Y1118870D01*
X527440D01*
X526667Y1120738D01*
X525108Y1122297D01*
X523240Y1123070D01*
D02*
G37*
G36*
X520700D02*
X518832Y1122297D01*
X517273Y1120738D01*
X516500Y1118870D01*
X520700D01*
Y1123070D01*
D02*
G37*
G36*
X505460D02*
Y1118870D01*
X509660D01*
X508887Y1120738D01*
X507328Y1122297D01*
X505460Y1123070D01*
D02*
G37*
G36*
X502920D02*
X501052Y1122297D01*
X499493Y1120738D01*
X498720Y1118870D01*
X502920D01*
Y1123070D01*
D02*
G37*
G36*
X382270D02*
Y1118870D01*
X386470D01*
X385697Y1120738D01*
X384138Y1122297D01*
X382270Y1123070D01*
D02*
G37*
G36*
X379730D02*
X377862Y1122297D01*
X376303Y1120738D01*
X375530Y1118870D01*
X379730D01*
Y1123070D01*
D02*
G37*
G36*
X331470D02*
Y1118870D01*
X335670D01*
X334897Y1120738D01*
X333338Y1122297D01*
X331470Y1123070D01*
D02*
G37*
G36*
X328930D02*
X327062Y1122297D01*
X325503Y1120738D01*
X324730Y1118870D01*
X328930D01*
Y1123070D01*
D02*
G37*
G36*
X489340Y1122680D02*
X485140D01*
Y1118480D01*
X487008Y1119253D01*
X488567Y1120812D01*
X489340Y1122680D01*
D02*
G37*
G36*
X482600D02*
X478400D01*
X479173Y1120812D01*
X480732Y1119253D01*
X482600Y1118480D01*
Y1122680D01*
D02*
G37*
G36*
X897010Y1121410D02*
X892810D01*
Y1117210D01*
X894678Y1117983D01*
X896237Y1119542D01*
X897010Y1121410D01*
D02*
G37*
G36*
X890270D02*
X886070D01*
X886843Y1119542D01*
X888402Y1117983D01*
X890270Y1117210D01*
Y1121410D01*
D02*
G37*
G36*
X950350Y1120140D02*
X946150D01*
Y1115940D01*
X948018Y1116713D01*
X949577Y1118272D01*
X950350Y1120140D01*
D02*
G37*
G36*
X943610D02*
X939410D01*
X940183Y1118272D01*
X941742Y1116713D01*
X943610Y1115940D01*
Y1120140D01*
D02*
G37*
G36*
X1250070Y1116330D02*
X1245870D01*
Y1112130D01*
X1247738Y1112903D01*
X1249297Y1114462D01*
X1250070Y1116330D01*
D02*
G37*
G36*
X1243330D02*
X1239130D01*
X1239903Y1114462D01*
X1241462Y1112903D01*
X1243330Y1112130D01*
Y1116330D01*
D02*
G37*
G36*
X1199270D02*
X1195070D01*
Y1112130D01*
X1196938Y1112903D01*
X1198497Y1114462D01*
X1199270Y1116330D01*
D02*
G37*
G36*
X1192530D02*
X1188330D01*
X1189103Y1114462D01*
X1190662Y1112903D01*
X1192530Y1112130D01*
Y1116330D01*
D02*
G37*
G36*
X1148470D02*
X1144270D01*
Y1112130D01*
X1146138Y1112903D01*
X1147697Y1114462D01*
X1148470Y1116330D01*
D02*
G37*
G36*
X1141730D02*
X1137530D01*
X1138303Y1114462D01*
X1139862Y1112903D01*
X1141730Y1112130D01*
Y1116330D01*
D02*
G37*
G36*
X996070D02*
X991870D01*
Y1112130D01*
X993738Y1112903D01*
X995297Y1114462D01*
X996070Y1116330D01*
D02*
G37*
G36*
X989330D02*
X985130D01*
X985903Y1114462D01*
X987462Y1112903D01*
X989330Y1112130D01*
Y1116330D01*
D02*
G37*
G36*
X640470D02*
X636270D01*
Y1112130D01*
X638138Y1112903D01*
X639697Y1114462D01*
X640470Y1116330D01*
D02*
G37*
G36*
X633730D02*
X629530D01*
X630303Y1114462D01*
X631862Y1112903D01*
X633730Y1112130D01*
Y1116330D01*
D02*
G37*
G36*
X589670D02*
X585470D01*
Y1112130D01*
X587338Y1112903D01*
X588897Y1114462D01*
X589670Y1116330D01*
D02*
G37*
G36*
X582930D02*
X578730D01*
X579503Y1114462D01*
X581062Y1112903D01*
X582930Y1112130D01*
Y1116330D01*
D02*
G37*
G36*
X557920D02*
X553720D01*
Y1112130D01*
X555588Y1112903D01*
X557147Y1114462D01*
X557920Y1116330D01*
D02*
G37*
G36*
X551180D02*
X546980D01*
X547753Y1114462D01*
X549312Y1112903D01*
X551180Y1112130D01*
Y1116330D01*
D02*
G37*
G36*
X527440D02*
X523240D01*
Y1112130D01*
X525108Y1112903D01*
X526667Y1114462D01*
X527440Y1116330D01*
D02*
G37*
G36*
X520700D02*
X516500D01*
X517273Y1114462D01*
X518832Y1112903D01*
X520700Y1112130D01*
Y1116330D01*
D02*
G37*
G36*
X509660D02*
X505460D01*
Y1112130D01*
X507328Y1112903D01*
X508887Y1114462D01*
X509660Y1116330D01*
D02*
G37*
G36*
X502920D02*
X498720D01*
X499493Y1114462D01*
X501052Y1112903D01*
X502920Y1112130D01*
Y1116330D01*
D02*
G37*
G36*
X386470D02*
X382270D01*
Y1112130D01*
X384138Y1112903D01*
X385697Y1114462D01*
X386470Y1116330D01*
D02*
G37*
G36*
X379730D02*
X375530D01*
X376303Y1114462D01*
X377862Y1112903D01*
X379730Y1112130D01*
Y1116330D01*
D02*
G37*
G36*
X335670D02*
X331470D01*
Y1112130D01*
X333338Y1112903D01*
X334897Y1114462D01*
X335670Y1116330D01*
D02*
G37*
G36*
X328930D02*
X324730D01*
X325503Y1114462D01*
X327062Y1112903D01*
X328930Y1112130D01*
Y1116330D01*
D02*
G37*
G36*
X923680Y1117600D02*
X912740D01*
X913513Y1115732D01*
X914820Y1114425D01*
X913513Y1113118D01*
X912740Y1111250D01*
X923680D01*
X922907Y1113118D01*
X921600Y1114425D01*
X922907Y1115732D01*
X923680Y1117600D01*
D02*
G37*
G36*
X892810Y1114180D02*
Y1109980D01*
X897010D01*
X896237Y1111848D01*
X894678Y1113407D01*
X892810Y1114180D01*
D02*
G37*
G36*
X890270D02*
X888402Y1113407D01*
X886843Y1111848D01*
X886070Y1109980D01*
X890270D01*
Y1114180D01*
D02*
G37*
G36*
X946150Y1112910D02*
Y1108710D01*
X950350D01*
X949577Y1110578D01*
X948018Y1112137D01*
X946150Y1112910D01*
D02*
G37*
G36*
X943610D02*
X941742Y1112137D01*
X940183Y1110578D01*
X939410Y1108710D01*
X943610D01*
Y1112910D01*
D02*
G37*
G36*
X923680Y1108710D02*
X919480D01*
Y1104510D01*
X921348Y1105283D01*
X922907Y1106842D01*
X923680Y1108710D01*
D02*
G37*
G36*
X916940D02*
X912740D01*
X913513Y1106842D01*
X915072Y1105283D01*
X916940Y1104510D01*
Y1108710D01*
D02*
G37*
G36*
X897010Y1107440D02*
X892810D01*
Y1103240D01*
X894678Y1104013D01*
X896237Y1105572D01*
X897010Y1107440D01*
D02*
G37*
G36*
X890270D02*
X886070D01*
X886843Y1105572D01*
X888402Y1104013D01*
X890270Y1103240D01*
Y1107440D01*
D02*
G37*
G36*
X950350Y1106170D02*
X946150D01*
Y1101970D01*
X948018Y1102743D01*
X949577Y1104302D01*
X950350Y1106170D01*
D02*
G37*
G36*
X943610D02*
X939410D01*
X940183Y1104302D01*
X941742Y1102743D01*
X943610Y1101970D01*
Y1106170D01*
D02*
G37*
G36*
X1090655Y1111170D02*
X1088665D01*
X1086828Y1110409D01*
X1085421Y1109002D01*
X1084660Y1107165D01*
Y1105175D01*
X1085421Y1103338D01*
X1086828Y1101931D01*
X1088665Y1101170D01*
X1090655D01*
X1092492Y1101931D01*
X1093899Y1103338D01*
X1094660Y1105175D01*
Y1107165D01*
X1093899Y1109002D01*
X1092492Y1110409D01*
X1090655Y1111170D01*
D02*
G37*
G36*
X1226820Y1096400D02*
Y1092200D01*
X1231020D01*
X1230247Y1094068D01*
X1228688Y1095627D01*
X1226820Y1096400D01*
D02*
G37*
G36*
X1224280D02*
X1222412Y1095627D01*
X1220853Y1094068D01*
X1220080Y1092200D01*
X1224280D01*
Y1096400D01*
D02*
G37*
G36*
X927100Y1095130D02*
Y1090930D01*
X931300D01*
X930527Y1092798D01*
X928968Y1094357D01*
X927100Y1095130D01*
D02*
G37*
G36*
X924560D02*
X922692Y1094357D01*
X921133Y1092798D01*
X920360Y1090930D01*
X924560D01*
Y1095130D01*
D02*
G37*
G36*
X911860D02*
Y1090930D01*
X916060D01*
X915287Y1092798D01*
X913728Y1094357D01*
X911860Y1095130D01*
D02*
G37*
G36*
X909320D02*
X907452Y1094357D01*
X905893Y1092798D01*
X905120Y1090930D01*
X909320D01*
Y1095130D01*
D02*
G37*
G36*
X1231020Y1089660D02*
X1226820D01*
Y1085460D01*
X1228688Y1086233D01*
X1230247Y1087792D01*
X1231020Y1089660D01*
D02*
G37*
G36*
X1224280D02*
X1220080D01*
X1220853Y1087792D01*
X1222412Y1086233D01*
X1224280Y1085460D01*
Y1089660D01*
D02*
G37*
G36*
X931300Y1088390D02*
X927100D01*
Y1084190D01*
X928968Y1084963D01*
X930527Y1086522D01*
X931300Y1088390D01*
D02*
G37*
G36*
X924560D02*
X920360D01*
X921133Y1086522D01*
X922692Y1084963D01*
X924560Y1084190D01*
Y1088390D01*
D02*
G37*
G36*
X916060D02*
X911860D01*
Y1084190D01*
X913728Y1084963D01*
X915287Y1086522D01*
X916060Y1088390D01*
D02*
G37*
G36*
X909320D02*
X905120D01*
X905893Y1086522D01*
X907452Y1084963D01*
X909320Y1084190D01*
Y1088390D01*
D02*
G37*
G36*
X483595Y1087040D02*
X481605D01*
X479768Y1086279D01*
X478361Y1084872D01*
X477600Y1083035D01*
Y1081045D01*
X478361Y1079208D01*
X479768Y1077801D01*
X481605Y1077040D01*
X483595D01*
X485432Y1077801D01*
X486839Y1079208D01*
X487600Y1081045D01*
Y1083035D01*
X486839Y1084872D01*
X485432Y1086279D01*
X483595Y1087040D01*
D02*
G37*
G36*
X470895D02*
X468905D01*
X467068Y1086279D01*
X465661Y1084872D01*
X464900Y1083035D01*
Y1081045D01*
X465661Y1079208D01*
X467068Y1077801D01*
X468905Y1077040D01*
X470895D01*
X472732Y1077801D01*
X474139Y1079208D01*
X474900Y1081045D01*
Y1083035D01*
X474139Y1084872D01*
X472732Y1086279D01*
X470895Y1087040D01*
D02*
G37*
G36*
X458195D02*
X456205D01*
X454368Y1086279D01*
X452961Y1084872D01*
X452200Y1083035D01*
Y1081045D01*
X452961Y1079208D01*
X454368Y1077801D01*
X456205Y1077040D01*
X458195D01*
X460032Y1077801D01*
X461439Y1079208D01*
X462200Y1081045D01*
Y1083035D01*
X461439Y1084872D01*
X460032Y1086279D01*
X458195Y1087040D01*
D02*
G37*
G36*
X445495D02*
X443505D01*
X441668Y1086279D01*
X440261Y1084872D01*
X439500Y1083035D01*
Y1081045D01*
X440261Y1079208D01*
X441668Y1077801D01*
X443505Y1077040D01*
X445495D01*
X447332Y1077801D01*
X448739Y1079208D01*
X449500Y1081045D01*
Y1083035D01*
X448739Y1084872D01*
X447332Y1086279D01*
X445495Y1087040D01*
D02*
G37*
G36*
X560070Y1085609D02*
X549910D01*
X548544Y1085337D01*
X547387Y1084563D01*
X539703Y1076880D01*
X538755D01*
X536918Y1076119D01*
X535511Y1074712D01*
X534750Y1072875D01*
Y1070885D01*
X535511Y1069048D01*
X536918Y1067641D01*
X538755Y1066880D01*
X540745D01*
X542582Y1067641D01*
X543989Y1069048D01*
X544750Y1070885D01*
Y1071833D01*
X551388Y1078471D01*
X558592D01*
X560753Y1076311D01*
X559903Y1075039D01*
X558525Y1075610D01*
X556535D01*
X554698Y1074849D01*
X553291Y1073442D01*
X552530Y1071605D01*
Y1071241D01*
X540641Y1059352D01*
X535220D01*
X534962Y1059609D01*
X533125Y1060370D01*
X531135D01*
X529298Y1059609D01*
X527891Y1058202D01*
X527130Y1056365D01*
Y1056001D01*
X516511Y1045381D01*
X480060D01*
X478536Y1045078D01*
X477245Y1044215D01*
X465815Y1032785D01*
X464952Y1031494D01*
X464649Y1029970D01*
Y972100D01*
X464391Y971842D01*
X463630Y970005D01*
Y968015D01*
X464391Y966178D01*
X465798Y964771D01*
X467635Y964010D01*
X469625D01*
X471462Y964771D01*
X472869Y966178D01*
X473630Y968015D01*
Y970005D01*
X472869Y971842D01*
X472612Y972100D01*
Y1028321D01*
X478927Y1034636D01*
X480198Y1033786D01*
X479670Y1032510D01*
X490610D01*
X489837Y1034378D01*
X488296Y1035919D01*
X488298Y1036023D01*
X488620Y1037419D01*
X495050D01*
X495671Y1035919D01*
X495542Y1035789D01*
X494768Y1033921D01*
X505709D01*
X504935Y1035789D01*
X504806Y1035919D01*
X505428Y1037419D01*
X518160D01*
X519684Y1037722D01*
X520975Y1038585D01*
X532761Y1050370D01*
X533125D01*
X534962Y1051131D01*
X535220Y1051388D01*
X542290D01*
X543814Y1051692D01*
X545105Y1052555D01*
X558161Y1065610D01*
X558525D01*
X560362Y1066371D01*
X561351Y1067360D01*
X562851Y1066770D01*
Y992078D01*
X521762Y950989D01*
X484832D01*
X484162Y951659D01*
X482325Y952420D01*
X480335D01*
X478498Y951659D01*
X477091Y950252D01*
X476330Y948415D01*
Y946425D01*
X477091Y944588D01*
X478498Y943181D01*
X480335Y942420D01*
X482325D01*
X484162Y943181D01*
X484832Y943851D01*
X523240D01*
X524606Y944123D01*
X525763Y944897D01*
X568943Y988077D01*
X569717Y989234D01*
X569989Y990600D01*
Y1075690D01*
X569717Y1077056D01*
X568943Y1078213D01*
X562593Y1084563D01*
X561436Y1085337D01*
X560070Y1085609D01*
D02*
G37*
G36*
X307340Y1081520D02*
Y1073512D01*
X315347D01*
X314727Y1075828D01*
X313504Y1077947D01*
X311774Y1079676D01*
X309656Y1080899D01*
X307340Y1081520D01*
D02*
G37*
G36*
X304800D02*
X302484Y1080899D01*
X300366Y1079676D01*
X298636Y1077947D01*
X297413Y1075828D01*
X296793Y1073512D01*
X304800D01*
Y1081520D01*
D02*
G37*
G36*
X1220470Y1072270D02*
Y1068070D01*
X1224670D01*
X1223897Y1069938D01*
X1222338Y1071497D01*
X1220470Y1072270D01*
D02*
G37*
G36*
X1217930D02*
X1216062Y1071497D01*
X1214503Y1069938D01*
X1213730Y1068070D01*
X1217930D01*
Y1072270D01*
D02*
G37*
G36*
X966470D02*
Y1068070D01*
X970670D01*
X969897Y1069938D01*
X968338Y1071497D01*
X966470Y1072270D01*
D02*
G37*
G36*
X963930D02*
X962062Y1071497D01*
X960503Y1069938D01*
X959730Y1068070D01*
X963930D01*
Y1072270D01*
D02*
G37*
G36*
X915670D02*
Y1068070D01*
X919870D01*
X919097Y1069938D01*
X917538Y1071497D01*
X915670Y1072270D01*
D02*
G37*
G36*
X913130D02*
X911262Y1071497D01*
X909703Y1069938D01*
X908930Y1068070D01*
X913130D01*
Y1072270D01*
D02*
G37*
G36*
X864870D02*
Y1068070D01*
X869070D01*
X868297Y1069938D01*
X866738Y1071497D01*
X864870Y1072270D01*
D02*
G37*
G36*
X862330D02*
X860462Y1071497D01*
X858903Y1069938D01*
X858130Y1068070D01*
X862330D01*
Y1072270D01*
D02*
G37*
G36*
X610870D02*
Y1068070D01*
X615070D01*
X614297Y1069938D01*
X612738Y1071497D01*
X610870Y1072270D01*
D02*
G37*
G36*
X608330D02*
X606462Y1071497D01*
X604903Y1069938D01*
X604130Y1068070D01*
X608330D01*
Y1072270D01*
D02*
G37*
G36*
X357222Y1080993D02*
X354918D01*
X352693Y1080396D01*
X350697Y1079244D01*
X349068Y1077615D01*
X347916Y1075620D01*
X347320Y1073394D01*
Y1071091D01*
X347916Y1068865D01*
X349068Y1066870D01*
X350697Y1065241D01*
X352693Y1064089D01*
X354918Y1063493D01*
X357222D01*
X359447Y1064089D01*
X361443Y1065241D01*
X363072Y1066870D01*
X364224Y1068865D01*
X364820Y1071091D01*
Y1073394D01*
X364224Y1075620D01*
X363072Y1077615D01*
X361443Y1079244D01*
X359447Y1080396D01*
X357222Y1080993D01*
D02*
G37*
G36*
X315347Y1070973D02*
X307340D01*
Y1062965D01*
X309656Y1063586D01*
X311774Y1064809D01*
X313504Y1066538D01*
X314727Y1068657D01*
X315347Y1070973D01*
D02*
G37*
G36*
X304800D02*
X296793D01*
X297413Y1068657D01*
X298636Y1066538D01*
X300366Y1064809D01*
X302484Y1063586D01*
X304800Y1062965D01*
Y1070973D01*
D02*
G37*
G36*
X1137070Y1066980D02*
Y1062780D01*
X1141270D01*
X1140497Y1064648D01*
X1138938Y1066207D01*
X1137070Y1066980D01*
D02*
G37*
G36*
X1134530D02*
X1132662Y1066207D01*
X1131103Y1064648D01*
X1130330Y1062780D01*
X1134530D01*
Y1066980D01*
D02*
G37*
G36*
X1115480D02*
Y1062780D01*
X1119680D01*
X1118907Y1064648D01*
X1117348Y1066207D01*
X1115480Y1066980D01*
D02*
G37*
G36*
X1112940D02*
X1111072Y1066207D01*
X1109513Y1064648D01*
X1108740Y1062780D01*
X1112940D01*
Y1066980D01*
D02*
G37*
G36*
X1092620Y1066080D02*
Y1061880D01*
X1096820D01*
X1096047Y1063748D01*
X1094488Y1065307D01*
X1092620Y1066080D01*
D02*
G37*
G36*
X1090080D02*
X1088212Y1065307D01*
X1086653Y1063748D01*
X1085880Y1061880D01*
X1090080D01*
Y1066080D01*
D02*
G37*
G36*
X1224670Y1065530D02*
X1220470D01*
Y1061330D01*
X1222338Y1062103D01*
X1223897Y1063662D01*
X1224670Y1065530D01*
D02*
G37*
G36*
X1217930D02*
X1213730D01*
X1214503Y1063662D01*
X1216062Y1062103D01*
X1217930Y1061330D01*
Y1065530D01*
D02*
G37*
G36*
X970670D02*
X966470D01*
Y1061330D01*
X968338Y1062103D01*
X969897Y1063662D01*
X970670Y1065530D01*
D02*
G37*
G36*
X963930D02*
X959730D01*
X960503Y1063662D01*
X962062Y1062103D01*
X963930Y1061330D01*
Y1065530D01*
D02*
G37*
G36*
X919870D02*
X915670D01*
Y1061330D01*
X917538Y1062103D01*
X919097Y1063662D01*
X919870Y1065530D01*
D02*
G37*
G36*
X913130D02*
X908930D01*
X909703Y1063662D01*
X911262Y1062103D01*
X913130Y1061330D01*
Y1065530D01*
D02*
G37*
G36*
X869070D02*
X864870D01*
Y1061330D01*
X866738Y1062103D01*
X868297Y1063662D01*
X869070Y1065530D01*
D02*
G37*
G36*
X862330D02*
X858130D01*
X858903Y1063662D01*
X860462Y1062103D01*
X862330Y1061330D01*
Y1065530D01*
D02*
G37*
G36*
X615070D02*
X610870D01*
Y1061330D01*
X612738Y1062103D01*
X614297Y1063662D01*
X615070Y1065530D01*
D02*
G37*
G36*
X608330D02*
X604130D01*
X604903Y1063662D01*
X606462Y1062103D01*
X608330Y1061330D01*
Y1065530D01*
D02*
G37*
G36*
X730046Y1072591D02*
X715459D01*
Y1070076D01*
X714718Y1069769D01*
X713311Y1068362D01*
X712550Y1066525D01*
Y1064535D01*
X713311Y1062698D01*
X714718Y1061291D01*
X715459Y1060984D01*
Y1058469D01*
X730046D01*
Y1072591D01*
D02*
G37*
G36*
X1141270Y1060240D02*
X1137070D01*
Y1056040D01*
X1138938Y1056813D01*
X1140497Y1058372D01*
X1141270Y1060240D01*
D02*
G37*
G36*
X1134530D02*
X1130330D01*
X1131103Y1058372D01*
X1132662Y1056813D01*
X1134530Y1056040D01*
Y1060240D01*
D02*
G37*
G36*
X1119680D02*
X1115480D01*
Y1056040D01*
X1117348Y1056813D01*
X1118907Y1058372D01*
X1119680Y1060240D01*
D02*
G37*
G36*
X1112940D02*
X1108740D01*
X1109513Y1058372D01*
X1111072Y1056813D01*
X1112940Y1056040D01*
Y1060240D01*
D02*
G37*
G36*
X1061445Y1065450D02*
X1059455D01*
X1057618Y1064689D01*
X1056211Y1063282D01*
X1055450Y1061445D01*
Y1059455D01*
X1056211Y1057618D01*
X1057618Y1056211D01*
X1059455Y1055450D01*
X1061445D01*
X1063282Y1056211D01*
X1064689Y1057618D01*
X1065450Y1059455D01*
Y1061445D01*
X1064689Y1063282D01*
X1063282Y1064689D01*
X1061445Y1065450D01*
D02*
G37*
G36*
X1096820Y1059340D02*
X1092620D01*
Y1055140D01*
X1094488Y1055913D01*
X1096047Y1057472D01*
X1096820Y1059340D01*
D02*
G37*
G36*
X1090080D02*
X1085880D01*
X1086653Y1057472D01*
X1088212Y1055913D01*
X1090080Y1055140D01*
Y1059340D01*
D02*
G37*
G36*
X1062990Y1040581D02*
Y1036381D01*
X1067190D01*
X1066417Y1038249D01*
X1064858Y1039807D01*
X1062990Y1040581D01*
D02*
G37*
G36*
X1060450D02*
X1058582Y1039807D01*
X1057023Y1038249D01*
X1056250Y1036381D01*
X1060450D01*
Y1040581D01*
D02*
G37*
G36*
X458470Y1035440D02*
Y1031240D01*
X462670D01*
X461897Y1033108D01*
X460338Y1034667D01*
X458470Y1035440D01*
D02*
G37*
G36*
X455930D02*
X454062Y1034667D01*
X452503Y1033108D01*
X451730Y1031240D01*
X455930D01*
Y1035440D01*
D02*
G37*
G36*
X1067190Y1033841D02*
X1056250D01*
X1057023Y1031973D01*
X1057632Y1031364D01*
Y1029445D01*
X1056385Y1028612D01*
X1056365Y1028620D01*
X1054375D01*
X1052538Y1027859D01*
X1051868Y1027189D01*
X1037282D01*
X1036612Y1027859D01*
X1034775Y1028620D01*
X1032785D01*
X1030948Y1027859D01*
X1029541Y1026452D01*
X1028780Y1024615D01*
Y1022625D01*
X1029541Y1020788D01*
X1030948Y1019381D01*
X1032785Y1018620D01*
X1034775D01*
X1036612Y1019381D01*
X1037282Y1020051D01*
X1051868D01*
X1052538Y1019381D01*
X1054375Y1018620D01*
X1056365D01*
X1056564Y1018703D01*
X1057632Y1017989D01*
Y1017989D01*
X1072219D01*
Y1032111D01*
X1067824D01*
X1066990Y1033358D01*
X1067190Y1033841D01*
D02*
G37*
G36*
X505709Y1031381D02*
X501509D01*
Y1027181D01*
X503377Y1027955D01*
X504935Y1029513D01*
X505709Y1031381D01*
D02*
G37*
G36*
X498969D02*
X494768D01*
X495542Y1029513D01*
X497101Y1027955D01*
X498969Y1027181D01*
Y1031381D01*
D02*
G37*
G36*
X1090294Y1032651D02*
X1083730D01*
Y1026320D01*
X1090294D01*
Y1032651D01*
D02*
G37*
G36*
X1081190D02*
X1074626D01*
Y1026320D01*
X1081190D01*
Y1032651D01*
D02*
G37*
G36*
X462670Y1028700D02*
X451730D01*
X452098Y1027811D01*
X450252Y1027047D01*
X448693Y1025488D01*
X447920Y1023620D01*
X458860D01*
X458492Y1024509D01*
X460338Y1025273D01*
X461897Y1026832D01*
X462670Y1028700D01*
D02*
G37*
G36*
X490610Y1029970D02*
X479670D01*
X480443Y1028102D01*
X479804Y1026620D01*
X478958D01*
X476922Y1025777D01*
X475363Y1024218D01*
X474590Y1022350D01*
X485530D01*
X484757Y1024218D01*
X485396Y1025700D01*
X486242D01*
X488278Y1026543D01*
X489837Y1028102D01*
X490610Y1029970D01*
D02*
G37*
G36*
X1142150Y1022900D02*
Y1018700D01*
X1146350D01*
X1145577Y1020568D01*
X1144018Y1022127D01*
X1142150Y1022900D01*
D02*
G37*
G36*
X1139610D02*
X1137742Y1022127D01*
X1136183Y1020568D01*
X1135410Y1018700D01*
X1139610D01*
Y1022900D01*
D02*
G37*
G36*
X1245870Y1021470D02*
Y1017270D01*
X1250070D01*
X1249297Y1019138D01*
X1247738Y1020697D01*
X1245870Y1021470D01*
D02*
G37*
G36*
X1243330D02*
X1241462Y1020697D01*
X1239903Y1019138D01*
X1239130Y1017270D01*
X1243330D01*
Y1021470D01*
D02*
G37*
G36*
X1195070D02*
Y1017270D01*
X1199270D01*
X1198497Y1019138D01*
X1196938Y1020697D01*
X1195070Y1021470D01*
D02*
G37*
G36*
X1192530D02*
X1190662Y1020697D01*
X1189103Y1019138D01*
X1188330Y1017270D01*
X1192530D01*
Y1021470D01*
D02*
G37*
G36*
X1093470D02*
Y1017270D01*
X1097670D01*
X1096897Y1019138D01*
X1095338Y1020697D01*
X1093470Y1021470D01*
D02*
G37*
G36*
X687070D02*
Y1017270D01*
X691270D01*
X690497Y1019138D01*
X688938Y1020697D01*
X687070Y1021470D01*
D02*
G37*
G36*
X636270D02*
Y1017270D01*
X640470D01*
X639697Y1019138D01*
X638138Y1020697D01*
X636270Y1021470D01*
D02*
G37*
G36*
X633730D02*
X631862Y1020697D01*
X630303Y1019138D01*
X629530Y1017270D01*
X633730D01*
Y1021470D01*
D02*
G37*
G36*
X585470D02*
Y1017270D01*
X589670D01*
X588897Y1019138D01*
X587338Y1020697D01*
X585470Y1021470D01*
D02*
G37*
G36*
X582930D02*
X581062Y1020697D01*
X579503Y1019138D01*
X578730Y1017270D01*
X582930D01*
Y1021470D01*
D02*
G37*
G36*
X433070D02*
Y1017270D01*
X437270D01*
X436497Y1019138D01*
X434938Y1020697D01*
X433070Y1021470D01*
D02*
G37*
G36*
X430530D02*
X428662Y1020697D01*
X427103Y1019138D01*
X426330Y1017270D01*
X430530D01*
Y1021470D01*
D02*
G37*
G36*
X382270D02*
Y1017270D01*
X386470D01*
X385697Y1019138D01*
X384138Y1020697D01*
X382270Y1021470D01*
D02*
G37*
G36*
X379730D02*
X377862Y1020697D01*
X376303Y1019138D01*
X375530Y1017270D01*
X379730D01*
Y1021470D01*
D02*
G37*
G36*
X331470D02*
Y1017270D01*
X335670D01*
X334897Y1019138D01*
X333338Y1020697D01*
X331470Y1021470D01*
D02*
G37*
G36*
X328930D02*
X327062Y1020697D01*
X325503Y1019138D01*
X324730Y1017270D01*
X328930D01*
Y1021470D01*
D02*
G37*
G36*
X458860Y1021080D02*
X454660D01*
Y1016880D01*
X456528Y1017653D01*
X458087Y1019212D01*
X458860Y1021080D01*
D02*
G37*
G36*
X452120D02*
X447920D01*
X448693Y1019212D01*
X450252Y1017653D01*
X452120Y1016880D01*
Y1021080D01*
D02*
G37*
G36*
X485530Y1019810D02*
X481330D01*
Y1015610D01*
X483198Y1016383D01*
X484757Y1017942D01*
X485530Y1019810D01*
D02*
G37*
G36*
X478790D02*
X474590D01*
X475363Y1017942D01*
X476922Y1016383D01*
X478790Y1015610D01*
Y1019810D01*
D02*
G37*
G36*
X1146350Y1016160D02*
X1142150D01*
Y1011960D01*
X1144018Y1012733D01*
X1145577Y1014292D01*
X1146350Y1016160D01*
D02*
G37*
G36*
X1139610D02*
X1135410D01*
X1136183Y1014292D01*
X1137742Y1012733D01*
X1139610Y1011960D01*
Y1016160D01*
D02*
G37*
G36*
X1250070Y1014730D02*
X1245870D01*
Y1010530D01*
X1247738Y1011303D01*
X1249297Y1012862D01*
X1250070Y1014730D01*
D02*
G37*
G36*
X1243330D02*
X1239130D01*
X1239903Y1012862D01*
X1241462Y1011303D01*
X1243330Y1010530D01*
Y1014730D01*
D02*
G37*
G36*
X1199270D02*
X1195070D01*
Y1010530D01*
X1196938Y1011303D01*
X1198497Y1012862D01*
X1199270Y1014730D01*
D02*
G37*
G36*
X1192530D02*
X1188330D01*
X1189103Y1012862D01*
X1190662Y1011303D01*
X1192530Y1010530D01*
Y1014730D01*
D02*
G37*
G36*
X1097670D02*
X1093470D01*
Y1010530D01*
X1095338Y1011303D01*
X1096897Y1012862D01*
X1097670Y1014730D01*
D02*
G37*
G36*
X1090294Y1023780D02*
X1074626D01*
Y1017449D01*
X1077542D01*
X1077763Y1016915D01*
X1079322Y1015356D01*
X1081190Y1014582D01*
Y1020053D01*
X1083730D01*
Y1014582D01*
X1085160Y1015174D01*
X1086094Y1015002D01*
X1086836Y1014473D01*
X1087503Y1012862D01*
X1089062Y1011303D01*
X1090930Y1010530D01*
Y1016000D01*
Y1021652D01*
X1090294Y1022077D01*
Y1023780D01*
D02*
G37*
G36*
X691270Y1014730D02*
X687070D01*
Y1010530D01*
X688938Y1011303D01*
X690497Y1012862D01*
X691270Y1014730D01*
D02*
G37*
G36*
X640470D02*
X636270D01*
Y1010530D01*
X638138Y1011303D01*
X639697Y1012862D01*
X640470Y1014730D01*
D02*
G37*
G36*
X633730D02*
X629530D01*
X630303Y1012862D01*
X631862Y1011303D01*
X633730Y1010530D01*
Y1014730D01*
D02*
G37*
G36*
X589670D02*
X585470D01*
Y1010530D01*
X587338Y1011303D01*
X588897Y1012862D01*
X589670Y1014730D01*
D02*
G37*
G36*
X582930D02*
X578730D01*
X579503Y1012862D01*
X581062Y1011303D01*
X582930Y1010530D01*
Y1014730D01*
D02*
G37*
G36*
X437270D02*
X433070D01*
Y1010530D01*
X434938Y1011303D01*
X436497Y1012862D01*
X437270Y1014730D01*
D02*
G37*
G36*
X430530D02*
X426330D01*
X427103Y1012862D01*
X428662Y1011303D01*
X430530Y1010530D01*
Y1014730D01*
D02*
G37*
G36*
X386470D02*
X382270D01*
Y1010530D01*
X384138Y1011303D01*
X385697Y1012862D01*
X386470Y1014730D01*
D02*
G37*
G36*
X379730D02*
X375530D01*
X376303Y1012862D01*
X377862Y1011303D01*
X379730Y1010530D01*
Y1014730D01*
D02*
G37*
G36*
X335670D02*
X331470D01*
Y1010530D01*
X333338Y1011303D01*
X334897Y1012862D01*
X335670Y1014730D01*
D02*
G37*
G36*
X328930D02*
X324730D01*
X325503Y1012862D01*
X327062Y1011303D01*
X328930Y1010530D01*
Y1014730D01*
D02*
G37*
G36*
X996950Y1013920D02*
Y1009720D01*
X1001150D01*
X1000377Y1011588D01*
X998818Y1013147D01*
X996950Y1013920D01*
D02*
G37*
G36*
X994410D02*
X992542Y1013147D01*
X990983Y1011588D01*
X990210Y1009720D01*
X994410D01*
Y1013920D01*
D02*
G37*
G36*
X1039855Y1089580D02*
X1037865D01*
X1036028Y1088819D01*
X1034621Y1087412D01*
X1033860Y1085575D01*
Y1084627D01*
X1017623Y1068390D01*
X1016850Y1067232D01*
X1016578Y1065866D01*
Y1001939D01*
X998356D01*
X998058Y1003439D01*
X998818Y1003753D01*
X1000377Y1005312D01*
X1001150Y1007180D01*
X990210D01*
X990983Y1005312D01*
X992542Y1003753D01*
X993302Y1003439D01*
X993004Y1001939D01*
X977442D01*
X976922Y1002459D01*
X975085Y1003220D01*
X973095D01*
X971258Y1002459D01*
X969851Y1001052D01*
X969090Y999215D01*
Y997225D01*
X969851Y995388D01*
X971258Y993981D01*
X973095Y993220D01*
X975085D01*
X976922Y993981D01*
X977742Y994801D01*
X980969D01*
X981971Y993301D01*
X981790Y992865D01*
Y990875D01*
X982551Y989038D01*
X983221Y988367D01*
Y966162D01*
X982551Y965492D01*
X981790Y963655D01*
Y961665D01*
X982551Y959828D01*
X983958Y958421D01*
X985795Y957660D01*
X987785D01*
X989622Y958421D01*
X991029Y959828D01*
X991790Y961665D01*
Y963655D01*
X991029Y965492D01*
X990359Y966162D01*
Y988301D01*
X1022350D01*
X1023716Y988573D01*
X1024873Y989347D01*
X1025328Y989801D01*
X1052401D01*
X1053234Y988554D01*
X1053060Y988135D01*
Y986145D01*
X1053821Y984308D01*
X1055228Y982901D01*
X1057065Y982140D01*
X1059054D01*
X1060892Y982901D01*
X1061562Y983571D01*
X1072329D01*
Y980999D01*
X1083225D01*
X1083936Y979499D01*
X1083340Y978060D01*
X1094280D01*
X1093684Y979499D01*
X1094395Y980999D01*
X1104451D01*
Y984079D01*
X1108975D01*
X1109551Y982688D01*
X1110906Y981333D01*
X1092153Y962580D01*
X1091205D01*
X1089368Y961819D01*
X1087961Y960412D01*
X1087200Y958575D01*
Y956585D01*
X1087961Y954748D01*
X1089368Y953341D01*
X1091205Y952580D01*
X1093195D01*
X1095032Y953341D01*
X1096439Y954748D01*
X1097200Y956585D01*
Y957533D01*
X1115118Y975451D01*
X1116482D01*
X1117848Y975723D01*
X1119006Y976497D01*
X1140021Y997511D01*
X1156981D01*
X1157007Y997413D01*
X1158258Y995247D01*
X1160027Y993478D01*
X1161513Y992620D01*
X1161111Y991120D01*
X1155820D01*
Y982350D01*
X1165860D01*
Y979810D01*
X1155820D01*
Y971040D01*
X1154735Y970039D01*
X1144925D01*
X1142920Y972043D01*
Y972545D01*
X1142159Y974382D01*
X1140752Y975789D01*
X1138915Y976550D01*
X1136925D01*
X1135088Y975789D01*
X1133681Y974382D01*
X1132920Y972545D01*
Y970555D01*
X1133681Y968718D01*
X1135088Y967311D01*
X1136925Y966550D01*
X1138320D01*
X1140923Y963947D01*
X1142081Y963173D01*
X1143447Y962901D01*
X1172210D01*
X1173576Y963173D01*
X1174733Y963947D01*
X1182773Y971987D01*
X1183547Y973144D01*
X1183819Y974510D01*
Y1006690D01*
X1183547Y1008056D01*
X1182773Y1009213D01*
X1174662Y1017325D01*
X1174713Y1017413D01*
X1175360Y1019829D01*
Y1022331D01*
X1174713Y1024747D01*
X1173462Y1026913D01*
X1171693Y1028682D01*
X1169527Y1029933D01*
X1168142Y1030304D01*
Y1031857D01*
X1169527Y1032227D01*
X1171693Y1033478D01*
X1173462Y1035247D01*
X1174713Y1037413D01*
X1175360Y1039829D01*
Y1042331D01*
X1174713Y1044747D01*
X1173462Y1046913D01*
X1171693Y1048682D01*
X1169527Y1049933D01*
X1167111Y1050580D01*
X1164609D01*
X1162193Y1049933D01*
X1160027Y1048682D01*
X1158258Y1046913D01*
X1157007Y1044747D01*
X1156360Y1042331D01*
Y1039829D01*
X1157007Y1037413D01*
X1158258Y1035247D01*
X1160027Y1033478D01*
X1162193Y1032227D01*
X1163578Y1031857D01*
Y1030304D01*
X1162193Y1029933D01*
X1160027Y1028682D01*
X1158258Y1026913D01*
X1157007Y1024747D01*
X1156360Y1022331D01*
Y1019829D01*
X1157007Y1017413D01*
X1158258Y1015247D01*
X1160027Y1013478D01*
X1162193Y1012227D01*
X1163578Y1011856D01*
Y1010303D01*
X1162193Y1009932D01*
X1160027Y1008682D01*
X1158258Y1006913D01*
X1157007Y1004747D01*
X1156981Y1004649D01*
X1138542D01*
X1137177Y1004377D01*
X1136019Y1003603D01*
X1119979Y987563D01*
X1118210Y987915D01*
X1118029Y988352D01*
X1116622Y989759D01*
X1114785Y990520D01*
X1113828D01*
X1113473Y990875D01*
X1112181Y991738D01*
X1110657Y992041D01*
X1106969D01*
X1106671Y993541D01*
X1107732Y993981D01*
X1109139Y995388D01*
X1109900Y997225D01*
Y999215D01*
X1109139Y1001052D01*
X1107732Y1002459D01*
X1105895Y1003220D01*
X1104800D01*
X1102047Y1005973D01*
X1100889Y1006747D01*
X1099523Y1007019D01*
X1059028D01*
X1057662Y1006747D01*
X1056504Y1005973D01*
X1052469Y1001939D01*
X1023715D01*
Y1064388D01*
X1038907Y1079580D01*
X1039855D01*
X1041692Y1080341D01*
X1043099Y1081748D01*
X1043860Y1083585D01*
Y1085575D01*
X1043099Y1087412D01*
X1041692Y1088819D01*
X1039855Y1089580D01*
D02*
G37*
G36*
X723819Y1014171D02*
X709232D01*
Y1011707D01*
X708368Y1011349D01*
X706961Y1009942D01*
X706200Y1008105D01*
Y1006115D01*
X706961Y1004278D01*
X708368Y1002871D01*
X709232Y1002513D01*
Y1000049D01*
X723819D01*
Y1014171D01*
D02*
G37*
G36*
X322580Y1001150D02*
Y996950D01*
X326780D01*
X326007Y998818D01*
X324448Y1000377D01*
X322580Y1001150D01*
D02*
G37*
G36*
X320040D02*
X318172Y1000377D01*
X316613Y998818D01*
X315840Y996950D01*
X320040D01*
Y1001150D01*
D02*
G37*
G36*
X1145540Y994800D02*
Y990600D01*
X1149740D01*
X1148967Y992468D01*
X1147408Y994027D01*
X1145540Y994800D01*
D02*
G37*
G36*
X1143000D02*
X1141132Y994027D01*
X1139573Y992468D01*
X1138800Y990600D01*
X1143000D01*
Y994800D01*
D02*
G37*
G36*
X326780Y994410D02*
X322580D01*
Y990210D01*
X324448Y990983D01*
X326007Y992542D01*
X326780Y994410D01*
D02*
G37*
G36*
X320040D02*
X315840D01*
X316613Y992542D01*
X318172Y990983D01*
X320040Y990210D01*
Y994410D01*
D02*
G37*
G36*
X1149740Y988060D02*
X1145540D01*
Y983860D01*
X1147408Y984633D01*
X1148967Y986192D01*
X1149740Y988060D01*
D02*
G37*
G36*
X1143000D02*
X1138800D01*
X1139573Y986192D01*
X1141132Y984633D01*
X1143000Y983860D01*
Y988060D01*
D02*
G37*
G36*
X1094280Y975520D02*
X1090080D01*
Y971320D01*
X1091948Y972093D01*
X1093507Y973652D01*
X1094280Y975520D01*
D02*
G37*
G36*
X1087540D02*
X1083340D01*
X1084113Y973652D01*
X1085672Y972093D01*
X1087540Y971320D01*
Y975520D01*
D02*
G37*
G36*
X1220470Y970670D02*
Y966470D01*
X1224670D01*
X1223897Y968338D01*
X1222338Y969897D01*
X1220470Y970670D01*
D02*
G37*
G36*
X1217930D02*
X1216062Y969897D01*
X1214503Y968338D01*
X1213730Y966470D01*
X1217930D01*
Y970670D01*
D02*
G37*
G36*
X1017270D02*
Y966470D01*
X1021470D01*
X1020697Y968338D01*
X1019138Y969897D01*
X1017270Y970670D01*
D02*
G37*
G36*
X1014730D02*
X1012862Y969897D01*
X1011303Y968338D01*
X1010530Y966470D01*
X1014730D01*
Y970670D01*
D02*
G37*
G36*
X610870D02*
Y966470D01*
X615070D01*
X614297Y968338D01*
X612738Y969897D01*
X610870Y970670D01*
D02*
G37*
G36*
X608330D02*
X606462Y969897D01*
X604903Y968338D01*
X604130Y966470D01*
X608330D01*
Y970670D01*
D02*
G37*
G36*
X560070D02*
Y966470D01*
X564270D01*
X563497Y968338D01*
X561938Y969897D01*
X560070Y970670D01*
D02*
G37*
G36*
X557530D02*
X555662Y969897D01*
X554103Y968338D01*
X553330Y966470D01*
X557530D01*
Y970670D01*
D02*
G37*
G36*
X356870D02*
Y966470D01*
X361070D01*
X360297Y968338D01*
X358738Y969897D01*
X356870Y970670D01*
D02*
G37*
G36*
X354330D02*
X352462Y969897D01*
X350903Y968338D01*
X350130Y966470D01*
X354330D01*
Y970670D01*
D02*
G37*
G36*
X306070D02*
Y966470D01*
X310270D01*
X309497Y968338D01*
X307938Y969897D01*
X306070Y970670D01*
D02*
G37*
G36*
X303530D02*
X301662Y969897D01*
X300103Y968338D01*
X299330Y966470D01*
X303530D01*
Y970670D01*
D02*
G37*
G36*
X759441Y970617D02*
X753110D01*
Y964053D01*
X759441D01*
Y970617D01*
D02*
G37*
G36*
X750570D02*
X744239D01*
Y964053D01*
X750570D01*
Y970617D01*
D02*
G37*
G36*
X482325Y974010D02*
X480335D01*
X478498Y973249D01*
X477091Y971842D01*
X476330Y970005D01*
Y968015D01*
X477091Y966178D01*
X478498Y964771D01*
X480335Y964010D01*
X482325D01*
X484162Y964771D01*
X485569Y966178D01*
X486330Y968015D01*
Y970005D01*
X485569Y971842D01*
X484162Y973249D01*
X482325Y974010D01*
D02*
G37*
G36*
X456925D02*
X454935D01*
X453098Y973249D01*
X451691Y971842D01*
X450930Y970005D01*
Y968015D01*
X451691Y966178D01*
X453098Y964771D01*
X454935Y964010D01*
X456925D01*
X458762Y964771D01*
X460169Y966178D01*
X460930Y968015D01*
Y970005D01*
X460169Y971842D01*
X458762Y973249D01*
X456925Y974010D01*
D02*
G37*
G36*
X718820Y965590D02*
Y961390D01*
X723020D01*
X722247Y963258D01*
X720688Y964817D01*
X718820Y965590D01*
D02*
G37*
G36*
X716280D02*
X714412Y964817D01*
X712853Y963258D01*
X712080Y961390D01*
X716280D01*
Y965590D01*
D02*
G37*
G36*
X1224670Y963930D02*
X1220470D01*
Y959730D01*
X1222338Y960503D01*
X1223897Y962062D01*
X1224670Y963930D01*
D02*
G37*
G36*
X1217930D02*
X1213730D01*
X1214503Y962062D01*
X1216062Y960503D01*
X1217930Y959730D01*
Y963930D01*
D02*
G37*
G36*
X1021470D02*
X1017270D01*
Y959730D01*
X1019138Y960503D01*
X1020697Y962062D01*
X1021470Y963930D01*
D02*
G37*
G36*
X1014730D02*
X1010530D01*
X1011303Y962062D01*
X1012862Y960503D01*
X1014730Y959730D01*
Y963930D01*
D02*
G37*
G36*
X615070D02*
X610870D01*
Y959730D01*
X612738Y960503D01*
X614297Y962062D01*
X615070Y963930D01*
D02*
G37*
G36*
X608330D02*
X604130D01*
X604903Y962062D01*
X606462Y960503D01*
X608330Y959730D01*
Y963930D01*
D02*
G37*
G36*
X564270D02*
X560070D01*
Y959730D01*
X561938Y960503D01*
X563497Y962062D01*
X564270Y963930D01*
D02*
G37*
G36*
X557530D02*
X553330D01*
X554103Y962062D01*
X555662Y960503D01*
X557530Y959730D01*
Y963930D01*
D02*
G37*
G36*
X361070D02*
X356870D01*
Y959730D01*
X358738Y960503D01*
X360297Y962062D01*
X361070Y963930D01*
D02*
G37*
G36*
X354330D02*
X350130D01*
X350903Y962062D01*
X352462Y960503D01*
X354330Y959730D01*
Y963930D01*
D02*
G37*
G36*
X310270D02*
X306070D01*
Y959730D01*
X307938Y960503D01*
X309497Y962062D01*
X310270Y963930D01*
D02*
G37*
G36*
X303530D02*
X299330D01*
X300103Y962062D01*
X301662Y960503D01*
X303530Y959730D01*
Y963930D01*
D02*
G37*
G36*
X759441Y961513D02*
X751840D01*
X744239D01*
Y955809D01*
X726440Y955809D01*
X725660Y955654D01*
X724998Y955212D01*
X716108Y946322D01*
X708541Y938755D01*
X683197Y916871D01*
X683151Y916812D01*
X683088Y916770D01*
X682908Y916500D01*
X682708Y916244D01*
X682688Y916171D01*
X682646Y916108D01*
X682583Y915790D01*
X682496Y915477D01*
X682505Y915402D01*
X682491Y915328D01*
Y899160D01*
X682646Y898380D01*
X683088Y897718D01*
X683750Y897276D01*
X684530Y897121D01*
X715010D01*
X715010Y897121D01*
X715790Y897276D01*
X716452Y897718D01*
X729330Y910596D01*
X729330Y910596D01*
X754552Y935818D01*
X754994Y936480D01*
X755149Y937260D01*
Y946150D01*
X754994Y946930D01*
X754552Y947592D01*
X752609Y949535D01*
X752961Y951304D01*
X753708Y951613D01*
X755267Y953172D01*
X756003Y954949D01*
X759441D01*
Y961513D01*
D02*
G37*
G36*
X723020Y958850D02*
X718820D01*
Y954650D01*
X720688Y955423D01*
X722247Y956982D01*
X723020Y958850D01*
D02*
G37*
G36*
X716280D02*
X712080D01*
X712853Y956982D01*
X714412Y955423D01*
X716280Y954650D01*
Y958850D01*
D02*
G37*
G36*
X874755Y960040D02*
X872765D01*
X870928Y959279D01*
X869521Y957872D01*
X868760Y956035D01*
Y954045D01*
X869521Y952208D01*
X870928Y950801D01*
X872765Y950040D01*
X874755D01*
X876592Y950801D01*
X877999Y952208D01*
X878760Y954045D01*
Y956035D01*
X877999Y957872D01*
X876592Y959279D01*
X874755Y960040D01*
D02*
G37*
G36*
X1170940Y950350D02*
Y946150D01*
X1175140D01*
X1174367Y948018D01*
X1172808Y949577D01*
X1170940Y950350D01*
D02*
G37*
G36*
X1168400D02*
X1166532Y949577D01*
X1164973Y948018D01*
X1164200Y946150D01*
X1168400D01*
Y950350D01*
D02*
G37*
G36*
X708260Y953870D02*
X691260D01*
X690479Y953714D01*
X689818Y953272D01*
X689376Y952611D01*
X689220Y951830D01*
Y946330D01*
X689376Y945550D01*
X689818Y944889D01*
X690479Y944446D01*
X691260Y944291D01*
X708260D01*
X709040Y944446D01*
X709702Y944889D01*
X710144Y945550D01*
X710299Y946330D01*
Y951830D01*
X710144Y952611D01*
X709702Y953272D01*
X709040Y953714D01*
X708260Y953870D01*
D02*
G37*
G36*
X547095Y953690D02*
X545105D01*
X543268Y952929D01*
X541861Y951522D01*
X541100Y949685D01*
Y947695D01*
X541861Y945858D01*
X543268Y944451D01*
X545105Y943690D01*
X547095D01*
X548932Y944451D01*
X550339Y945858D01*
X551100Y947695D01*
Y949685D01*
X550339Y951522D01*
X548932Y952929D01*
X547095Y953690D01*
D02*
G37*
G36*
X1175140Y943610D02*
X1170940D01*
Y939410D01*
X1172808Y940183D01*
X1174367Y941742D01*
X1175140Y943610D01*
D02*
G37*
G36*
X1168400D02*
X1164200D01*
X1164973Y941742D01*
X1166532Y940183D01*
X1168400Y939410D01*
Y943610D01*
D02*
G37*
G36*
X819150Y942818D02*
X817282Y942044D01*
X815723Y940486D01*
X814950Y938617D01*
X819150D01*
Y942818D01*
D02*
G37*
G36*
X419100Y937650D02*
Y933450D01*
X423300D01*
X422527Y935318D01*
X420968Y936877D01*
X419100Y937650D01*
D02*
G37*
G36*
X416560D02*
X414692Y936877D01*
X413133Y935318D01*
X412360Y933450D01*
X416560D01*
Y937650D01*
D02*
G37*
G36*
X423300Y930910D02*
X419100D01*
Y926710D01*
X420968Y927483D01*
X422527Y929042D01*
X423300Y930910D01*
D02*
G37*
G36*
X416560D02*
X412360D01*
X413133Y929042D01*
X414692Y927483D01*
X416560Y926710D01*
Y930910D01*
D02*
G37*
G36*
X821444Y925830D02*
X820420D01*
Y924847D01*
X821444D01*
Y925830D01*
D02*
G37*
G36*
X868154Y928154D02*
Y923953D01*
X872355D01*
X871581Y925822D01*
X870022Y927380D01*
X868154Y928154D01*
D02*
G37*
G36*
X865614D02*
X863746Y927380D01*
X862188Y925822D01*
X861414Y923953D01*
X865614D01*
Y928154D01*
D02*
G37*
G36*
X819150Y923577D02*
X814881D01*
Y919499D01*
X818855D01*
X819150Y919377D01*
Y923577D01*
D02*
G37*
G36*
X1245870Y919870D02*
Y915670D01*
X1250070D01*
X1249297Y917538D01*
X1247738Y919097D01*
X1245870Y919870D01*
D02*
G37*
G36*
X1243330D02*
X1241462Y919097D01*
X1239903Y917538D01*
X1239130Y915670D01*
X1243330D01*
Y919870D01*
D02*
G37*
G36*
X1195070D02*
Y915670D01*
X1199270D01*
X1198497Y917538D01*
X1196938Y919097D01*
X1195070Y919870D01*
D02*
G37*
G36*
X1192530D02*
X1190662Y919097D01*
X1189103Y917538D01*
X1188330Y915670D01*
X1192530D01*
Y919870D01*
D02*
G37*
G36*
X1144270D02*
Y915670D01*
X1148470D01*
X1147697Y917538D01*
X1146138Y919097D01*
X1144270Y919870D01*
D02*
G37*
G36*
X1141730D02*
X1139862Y919097D01*
X1138303Y917538D01*
X1137530Y915670D01*
X1141730D01*
Y919870D01*
D02*
G37*
G36*
X1093470D02*
Y915670D01*
X1097670D01*
X1096897Y917538D01*
X1095338Y919097D01*
X1093470Y919870D01*
D02*
G37*
G36*
X1090930D02*
X1089062Y919097D01*
X1087503Y917538D01*
X1086730Y915670D01*
X1090930D01*
Y919870D01*
D02*
G37*
G36*
X1042670D02*
Y915670D01*
X1046870D01*
X1046097Y917538D01*
X1044538Y919097D01*
X1042670Y919870D01*
D02*
G37*
G36*
X1040130D02*
X1038262Y919097D01*
X1036703Y917538D01*
X1035930Y915670D01*
X1040130D01*
Y919870D01*
D02*
G37*
G36*
X788670D02*
Y915670D01*
X792870D01*
X792097Y917538D01*
X790538Y919097D01*
X788670Y919870D01*
D02*
G37*
G36*
X786130D02*
X784262Y919097D01*
X782703Y917538D01*
X781930Y915670D01*
X786130D01*
Y919870D01*
D02*
G37*
G36*
X636270D02*
Y915670D01*
X640470D01*
X639697Y917538D01*
X638138Y919097D01*
X636270Y919870D01*
D02*
G37*
G36*
X633730D02*
X631862Y919097D01*
X630303Y917538D01*
X629530Y915670D01*
X633730D01*
Y919870D01*
D02*
G37*
G36*
X585470D02*
Y915670D01*
X589670D01*
X588897Y917538D01*
X587338Y919097D01*
X585470Y919870D01*
D02*
G37*
G36*
X582930D02*
X581062Y919097D01*
X579503Y917538D01*
X578730Y915670D01*
X582930D01*
Y919870D01*
D02*
G37*
G36*
X534670D02*
Y915670D01*
X538870D01*
X538097Y917538D01*
X536538Y919097D01*
X534670Y919870D01*
D02*
G37*
G36*
X532130D02*
X530262Y919097D01*
X528703Y917538D01*
X527930Y915670D01*
X532130D01*
Y919870D01*
D02*
G37*
G36*
X483870D02*
Y915670D01*
X488070D01*
X487297Y917538D01*
X485738Y919097D01*
X483870Y919870D01*
D02*
G37*
G36*
X481330D02*
X479462Y919097D01*
X477903Y917538D01*
X477130Y915670D01*
X481330D01*
Y919870D01*
D02*
G37*
G36*
X433070D02*
Y915670D01*
X437270D01*
X436497Y917538D01*
X434938Y919097D01*
X433070Y919870D01*
D02*
G37*
G36*
X430530D02*
X428662Y919097D01*
X427103Y917538D01*
X426330Y915670D01*
X430530D01*
Y919870D01*
D02*
G37*
G36*
X382270D02*
Y915670D01*
X386470D01*
X385697Y917538D01*
X384138Y919097D01*
X382270Y919870D01*
D02*
G37*
G36*
X379730D02*
X377862Y919097D01*
X376303Y917538D01*
X375530Y915670D01*
X379730D01*
Y919870D01*
D02*
G37*
G36*
X331470D02*
Y915670D01*
X335670D01*
X334897Y917538D01*
X333338Y919097D01*
X331470Y919870D01*
D02*
G37*
G36*
X328930D02*
X327062Y919097D01*
X325503Y917538D01*
X324730Y915670D01*
X328930D01*
Y919870D01*
D02*
G37*
G36*
X872355Y921413D02*
X861414D01*
X862188Y919545D01*
X863746Y917987D01*
X863925Y917913D01*
X863981Y916266D01*
X862713Y914998D01*
X861940Y913130D01*
X872880D01*
X872107Y914998D01*
X870548Y916557D01*
X870369Y916631D01*
X870313Y918278D01*
X871581Y919545D01*
X872355Y921413D01*
D02*
G37*
G36*
X1250070Y913130D02*
X1245870D01*
Y908930D01*
X1247738Y909703D01*
X1249297Y911262D01*
X1250070Y913130D01*
D02*
G37*
G36*
X1243330D02*
X1239130D01*
X1239903Y911262D01*
X1241462Y909703D01*
X1243330Y908930D01*
Y913130D01*
D02*
G37*
G36*
X1199270D02*
X1195070D01*
Y908930D01*
X1196938Y909703D01*
X1198497Y911262D01*
X1199270Y913130D01*
D02*
G37*
G36*
X1192530D02*
X1188330D01*
X1189103Y911262D01*
X1190662Y909703D01*
X1192530Y908930D01*
Y913130D01*
D02*
G37*
G36*
X1148470D02*
X1144270D01*
Y908930D01*
X1146138Y909703D01*
X1147697Y911262D01*
X1148470Y913130D01*
D02*
G37*
G36*
X1141730D02*
X1137530D01*
X1138303Y911262D01*
X1139862Y909703D01*
X1141730Y908930D01*
Y913130D01*
D02*
G37*
G36*
X1097670D02*
X1093470D01*
Y908930D01*
X1095338Y909703D01*
X1096897Y911262D01*
X1097670Y913130D01*
D02*
G37*
G36*
X1090930D02*
X1086730D01*
X1087503Y911262D01*
X1089062Y909703D01*
X1090930Y908930D01*
Y913130D01*
D02*
G37*
G36*
X792870D02*
X788670D01*
Y908930D01*
X790538Y909703D01*
X792097Y911262D01*
X792870Y913130D01*
D02*
G37*
G36*
X786130D02*
X781930D01*
X782703Y911262D01*
X784262Y909703D01*
X786130Y908930D01*
Y913130D01*
D02*
G37*
G36*
X640470D02*
X636270D01*
Y908930D01*
X638138Y909703D01*
X639697Y911262D01*
X640470Y913130D01*
D02*
G37*
G36*
X633730D02*
X629530D01*
X630303Y911262D01*
X631862Y909703D01*
X633730Y908930D01*
Y913130D01*
D02*
G37*
G36*
X589670D02*
X585470D01*
Y908930D01*
X587338Y909703D01*
X588897Y911262D01*
X589670Y913130D01*
D02*
G37*
G36*
X582930D02*
X578730D01*
X579503Y911262D01*
X581062Y909703D01*
X582930Y908930D01*
Y913130D01*
D02*
G37*
G36*
X538870D02*
X534670D01*
Y908930D01*
X536538Y909703D01*
X538097Y911262D01*
X538870Y913130D01*
D02*
G37*
G36*
X532130D02*
X527930D01*
X528703Y911262D01*
X530262Y909703D01*
X532130Y908930D01*
Y913130D01*
D02*
G37*
G36*
X488070D02*
X483870D01*
Y908930D01*
X485738Y909703D01*
X487297Y911262D01*
X488070Y913130D01*
D02*
G37*
G36*
X481330D02*
X477130D01*
X477903Y911262D01*
X479462Y909703D01*
X481330Y908930D01*
Y913130D01*
D02*
G37*
G36*
X437270D02*
X433070D01*
Y908930D01*
X434938Y909703D01*
X436497Y911262D01*
X437270Y913130D01*
D02*
G37*
G36*
X430530D02*
X426330D01*
X427103Y911262D01*
X428662Y909703D01*
X430530Y908930D01*
Y913130D01*
D02*
G37*
G36*
X386470D02*
X382270D01*
Y908930D01*
X384138Y909703D01*
X385697Y911262D01*
X386470Y913130D01*
D02*
G37*
G36*
X379730D02*
X375530D01*
X376303Y911262D01*
X377862Y909703D01*
X379730Y908930D01*
Y913130D01*
D02*
G37*
G36*
X335670D02*
X331470D01*
Y908930D01*
X333338Y909703D01*
X334897Y911262D01*
X335670Y913130D01*
D02*
G37*
G36*
X328930D02*
X324730D01*
X325503Y911262D01*
X327062Y909703D01*
X328930Y908930D01*
Y913130D01*
D02*
G37*
G36*
X872880Y910590D02*
X868680D01*
Y906390D01*
X870548Y907163D01*
X872107Y908722D01*
X872880Y910590D01*
D02*
G37*
G36*
X866140D02*
X861940D01*
X862713Y908722D01*
X864272Y907163D01*
X866140Y906390D01*
Y910590D01*
D02*
G37*
G36*
X801370Y907170D02*
Y902970D01*
X805570D01*
X804797Y904838D01*
X803238Y906397D01*
X801370Y907170D01*
D02*
G37*
G36*
X798830D02*
X796962Y906397D01*
X795403Y904838D01*
X794630Y902970D01*
X798830D01*
Y907170D01*
D02*
G37*
G36*
X1046870Y913130D02*
X1035930D01*
X1036703Y911262D01*
X1037339Y910626D01*
X1036973Y908870D01*
X1036028Y908479D01*
X1034621Y907072D01*
X1033860Y905235D01*
Y903245D01*
X1034621Y901408D01*
X1036028Y900001D01*
X1037865Y899240D01*
X1039855D01*
X1041692Y900001D01*
X1043099Y901408D01*
X1043860Y903245D01*
Y905235D01*
X1043099Y907072D01*
X1042720Y907450D01*
X1042710Y907520D01*
X1043160Y909133D01*
X1044538Y909703D01*
X1046097Y911262D01*
X1046870Y913130D01*
D02*
G37*
G36*
X805570Y900430D02*
X801370D01*
Y896230D01*
X803238Y897003D01*
X804797Y898562D01*
X805570Y900430D01*
D02*
G37*
G36*
X798830D02*
X794630D01*
X795403Y898562D01*
X796962Y897003D01*
X798830Y896230D01*
Y900430D01*
D02*
G37*
G36*
X1132840Y897010D02*
Y892810D01*
X1137040D01*
X1136267Y894678D01*
X1134708Y896237D01*
X1132840Y897010D01*
D02*
G37*
G36*
X1130300D02*
X1128432Y896237D01*
X1126873Y894678D01*
X1126100Y892810D01*
X1130300D01*
Y897010D01*
D02*
G37*
G36*
X787975Y897391D02*
X785986D01*
X784149Y896630D01*
X782742Y895223D01*
X781981Y893385D01*
Y891396D01*
X782742Y889559D01*
X784149Y888152D01*
X785986Y887391D01*
X787975D01*
X789813Y888152D01*
X791220Y889559D01*
X791981Y891396D01*
Y893385D01*
X791220Y895223D01*
X789813Y896630D01*
X787975Y897391D01*
D02*
G37*
G36*
X1137040Y890270D02*
X1132840D01*
Y886070D01*
X1134708Y886843D01*
X1136267Y888402D01*
X1137040Y890270D01*
D02*
G37*
G36*
X1130300D02*
X1126100D01*
X1126873Y888402D01*
X1128432Y886843D01*
X1130300Y886070D01*
Y890270D01*
D02*
G37*
G36*
X1112520Y888120D02*
Y883920D01*
X1116720D01*
X1115947Y885788D01*
X1114388Y887347D01*
X1112520Y888120D01*
D02*
G37*
G36*
X1109980D02*
X1108112Y887347D01*
X1106553Y885788D01*
X1105780Y883920D01*
X1109980D01*
Y888120D01*
D02*
G37*
G36*
X802640D02*
Y883920D01*
X806840D01*
X806067Y885788D01*
X804508Y887347D01*
X802640Y888120D01*
D02*
G37*
G36*
X800100D02*
X798232Y887347D01*
X796673Y885788D01*
X795900Y883920D01*
X800100D01*
Y888120D01*
D02*
G37*
G36*
X1085575Y891460D02*
X1083585D01*
X1081748Y890699D01*
X1080341Y889292D01*
X1079580Y887455D01*
Y885465D01*
X1080341Y883628D01*
X1081748Y882221D01*
X1083585Y881460D01*
X1085575D01*
X1087412Y882221D01*
X1088819Y883628D01*
X1089580Y885465D01*
Y887455D01*
X1088819Y889292D01*
X1087412Y890699D01*
X1085575Y891460D01*
D02*
G37*
G36*
X740417Y898940D02*
X724418D01*
X723637Y898785D01*
X722976Y898343D01*
X722534Y897681D01*
X722378Y896901D01*
Y880401D01*
X722534Y879621D01*
X722976Y878959D01*
X723637Y878517D01*
X724418Y878362D01*
X740417D01*
X741198Y878517D01*
X741860Y878959D01*
X742301Y879621D01*
X742457Y880401D01*
Y896901D01*
X742301Y897681D01*
X741860Y898343D01*
X741198Y898785D01*
X740417Y898940D01*
D02*
G37*
G36*
X1116720Y881380D02*
X1112520D01*
Y877180D01*
X1114388Y877953D01*
X1115947Y879512D01*
X1116720Y881380D01*
D02*
G37*
G36*
X1109980D02*
X1105780D01*
X1106553Y879512D01*
X1108112Y877953D01*
X1109980Y877180D01*
Y881380D01*
D02*
G37*
G36*
X806840D02*
X802640D01*
Y877180D01*
X804508Y877953D01*
X806067Y879512D01*
X806840Y881380D01*
D02*
G37*
G36*
X800100D02*
X795900D01*
X796673Y879512D01*
X798232Y877953D01*
X800100Y877180D01*
Y881380D01*
D02*
G37*
G36*
X417555Y883840D02*
X415565D01*
X413728Y883079D01*
X412321Y881672D01*
X411560Y879835D01*
Y877845D01*
X412321Y876008D01*
X413728Y874601D01*
X415565Y873840D01*
X417555D01*
X419392Y874601D01*
X420799Y876008D01*
X421560Y877845D01*
Y879835D01*
X420799Y881672D01*
X419392Y883079D01*
X417555Y883840D01*
D02*
G37*
G36*
X1220470Y869070D02*
Y864870D01*
X1224670D01*
X1223897Y866738D01*
X1222338Y868297D01*
X1220470Y869070D01*
D02*
G37*
G36*
X1217930D02*
X1216062Y868297D01*
X1214503Y866738D01*
X1213730Y864870D01*
X1217930D01*
Y869070D01*
D02*
G37*
G36*
X1169670D02*
Y864870D01*
X1173870D01*
X1173097Y866738D01*
X1171538Y868297D01*
X1169670Y869070D01*
D02*
G37*
G36*
X1167130D02*
X1165262Y868297D01*
X1163703Y866738D01*
X1162930Y864870D01*
X1167130D01*
Y869070D01*
D02*
G37*
G36*
X1068070D02*
Y864870D01*
X1072270D01*
X1071497Y866738D01*
X1069938Y868297D01*
X1068070Y869070D01*
D02*
G37*
G36*
X915670D02*
Y864870D01*
X919870D01*
X919097Y866738D01*
X917538Y868297D01*
X915670Y869070D01*
D02*
G37*
G36*
X913130D02*
X911262Y868297D01*
X909703Y866738D01*
X908930Y864870D01*
X913130D01*
Y869070D01*
D02*
G37*
G36*
X864870D02*
Y864870D01*
X869070D01*
X868297Y866738D01*
X866738Y868297D01*
X864870Y869070D01*
D02*
G37*
G36*
X862330D02*
X860462Y868297D01*
X858903Y866738D01*
X858130Y864870D01*
X862330D01*
Y869070D01*
D02*
G37*
G36*
X712470D02*
Y864870D01*
X716670D01*
X715897Y866738D01*
X714338Y868297D01*
X712470Y869070D01*
D02*
G37*
G36*
X709930D02*
X708062Y868297D01*
X706503Y866738D01*
X705730Y864870D01*
X709930D01*
Y869070D01*
D02*
G37*
G36*
X661670D02*
Y864870D01*
X665870D01*
X665097Y866738D01*
X663538Y868297D01*
X661670Y869070D01*
D02*
G37*
G36*
X659130D02*
X657262Y868297D01*
X655703Y866738D01*
X654930Y864870D01*
X659130D01*
Y869070D01*
D02*
G37*
G36*
X610870D02*
Y864870D01*
X615070D01*
X614297Y866738D01*
X612738Y868297D01*
X610870Y869070D01*
D02*
G37*
G36*
X608330D02*
X606462Y868297D01*
X604903Y866738D01*
X604130Y864870D01*
X608330D01*
Y869070D01*
D02*
G37*
G36*
X560070D02*
Y864870D01*
X564270D01*
X563497Y866738D01*
X561938Y868297D01*
X560070Y869070D01*
D02*
G37*
G36*
X557530D02*
X555662Y868297D01*
X554103Y866738D01*
X553330Y864870D01*
X557530D01*
Y869070D01*
D02*
G37*
G36*
X458470D02*
Y864870D01*
X462670D01*
X461897Y866738D01*
X460338Y868297D01*
X458470Y869070D01*
D02*
G37*
G36*
X455930D02*
X454062Y868297D01*
X452503Y866738D01*
X451730Y864870D01*
X455930D01*
Y869070D01*
D02*
G37*
G36*
X407670D02*
Y864870D01*
X411870D01*
X411097Y866738D01*
X409538Y868297D01*
X407670Y869070D01*
D02*
G37*
G36*
X405130D02*
X403262Y868297D01*
X401703Y866738D01*
X400930Y864870D01*
X405130D01*
Y869070D01*
D02*
G37*
G36*
X356870D02*
Y864870D01*
X361070D01*
X360297Y866738D01*
X358738Y868297D01*
X356870Y869070D01*
D02*
G37*
G36*
X354330D02*
X352462Y868297D01*
X350903Y866738D01*
X350130Y864870D01*
X354330D01*
Y869070D01*
D02*
G37*
G36*
X306070D02*
Y864870D01*
X310270D01*
X309497Y866738D01*
X307938Y868297D01*
X306070Y869070D01*
D02*
G37*
G36*
X303530D02*
X301662Y868297D01*
X300103Y866738D01*
X299330Y864870D01*
X303530D01*
Y869070D01*
D02*
G37*
G36*
X812525Y871140D02*
X810535D01*
X808698Y870379D01*
X807291Y868972D01*
X806530Y867135D01*
Y865145D01*
X807291Y863308D01*
X808698Y861901D01*
X810535Y861140D01*
X812525D01*
X814362Y861901D01*
X815769Y863308D01*
X816530Y865145D01*
Y867135D01*
X815769Y868972D01*
X814362Y870379D01*
X812525Y871140D01*
D02*
G37*
G36*
X1224670Y862330D02*
X1220470D01*
Y858130D01*
X1222338Y858903D01*
X1223897Y860462D01*
X1224670Y862330D01*
D02*
G37*
G36*
X1217930D02*
X1213730D01*
X1214503Y860462D01*
X1216062Y858903D01*
X1217930Y858130D01*
Y862330D01*
D02*
G37*
G36*
X1173870D02*
X1169670D01*
Y858130D01*
X1171538Y858903D01*
X1173097Y860462D01*
X1173870Y862330D01*
D02*
G37*
G36*
X1167130D02*
X1162930D01*
X1163703Y860462D01*
X1165262Y858903D01*
X1167130Y858130D01*
Y862330D01*
D02*
G37*
G36*
X1072270D02*
X1068070D01*
Y858130D01*
X1069938Y858903D01*
X1071497Y860462D01*
X1072270Y862330D01*
D02*
G37*
G36*
X919870D02*
X915670D01*
Y858130D01*
X917538Y858903D01*
X919097Y860462D01*
X919870Y862330D01*
D02*
G37*
G36*
X913130D02*
X908930D01*
X909703Y860462D01*
X911262Y858903D01*
X913130Y858130D01*
Y862330D01*
D02*
G37*
G36*
X869070D02*
X864870D01*
Y858130D01*
X866738Y858903D01*
X868297Y860462D01*
X869070Y862330D01*
D02*
G37*
G36*
X862330D02*
X858130D01*
X858903Y860462D01*
X860462Y858903D01*
X862330Y858130D01*
Y862330D01*
D02*
G37*
G36*
X665870D02*
X661670D01*
Y858130D01*
X663538Y858903D01*
X665097Y860462D01*
X665870Y862330D01*
D02*
G37*
G36*
X659130D02*
X654930D01*
X655703Y860462D01*
X657262Y858903D01*
X659130Y858130D01*
Y862330D01*
D02*
G37*
G36*
X615070D02*
X610870D01*
Y858130D01*
X612738Y858903D01*
X614297Y860462D01*
X615070Y862330D01*
D02*
G37*
G36*
X608330D02*
X604130D01*
X604903Y860462D01*
X606462Y858903D01*
X608330Y858130D01*
Y862330D01*
D02*
G37*
G36*
X564270D02*
X560070D01*
Y858130D01*
X561938Y858903D01*
X563497Y860462D01*
X564270Y862330D01*
D02*
G37*
G36*
X557530D02*
X553330D01*
X554103Y860462D01*
X555662Y858903D01*
X557530Y858130D01*
Y862330D01*
D02*
G37*
G36*
X462670D02*
X458470D01*
Y858130D01*
X460338Y858903D01*
X461897Y860462D01*
X462670Y862330D01*
D02*
G37*
G36*
X455930D02*
X451730D01*
X452503Y860462D01*
X454062Y858903D01*
X455930Y858130D01*
Y862330D01*
D02*
G37*
G36*
X411870D02*
X407670D01*
Y858130D01*
X409538Y858903D01*
X411097Y860462D01*
X411870Y862330D01*
D02*
G37*
G36*
X405130D02*
X400930D01*
X401703Y860462D01*
X403262Y858903D01*
X405130Y858130D01*
Y862330D01*
D02*
G37*
G36*
X361070D02*
X356870D01*
Y858130D01*
X358738Y858903D01*
X360297Y860462D01*
X361070Y862330D01*
D02*
G37*
G36*
X354330D02*
X350130D01*
X350903Y860462D01*
X352462Y858903D01*
X354330Y858130D01*
Y862330D01*
D02*
G37*
G36*
X310270D02*
X306070D01*
Y858130D01*
X307938Y858903D01*
X309497Y860462D01*
X310270Y862330D01*
D02*
G37*
G36*
X303530D02*
X299330D01*
X300103Y860462D01*
X301662Y858903D01*
X303530Y858130D01*
Y862330D01*
D02*
G37*
G36*
X1076960Y851290D02*
Y847090D01*
X1081160D01*
X1080387Y848958D01*
X1078828Y850517D01*
X1076960Y851290D01*
D02*
G37*
G36*
X1074420D02*
X1072552Y850517D01*
X1070993Y848958D01*
X1070220Y847090D01*
X1074420D01*
Y851290D01*
D02*
G37*
G36*
X1064260D02*
Y847090D01*
X1068460D01*
X1067687Y848958D01*
X1066128Y850517D01*
X1064260Y851290D01*
D02*
G37*
G36*
X1061720D02*
X1059852Y850517D01*
X1058293Y848958D01*
X1057520Y847090D01*
X1061720D01*
Y851290D01*
D02*
G37*
G36*
X812525Y852090D02*
X810535D01*
X808698Y851329D01*
X807291Y849922D01*
X806530Y848085D01*
Y846095D01*
X807291Y844258D01*
X808698Y842851D01*
X810535Y842090D01*
X812525D01*
X814362Y842851D01*
X815769Y844258D01*
X816530Y846095D01*
Y848085D01*
X815769Y849922D01*
X814362Y851329D01*
X812525Y852090D01*
D02*
G37*
G36*
X1081160Y844550D02*
X1076960D01*
Y840350D01*
X1078828Y841123D01*
X1080387Y842682D01*
X1081160Y844550D01*
D02*
G37*
G36*
X1074420D02*
X1070220D01*
X1070993Y842682D01*
X1072552Y841123D01*
X1074420Y840350D01*
Y844550D01*
D02*
G37*
G36*
X1068460D02*
X1064260D01*
Y840350D01*
X1066128Y841123D01*
X1067687Y842682D01*
X1068460Y844550D01*
D02*
G37*
G36*
X1061720D02*
X1057520D01*
X1058293Y842682D01*
X1059852Y841123D01*
X1061720Y840350D01*
Y844550D01*
D02*
G37*
G36*
X885190Y836050D02*
Y831850D01*
X889390D01*
X888617Y833718D01*
X887058Y835277D01*
X885190Y836050D01*
D02*
G37*
G36*
X882650D02*
X880782Y835277D01*
X879223Y833718D01*
X878450Y831850D01*
X882650D01*
Y836050D01*
D02*
G37*
G36*
X889390Y829310D02*
X885190D01*
Y825110D01*
X887058Y825883D01*
X888617Y827442D01*
X889390Y829310D01*
D02*
G37*
G36*
X882650D02*
X878450D01*
X879223Y827442D01*
X880782Y825883D01*
X882650Y825110D01*
Y829310D01*
D02*
G37*
G36*
X815065Y830783D02*
X813075D01*
X811238Y830022D01*
X809831Y828615D01*
X809070Y826778D01*
Y824789D01*
X809831Y822951D01*
X811238Y821544D01*
X813075Y820783D01*
X815065D01*
X816902Y821544D01*
X818309Y822951D01*
X819070Y824789D01*
Y826778D01*
X818309Y828615D01*
X816902Y830022D01*
X815065Y830783D01*
D02*
G37*
G36*
X1195070Y818270D02*
Y814070D01*
X1199270D01*
X1198497Y815938D01*
X1196938Y817497D01*
X1195070Y818270D01*
D02*
G37*
G36*
X1192530D02*
X1190662Y817497D01*
X1189103Y815938D01*
X1188330Y814070D01*
X1192530D01*
Y818270D01*
D02*
G37*
G36*
X1093470D02*
Y814070D01*
X1097670D01*
X1096897Y815938D01*
X1095338Y817497D01*
X1093470Y818270D01*
D02*
G37*
G36*
X1090930D02*
X1089062Y817497D01*
X1087503Y815938D01*
X1086730Y814070D01*
X1090930D01*
Y818270D01*
D02*
G37*
G36*
X991870D02*
Y814070D01*
X996070D01*
X995297Y815938D01*
X993738Y817497D01*
X991870Y818270D01*
D02*
G37*
G36*
X989330D02*
X987462Y817497D01*
X985903Y815938D01*
X985130Y814070D01*
X989330D01*
Y818270D01*
D02*
G37*
G36*
X687070D02*
Y814070D01*
X691270D01*
X690497Y815938D01*
X688938Y817497D01*
X687070Y818270D01*
D02*
G37*
G36*
X684530D02*
X682662Y817497D01*
X681103Y815938D01*
X680330Y814070D01*
X684530D01*
Y818270D01*
D02*
G37*
G36*
X636270D02*
Y814070D01*
X640470D01*
X639697Y815938D01*
X638138Y817497D01*
X636270Y818270D01*
D02*
G37*
G36*
X633730D02*
X631862Y817497D01*
X630303Y815938D01*
X629530Y814070D01*
X633730D01*
Y818270D01*
D02*
G37*
G36*
X585470D02*
Y814070D01*
X589670D01*
X588897Y815938D01*
X587338Y817497D01*
X585470Y818270D01*
D02*
G37*
G36*
X582930D02*
X581062Y817497D01*
X579503Y815938D01*
X578730Y814070D01*
X582930D01*
Y818270D01*
D02*
G37*
G36*
X1199270Y811530D02*
X1195070D01*
Y807330D01*
X1196938Y808103D01*
X1198497Y809662D01*
X1199270Y811530D01*
D02*
G37*
G36*
X1192530D02*
X1188330D01*
X1189103Y809662D01*
X1190662Y808103D01*
X1192530Y807330D01*
Y811530D01*
D02*
G37*
G36*
X1097670D02*
X1093470D01*
Y807330D01*
X1095338Y808103D01*
X1096897Y809662D01*
X1097670Y811530D01*
D02*
G37*
G36*
X1090930D02*
X1086730D01*
X1087503Y809662D01*
X1089062Y808103D01*
X1090930Y807330D01*
Y811530D01*
D02*
G37*
G36*
X996070D02*
X991870D01*
Y807330D01*
X993738Y808103D01*
X995297Y809662D01*
X996070Y811530D01*
D02*
G37*
G36*
X989330D02*
X985130D01*
X985903Y809662D01*
X987462Y808103D01*
X989330Y807330D01*
Y811530D01*
D02*
G37*
G36*
X691270D02*
X687070D01*
Y807330D01*
X688938Y808103D01*
X690497Y809662D01*
X691270Y811530D01*
D02*
G37*
G36*
X684530D02*
X680330D01*
X681103Y809662D01*
X682662Y808103D01*
X684530Y807330D01*
Y811530D01*
D02*
G37*
G36*
X640470D02*
X636270D01*
Y807330D01*
X638138Y808103D01*
X639697Y809662D01*
X640470Y811530D01*
D02*
G37*
G36*
X633730D02*
X629530D01*
X630303Y809662D01*
X631862Y808103D01*
X633730Y807330D01*
Y811530D01*
D02*
G37*
G36*
X589670D02*
X585470D01*
Y807330D01*
X587338Y808103D01*
X588897Y809662D01*
X589670Y811530D01*
D02*
G37*
G36*
X582930D02*
X578730D01*
X579503Y809662D01*
X581062Y808103D01*
X582930Y807330D01*
Y811530D01*
D02*
G37*
G36*
X1152885Y815260D02*
X1150895D01*
X1149058Y814499D01*
X1147651Y813092D01*
X1146890Y811255D01*
Y809265D01*
X1147651Y807428D01*
X1149058Y806021D01*
X1150895Y805260D01*
X1152885D01*
X1154722Y806021D01*
X1156129Y807428D01*
X1156890Y809265D01*
Y811255D01*
X1156129Y813092D01*
X1154722Y814499D01*
X1152885Y815260D01*
D02*
G37*
G36*
X740417Y823439D02*
X724417D01*
X723636Y823284D01*
X722975Y822842D01*
X722533Y822180D01*
X722378Y821400D01*
Y804900D01*
X722533Y804120D01*
X722975Y803458D01*
X723636Y803016D01*
X724417Y802861D01*
X740417D01*
X741197Y803016D01*
X741859Y803458D01*
X742301Y804120D01*
X742456Y804900D01*
Y821400D01*
X742301Y822180D01*
X741859Y822842D01*
X741197Y823284D01*
X740417Y823439D01*
D02*
G37*
G36*
X1220470Y767470D02*
Y763270D01*
X1224670D01*
X1223897Y765138D01*
X1222338Y766697D01*
X1220470Y767470D01*
D02*
G37*
G36*
X1217930D02*
X1216062Y766697D01*
X1214503Y765138D01*
X1213730Y763270D01*
X1217930D01*
Y767470D01*
D02*
G37*
G36*
X1169670D02*
Y763270D01*
X1173870D01*
X1173097Y765138D01*
X1171538Y766697D01*
X1169670Y767470D01*
D02*
G37*
G36*
X1167130D02*
X1165262Y766697D01*
X1163703Y765138D01*
X1162930Y763270D01*
X1167130D01*
Y767470D01*
D02*
G37*
G36*
X1118870D02*
Y763270D01*
X1123070D01*
X1122297Y765138D01*
X1120738Y766697D01*
X1118870Y767470D01*
D02*
G37*
G36*
X1116330D02*
X1114462Y766697D01*
X1112903Y765138D01*
X1112130Y763270D01*
X1116330D01*
Y767470D01*
D02*
G37*
G36*
X1068070D02*
Y763270D01*
X1072270D01*
X1071497Y765138D01*
X1069938Y766697D01*
X1068070Y767470D01*
D02*
G37*
G36*
X1065530D02*
X1063662Y766697D01*
X1062103Y765138D01*
X1061330Y763270D01*
X1065530D01*
Y767470D01*
D02*
G37*
G36*
X1017270D02*
Y763270D01*
X1021470D01*
X1020697Y765138D01*
X1019138Y766697D01*
X1017270Y767470D01*
D02*
G37*
G36*
X1014730D02*
X1012862Y766697D01*
X1011303Y765138D01*
X1010530Y763270D01*
X1014730D01*
Y767470D01*
D02*
G37*
G36*
X661670D02*
Y763270D01*
X665870D01*
X665097Y765138D01*
X663538Y766697D01*
X661670Y767470D01*
D02*
G37*
G36*
X659130D02*
X657262Y766697D01*
X655703Y765138D01*
X654930Y763270D01*
X659130D01*
Y767470D01*
D02*
G37*
G36*
X610870D02*
Y763270D01*
X615070D01*
X614297Y765138D01*
X612738Y766697D01*
X610870Y767470D01*
D02*
G37*
G36*
X608330D02*
X606462Y766697D01*
X604903Y765138D01*
X604130Y763270D01*
X608330D01*
Y767470D01*
D02*
G37*
G36*
X560070D02*
Y763270D01*
X564270D01*
X563497Y765138D01*
X561938Y766697D01*
X560070Y767470D01*
D02*
G37*
G36*
X557530D02*
X555662Y766697D01*
X554103Y765138D01*
X553330Y763270D01*
X557530D01*
Y767470D01*
D02*
G37*
G36*
X509270D02*
Y763270D01*
X513470D01*
X512697Y765138D01*
X511138Y766697D01*
X509270Y767470D01*
D02*
G37*
G36*
X506730D02*
X504862Y766697D01*
X503303Y765138D01*
X502530Y763270D01*
X506730D01*
Y767470D01*
D02*
G37*
G36*
X458470D02*
Y763270D01*
X462670D01*
X461897Y765138D01*
X460338Y766697D01*
X458470Y767470D01*
D02*
G37*
G36*
X455930D02*
X454062Y766697D01*
X452503Y765138D01*
X451730Y763270D01*
X455930D01*
Y767470D01*
D02*
G37*
G36*
X407670D02*
Y763270D01*
X411870D01*
X411097Y765138D01*
X409538Y766697D01*
X407670Y767470D01*
D02*
G37*
G36*
X405130D02*
X403262Y766697D01*
X401703Y765138D01*
X400930Y763270D01*
X405130D01*
Y767470D01*
D02*
G37*
G36*
X356870D02*
Y763270D01*
X361070D01*
X360297Y765138D01*
X358738Y766697D01*
X356870Y767470D01*
D02*
G37*
G36*
X354330D02*
X352462Y766697D01*
X350903Y765138D01*
X350130Y763270D01*
X354330D01*
Y767470D01*
D02*
G37*
G36*
X1247119Y825750D02*
X1242082D01*
X1237107Y824962D01*
X1232316Y823406D01*
X1227828Y821119D01*
X1223753Y818158D01*
X1220192Y814597D01*
X1217231Y810522D01*
X1214944Y806034D01*
X1213388Y801243D01*
X1212600Y796268D01*
Y791232D01*
X1213388Y786257D01*
X1214944Y781466D01*
X1217231Y776978D01*
X1220192Y772903D01*
X1223753Y769342D01*
X1227828Y766381D01*
X1232316Y764094D01*
X1237107Y762538D01*
X1242082Y761750D01*
X1247119D01*
X1252093Y762538D01*
X1256884Y764094D01*
X1261372Y766381D01*
X1265447Y769342D01*
X1269008Y772903D01*
X1271969Y776978D01*
X1274256Y781466D01*
X1275812Y786257D01*
X1276600Y791232D01*
Y796268D01*
X1275812Y801243D01*
X1274256Y806034D01*
X1271969Y810522D01*
X1269008Y814597D01*
X1265447Y818158D01*
X1261372Y821119D01*
X1256884Y823406D01*
X1252093Y824962D01*
X1247119Y825750D01*
D02*
G37*
G36*
X307318D02*
X302281D01*
X297307Y824962D01*
X292516Y823406D01*
X288028Y821119D01*
X283953Y818158D01*
X280392Y814597D01*
X277431Y810522D01*
X275144Y806034D01*
X273588Y801243D01*
X272800Y796268D01*
Y791232D01*
X273588Y786257D01*
X275144Y781466D01*
X277431Y776978D01*
X280392Y772903D01*
X283953Y769342D01*
X288028Y766381D01*
X292516Y764094D01*
X297307Y762538D01*
X302281Y761750D01*
X307318D01*
X312293Y762538D01*
X317084Y764094D01*
X321572Y766381D01*
X325647Y769342D01*
X329208Y772903D01*
X332169Y776978D01*
X334456Y781466D01*
X336012Y786257D01*
X336800Y791232D01*
Y796268D01*
X336012Y801243D01*
X334456Y806034D01*
X332169Y810522D01*
X329208Y814597D01*
X325647Y818158D01*
X321572Y821119D01*
X317084Y823406D01*
X312293Y824962D01*
X307318Y825750D01*
D02*
G37*
G36*
X1224670Y760730D02*
X1220470D01*
Y756530D01*
X1222338Y757303D01*
X1223897Y758862D01*
X1224670Y760730D01*
D02*
G37*
G36*
X1217930D02*
X1213730D01*
X1214503Y758862D01*
X1216062Y757303D01*
X1217930Y756530D01*
Y760730D01*
D02*
G37*
G36*
X1173870D02*
X1169670D01*
Y756530D01*
X1171538Y757303D01*
X1173097Y758862D01*
X1173870Y760730D01*
D02*
G37*
G36*
X1167130D02*
X1162930D01*
X1163703Y758862D01*
X1165262Y757303D01*
X1167130Y756530D01*
Y760730D01*
D02*
G37*
G36*
X1123070D02*
X1118870D01*
Y756530D01*
X1120738Y757303D01*
X1122297Y758862D01*
X1123070Y760730D01*
D02*
G37*
G36*
X1116330D02*
X1112130D01*
X1112903Y758862D01*
X1114462Y757303D01*
X1116330Y756530D01*
Y760730D01*
D02*
G37*
G36*
X1072270D02*
X1068070D01*
Y756530D01*
X1069938Y757303D01*
X1071497Y758862D01*
X1072270Y760730D01*
D02*
G37*
G36*
X1065530D02*
X1061330D01*
X1062103Y758862D01*
X1063662Y757303D01*
X1065530Y756530D01*
Y760730D01*
D02*
G37*
G36*
X1021470D02*
X1017270D01*
Y756530D01*
X1019138Y757303D01*
X1020697Y758862D01*
X1021470Y760730D01*
D02*
G37*
G36*
X1014730D02*
X1010530D01*
X1011303Y758862D01*
X1012862Y757303D01*
X1014730Y756530D01*
Y760730D01*
D02*
G37*
G36*
X665870D02*
X661670D01*
Y756530D01*
X663538Y757303D01*
X665097Y758862D01*
X665870Y760730D01*
D02*
G37*
G36*
X659130D02*
X654930D01*
X655703Y758862D01*
X657262Y757303D01*
X659130Y756530D01*
Y760730D01*
D02*
G37*
G36*
X615070D02*
X610870D01*
Y756530D01*
X612738Y757303D01*
X614297Y758862D01*
X615070Y760730D01*
D02*
G37*
G36*
X608330D02*
X604130D01*
X604903Y758862D01*
X606462Y757303D01*
X608330Y756530D01*
Y760730D01*
D02*
G37*
G36*
X564270D02*
X560070D01*
Y756530D01*
X561938Y757303D01*
X563497Y758862D01*
X564270Y760730D01*
D02*
G37*
G36*
X557530D02*
X553330D01*
X554103Y758862D01*
X555662Y757303D01*
X557530Y756530D01*
Y760730D01*
D02*
G37*
G36*
X513470D02*
X509270D01*
Y756530D01*
X511138Y757303D01*
X512697Y758862D01*
X513470Y760730D01*
D02*
G37*
G36*
X506730D02*
X502530D01*
X503303Y758862D01*
X504862Y757303D01*
X506730Y756530D01*
Y760730D01*
D02*
G37*
G36*
X462670D02*
X458470D01*
Y756530D01*
X460338Y757303D01*
X461897Y758862D01*
X462670Y760730D01*
D02*
G37*
G36*
X455930D02*
X451730D01*
X452503Y758862D01*
X454062Y757303D01*
X455930Y756530D01*
Y760730D01*
D02*
G37*
G36*
X411870D02*
X407670D01*
Y756530D01*
X409538Y757303D01*
X411097Y758862D01*
X411870Y760730D01*
D02*
G37*
G36*
X405130D02*
X400930D01*
X401703Y758862D01*
X403262Y757303D01*
X405130Y756530D01*
Y760730D01*
D02*
G37*
G36*
X361070D02*
X356870D01*
Y756530D01*
X358738Y757303D01*
X360297Y758862D01*
X361070Y760730D01*
D02*
G37*
G36*
X354330D02*
X350130D01*
X350903Y758862D01*
X352462Y757303D01*
X354330Y756530D01*
Y760730D01*
D02*
G37*
%LPD*%
G36*
X910831Y1195040D02*
Y1188928D01*
X825517Y1103613D01*
X824743Y1102456D01*
X824471Y1101090D01*
Y1014938D01*
X817833Y1008300D01*
X816885D01*
X815048Y1007539D01*
X814059Y1006550D01*
X812559Y1007140D01*
Y1046480D01*
X812287Y1047846D01*
X811513Y1049003D01*
X808910Y1051607D01*
Y1052555D01*
X808149Y1054392D01*
X806742Y1055799D01*
X804905Y1056560D01*
X802915D01*
X801078Y1055799D01*
X799671Y1054392D01*
X798910Y1052555D01*
Y1050565D01*
X799671Y1048728D01*
X801078Y1047321D01*
X802915Y1046560D01*
X803863D01*
X805421Y1045002D01*
Y1043411D01*
X803921Y1042409D01*
X803485Y1042590D01*
X801496D01*
X799658Y1041829D01*
X798251Y1040422D01*
X797490Y1038585D01*
X796049Y1038726D01*
Y1053138D01*
X796719Y1053808D01*
X797480Y1055645D01*
Y1057635D01*
X796719Y1059472D01*
X795312Y1060879D01*
X793475Y1061640D01*
X791485D01*
X790107Y1061069D01*
X789258Y1062341D01*
X793958Y1067041D01*
X807720D01*
X809086Y1067313D01*
X810243Y1068087D01*
X815323Y1073167D01*
X816097Y1074324D01*
X816369Y1075690D01*
Y1165652D01*
X846028Y1195311D01*
X902008D01*
X902678Y1194641D01*
X904515Y1193880D01*
X906505D01*
X908342Y1194641D01*
X909331Y1195630D01*
X910831Y1195040D01*
D02*
G37*
G36*
X790728Y1087996D02*
X790686Y1086849D01*
X789665Y1085770D01*
X789128D01*
X786626Y1088272D01*
X785551Y1088990D01*
X784283Y1089243D01*
X773454D01*
X770693Y1092003D01*
X769618Y1092721D01*
X768350Y1092974D01*
X748708D01*
X747328Y1094354D01*
X745500Y1095111D01*
X745483Y1095152D01*
X745212Y1096615D01*
X745782Y1096851D01*
X746707Y1097776D01*
X780947D01*
X790728Y1087996D01*
D02*
G37*
G36*
X788051Y1059013D02*
X787480Y1057635D01*
Y1055645D01*
X788241Y1053808D01*
X788911Y1053138D01*
Y1029970D01*
X789183Y1028604D01*
X789957Y1027447D01*
X793921Y1023482D01*
Y1015463D01*
X792421Y1014619D01*
X791210Y1015120D01*
Y1009650D01*
Y1004180D01*
X791336Y1004232D01*
X792980Y1003289D01*
X793075Y1002592D01*
X787615Y997132D01*
X785846Y997484D01*
X785666Y997919D01*
X784259Y999326D01*
X782422Y1000087D01*
X780433D01*
X778595Y999326D01*
X777188Y997919D01*
X776427Y996081D01*
Y995134D01*
X771444Y990151D01*
X769989D01*
X769367Y991651D01*
X770873Y993157D01*
X771647Y994314D01*
X771919Y995680D01*
Y1003300D01*
X771647Y1004666D01*
X770873Y1005823D01*
X764131Y1012566D01*
X762973Y1013340D01*
X761607Y1013611D01*
X758760D01*
X758252Y1014119D01*
Y1031335D01*
X786779Y1059863D01*
X788051Y1059013D01*
D02*
G37*
G36*
X799067Y996369D02*
X799193Y995734D01*
X799967Y994577D01*
X827534Y967009D01*
X826913Y965509D01*
X826787D01*
X824751Y964665D01*
X824011Y963925D01*
X822511Y964547D01*
Y964641D01*
X813691D01*
X804281Y974051D01*
X802958Y974935D01*
X801397Y975246D01*
X801397Y975246D01*
X798395D01*
X797852Y975789D01*
X796015Y976550D01*
X794025D01*
X792188Y975789D01*
X791199Y974800D01*
X789699Y975390D01*
Y989122D01*
X797467Y996890D01*
X799067Y996369D01*
D02*
G37*
G36*
X672244Y1104496D02*
X672071Y1103630D01*
Y885190D01*
X672343Y883824D01*
X673117Y882667D01*
X702327Y853457D01*
X703484Y852683D01*
X704850Y852411D01*
X729287D01*
X729739Y851960D01*
X729765Y850321D01*
X728819Y849389D01*
X703788D01*
X669049Y884128D01*
Y1103422D01*
X670861Y1105235D01*
X672244Y1104496D01*
D02*
G37*
%LPC*%
G36*
X864870Y1173870D02*
Y1169670D01*
X869070D01*
X868297Y1171538D01*
X866738Y1173097D01*
X864870Y1173870D01*
D02*
G37*
G36*
X862330D02*
X860462Y1173097D01*
X858903Y1171538D01*
X858130Y1169670D01*
X862330D01*
Y1173870D01*
D02*
G37*
G36*
X869070Y1167130D02*
X864870D01*
Y1162930D01*
X866738Y1163703D01*
X868297Y1165262D01*
X869070Y1167130D01*
D02*
G37*
G36*
X862330D02*
X858130D01*
X858903Y1165262D01*
X860462Y1163703D01*
X862330Y1162930D01*
Y1167130D01*
D02*
G37*
G36*
X788670Y1015120D02*
X786802Y1014347D01*
X785243Y1012788D01*
X784470Y1010920D01*
X788670D01*
Y1015120D01*
D02*
G37*
G36*
Y1008380D02*
X784470D01*
X785243Y1006512D01*
X786802Y1004953D01*
X788670Y1004180D01*
Y1008380D01*
D02*
G37*
G36*
X801095Y989250D02*
X799105D01*
X797268Y988489D01*
X795861Y987082D01*
X795100Y985245D01*
Y983255D01*
X795861Y981418D01*
X797268Y980011D01*
X799105Y979250D01*
X801095D01*
X802932Y980011D01*
X804339Y981418D01*
X805100Y983255D01*
Y985245D01*
X804339Y987082D01*
X802932Y988489D01*
X801095Y989250D01*
D02*
G37*
%LPD*%
G36*
X1099900Y998027D02*
Y997225D01*
X1100151Y996621D01*
X1099148Y995121D01*
X1089864D01*
Y982330D01*
X1087708D01*
X1086917Y982859D01*
Y995121D01*
X1072329D01*
Y990709D01*
X1064907D01*
X1064609Y992209D01*
X1065822Y992711D01*
X1067229Y994118D01*
X1067990Y995955D01*
Y997945D01*
X1067809Y998381D01*
X1068811Y999881D01*
X1098045D01*
X1099900Y998027D01*
D02*
G37*
G36*
X745490Y953770D02*
X753110Y946150D01*
Y937260D01*
X727888Y912038D01*
X715010Y899160D01*
X684530D01*
Y915328D01*
X709930Y937260D01*
X717550Y944880D01*
X726440Y953770D01*
X745490Y953770D01*
D02*
G37*
%LPC*%
G36*
Y950350D02*
Y946150D01*
X749690D01*
X748917Y948018D01*
X747358Y949577D01*
X745490Y950350D01*
D02*
G37*
G36*
X742950D02*
X741082Y949577D01*
X739523Y948018D01*
X738750Y946150D01*
X742950D01*
Y950350D01*
D02*
G37*
G36*
X731520D02*
Y946150D01*
X735720D01*
X734947Y948018D01*
X733388Y949577D01*
X731520Y950350D01*
D02*
G37*
G36*
X728980D02*
X727112Y949577D01*
X725553Y948018D01*
X724780Y946150D01*
X728980D01*
Y950350D01*
D02*
G37*
G36*
X749690Y943610D02*
X745490D01*
Y939410D01*
X747358Y940183D01*
X748917Y941742D01*
X749690Y943610D01*
D02*
G37*
G36*
X742950D02*
X738750D01*
X739523Y941742D01*
X741082Y940183D01*
X742950Y939410D01*
Y943610D01*
D02*
G37*
G36*
X735720D02*
X731520D01*
Y939410D01*
X733388Y940183D01*
X734947Y941742D01*
X735720Y943610D01*
D02*
G37*
G36*
X728980D02*
X724780D01*
X725553Y941742D01*
X727112Y940183D01*
X728980Y939410D01*
Y943610D01*
D02*
G37*
G36*
X711200Y916060D02*
Y911860D01*
X715400D01*
X714627Y913728D01*
X713068Y915287D01*
X711200Y916060D01*
D02*
G37*
G36*
X708660D02*
X706792Y915287D01*
X705233Y913728D01*
X704460Y911860D01*
X708660D01*
Y916060D01*
D02*
G37*
G36*
X695960D02*
Y911860D01*
X700160D01*
X699387Y913728D01*
X697828Y915287D01*
X695960Y916060D01*
D02*
G37*
G36*
X693420D02*
X691552Y915287D01*
X689993Y913728D01*
X689220Y911860D01*
X693420D01*
Y916060D01*
D02*
G37*
G36*
X715400Y909320D02*
X711200D01*
Y905120D01*
X713068Y905893D01*
X714627Y907452D01*
X715400Y909320D01*
D02*
G37*
G36*
X708660D02*
X704460D01*
X705233Y907452D01*
X706792Y905893D01*
X708660Y905120D01*
Y909320D01*
D02*
G37*
G36*
X700160D02*
X695960D01*
Y905120D01*
X697828Y905893D01*
X699387Y907452D01*
X700160Y909320D01*
D02*
G37*
G36*
X693420D02*
X689220D01*
X689993Y907452D01*
X691552Y905893D01*
X693420Y905120D01*
Y909320D01*
D02*
G37*
%LPD*%
D10*
X552450Y1193800D02*
X563880Y1182370D01*
X607060D01*
X552450Y1193800D02*
Y1210384D01*
X562610Y1196340D02*
X568960Y1189990D01*
X630913D02*
X632630Y1191707D01*
X633577D01*
X568960Y1189990D02*
X630913D01*
X552450Y1233096D02*
X562610Y1222936D01*
Y1196340D02*
Y1222936D01*
X781050Y1179830D02*
X833120Y1231900D01*
X781050Y1143856D02*
Y1179830D01*
X833120Y1231900D02*
X907999D01*
X828040Y1244600D02*
X914349D01*
X760730Y1125220D02*
Y1177290D01*
X828040Y1244600D01*
X830580Y1238250D02*
X911860D01*
X765810Y1173480D02*
X830580Y1238250D01*
X765810Y1154978D02*
Y1173480D01*
X907999Y1231900D02*
X929640Y1210259D01*
X914349Y1244600D02*
X954370Y1204578D01*
X905510Y1225550D02*
X919480Y1211580D01*
X787400Y1177290D02*
X835660Y1225550D01*
X905510D01*
X911860Y1238250D02*
X942340Y1207770D01*
X804598Y1082622D02*
Y1090191D01*
X783539Y1111250D02*
X804598Y1090191D01*
Y1082622D02*
X805029Y1082191D01*
X740410Y1111250D02*
X783539D01*
X793750Y1174750D02*
X838200Y1219200D01*
X844550D01*
X778510Y1141316D02*
X781050Y1143856D01*
X784283Y1085929D02*
X788670Y1081542D01*
Y1080770D02*
Y1081542D01*
X782320Y1101090D02*
X796290Y1087120D01*
X795020Y1125220D02*
Y1149824D01*
X765810Y1154978D02*
X768450Y1152338D01*
Y1143648D02*
Y1152338D01*
X787400Y1132840D02*
Y1177290D01*
X793750Y1151094D02*
Y1174750D01*
Y1151094D02*
X795020Y1149824D01*
X796485Y927100D02*
X805180D01*
X954370Y1202090D02*
Y1204578D01*
Y1202090D02*
X955040Y1201420D01*
X929640D02*
Y1210259D01*
X795020Y928565D02*
Y943610D01*
Y928565D02*
X796485Y927100D01*
X744496Y1090115D02*
X744950Y1089660D01*
X768350D01*
X742950Y1101090D02*
X782320D01*
X768450Y1143648D02*
X769620Y1142477D01*
Y1132840D02*
Y1142477D01*
X768350Y1089660D02*
X772081Y1085929D01*
X784283D01*
X778510Y1125220D02*
Y1141316D01*
D39*
X774504Y965323D02*
D03*
X751840Y962783D02*
D03*
Y980317D02*
D03*
X774504Y982857D02*
D03*
D41*
X805180Y927100D02*
D03*
X822714D02*
D03*
X1082460Y1025050D02*
D03*
X1097157Y988060D02*
D03*
X722753Y1065530D02*
D03*
X716526Y1007110D02*
D03*
X1079623Y988060D02*
D03*
X1064926Y1025050D02*
D03*
X740287Y1065530D02*
D03*
X815217Y957580D02*
D03*
X797683D02*
D03*
X734060Y1007110D02*
D03*
D62*
X591820Y1228250D02*
D03*
Y1248250D02*
D03*
D66*
X546100Y948690D02*
D03*
X416560Y878840D02*
D03*
X1050290Y876300D02*
D03*
X557530Y1070610D02*
D03*
X417830Y932180D02*
D03*
X1061720Y1035111D02*
D03*
X750570Y956310D02*
D03*
X749300Y991870D02*
D03*
X995680Y1008450D02*
D03*
X1058060Y987140D02*
D03*
X1062990Y996950D02*
D03*
X1113790Y985520D02*
D03*
X786981Y892391D02*
D03*
X1137920Y971550D02*
D03*
X1092200Y957580D02*
D03*
X918210Y1118870D02*
D03*
Y1109980D02*
D03*
X800100Y901700D02*
D03*
X539750Y1071880D02*
D03*
X1075690Y845820D02*
D03*
X1062990D02*
D03*
X795020Y971550D02*
D03*
X505460Y1179830D02*
D03*
X1060450Y1060450D02*
D03*
X591820Y1258570D02*
D03*
X615950D02*
D03*
X641350D02*
D03*
X982980Y1226820D02*
D03*
X1005840Y1215390D02*
D03*
X591820Y1221740D02*
D03*
X641350Y1224280D02*
D03*
X1219200Y1168400D02*
D03*
X1244600Y1117600D02*
D03*
X1219200Y1066800D02*
D03*
X1244600Y1016000D02*
D03*
X1219200Y965200D02*
D03*
X1244600Y914400D02*
D03*
X1219200Y863600D02*
D03*
Y762000D02*
D03*
X1168400Y1168400D02*
D03*
X1193800Y1117600D02*
D03*
Y1016000D02*
D03*
Y914400D02*
D03*
X1168400Y863600D02*
D03*
X1193800Y812800D02*
D03*
X1168400Y762000D02*
D03*
X1143000Y1117600D02*
D03*
Y914400D02*
D03*
X1117600Y762000D02*
D03*
X1092200Y1219200D02*
D03*
X1066800Y1168400D02*
D03*
X1092200Y1016000D02*
D03*
Y914400D02*
D03*
X1066800Y863600D02*
D03*
X1092200Y812800D02*
D03*
X1066800Y762000D02*
D03*
X1041400Y1219200D02*
D03*
X1016000Y1168400D02*
D03*
Y965200D02*
D03*
X1041400Y914400D02*
D03*
X1016000Y762000D02*
D03*
X965200Y1168400D02*
D03*
X990600Y1117600D02*
D03*
X965200Y1066800D02*
D03*
X990600Y812800D02*
D03*
X914400Y1168400D02*
D03*
Y1066800D02*
D03*
Y863600D02*
D03*
X889000Y1219200D02*
D03*
X863600Y1168400D02*
D03*
Y1066800D02*
D03*
Y863600D02*
D03*
X787400Y914400D02*
D03*
X711200Y863600D02*
D03*
X685800Y1016000D02*
D03*
X660400Y863600D02*
D03*
X685800Y812800D02*
D03*
X660400Y762000D02*
D03*
X609600Y1168400D02*
D03*
X635000Y1117600D02*
D03*
X609600Y1066800D02*
D03*
X635000Y1016000D02*
D03*
X609600Y965200D02*
D03*
X635000Y914400D02*
D03*
X609600Y863600D02*
D03*
X635000Y812800D02*
D03*
X609600Y762000D02*
D03*
X558800Y1168400D02*
D03*
X584200Y1117600D02*
D03*
Y1016000D02*
D03*
X558800Y965200D02*
D03*
X584200Y914400D02*
D03*
X558800Y863600D02*
D03*
X584200Y812800D02*
D03*
X558800Y762000D02*
D03*
X533400Y914400D02*
D03*
X508000Y762000D02*
D03*
X482600Y1219200D02*
D03*
X457200Y1168400D02*
D03*
X482600Y914400D02*
D03*
X457200Y863600D02*
D03*
Y762000D02*
D03*
X431800Y1219200D02*
D03*
Y1016000D02*
D03*
Y914400D02*
D03*
X406400Y863600D02*
D03*
Y762000D02*
D03*
X381000Y1219200D02*
D03*
Y1117600D02*
D03*
Y1016000D02*
D03*
X355600Y965200D02*
D03*
X381000Y914400D02*
D03*
X355600Y863600D02*
D03*
Y762000D02*
D03*
X304800Y1168400D02*
D03*
X330200Y1117600D02*
D03*
Y1016000D02*
D03*
X304800Y965200D02*
D03*
X330200Y914400D02*
D03*
X304800Y863600D02*
D03*
X1195070Y1225550D02*
D03*
Y1162050D02*
D03*
X1019810Y1239520D02*
D03*
X1121410Y1225550D02*
D03*
Y1162050D02*
D03*
X1225550Y1090930D02*
D03*
X1135800Y1061510D02*
D03*
X1114210D02*
D03*
X1091350Y1060610D02*
D03*
X995680Y1197610D02*
D03*
X943610Y1235710D02*
D03*
X925830Y1140460D02*
D03*
X910590D02*
D03*
X891540Y1122680D02*
D03*
X944880Y1121410D02*
D03*
Y1107440D02*
D03*
X925830Y1089660D02*
D03*
X891540Y1108710D02*
D03*
X910590Y1089660D02*
D03*
X1144270Y989330D02*
D03*
X1140880Y1017430D02*
D03*
X1169670Y944880D02*
D03*
X1082460Y1020053D02*
D03*
X1088810Y976790D02*
D03*
X1131570Y891540D02*
D03*
X1111250Y882650D02*
D03*
X866884Y922683D02*
D03*
X827889Y959969D02*
D03*
X820420Y937347D02*
D03*
X828670Y928597D02*
D03*
X820420Y924847D02*
D03*
X883920Y830580D02*
D03*
X867410Y911860D02*
D03*
X679450Y1223010D02*
D03*
X651368Y1196482D02*
D03*
X615950Y1228090D02*
D03*
X585470Y1196340D02*
D03*
X801370Y1170940D02*
D03*
X773430Y1167130D02*
D03*
X774700Y1148080D02*
D03*
X739140Y1150620D02*
D03*
X549910Y1177290D02*
D03*
X523240Y1233096D02*
D03*
Y1210384D02*
D03*
X488950Y1170940D02*
D03*
X549910Y1154430D02*
D03*
X485140Y1150620D02*
D03*
X458470Y1132840D02*
D03*
X483870Y1123950D02*
D03*
X789940Y1009650D02*
D03*
X775275Y959545D02*
D03*
X552450Y1117600D02*
D03*
X717550Y960120D02*
D03*
X801370Y882650D02*
D03*
X771040Y866140D02*
D03*
X521970Y1117600D02*
D03*
X504190D02*
D03*
X500239Y1032651D02*
D03*
X485140Y1031240D02*
D03*
X457200Y1029970D02*
D03*
X453390Y1022350D02*
D03*
X480060Y1021080D02*
D03*
X321310Y995680D02*
D03*
X723900Y1223010D02*
D03*
X579120Y1172210D02*
D03*
X642620Y1183640D02*
D03*
X505460Y1140460D02*
D03*
X552450Y1210384D02*
D03*
X607060Y1182370D02*
D03*
X633577Y1191707D02*
D03*
X552450Y1233096D02*
D03*
X852170Y775970D02*
D03*
X712470Y836930D02*
D03*
X732790Y845820D02*
D03*
X1050290Y817880D02*
D03*
X1037590D02*
D03*
X887730Y1256180D02*
D03*
X904240Y1252220D02*
D03*
X732790Y855980D02*
D03*
X905510Y1198880D02*
D03*
X899160Y1214120D02*
D03*
X781427Y995087D02*
D03*
X802490Y1037590D02*
D03*
X817880Y1003300D02*
D03*
X800100Y984250D02*
D03*
X932180Y994410D02*
D03*
X906780D02*
D03*
X944880D02*
D03*
X919480D02*
D03*
X894080D02*
D03*
X803910Y1051560D02*
D03*
X792480Y1056640D02*
D03*
X1038860Y904240D02*
D03*
X1084580Y886460D02*
D03*
X770890Y811530D02*
D03*
X1089660Y1106170D02*
D03*
X1038860Y1084580D02*
D03*
X986790Y962660D02*
D03*
X1033780Y1023620D02*
D03*
X426720Y1150620D02*
D03*
X383540D02*
D03*
X873760Y955040D02*
D03*
X694690Y910590D02*
D03*
X730250Y944880D02*
D03*
X709930Y910590D02*
D03*
X784860Y935990D02*
D03*
X811530Y847090D02*
D03*
Y866140D02*
D03*
X814070Y825783D02*
D03*
X753110Y1158240D02*
D03*
X717550Y1065530D02*
D03*
X532130Y1055370D02*
D03*
X711200Y1007110D02*
D03*
X455930Y969010D02*
D03*
X481330D02*
D03*
X468630D02*
D03*
X786130Y815340D02*
D03*
X754683Y1010617D02*
D03*
X744220Y944880D02*
D03*
X893622Y952500D02*
D03*
X906780Y941070D02*
D03*
X919480Y929640D02*
D03*
X932180Y918210D02*
D03*
X1055370Y1023620D02*
D03*
X974090Y998220D02*
D03*
X986790Y991870D02*
D03*
X1104900Y998220D02*
D03*
X937260Y902970D02*
D03*
X805029Y1082191D02*
D03*
X944880Y858520D02*
D03*
X1151890Y810260D02*
D03*
X1056640Y858520D02*
D03*
X796290Y1087120D02*
D03*
X795020Y943610D02*
D03*
X844550Y1219200D02*
D03*
X929640Y1201420D02*
D03*
X955040D02*
D03*
X942340Y1207770D02*
D03*
X919480Y1211580D02*
D03*
X444500Y1082040D02*
D03*
X457200D02*
D03*
X469900D02*
D03*
X482600D02*
D03*
X481330Y947420D02*
D03*
X759460Y999490D02*
D03*
X740410Y1079500D02*
D03*
X788670Y1080770D02*
D03*
X744496Y1090115D02*
D03*
X742950Y1101090D02*
D03*
X740410Y1111250D02*
D03*
X760730Y1125220D02*
D03*
X778510D02*
D03*
X795020D02*
D03*
X787400Y1132840D02*
D03*
X769620D02*
D03*
D67*
X589590Y1213123D02*
D03*
X647390D02*
D03*
D68*
X575290Y1208123D02*
D03*
X661690D02*
D03*
D69*
X575290Y1249923D02*
D03*
X661690D02*
D03*
D70*
X1165860Y981080D02*
D03*
D71*
X375290Y1201420D02*
D03*
X435290D02*
D03*
X395290D02*
D03*
X415290D02*
D03*
D72*
X306070Y1072243D02*
D03*
X356070D02*
D03*
D73*
X1165860Y1001080D02*
D03*
Y1021080D02*
D03*
Y1041080D02*
D03*
D74*
X1244600Y793750D02*
D03*
Y1219200D02*
D03*
X304800D02*
D03*
Y793750D02*
D03*
D75*
X455290Y1201420D02*
D03*
D76*
X542290Y1055370D02*
X557530Y1070610D01*
X532130Y1055370D02*
X542290D01*
X518160Y1041400D02*
X532130Y1055370D01*
X1110657Y988060D02*
X1113197Y985520D01*
X1097157Y988060D02*
X1110657D01*
X1113197Y985520D02*
X1113790D01*
X717550Y1065530D02*
X722753D01*
X480060Y1041400D02*
X518160D01*
X468630Y969010D02*
Y1029970D01*
X480060Y1041400D01*
D77*
X795020Y971550D02*
X795403Y971167D01*
X801397D02*
X814984Y957580D01*
X795403Y971167D02*
X801397D01*
X814984Y957580D02*
X815217D01*
X852170Y775970D02*
Y920627D01*
X818511Y954286D02*
X852170Y920627D01*
X815450Y957580D02*
X818511Y954519D01*
Y954286D02*
Y954519D01*
D78*
X1044777Y881394D02*
X1049871Y876300D01*
X963930Y960120D02*
X1042656Y881394D01*
X1049871Y876300D02*
X1050290D01*
X1042656Y881394D02*
X1044777D01*
X750570Y956310D02*
Y964176D01*
X750750Y964356D01*
X741913Y999490D02*
X759460D01*
X749300Y985520D02*
Y991870D01*
Y985520D02*
X751840Y982980D01*
X734293Y1007110D02*
X741913Y999490D01*
X1058060Y987140D02*
X1079623D01*
X1020146Y998370D02*
Y1065866D01*
Y998370D02*
X1053948D01*
X974240D02*
X1020146D01*
X1023850Y993370D02*
X1056019D01*
X1056289Y993640D01*
X1058868D02*
X1062178Y996950D01*
X1022350Y991870D02*
X1023850Y993370D01*
X1062178Y996950D02*
X1062990D01*
X986790Y991870D02*
X1022350D01*
X1053948Y998370D02*
X1059028Y1003450D01*
X1056289Y993640D02*
X1058868D01*
X974090Y998220D02*
X974240Y998370D01*
X1059028Y1003450D02*
X1099523D01*
X1104753Y998220D01*
X1104900D01*
X1116482Y979020D02*
X1138542Y1001080D01*
X1165860D01*
X1113640Y979020D02*
X1116482D01*
X1092200Y957580D02*
X1113640Y979020D01*
X772160Y874212D02*
Y942340D01*
X786130Y956310D01*
X772160Y874212D02*
X786130Y860242D01*
X768350Y995680D02*
Y1003300D01*
X764540Y858218D02*
Y991870D01*
Y858218D02*
X772160Y850598D01*
X764540Y991870D02*
X768350Y995680D01*
X761607Y1010043D02*
X768350Y1003300D01*
X755257Y1010043D02*
X761607D01*
X754683Y1010617D02*
X755257Y1010043D01*
X1138367Y971550D02*
X1143447Y966470D01*
X1172210D01*
X1137920Y971550D02*
X1138367D01*
X539750Y1071880D02*
X549910Y1082040D01*
X591820Y1248250D02*
Y1258570D01*
X615950Y1248548D02*
Y1258570D01*
X641350Y1247775D02*
Y1258570D01*
Y1224280D02*
Y1231265D01*
X591820Y1221740D02*
Y1228250D01*
X1082460Y1020053D02*
Y1025050D01*
X615950Y1228090D02*
Y1233032D01*
X774504Y965323D02*
X775275Y964552D01*
Y959545D02*
Y964552D01*
X732216Y845246D02*
X732790Y845820D01*
X712470Y822960D02*
X732216Y842706D01*
Y845246D01*
X712470Y782320D02*
Y822960D01*
X990600Y755650D02*
X1049716Y814766D01*
Y817306D01*
X726440Y755650D02*
X990600D01*
X1049716Y817306D02*
X1050290Y817880D01*
X702310Y779780D02*
X726440Y755650D01*
X712470Y782320D02*
X730250Y764540D01*
X702310Y826770D02*
X711490Y835950D01*
X702310Y779780D02*
Y826770D01*
X730250Y764540D02*
X984250D01*
X711490Y835950D02*
X712180D01*
X712470Y835660D01*
Y836930D01*
X984250Y764540D02*
X1037590Y817880D01*
X702310Y845820D02*
X732790D01*
X665480Y882650D02*
X702310Y845820D01*
X665480Y1104900D02*
X816610Y1256030D01*
X903523Y1252220D02*
X904240D01*
X900983Y1249680D02*
X903523Y1252220D01*
X675640Y1103630D02*
X821690Y1249680D01*
X887580Y1256030D02*
X887730Y1256180D01*
X816610Y1256030D02*
X887580D01*
X821690Y1249680D02*
X900983D01*
X675640Y885190D02*
Y1103630D01*
X665480Y882650D02*
Y1104900D01*
X704850Y855980D02*
X732790D01*
X675640Y885190D02*
X704850Y855980D01*
X828040Y1101090D02*
X914400Y1187450D01*
Y1202690D01*
X828040Y1013460D02*
Y1101090D01*
X844550Y1198880D02*
X905510D01*
X903368Y1213722D02*
X914400Y1202690D01*
X812800Y1167130D02*
X844550Y1198880D01*
X817880Y1003300D02*
X828040Y1013460D01*
X899160Y1214120D02*
X899558Y1213722D01*
X903368D01*
X944306Y859094D02*
Y861634D01*
Y859094D02*
X944880Y858520D01*
X864870Y934720D02*
X871220D01*
X944306Y861634D01*
X802490Y997100D02*
X864870Y934720D01*
X802490Y997100D02*
Y1037590D01*
X808990Y1000760D02*
X815340Y994410D01*
X808990Y1000760D02*
Y1046480D01*
X815340Y994410D02*
X843280D01*
X792480Y1029970D02*
X797490Y1024960D01*
Y1001960D02*
Y1024960D01*
X786130Y990600D02*
X797490Y1001960D01*
X770890Y984550D02*
X781427Y995087D01*
X770890Y983671D02*
Y984550D01*
X786130Y956310D02*
Y990600D01*
X792480Y1029970D02*
Y1056640D01*
X803910Y1051560D02*
X808990Y1046480D01*
X843280Y994410D02*
X852170Y1003300D01*
X944880Y858520D02*
X1056640D01*
X812800Y1075690D02*
Y1167130D01*
X963930Y960120D02*
Y990600D01*
X951230Y1003300D02*
X963930Y990600D01*
X852170Y1003300D02*
X951230D01*
X932180Y918210D02*
Y994410D01*
X919480Y929640D02*
Y994410D01*
X906780Y941070D02*
Y994410D01*
X894080Y952958D02*
Y994410D01*
X944880Y910590D02*
Y994410D01*
X893622Y952500D02*
X894080Y952958D01*
X770890Y830835D02*
X772160Y832105D01*
Y850598D01*
X770890Y811530D02*
Y830835D01*
X1020146Y1065866D02*
X1038860Y1084580D01*
X986790Y962660D02*
Y991870D01*
X1033780Y1023620D02*
X1055370D01*
X523240Y947420D02*
X566420Y990600D01*
Y1075690D01*
X481330Y947420D02*
X523240D01*
X383540Y1150620D02*
X426720D01*
X786130Y815340D02*
Y860242D01*
X797450Y957580D02*
X797683D01*
X784860Y935990D02*
Y944990D01*
X797450Y957580D01*
X792480Y1070610D02*
X807720D01*
X812800Y1075690D01*
X754683Y1032813D02*
X792480Y1070610D01*
X754683Y1010617D02*
Y1032813D01*
X1055370Y1023620D02*
X1055944Y1024194D01*
X1060137D02*
X1064803Y1028860D01*
X1055944Y1024194D02*
X1060137D01*
X1172210Y966470D02*
X1180250Y974510D01*
Y1006690D01*
X1165860Y1021080D02*
X1180250Y1006690D01*
X937260Y902970D02*
X944880Y910590D01*
X740287Y1065530D02*
Y1067947D01*
X740410Y1068070D01*
Y1079500D01*
X549910Y1082040D02*
X560070D01*
X566420Y1075690D01*
X734060Y1007110D02*
X734293D01*
D95*
X641350Y1231265D02*
D03*
Y1247775D02*
D03*
D96*
X615950Y1233032D02*
D03*
Y1248548D02*
D03*
M02*
