M48
;Layer_Color=9474304
;FILE_FORMAT=4:4
METRIC,LZ
;TYPE=PLATED
T01F00S00C0.3000
T03F00S00C0.8500
T04F00S00C0.9000
T05F00S00C1.0000
;TYPE=NON_PLATED
T06F00S00C0.6500
T07F00S00C3.2000
%
T01
X012192Y00762
X011684
X011176
X010668
X01016
X0085217Y0077597
X006604Y00762
X006096
X005588
X00508
X004572
X004064
X003556
Y008636
X003048
X003302Y009144
X00381
X003556Y009652
X003048
X0032131Y0099568
X003302Y01016
X00381
Y011176
X0038354Y0115062
X003302Y011176
X003048Y011684
X0042672Y0115062
X004572Y011684
X0048895Y0117094
X0048514Y0115062
X0048387Y0112395
X0050419Y011176
X0052197
X0055245
X005842
X00635
X0064262Y0118364
X0060706Y0118237
X006096Y011684
X0057912Y0117221
X005588Y011684
X0054991Y0117729
Y0115443
X0050546Y0114046
Y0117983
X0045847Y0113284
X004572Y0108204
X004445
X004699
X004826
X0048514Y0103124
X0048006Y0102108
X0045339Y0102235
X004572Y0102997
X004318Y01016
X0045593Y0096901
X0046863
X0048133
Y0094742
X004826Y009144
X005334
X005461Y0094869
X005588Y009652
X006096
X00635Y01016
X006858
X007112Y0100711
X00754683Y01010617
X0075946Y0099949
X007493Y0099187
X00781427Y00995087
X0078994Y0100965
X0079248Y0105664
X0078867Y0108077
X0074041Y010795
X00744496Y01090115
X0074295Y0110109
X0074041Y0111125
X0076073Y0112522
X0076962Y0113284
X0077851Y0112522
X007874Y0113284
X007747Y0114808
X0077343Y0116713
X0075311Y0115824
X0073914Y0115062
X0071755Y0106553
Y0096012
X0073025Y0094488
X0074422
X0075057Y0095631
X00775275Y00959545
X0078486Y0093599
X007874Y009144
X00786981Y00892391
X0077104Y0086614
X0073279Y0085598
Y0084582
X0071247Y0083693
X007112Y008636
X0070993Y0091059
X0069469
X00635Y009144
X005842
X006096Y008636
X006604
X006858Y008128
X00635
X005842
X005588Y008636
X004572
X004064
X0041656Y0087884
X004318Y009144
X0041783Y0093218
X00500239Y01032651
X0053213Y0105537
X0053975Y0107188
X0055753Y0107061
X006096Y010668
X005842Y01016
X0077089Y0081153
X0078613Y0081534
X0081407Y00825783
X0081153Y0084709
Y0086614
X0080137Y0088265
X008001Y009017
X0082042Y00924847
X0082867Y00928597
X0082042Y00937347
X00827889Y00959969
X0079502Y0097155
X008001Y0098425
X0081788Y010033
X0080249Y0103759
X0080391Y0105156
X00805029Y01082191
X0079629Y0108712
X0079502Y0112522
X0080137Y0117094
X008636Y011684
X009144
X0091059Y0114046
X0092583
X0091821Y0111887
Y0110998
X0092583Y0108966
X0091059
X009144Y010668
X009652
X0094488Y0110744
Y0112141
X009906Y011176
X01016Y011684
X010668
X0112141Y0116205
X011684Y011684
X01143Y011176
X011358Y0106151
X0111421
X0109135Y0106061
X0106045Y0106045
X0106172Y01035111
X0105537Y0102362
X0103378
X0108246Y01020053
X010922Y01016
X011049Y0099822
X0111379Y0098552
X0108881Y0097679
X010922Y0095758
Y009144
X0108458Y0088646
X0111125Y0088265
X0113157Y0089154
X01143Y009144
X0116967Y0094488
X0113792Y0097155
X0114427Y0098933
X0114088Y0101743
X0106299Y0099695
X0105806Y0098714
X01016Y009652
X0098679Y0096266
Y0099187
X0097409Y0099822
X0099568Y0100845
X0094488Y0099441
X0093218
X0091948
X0090678
X0089408
X00893622Y009525
X0087376Y0095504
X00866884Y00922683
X0086741Y0091186
X008636Y008636
X009144
X0094488Y0085852
X0093726Y0090297
X0093218Y0091821
X0091948Y0092964
X0090678Y0094107
X0079502Y0094361
X008636Y010668
X0089154Y0110871
Y0112268
X009652Y011684
X0103886Y0108458
X0108966Y0110617
X010414Y009144
X0103886Y0090424
X0105029Y008763
X0105664Y0085852
X010668Y008636
X0106299Y0084582
X0107569
X010922Y008128
X0105029Y0081788
X0103759
X009906Y008128
X0088392Y0083058
X0115189Y0081026
X011684Y008636
X012192
X012446Y009144
X011938
X012192Y009652
X012446Y01016
X011938
X012192Y010668
X0122555Y0109093
X012446Y011176
X011938
X0119507Y0116205
X012192Y011684
X011938Y008128
X0119507Y0122555
X0112141
X010922Y012192
X010414
X0100584Y0121539
X0099568Y0119761
X0098298Y0122682
X0094361Y0123571
X0094234Y0120777
X0092964Y0120142
X0091948Y0121158
X0089916Y0121412
X00889Y012192
X0090551Y0119888
X0095504Y0120142
X0090424Y0125222
X0088773Y0125618
X0084455Y012192
X0101981Y0123952
X007239Y0122301
X0067945
X0064135Y0122428
X0061595Y0122809
Y0125857
X0059182
Y0122174
X0058547Y0119634
X0055245Y01210384
Y01233096
X0052324
Y01210384
X004826Y012192
X004318
X00633577Y01191707
X00651368Y01196482
X0064135Y0125857
X00381Y012192
T03
X0030607Y01072243
X0035607
T04
X0041529Y0120142
X0043529
X0045529
X0039529
X0037529
T05
X0116586Y0098108
Y0100108
Y0102108
Y0104108
T06
X0058959Y01213123
X0064739
T07
X003048Y0079375
X012446
Y012192
X003048
M30
