G04*
G04 #@! TF.GenerationSoftware,Altium Limited,Altium Designer,26.5.0 (11)*
G04*
G04 Layer_Color=16711935*
G04 Board_Origin=0|0*
%FSLAX44Y44*%
%MOMM*%
G71*
G04*
G04 #@! TF.SameCoordinates,99C48058-1AB6-4DC2-B902-E6427AB3A3D0*
G04*
G04*
G04 #@! TF.FilePolarity,Negative*
G04*
G01*
G75*
%ADD39R,1.0121X1.0587*%
%ADD41R,1.0587X1.0121*%
%ADD62R,1.4500X1.2000*%
%ADD66C,0.6000*%
%ADD67C,0.6500*%
G04:AMPARAMS|DCode=68|XSize=1mm|YSize=2.1mm|CornerRadius=0.5mm|HoleSize=0mm|Usage=FLASHONLY|Rotation=180.000|XOffset=0mm|YOffset=0mm|HoleType=Round|Shape=RoundedRectangle|*
%AMROUNDEDRECTD68*
21,1,1.0000,1.1000,0,0,180.0*
21,1,0.0000,2.1000,0,0,180.0*
1,1,1.0000,0.0000,0.5500*
1,1,1.0000,0.0000,0.5500*
1,1,1.0000,0.0000,-0.5500*
1,1,1.0000,0.0000,-0.5500*
%
%ADD68ROUNDEDRECTD68*%
G04:AMPARAMS|DCode=69|XSize=1mm|YSize=1.8mm|CornerRadius=0.5mm|HoleSize=0mm|Usage=FLASHONLY|Rotation=180.000|XOffset=0mm|YOffset=0mm|HoleType=Round|Shape=RoundedRectangle|*
%AMROUNDEDRECTD69*
21,1,1.0000,0.8000,0,0,180.0*
21,1,0.0000,1.8000,0,0,180.0*
1,1,1.0000,0.0000,0.4000*
1,1,1.0000,0.0000,0.4000*
1,1,1.0000,0.0000,-0.4000*
1,1,1.0000,0.0000,-0.4000*
%
%ADD69ROUNDEDRECTD69*%
%ADD70R,1.5000X1.5000*%
%ADD71C,1.4000*%
%ADD72C,1.3500*%
%ADD73C,1.5000*%
%ADD74C,6.0000*%
%ADD75R,1.4000X1.4000*%
%ADD95R,1.0121X1.2552*%
%ADD96R,1.2621X0.9546*%
D39*
X774504Y965323D02*
D03*
X751840Y962783D02*
D03*
Y980317D02*
D03*
X774504Y982857D02*
D03*
D41*
X805180Y927100D02*
D03*
X822714D02*
D03*
X1082460Y1025050D02*
D03*
X1097157Y988060D02*
D03*
X722753Y1065530D02*
D03*
X716526Y1007110D02*
D03*
X1079623Y988060D02*
D03*
X1064926Y1025050D02*
D03*
X740287Y1065530D02*
D03*
X815217Y957580D02*
D03*
X797683D02*
D03*
X734060Y1007110D02*
D03*
D62*
X591820Y1228250D02*
D03*
Y1248250D02*
D03*
D66*
X546100Y948690D02*
D03*
X416560Y878840D02*
D03*
X1050290Y876300D02*
D03*
X557530Y1070610D02*
D03*
X417830Y932180D02*
D03*
X1061720Y1035111D02*
D03*
X750570Y956310D02*
D03*
X749300Y991870D02*
D03*
X995680Y1008450D02*
D03*
X1058060Y987140D02*
D03*
X1062990Y996950D02*
D03*
X1113790Y985520D02*
D03*
X786981Y892391D02*
D03*
X1137920Y971550D02*
D03*
X1092200Y957580D02*
D03*
X918210Y1118870D02*
D03*
Y1109980D02*
D03*
X800100Y901700D02*
D03*
X539750Y1071880D02*
D03*
X1075690Y845820D02*
D03*
X1062990D02*
D03*
X795020Y971550D02*
D03*
X505460Y1179830D02*
D03*
X1060450Y1060450D02*
D03*
X591820Y1258570D02*
D03*
X615950D02*
D03*
X641350D02*
D03*
X982980Y1226820D02*
D03*
X1005840Y1215390D02*
D03*
X591820Y1221740D02*
D03*
X641350Y1224280D02*
D03*
X1219200Y1168400D02*
D03*
X1244600Y1117600D02*
D03*
X1219200Y1066800D02*
D03*
X1244600Y1016000D02*
D03*
X1219200Y965200D02*
D03*
X1244600Y914400D02*
D03*
X1219200Y863600D02*
D03*
Y762000D02*
D03*
X1168400Y1168400D02*
D03*
X1193800Y1117600D02*
D03*
Y1016000D02*
D03*
Y914400D02*
D03*
X1168400Y863600D02*
D03*
X1193800Y812800D02*
D03*
X1168400Y762000D02*
D03*
X1143000Y1117600D02*
D03*
Y914400D02*
D03*
X1117600Y762000D02*
D03*
X1092200Y1219200D02*
D03*
X1066800Y1168400D02*
D03*
X1092200Y1016000D02*
D03*
Y914400D02*
D03*
X1066800Y863600D02*
D03*
X1092200Y812800D02*
D03*
X1066800Y762000D02*
D03*
X1041400Y1219200D02*
D03*
X1016000Y1168400D02*
D03*
Y965200D02*
D03*
X1041400Y914400D02*
D03*
X1016000Y762000D02*
D03*
X965200Y1168400D02*
D03*
X990600Y1117600D02*
D03*
X965200Y1066800D02*
D03*
X990600Y812800D02*
D03*
X914400Y1168400D02*
D03*
Y1066800D02*
D03*
Y863600D02*
D03*
X889000Y1219200D02*
D03*
X863600Y1168400D02*
D03*
Y1066800D02*
D03*
Y863600D02*
D03*
X787400Y914400D02*
D03*
X711200Y863600D02*
D03*
X685800Y1016000D02*
D03*
X660400Y863600D02*
D03*
X685800Y812800D02*
D03*
X660400Y762000D02*
D03*
X609600Y1168400D02*
D03*
X635000Y1117600D02*
D03*
X609600Y1066800D02*
D03*
X635000Y1016000D02*
D03*
X609600Y965200D02*
D03*
X635000Y914400D02*
D03*
X609600Y863600D02*
D03*
X635000Y812800D02*
D03*
X609600Y762000D02*
D03*
X558800Y1168400D02*
D03*
X584200Y1117600D02*
D03*
Y1016000D02*
D03*
X558800Y965200D02*
D03*
X584200Y914400D02*
D03*
X558800Y863600D02*
D03*
X584200Y812800D02*
D03*
X558800Y762000D02*
D03*
X533400Y914400D02*
D03*
X508000Y762000D02*
D03*
X482600Y1219200D02*
D03*
X457200Y1168400D02*
D03*
X482600Y914400D02*
D03*
X457200Y863600D02*
D03*
Y762000D02*
D03*
X431800Y1219200D02*
D03*
Y1016000D02*
D03*
Y914400D02*
D03*
X406400Y863600D02*
D03*
Y762000D02*
D03*
X381000Y1219200D02*
D03*
Y1117600D02*
D03*
Y1016000D02*
D03*
X355600Y965200D02*
D03*
X381000Y914400D02*
D03*
X355600Y863600D02*
D03*
Y762000D02*
D03*
X304800Y1168400D02*
D03*
X330200Y1117600D02*
D03*
Y1016000D02*
D03*
X304800Y965200D02*
D03*
X330200Y914400D02*
D03*
X304800Y863600D02*
D03*
X1195070Y1225550D02*
D03*
Y1162050D02*
D03*
X1019810Y1239520D02*
D03*
X1121410Y1225550D02*
D03*
Y1162050D02*
D03*
X1225550Y1090930D02*
D03*
X1135800Y1061510D02*
D03*
X1114210D02*
D03*
X1091350Y1060610D02*
D03*
X995680Y1197610D02*
D03*
X943610Y1235710D02*
D03*
X925830Y1140460D02*
D03*
X910590D02*
D03*
X891540Y1122680D02*
D03*
X944880Y1121410D02*
D03*
Y1107440D02*
D03*
X925830Y1089660D02*
D03*
X891540Y1108710D02*
D03*
X910590Y1089660D02*
D03*
X1144270Y989330D02*
D03*
X1140880Y1017430D02*
D03*
X1169670Y944880D02*
D03*
X1082460Y1020053D02*
D03*
X1088810Y976790D02*
D03*
X1131570Y891540D02*
D03*
X1111250Y882650D02*
D03*
X866884Y922683D02*
D03*
X827889Y959969D02*
D03*
X820420Y937347D02*
D03*
X828670Y928597D02*
D03*
X820420Y924847D02*
D03*
X883920Y830580D02*
D03*
X867410Y911860D02*
D03*
X679450Y1223010D02*
D03*
X651368Y1196482D02*
D03*
X615950Y1228090D02*
D03*
X585470Y1196340D02*
D03*
X801370Y1170940D02*
D03*
X773430Y1167130D02*
D03*
X774700Y1148080D02*
D03*
X739140Y1150620D02*
D03*
X549910Y1177290D02*
D03*
X523240Y1233096D02*
D03*
Y1210384D02*
D03*
X488950Y1170940D02*
D03*
X549910Y1154430D02*
D03*
X485140Y1150620D02*
D03*
X458470Y1132840D02*
D03*
X483870Y1123950D02*
D03*
X789940Y1009650D02*
D03*
X775275Y959545D02*
D03*
X552450Y1117600D02*
D03*
X717550Y960120D02*
D03*
X801370Y882650D02*
D03*
X771040Y866140D02*
D03*
X521970Y1117600D02*
D03*
X504190D02*
D03*
X500239Y1032651D02*
D03*
X485140Y1031240D02*
D03*
X457200Y1029970D02*
D03*
X453390Y1022350D02*
D03*
X480060Y1021080D02*
D03*
X321310Y995680D02*
D03*
X723900Y1223010D02*
D03*
X579120Y1172210D02*
D03*
X642620Y1183640D02*
D03*
X505460Y1140460D02*
D03*
X552450Y1210384D02*
D03*
X607060Y1182370D02*
D03*
X633577Y1191707D02*
D03*
X552450Y1233096D02*
D03*
X852170Y775970D02*
D03*
X712470Y836930D02*
D03*
X732790Y845820D02*
D03*
X1050290Y817880D02*
D03*
X1037590D02*
D03*
X887730Y1256180D02*
D03*
X904240Y1252220D02*
D03*
X732790Y855980D02*
D03*
X905510Y1198880D02*
D03*
X899160Y1214120D02*
D03*
X781427Y995087D02*
D03*
X802490Y1037590D02*
D03*
X817880Y1003300D02*
D03*
X800100Y984250D02*
D03*
X932180Y994410D02*
D03*
X906780D02*
D03*
X944880D02*
D03*
X919480D02*
D03*
X894080D02*
D03*
X803910Y1051560D02*
D03*
X792480Y1056640D02*
D03*
X1038860Y904240D02*
D03*
X1084580Y886460D02*
D03*
X770890Y811530D02*
D03*
X1089660Y1106170D02*
D03*
X1038860Y1084580D02*
D03*
X986790Y962660D02*
D03*
X1033780Y1023620D02*
D03*
X426720Y1150620D02*
D03*
X383540D02*
D03*
X873760Y955040D02*
D03*
X694690Y910590D02*
D03*
X730250Y944880D02*
D03*
X709930Y910590D02*
D03*
X784860Y935990D02*
D03*
X811530Y847090D02*
D03*
Y866140D02*
D03*
X814070Y825783D02*
D03*
X753110Y1158240D02*
D03*
X717550Y1065530D02*
D03*
X532130Y1055370D02*
D03*
X711200Y1007110D02*
D03*
X455930Y969010D02*
D03*
X481330D02*
D03*
X468630D02*
D03*
X786130Y815340D02*
D03*
X754683Y1010617D02*
D03*
X744220Y944880D02*
D03*
X893622Y952500D02*
D03*
X906780Y941070D02*
D03*
X919480Y929640D02*
D03*
X932180Y918210D02*
D03*
X1055370Y1023620D02*
D03*
X974090Y998220D02*
D03*
X986790Y991870D02*
D03*
X1104900Y998220D02*
D03*
X937260Y902970D02*
D03*
X805029Y1082191D02*
D03*
X944880Y858520D02*
D03*
X1151890Y810260D02*
D03*
X1056640Y858520D02*
D03*
X796290Y1087120D02*
D03*
X795020Y943610D02*
D03*
X844550Y1219200D02*
D03*
X929640Y1201420D02*
D03*
X955040D02*
D03*
X942340Y1207770D02*
D03*
X919480Y1211580D02*
D03*
X444500Y1082040D02*
D03*
X457200D02*
D03*
X469900D02*
D03*
X482600D02*
D03*
X481330Y947420D02*
D03*
X759460Y999490D02*
D03*
X740410Y1079500D02*
D03*
X788670Y1080770D02*
D03*
X744496Y1090115D02*
D03*
X742950Y1101090D02*
D03*
X740410Y1111250D02*
D03*
X760730Y1125220D02*
D03*
X778510D02*
D03*
X795020D02*
D03*
X787400Y1132840D02*
D03*
X769620D02*
D03*
D67*
X589590Y1213123D02*
D03*
X647390D02*
D03*
D68*
X575290Y1208123D02*
D03*
X661690D02*
D03*
D69*
X575290Y1249923D02*
D03*
X661690D02*
D03*
D70*
X1165860Y981080D02*
D03*
D71*
X375290Y1201420D02*
D03*
X435290D02*
D03*
X395290D02*
D03*
X415290D02*
D03*
D72*
X306070Y1072243D02*
D03*
X356070D02*
D03*
D73*
X1165860Y1001080D02*
D03*
Y1021080D02*
D03*
Y1041080D02*
D03*
D74*
X1244600Y793750D02*
D03*
Y1219200D02*
D03*
X304800D02*
D03*
Y793750D02*
D03*
D75*
X455290Y1201420D02*
D03*
D95*
X641350Y1231265D02*
D03*
Y1247775D02*
D03*
D96*
X615950Y1233032D02*
D03*
Y1248548D02*
D03*
M02*
